ISO-10303-21;
HEADER;
/* Generated by software containing ST-Developer
 * from STEP Tools, Inc. (www.steptools.com) 
 */
/* OPTION: using custom renumber hook */

FILE_DESCRIPTION(
/* description */ ('STEP AP242 Edition 2',
'CAx-IF Rec.Pracs.---Representation and Presentation of Product Manufa
cturing Information (PMI)---4.0---2014-10-13',
'CAx-IF Rec.Pracs.---3D Tessellated Geometry---0.4---2014-09-14','2;1',
'CAx-IF Rec.Pracs.---User Defined Attributes---1.5---2016-08-15'),
/* implementation_level */ '2;1');

FILE_NAME(
/* name */ 'Bottom Camera Mount',
/* time_stamp */ '2026-04-29T21:00:33Z',
/* author */ (''),
/* organization */ (''),
/* preprocessor_version */ 'ST-DEVELOPER v20',
/* originating_system */ 'ONSHAPE BY PTC INC, 1.214',
/* authorisation */ '  ');

FILE_SCHEMA (('AP242_MANAGED_MODEL_BASED_3D_ENGINEERING_MIM_LF { 1 0 10303 442 3 1 4 }'));
ENDSEC;

DATA;
#10=SHAPE_REPRESENTATION_RELATIONSHIP('','',#497,#11);
#11=ADVANCED_BREP_SHAPE_REPRESENTATION('',(#495),#791);
#12=CYLINDRICAL_SURFACE('',#527,0.0015);
#13=CYLINDRICAL_SURFACE('',#528,0.0015);
#14=CYLINDRICAL_SURFACE('',#529,0.0015);
#15=CYLINDRICAL_SURFACE('',#530,0.0015);
#16=CYLINDRICAL_SURFACE('',#531,0.0015);
#17=CYLINDRICAL_SURFACE('',#532,0.0015);
#18=CIRCLE('',#501,0.0015);
#19=CIRCLE('',#502,0.0015);
#20=CIRCLE('',#503,0.0015);
#21=CIRCLE('',#504,0.0015);
#22=CIRCLE('',#505,0.0015);
#23=CIRCLE('',#506,0.0015);
#24=CIRCLE('',#508,0.0015);
#25=CIRCLE('',#509,0.0015);
#26=CIRCLE('',#510,0.0015);
#27=CIRCLE('',#511,0.0015);
#28=CIRCLE('',#512,0.0015);
#29=CIRCLE('',#513,0.0015);
#30=ORIENTED_EDGE('',*,*,#150,.T.);
#31=ORIENTED_EDGE('',*,*,#151,.T.);
#32=ORIENTED_EDGE('',*,*,#152,.F.);
#33=ORIENTED_EDGE('',*,*,#153,.F.);
#34=ORIENTED_EDGE('',*,*,#154,.T.);
#35=ORIENTED_EDGE('',*,*,#155,.T.);
#36=ORIENTED_EDGE('',*,*,#156,.F.);
#37=ORIENTED_EDGE('',*,*,#157,.F.);
#38=ORIENTED_EDGE('',*,*,#158,.F.);
#39=ORIENTED_EDGE('',*,*,#159,.F.);
#40=ORIENTED_EDGE('',*,*,#160,.F.);
#41=ORIENTED_EDGE('',*,*,#161,.F.);
#42=ORIENTED_EDGE('',*,*,#162,.F.);
#43=ORIENTED_EDGE('',*,*,#163,.F.);
#44=ORIENTED_EDGE('',*,*,#164,.F.);
#45=ORIENTED_EDGE('',*,*,#165,.T.);
#46=ORIENTED_EDGE('',*,*,#166,.T.);
#47=ORIENTED_EDGE('',*,*,#167,.F.);
#48=ORIENTED_EDGE('',*,*,#168,.F.);
#49=ORIENTED_EDGE('',*,*,#169,.T.);
#50=ORIENTED_EDGE('',*,*,#170,.T.);
#51=ORIENTED_EDGE('',*,*,#171,.F.);
#52=ORIENTED_EDGE('',*,*,#172,.T.);
#53=ORIENTED_EDGE('',*,*,#173,.T.);
#54=ORIENTED_EDGE('',*,*,#174,.T.);
#55=ORIENTED_EDGE('',*,*,#175,.T.);
#56=ORIENTED_EDGE('',*,*,#176,.T.);
#57=ORIENTED_EDGE('',*,*,#177,.T.);
#58=ORIENTED_EDGE('',*,*,#178,.T.);
#59=ORIENTED_EDGE('',*,*,#179,.T.);
#60=ORIENTED_EDGE('',*,*,#180,.F.);
#61=ORIENTED_EDGE('',*,*,#181,.F.);
#62=ORIENTED_EDGE('',*,*,#151,.F.);
#63=ORIENTED_EDGE('',*,*,#182,.T.);
#64=ORIENTED_EDGE('',*,*,#183,.T.);
#65=ORIENTED_EDGE('',*,*,#184,.F.);
#66=ORIENTED_EDGE('',*,*,#178,.F.);
#67=ORIENTED_EDGE('',*,*,#185,.F.);
#68=ORIENTED_EDGE('',*,*,#164,.T.);
#69=ORIENTED_EDGE('',*,*,#186,.T.);
#70=ORIENTED_EDGE('',*,*,#181,.T.);
#71=ORIENTED_EDGE('',*,*,#187,.F.);
#72=ORIENTED_EDGE('',*,*,#165,.F.);
#73=ORIENTED_EDGE('',*,*,#185,.T.);
#74=ORIENTED_EDGE('',*,*,#180,.T.);
#75=ORIENTED_EDGE('',*,*,#188,.F.);
#76=ORIENTED_EDGE('',*,*,#166,.F.);
#77=ORIENTED_EDGE('',*,*,#187,.T.);
#78=ORIENTED_EDGE('',*,*,#179,.F.);
#79=ORIENTED_EDGE('',*,*,#186,.F.);
#80=ORIENTED_EDGE('',*,*,#167,.T.);
#81=ORIENTED_EDGE('',*,*,#188,.T.);
#82=ORIENTED_EDGE('',*,*,#182,.F.);
#83=ORIENTED_EDGE('',*,*,#150,.F.);
#84=ORIENTED_EDGE('',*,*,#189,.T.);
#85=ORIENTED_EDGE('',*,*,#190,.T.);
#86=ORIENTED_EDGE('',*,*,#183,.F.);
#87=ORIENTED_EDGE('',*,*,#190,.F.);
#88=ORIENTED_EDGE('',*,*,#191,.T.);
#89=ORIENTED_EDGE('',*,*,#192,.T.);
#90=ORIENTED_EDGE('',*,*,#152,.T.);
#91=ORIENTED_EDGE('',*,*,#184,.T.);
#92=ORIENTED_EDGE('',*,*,#192,.F.);
#93=ORIENTED_EDGE('',*,*,#193,.F.);
#94=ORIENTED_EDGE('',*,*,#153,.T.);
#95=ORIENTED_EDGE('',*,*,#193,.T.);
#96=ORIENTED_EDGE('',*,*,#191,.F.);
#97=ORIENTED_EDGE('',*,*,#189,.F.);
#98=ORIENTED_EDGE('',*,*,#194,.F.);
#99=ORIENTED_EDGE('',*,*,#195,.F.);
#100=ORIENTED_EDGE('',*,*,#196,.T.);
#101=ORIENTED_EDGE('',*,*,#197,.T.);
#102=ORIENTED_EDGE('',*,*,#198,.T.);
#103=ORIENTED_EDGE('',*,*,#169,.F.);
#104=ORIENTED_EDGE('',*,*,#199,.F.);
#105=ORIENTED_EDGE('',*,*,#200,.T.);
#106=ORIENTED_EDGE('',*,*,#168,.T.);
#107=ORIENTED_EDGE('',*,*,#201,.F.);
#108=ORIENTED_EDGE('',*,*,#202,.F.);
#109=ORIENTED_EDGE('',*,*,#199,.T.);
#110=ORIENTED_EDGE('',*,*,#171,.T.);
#111=ORIENTED_EDGE('',*,*,#203,.F.);
#112=ORIENTED_EDGE('',*,*,#204,.F.);
#113=ORIENTED_EDGE('',*,*,#201,.T.);
#114=ORIENTED_EDGE('',*,*,#170,.F.);
#115=ORIENTED_EDGE('',*,*,#198,.F.);
#116=ORIENTED_EDGE('',*,*,#205,.T.);
#117=ORIENTED_EDGE('',*,*,#203,.T.);
#118=ORIENTED_EDGE('',*,*,#197,.F.);
#119=ORIENTED_EDGE('',*,*,#206,.T.);
#120=ORIENTED_EDGE('',*,*,#154,.F.);
#121=ORIENTED_EDGE('',*,*,#207,.F.);
#122=ORIENTED_EDGE('',*,*,#200,.F.);
#123=ORIENTED_EDGE('',*,*,#202,.T.);
#124=ORIENTED_EDGE('',*,*,#204,.T.);
#125=ORIENTED_EDGE('',*,*,#205,.F.);
#126=ORIENTED_EDGE('',*,*,#163,.T.);
#127=ORIENTED_EDGE('',*,*,#177,.F.);
#128=ORIENTED_EDGE('',*,*,#162,.T.);
#129=ORIENTED_EDGE('',*,*,#176,.F.);
#130=ORIENTED_EDGE('',*,*,#161,.T.);
#131=ORIENTED_EDGE('',*,*,#175,.F.);
#132=ORIENTED_EDGE('',*,*,#160,.T.);
#133=ORIENTED_EDGE('',*,*,#174,.F.);
#134=ORIENTED_EDGE('',*,*,#159,.T.);
#135=ORIENTED_EDGE('',*,*,#173,.F.);
#136=ORIENTED_EDGE('',*,*,#158,.T.);
#137=ORIENTED_EDGE('',*,*,#172,.F.);
#138=ORIENTED_EDGE('',*,*,#194,.T.);
#139=ORIENTED_EDGE('',*,*,#207,.T.);
#140=ORIENTED_EDGE('',*,*,#157,.T.);
#141=ORIENTED_EDGE('',*,*,#208,.F.);
#142=ORIENTED_EDGE('',*,*,#195,.T.);
#143=ORIENTED_EDGE('',*,*,#208,.T.);
#144=ORIENTED_EDGE('',*,*,#156,.T.);
#145=ORIENTED_EDGE('',*,*,#209,.F.);
#146=ORIENTED_EDGE('',*,*,#209,.T.);
#147=ORIENTED_EDGE('',*,*,#155,.F.);
#148=ORIENTED_EDGE('',*,*,#206,.F.);
#149=ORIENTED_EDGE('',*,*,#196,.F.);
#150=EDGE_CURVE('',#210,#211,#254,.T.);
#151=EDGE_CURVE('',#211,#212,#255,.T.);
#152=EDGE_CURVE('',#213,#212,#256,.T.);
#153=EDGE_CURVE('',#210,#213,#257,.T.);
#154=EDGE_CURVE('',#214,#215,#258,.T.);
#155=EDGE_CURVE('',#215,#216,#259,.T.);
#156=EDGE_CURVE('',#217,#216,#260,.T.);
#157=EDGE_CURVE('',#214,#217,#261,.T.);
#158=EDGE_CURVE('',#218,#218,#18,.T.);
#159=EDGE_CURVE('',#219,#219,#19,.T.);
#160=EDGE_CURVE('',#220,#220,#20,.T.);
#161=EDGE_CURVE('',#221,#221,#21,.T.);
#162=EDGE_CURVE('',#222,#222,#22,.T.);
#163=EDGE_CURVE('',#223,#223,#23,.T.);
#164=EDGE_CURVE('',#224,#225,#262,.T.);
#165=EDGE_CURVE('',#224,#226,#263,.T.);
#166=EDGE_CURVE('',#226,#227,#264,.T.);
#167=EDGE_CURVE('',#225,#227,#265,.T.);
#168=EDGE_CURVE('',#228,#229,#266,.T.);
#169=EDGE_CURVE('',#228,#230,#267,.T.);
#170=EDGE_CURVE('',#230,#231,#268,.T.);
#171=EDGE_CURVE('',#229,#231,#269,.T.);
#172=EDGE_CURVE('',#232,#232,#24,.T.);
#173=EDGE_CURVE('',#233,#233,#25,.T.);
#174=EDGE_CURVE('',#234,#234,#26,.T.);
#175=EDGE_CURVE('',#235,#235,#27,.T.);
#176=EDGE_CURVE('',#236,#236,#28,.T.);
#177=EDGE_CURVE('',#237,#237,#29,.T.);
#178=EDGE_CURVE('',#238,#239,#270,.T.);
#179=EDGE_CURVE('',#239,#240,#271,.T.);
#180=EDGE_CURVE('',#241,#240,#272,.T.);
#181=EDGE_CURVE('',#238,#241,#273,.T.);
#182=EDGE_CURVE('',#211,#242,#274,.T.);
#183=EDGE_CURVE('',#242,#243,#275,.T.);
#184=EDGE_CURVE('',#212,#243,#276,.T.);
#185=EDGE_CURVE('',#224,#238,#277,.T.);
#186=EDGE_CURVE('',#225,#239,#278,.T.);
#187=EDGE_CURVE('',#226,#241,#279,.T.);
#188=EDGE_CURVE('',#227,#240,#280,.T.);
#189=EDGE_CURVE('',#210,#244,#281,.T.);
#190=EDGE_CURVE('',#244,#242,#282,.T.);
#191=EDGE_CURVE('',#244,#245,#283,.T.);
#192=EDGE_CURVE('',#245,#243,#284,.T.);
#193=EDGE_CURVE('',#213,#245,#285,.T.);
#194=EDGE_CURVE('',#246,#247,#286,.T.);
#195=EDGE_CURVE('',#248,#246,#287,.T.);
#196=EDGE_CURVE('',#248,#249,#288,.T.);
#197=EDGE_CURVE('',#249,#250,#289,.T.);
#198=EDGE_CURVE('',#250,#230,#290,.T.);
#199=EDGE_CURVE('',#251,#228,#291,.T.);
#200=EDGE_CURVE('',#251,#247,#292,.T.);
#201=EDGE_CURVE('',#252,#229,#293,.T.);
#202=EDGE_CURVE('',#251,#252,#294,.T.);
#203=EDGE_CURVE('',#253,#231,#295,.T.);
#204=EDGE_CURVE('',#252,#253,#296,.T.);
#205=EDGE_CURVE('',#250,#253,#297,.T.);
#206=EDGE_CURVE('',#249,#215,#298,.T.);
#207=EDGE_CURVE('',#247,#214,#299,.T.);
#208=EDGE_CURVE('',#246,#217,#300,.T.);
#209=EDGE_CURVE('',#248,#216,#301,.T.);
#210=VERTEX_POINT('',#663);
#211=VERTEX_POINT('',#664);
#212=VERTEX_POINT('',#666);
#213=VERTEX_POINT('',#668);
#214=VERTEX_POINT('',#671);
#215=VERTEX_POINT('',#672);
#216=VERTEX_POINT('',#674);
#217=VERTEX_POINT('',#676);
#218=VERTEX_POINT('',#680);
#219=VERTEX_POINT('',#682);
#220=VERTEX_POINT('',#684);
#221=VERTEX_POINT('',#686);
#222=VERTEX_POINT('',#688);
#223=VERTEX_POINT('',#690);
#224=VERTEX_POINT('',#692);
#225=VERTEX_POINT('',#693);
#226=VERTEX_POINT('',#695);
#227=VERTEX_POINT('',#697);
#228=VERTEX_POINT('',#700);
#229=VERTEX_POINT('',#701);
#230=VERTEX_POINT('',#703);
#231=VERTEX_POINT('',#705);
#232=VERTEX_POINT('',#709);
#233=VERTEX_POINT('',#711);
#234=VERTEX_POINT('',#713);
#235=VERTEX_POINT('',#715);
#236=VERTEX_POINT('',#717);
#237=VERTEX_POINT('',#719);
#238=VERTEX_POINT('',#721);
#239=VERTEX_POINT('',#722);
#240=VERTEX_POINT('',#724);
#241=VERTEX_POINT('',#726);
#242=VERTEX_POINT('',#729);
#243=VERTEX_POINT('',#731);
#244=VERTEX_POINT('',#743);
#245=VERTEX_POINT('',#747);
#246=VERTEX_POINT('',#754);
#247=VERTEX_POINT('',#755);
#248=VERTEX_POINT('',#757);
#249=VERTEX_POINT('',#759);
#250=VERTEX_POINT('',#761);
#251=VERTEX_POINT('',#764);
#252=VERTEX_POINT('',#768);
#253=VERTEX_POINT('',#772);
#254=LINE('',#662,#302);
#255=LINE('',#665,#303);
#256=LINE('',#667,#304);
#257=LINE('',#669,#305);
#258=LINE('',#670,#306);
#259=LINE('',#673,#307);
#260=LINE('',#675,#308);
#261=LINE('',#677,#309);
#262=LINE('',#691,#310);
#263=LINE('',#694,#311);
#264=LINE('',#696,#312);
#265=LINE('',#698,#313);
#266=LINE('',#699,#314);
#267=LINE('',#702,#315);
#268=LINE('',#704,#316);
#269=LINE('',#706,#317);
#270=LINE('',#720,#318);
#271=LINE('',#723,#319);
#272=LINE('',#725,#320);
#273=LINE('',#727,#321);
#274=LINE('',#728,#322);
#275=LINE('',#730,#323);
#276=LINE('',#732,#324);
#277=LINE('',#734,#325);
#278=LINE('',#735,#326);
#279=LINE('',#737,#327);
#280=LINE('',#739,#328);
#281=LINE('',#742,#329);
#282=LINE('',#744,#330);
#283=LINE('',#746,#331);
#284=LINE('',#748,#332);
#285=LINE('',#750,#333);
#286=LINE('',#753,#334);
#287=LINE('',#756,#335);
#288=LINE('',#758,#336);
#289=LINE('',#760,#337);
#290=LINE('',#762,#338);
#291=LINE('',#763,#339);
#292=LINE('',#765,#340);
#293=LINE('',#767,#341);
#294=LINE('',#769,#342);
#295=LINE('',#771,#343);
#296=LINE('',#773,#344);
#297=LINE('',#775,#345);
#298=LINE('',#777,#346);
#299=LINE('',#778,#347);
#300=LINE('',#786,#348);
#301=LINE('',#788,#349);
#302=VECTOR('',#540,1.);
#303=VECTOR('',#541,1.);
#304=VECTOR('',#542,1.);
#305=VECTOR('',#543,1.);
#306=VECTOR('',#544,1.);
#307=VECTOR('',#545,1.);
#308=VECTOR('',#546,1.);
#309=VECTOR('',#547,1.);
#310=VECTOR('',#562,1.);
#311=VECTOR('',#563,1.);
#312=VECTOR('',#564,1.);
#313=VECTOR('',#565,1.);
#314=VECTOR('',#566,1.);
#315=VECTOR('',#567,1.);
#316=VECTOR('',#568,1.);
#317=VECTOR('',#569,1.);
#318=VECTOR('',#584,1.);
#319=VECTOR('',#585,1.);
#320=VECTOR('',#586,1.);
#321=VECTOR('',#587,1.);
#322=VECTOR('',#588,1.);
#323=VECTOR('',#589,1.);
#324=VECTOR('',#590,1.);
#325=VECTOR('',#593,1.);
#326=VECTOR('',#594,1.);
#327=VECTOR('',#597,1.);
#328=VECTOR('',#600,1.);
#329=VECTOR('',#605,1.);
#330=VECTOR('',#606,1.);
#331=VECTOR('',#609,1.);
#332=VECTOR('',#610,1.);
#333=VECTOR('',#613,1.);
#334=VECTOR('',#618,1.);
#335=VECTOR('',#619,1.);
#336=VECTOR('',#620,1.);
#337=VECTOR('',#621,1.);
#338=VECTOR('',#622,1.);
#339=VECTOR('',#623,1.);
#340=VECTOR('',#624,1.);
#341=VECTOR('',#627,1.);
#342=VECTOR('',#628,1.);
#343=VECTOR('',#631,1.);
#344=VECTOR('',#632,1.);
#345=VECTOR('',#635,1.);
#346=VECTOR('',#638,1.);
#347=VECTOR('',#639,1.);
#348=VECTOR('',#654,1.);
#349=VECTOR('',#657,1.);
#350=EDGE_LOOP('',(#30,#31,#32,#33));
#351=EDGE_LOOP('',(#34,#35,#36,#37));
#352=EDGE_LOOP('',(#38));
#353=EDGE_LOOP('',(#39));
#354=EDGE_LOOP('',(#40));
#355=EDGE_LOOP('',(#41));
#356=EDGE_LOOP('',(#42));
#357=EDGE_LOOP('',(#43));
#358=EDGE_LOOP('',(#44,#45,#46,#47));
#359=EDGE_LOOP('',(#48,#49,#50,#51));
#360=EDGE_LOOP('',(#52));
#361=EDGE_LOOP('',(#53));
#362=EDGE_LOOP('',(#54));
#363=EDGE_LOOP('',(#55));
#364=EDGE_LOOP('',(#56));
#365=EDGE_LOOP('',(#57));
#366=EDGE_LOOP('',(#58,#59,#60,#61));
#367=EDGE_LOOP('',(#62,#63,#64,#65));
#368=EDGE_LOOP('',(#66,#67,#68,#69));
#369=EDGE_LOOP('',(#70,#71,#72,#73));
#370=EDGE_LOOP('',(#74,#75,#76,#77));
#371=EDGE_LOOP('',(#78,#79,#80,#81));
#372=EDGE_LOOP('',(#82,#83,#84,#85));
#373=EDGE_LOOP('',(#86,#87,#88,#89));
#374=EDGE_LOOP('',(#90,#91,#92,#93));
#375=EDGE_LOOP('',(#94,#95,#96,#97));
#376=EDGE_LOOP('',(#98,#99,#100,#101,#102,#103,#104,#105));
#377=EDGE_LOOP('',(#106,#107,#108,#109));
#378=EDGE_LOOP('',(#110,#111,#112,#113));
#379=EDGE_LOOP('',(#114,#115,#116,#117));
#380=EDGE_LOOP('',(#118,#119,#120,#121,#122,#123,#124,#125));
#381=EDGE_LOOP('',(#126));
#382=EDGE_LOOP('',(#127));
#383=EDGE_LOOP('',(#128));
#384=EDGE_LOOP('',(#129));
#385=EDGE_LOOP('',(#130));
#386=EDGE_LOOP('',(#131));
#387=EDGE_LOOP('',(#132));
#388=EDGE_LOOP('',(#133));
#389=EDGE_LOOP('',(#134));
#390=EDGE_LOOP('',(#135));
#391=EDGE_LOOP('',(#136));
#392=EDGE_LOOP('',(#137));
#393=EDGE_LOOP('',(#138,#139,#140,#141));
#394=EDGE_LOOP('',(#142,#143,#144,#145));
#395=EDGE_LOOP('',(#146,#147,#148,#149));
#396=FACE_BOUND('',#350,.T.);
#397=FACE_BOUND('',#351,.T.);
#398=FACE_BOUND('',#352,.T.);
#399=FACE_BOUND('',#353,.T.);
#400=FACE_BOUND('',#354,.T.);
#401=FACE_BOUND('',#355,.T.);
#402=FACE_BOUND('',#356,.T.);
#403=FACE_BOUND('',#357,.T.);
#404=FACE_BOUND('',#358,.T.);
#405=FACE_BOUND('',#359,.T.);
#406=FACE_BOUND('',#360,.T.);
#407=FACE_BOUND('',#361,.T.);
#408=FACE_BOUND('',#362,.T.);
#409=FACE_BOUND('',#363,.T.);
#410=FACE_BOUND('',#364,.T.);
#411=FACE_BOUND('',#365,.T.);
#412=FACE_BOUND('',#366,.T.);
#413=FACE_BOUND('',#367,.T.);
#414=FACE_BOUND('',#368,.T.);
#415=FACE_BOUND('',#369,.T.);
#416=FACE_BOUND('',#370,.T.);
#417=FACE_BOUND('',#371,.T.);
#418=FACE_BOUND('',#372,.T.);
#419=FACE_BOUND('',#373,.T.);
#420=FACE_BOUND('',#374,.T.);
#421=FACE_BOUND('',#375,.T.);
#422=FACE_BOUND('',#376,.T.);
#423=FACE_BOUND('',#377,.T.);
#424=FACE_BOUND('',#378,.T.);
#425=FACE_BOUND('',#379,.T.);
#426=FACE_BOUND('',#380,.T.);
#427=FACE_BOUND('',#381,.T.);
#428=FACE_BOUND('',#382,.T.);
#429=FACE_BOUND('',#383,.T.);
#430=FACE_BOUND('',#384,.T.);
#431=FACE_BOUND('',#385,.T.);
#432=FACE_BOUND('',#386,.T.);
#433=FACE_BOUND('',#387,.T.);
#434=FACE_BOUND('',#388,.T.);
#435=FACE_BOUND('',#389,.T.);
#436=FACE_BOUND('',#390,.T.);
#437=FACE_BOUND('',#391,.T.);
#438=FACE_BOUND('',#392,.T.);
#439=FACE_BOUND('',#393,.T.);
#440=FACE_BOUND('',#394,.T.);
#441=FACE_BOUND('',#395,.T.);
#442=PLANE('',#499);
#443=PLANE('',#500);
#444=PLANE('',#507);
#445=PLANE('',#514);
#446=PLANE('',#515);
#447=PLANE('',#516);
#448=PLANE('',#517);
#449=PLANE('',#518);
#450=PLANE('',#519);
#451=PLANE('',#520);
#452=PLANE('',#521);
#453=PLANE('',#522);
#454=PLANE('',#523);
#455=PLANE('',#524);
#456=PLANE('',#525);
#457=PLANE('',#526);
#458=PLANE('',#533);
#459=PLANE('',#534);
#460=PLANE('',#535);
#461=ADVANCED_FACE('',(#396,#397),#442,.F.);
#462=ADVANCED_FACE('',(#398,#399,#400,#401,#402,#403,#404,#405),#443,.T.);
#463=ADVANCED_FACE('',(#406,#407,#408,#409,#410,#411,#412,#413),#444,.F.);
#464=ADVANCED_FACE('',(#414),#445,.T.);
#465=ADVANCED_FACE('',(#415),#446,.F.);
#466=ADVANCED_FACE('',(#416),#447,.F.);
#467=ADVANCED_FACE('',(#417),#448,.T.);
#468=ADVANCED_FACE('',(#418),#449,.T.);
#469=ADVANCED_FACE('',(#419),#450,.T.);
#470=ADVANCED_FACE('',(#420),#451,.F.);
#471=ADVANCED_FACE('',(#421),#452,.F.);
#472=ADVANCED_FACE('',(#422),#453,.T.);
#473=ADVANCED_FACE('',(#423),#454,.F.);
#474=ADVANCED_FACE('',(#424),#455,.F.);
#475=ADVANCED_FACE('',(#425),#456,.T.);
#476=ADVANCED_FACE('',(#426),#457,.T.);
#477=ADVANCED_FACE('',(#427,#428),#12,.F.);
#478=ADVANCED_FACE('',(#429,#430),#13,.F.);
#479=ADVANCED_FACE('',(#431,#432),#14,.F.);
#480=ADVANCED_FACE('',(#433,#434),#15,.F.);
#481=ADVANCED_FACE('',(#435,#436),#16,.F.);
#482=ADVANCED_FACE('',(#437,#438),#17,.F.);
#483=ADVANCED_FACE('',(#439),#458,.F.);
#484=ADVANCED_FACE('',(#440),#459,.F.);
#485=ADVANCED_FACE('',(#441),#460,.T.);
#486=CLOSED_SHELL('',(#461,#462,#463,#464,#465,#466,#467,#468,#469,#470,
#471,#472,#473,#474,#475,#476,#477,#478,#479,#480,#481,#482,#483,#484,#485));
#487=STYLED_ITEM('',(#488),#495);
#488=PRESENTATION_STYLE_ASSIGNMENT((#489));
#489=SURFACE_STYLE_USAGE(.BOTH.,#490);
#490=SURFACE_SIDE_STYLE('',(#491));
#491=SURFACE_STYLE_FILL_AREA(#492);
#492=FILL_AREA_STYLE('',(#493));
#493=FILL_AREA_STYLE_COLOUR('',#494);
#494=COLOUR_RGB('',0.615686274509804,0.811764705882353,0.929411764705882);
#495=MANIFOLD_SOLID_BREP('Part 1',#486);
#496=SHAPE_DEFINITION_REPRESENTATION(#796,#497);
#497=SHAPE_REPRESENTATION('Part 1',(#498),#791);
#498=AXIS2_PLACEMENT_3D('',#660,#536,#537);
#499=AXIS2_PLACEMENT_3D('',#661,#538,#539);
#500=AXIS2_PLACEMENT_3D('',#678,#548,#549);
#501=AXIS2_PLACEMENT_3D('',#679,#550,#551);
#502=AXIS2_PLACEMENT_3D('',#681,#552,#553);
#503=AXIS2_PLACEMENT_3D('',#683,#554,#555);
#504=AXIS2_PLACEMENT_3D('',#685,#556,#557);
#505=AXIS2_PLACEMENT_3D('',#687,#558,#559);
#506=AXIS2_PLACEMENT_3D('',#689,#560,#561);
#507=AXIS2_PLACEMENT_3D('',#707,#570,#571);
#508=AXIS2_PLACEMENT_3D('',#708,#572,#573);
#509=AXIS2_PLACEMENT_3D('',#710,#574,#575);
#510=AXIS2_PLACEMENT_3D('',#712,#576,#577);
#511=AXIS2_PLACEMENT_3D('',#714,#578,#579);
#512=AXIS2_PLACEMENT_3D('',#716,#580,#581);
#513=AXIS2_PLACEMENT_3D('',#718,#582,#583);
#514=AXIS2_PLACEMENT_3D('',#733,#591,#592);
#515=AXIS2_PLACEMENT_3D('',#736,#595,#596);
#516=AXIS2_PLACEMENT_3D('',#738,#598,#599);
#517=AXIS2_PLACEMENT_3D('',#740,#601,#602);
#518=AXIS2_PLACEMENT_3D('',#741,#603,#604);
#519=AXIS2_PLACEMENT_3D('',#745,#607,#608);
#520=AXIS2_PLACEMENT_3D('',#749,#611,#612);
#521=AXIS2_PLACEMENT_3D('',#751,#614,#615);
#522=AXIS2_PLACEMENT_3D('',#752,#616,#617);
#523=AXIS2_PLACEMENT_3D('',#766,#625,#626);
#524=AXIS2_PLACEMENT_3D('',#770,#629,#630);
#525=AXIS2_PLACEMENT_3D('',#774,#633,#634);
#526=AXIS2_PLACEMENT_3D('',#776,#636,#637);
#527=AXIS2_PLACEMENT_3D('',#779,#640,#641);
#528=AXIS2_PLACEMENT_3D('',#780,#642,#643);
#529=AXIS2_PLACEMENT_3D('',#781,#644,#645);
#530=AXIS2_PLACEMENT_3D('',#782,#646,#647);
#531=AXIS2_PLACEMENT_3D('',#783,#648,#649);
#532=AXIS2_PLACEMENT_3D('',#784,#650,#651);
#533=AXIS2_PLACEMENT_3D('',#785,#652,#653);
#534=AXIS2_PLACEMENT_3D('',#787,#655,#656);
#535=AXIS2_PLACEMENT_3D('',#789,#658,#659);
#536=DIRECTION('',(0.,0.,1.));
#537=DIRECTION('',(1.,0.,0.));
#538=DIRECTION('',(-1.,0.,0.));
#539=DIRECTION('',(0.,0.,1.));
#540=DIRECTION('',(0.,-1.,0.));
#541=DIRECTION('',(0.,0.,-1.));
#542=DIRECTION('',(0.,-1.,0.));
#543=DIRECTION('',(0.,0.,-1.));
#544=DIRECTION('',(0.,0.,-1.));
#545=DIRECTION('',(0.,-1.,0.));
#546=DIRECTION('',(0.,0.,-1.));
#547=DIRECTION('',(0.,-1.,0.));
#548=DIRECTION('',(0.,-1.,0.));
#549=DIRECTION('',(1.,0.,0.));
#550=DIRECTION('',(0.,-1.,0.));
#551=DIRECTION('',(0.,0.,-1.));
#552=DIRECTION('',(0.,-1.,0.));
#553=DIRECTION('',(0.,0.,-1.));
#554=DIRECTION('',(0.,-1.,0.));
#555=DIRECTION('',(0.,0.,-1.));
#556=DIRECTION('',(0.,-1.,0.));
#557=DIRECTION('',(0.,0.,-1.));
#558=DIRECTION('',(0.,-1.,0.));
#559=DIRECTION('',(0.,0.,-1.));
#560=DIRECTION('',(0.,-1.,0.));
#561=DIRECTION('',(0.,0.,-1.));
#562=DIRECTION('',(1.7347234759768E-16,0.,-1.));
#563=DIRECTION('',(-1.,0.,0.));
#564=DIRECTION('',(1.7347234759768E-16,0.,-1.));
#565=DIRECTION('',(-1.,0.,0.));
#566=DIRECTION('',(-1.,0.,-2.34049992790522E-16));
#567=DIRECTION('',(0.,0.,-1.));
#568=DIRECTION('',(-1.,0.,-2.47817639425258E-16));
#569=DIRECTION('',(1.7347234759768E-16,0.,-1.));
#570=DIRECTION('',(0.,-1.,0.));
#571=DIRECTION('',(1.,0.,0.));
#572=DIRECTION('',(0.,-1.,0.));
#573=DIRECTION('',(0.,0.,-1.));
#574=DIRECTION('',(0.,-1.,0.));
#575=DIRECTION('',(0.,0.,-1.));
#576=DIRECTION('',(0.,-1.,0.));
#577=DIRECTION('',(0.,0.,-1.));
#578=DIRECTION('',(0.,-1.,0.));
#579=DIRECTION('',(0.,0.,-1.));
#580=DIRECTION('',(0.,-1.,0.));
#581=DIRECTION('',(0.,0.,-1.));
#582=DIRECTION('',(0.,-1.,0.));
#583=DIRECTION('',(0.,0.,-1.));
#584=DIRECTION('',(1.7347234759768E-16,0.,-1.));
#585=DIRECTION('',(-1.,0.,0.));
#586=DIRECTION('',(1.7347234759768E-16,0.,-1.));
#587=DIRECTION('',(-1.,0.,0.));
#588=DIRECTION('',(-1.,0.,-1.21972744404619E-16));
#589=DIRECTION('',(3.1540426835942E-16,0.,-1.));
#590=DIRECTION('',(-1.,0.,-1.35525271560688E-16));
#591=DIRECTION('',(1.,0.,1.7347234759768E-16));
#592=DIRECTION('',(1.7347234759768E-16,0.,-1.));
#593=DIRECTION('',(0.,1.,0.));
#594=DIRECTION('',(0.,1.,0.));
#595=DIRECTION('',(0.,0.,-1.));
#596=DIRECTION('',(-1.,0.,0.));
#597=DIRECTION('',(0.,1.,0.));
#598=DIRECTION('',(1.,0.,1.7347234759768E-16));
#599=DIRECTION('',(1.7347234759768E-16,0.,-1.));
#600=DIRECTION('',(0.,1.,0.));
#601=DIRECTION('',(0.,0.,-1.));
#602=DIRECTION('',(-1.,0.,0.));
#603=DIRECTION('',(-1.21972744404619E-16,0.,1.));
#604=DIRECTION('',(1.,0.,1.21972744404619E-16));
#605=DIRECTION('',(-1.,0.,-1.21972744404619E-16));
#606=DIRECTION('',(0.,-1.,0.));
#607=DIRECTION('',(-1.,0.,-3.1540426835942E-16));
#608=DIRECTION('',(-3.1540426835942E-16,0.,1.));
#609=DIRECTION('',(3.1540426835942E-16,0.,-1.));
#610=DIRECTION('',(0.,-1.,0.));
#611=DIRECTION('',(-1.35525271560688E-16,0.,1.));
#612=DIRECTION('',(1.,0.,1.35525271560688E-16));
#613=DIRECTION('',(-1.,0.,-1.35525271560688E-16));
#614=DIRECTION('',(0.,-1.,0.));
#615=DIRECTION('',(1.,0.,0.));
#616=DIRECTION('',(-1.,0.,0.));
#617=DIRECTION('',(0.,0.,1.));
#618=DIRECTION('',(0.,1.,0.));
#619=DIRECTION('',(0.,0.,1.));
#620=DIRECTION('',(0.,1.,0.));
#621=DIRECTION('',(0.,0.,-1.));
#622=DIRECTION('',(0.,-1.,0.));
#623=DIRECTION('',(0.,-1.,0.));
#624=DIRECTION('',(0.,0.,-1.));
#625=DIRECTION('',(-2.34049992790522E-16,0.,1.));
#626=DIRECTION('',(1.,0.,2.34049992790522E-16));
#627=DIRECTION('',(0.,-1.,0.));
#628=DIRECTION('',(-1.,0.,-2.34049992790522E-16));
#629=DIRECTION('',(-1.,0.,-1.7347234759768E-16));
#630=DIRECTION('',(-1.7347234759768E-16,0.,1.));
#631=DIRECTION('',(0.,-1.,0.));
#632=DIRECTION('',(1.7347234759768E-16,0.,-1.));
#633=DIRECTION('',(-2.47817639425258E-16,0.,1.));
#634=DIRECTION('',(1.,0.,2.47817639425258E-16));
#635=DIRECTION('',(-1.,0.,-2.47817639425258E-16));
#636=DIRECTION('',(0.,-1.,0.));
#637=DIRECTION('',(1.,0.,0.));
#638=DIRECTION('',(1.,0.,0.));
#639=DIRECTION('',(1.,0.,0.));
#640=DIRECTION('',(0.,-1.,0.));
#641=DIRECTION('',(0.,0.,-1.));
#642=DIRECTION('',(0.,-1.,0.));
#643=DIRECTION('',(0.,0.,-1.));
#644=DIRECTION('',(0.,-1.,0.));
#645=DIRECTION('',(0.,0.,-1.));
#646=DIRECTION('',(0.,-1.,0.));
#647=DIRECTION('',(0.,0.,-1.));
#648=DIRECTION('',(0.,-1.,0.));
#649=DIRECTION('',(0.,0.,-1.));
#650=DIRECTION('',(0.,-1.,0.));
#651=DIRECTION('',(0.,0.,-1.));
#652=DIRECTION('',(0.,0.,1.));
#653=DIRECTION('',(1.,0.,0.));
#654=DIRECTION('',(1.,0.,0.));
#655=DIRECTION('',(0.,-1.,0.));
#656=DIRECTION('',(0.,0.,-1.));
#657=DIRECTION('',(1.,0.,0.));
#658=DIRECTION('',(0.,0.,1.));
#659=DIRECTION('',(1.,0.,0.));
#660=CARTESIAN_POINT('',(0.,0.,0.));
#661=CARTESIAN_POINT('',(0.05,0.012,-1.90819582357449E-17));
#662=CARTESIAN_POINT('',(0.05,0.012,0.0055));
#663=CARTESIAN_POINT('',(0.05,0.012,0.0055));
#664=CARTESIAN_POINT('',(0.05,0.,0.0055));
#665=CARTESIAN_POINT('',(0.05,0.,0.));
#666=CARTESIAN_POINT('',(0.05,0.,-0.0055));
#667=CARTESIAN_POINT('',(0.05,0.012,-0.0055));
#668=CARTESIAN_POINT('',(0.05,0.012,-0.0055));
#669=CARTESIAN_POINT('',(0.05,0.012,-1.90819582357449E-17));
#670=CARTESIAN_POINT('',(0.05,0.011,0.));
#671=CARTESIAN_POINT('',(0.05,0.011,0.0045));
#672=CARTESIAN_POINT('',(0.05,0.011,-0.0045));
#673=CARTESIAN_POINT('',(0.05,0.006,-0.0045));
#674=CARTESIAN_POINT('',(0.05,0.001,-0.0045));
#675=CARTESIAN_POINT('',(0.05,0.001,0.));
#676=CARTESIAN_POINT('',(0.05,0.001,0.0045));
#677=CARTESIAN_POINT('',(0.05,0.006,0.0045));
#678=CARTESIAN_POINT('',(0.,-0.001,0.));
#679=CARTESIAN_POINT('',(0.051,-0.001,0.016));
#680=CARTESIAN_POINT('',(0.051,-0.001,0.0145));
#681=CARTESIAN_POINT('',(0.051,-0.001,-0.016));
#682=CARTESIAN_POINT('',(0.051,-0.001,-0.0175));
#683=CARTESIAN_POINT('',(-0.051,-0.001,-0.016));
#684=CARTESIAN_POINT('',(-0.051,-0.001,-0.0175));
#685=CARTESIAN_POINT('',(0.,-0.001,0.016));
#686=CARTESIAN_POINT('',(0.,-0.001,0.0145));
#687=CARTESIAN_POINT('',(0.,-0.001,-0.016));
#688=CARTESIAN_POINT('',(0.,-0.001,-0.0175));
#689=CARTESIAN_POINT('',(-0.051,-0.001,0.016));
#690=CARTESIAN_POINT('',(-0.051,-0.001,0.0145));
#691=CARTESIAN_POINT('',(0.055,-0.001,0.));
#692=CARTESIAN_POINT('',(0.055,-0.001,0.02));
#693=CARTESIAN_POINT('',(0.055,-0.001,-0.02));
#694=CARTESIAN_POINT('',(-6.93889390390723E-18,-0.001,0.02));
#695=CARTESIAN_POINT('',(-0.055,-0.001,0.02));
#696=CARTESIAN_POINT('',(-0.055,-0.001,0.));
#697=CARTESIAN_POINT('',(-0.055,-0.001,-0.02));
#698=CARTESIAN_POINT('',(0.,-0.001,-0.02));
#699=CARTESIAN_POINT('',(0.018,-0.001,0.005));
#700=CARTESIAN_POINT('',(0.0495,-0.001,0.005));
#701=CARTESIAN_POINT('',(-0.0135,-0.001,0.005));
#702=CARTESIAN_POINT('',(0.0495,-0.001,3.46944695195361E-18));
#703=CARTESIAN_POINT('',(0.0495,-0.001,-0.005));
#704=CARTESIAN_POINT('',(0.018,-0.001,-0.005));
#705=CARTESIAN_POINT('',(-0.0135,-0.001,-0.005));
#706=CARTESIAN_POINT('',(-0.0135,-0.001,-1.21430643318376E-17));
#707=CARTESIAN_POINT('',(0.,0.,0.));
#708=CARTESIAN_POINT('',(0.051,0.,0.016));
#709=CARTESIAN_POINT('',(0.051,0.,0.0145));
#710=CARTESIAN_POINT('',(0.051,0.,-0.016));
#711=CARTESIAN_POINT('',(0.051,0.,-0.0175));
#712=CARTESIAN_POINT('',(-0.051,0.,-0.016));
#713=CARTESIAN_POINT('',(-0.051,0.,-0.0175));
#714=CARTESIAN_POINT('',(0.,0.,0.016));
#715=CARTESIAN_POINT('',(0.,0.,0.0145));
#716=CARTESIAN_POINT('',(0.,0.,-0.016));
#717=CARTESIAN_POINT('',(0.,0.,-0.0175));
#718=CARTESIAN_POINT('',(-0.051,0.,0.016));
#719=CARTESIAN_POINT('',(-0.051,0.,0.0145));
#720=CARTESIAN_POINT('',(0.055,0.,0.));
#721=CARTESIAN_POINT('',(0.055,0.,0.02));
#722=CARTESIAN_POINT('',(0.055,0.,-0.02));
#723=CARTESIAN_POINT('',(0.,0.,-0.02));
#724=CARTESIAN_POINT('',(-0.055,0.,-0.02));
#725=CARTESIAN_POINT('',(-0.055,0.,0.));
#726=CARTESIAN_POINT('',(-0.055,0.,0.02));
#727=CARTESIAN_POINT('',(-6.93889390390723E-18,0.,0.02));
#728=CARTESIAN_POINT('',(-6.70850094225403E-19,0.,0.0055));
#729=CARTESIAN_POINT('',(-0.014,0.,0.0055));
#730=CARTESIAN_POINT('',(-0.014,0.,-4.41565975703187E-18));
#731=CARTESIAN_POINT('',(-0.014,0.,-0.0055));
#732=CARTESIAN_POINT('',(7.45388993583788E-19,0.,-0.0055));
#733=CARTESIAN_POINT('',(0.055,-0.001,0.));
#734=CARTESIAN_POINT('',(0.055,-0.001,0.02));
#735=CARTESIAN_POINT('',(0.055,-0.001,-0.02));
#736=CARTESIAN_POINT('',(-6.93889390390723E-18,-0.001,0.02));
#737=CARTESIAN_POINT('',(-0.055,-0.001,0.02));
#738=CARTESIAN_POINT('',(-0.055,-0.001,0.));
#739=CARTESIAN_POINT('',(-0.055,-0.001,-0.02));
#740=CARTESIAN_POINT('',(0.,-0.001,-0.02));
#741=CARTESIAN_POINT('',(0.018,0.012,0.0055));
#742=CARTESIAN_POINT('',(0.018,0.012,0.0055));
#743=CARTESIAN_POINT('',(-0.014,0.012,0.0055));
#744=CARTESIAN_POINT('',(-0.014,0.012,0.0055));
#745=CARTESIAN_POINT('',(-0.014,0.012,-2.64545330086463E-17));
#746=CARTESIAN_POINT('',(-0.014,0.012,-2.64545330086463E-17));
#747=CARTESIAN_POINT('',(-0.014,0.012,-0.0055));
#748=CARTESIAN_POINT('',(-0.014,0.012,-0.0055));
#749=CARTESIAN_POINT('',(0.018,0.012,-0.0055));
#750=CARTESIAN_POINT('',(0.018,0.012,-0.0055));
#751=CARTESIAN_POINT('',(0.,0.012,0.));
#752=CARTESIAN_POINT('',(0.0495,0.011,3.46944695195361E-18));
#753=CARTESIAN_POINT('',(0.0495,0.011,0.0045));
#754=CARTESIAN_POINT('',(0.0495,0.001,0.0045));
#755=CARTESIAN_POINT('',(0.0495,0.011,0.0045));
#756=CARTESIAN_POINT('',(0.0495,0.001,3.46944695195361E-18));
#757=CARTESIAN_POINT('',(0.0495,0.001,-0.0045));
#758=CARTESIAN_POINT('',(0.0495,0.011,-0.0045));
#759=CARTESIAN_POINT('',(0.0495,0.011,-0.0045));
#760=CARTESIAN_POINT('',(0.0495,0.011,3.46944695195361E-18));
#761=CARTESIAN_POINT('',(0.0495,0.011,-0.005));
#762=CARTESIAN_POINT('',(0.0495,0.011,-0.005));
#763=CARTESIAN_POINT('',(0.0495,0.011,0.005));
#764=CARTESIAN_POINT('',(0.0495,0.011,0.005));
#765=CARTESIAN_POINT('',(0.0495,0.011,3.46944695195361E-18));
#766=CARTESIAN_POINT('',(0.018,0.011,0.005));
#767=CARTESIAN_POINT('',(-0.0135,0.011,0.005));
#768=CARTESIAN_POINT('',(-0.0135,0.011,0.005));
#769=CARTESIAN_POINT('',(0.018,0.011,0.005));
#770=CARTESIAN_POINT('',(-0.0135,0.011,-1.21430643318376E-17));
#771=CARTESIAN_POINT('',(-0.0135,0.011,-0.005));
#772=CARTESIAN_POINT('',(-0.0135,0.011,-0.005));
#773=CARTESIAN_POINT('',(-0.0135,0.011,-1.21430643318376E-17));
#774=CARTESIAN_POINT('',(0.018,0.011,-0.005));
#775=CARTESIAN_POINT('',(0.018,0.011,-0.005));
#776=CARTESIAN_POINT('',(0.,0.011,0.));
#777=CARTESIAN_POINT('',(0.025,0.011,-0.0045));
#778=CARTESIAN_POINT('',(0.025,0.011,0.0045));
#779=CARTESIAN_POINT('',(-0.051,0.024,0.016));
#780=CARTESIAN_POINT('',(0.,0.024,-0.016));
#781=CARTESIAN_POINT('',(0.,0.024,0.016));
#782=CARTESIAN_POINT('',(-0.051,0.024,-0.016));
#783=CARTESIAN_POINT('',(0.051,0.024,-0.016));
#784=CARTESIAN_POINT('',(0.051,0.024,0.016));
#785=CARTESIAN_POINT('',(0.025,0.006,0.0045));
#786=CARTESIAN_POINT('',(0.025,0.001,0.0045));
#787=CARTESIAN_POINT('',(0.025,0.001,0.));
#788=CARTESIAN_POINT('',(0.025,0.001,-0.0045));
#789=CARTESIAN_POINT('',(0.025,0.006,-0.0045));
#790=MECHANICAL_DESIGN_GEOMETRIC_PRESENTATION_REPRESENTATION('',(#487),
#791);
#791=(
GEOMETRIC_REPRESENTATION_CONTEXT(3)
GLOBAL_UNCERTAINTY_ASSIGNED_CONTEXT((#792))
GLOBAL_UNIT_ASSIGNED_CONTEXT((#795,#794,#793))
REPRESENTATION_CONTEXT('Part 1','TOP_LEVEL_ASSEMBLY_PART')
);
#792=UNCERTAINTY_MEASURE_WITH_UNIT(LENGTH_MEASURE(1.E-8),#795,
'DISTANCE_ACCURACY_VALUE','Maximum Tolerance applied to model');
#793=(
NAMED_UNIT(*)
SI_UNIT($,.STERADIAN.)
SOLID_ANGLE_UNIT()
);
#794=(
NAMED_UNIT(*)
PLANE_ANGLE_UNIT()
SI_UNIT($,.RADIAN.)
);
#795=(
LENGTH_UNIT()
NAMED_UNIT(*)
SI_UNIT($,.METRE.)
);
#796=PRODUCT_DEFINITION_SHAPE('','',#797);
#797=PRODUCT_DEFINITION('','',#799,#798);
#798=PRODUCT_DEFINITION_CONTEXT('',#805,'design');
#799=PRODUCT_DEFINITION_FORMATION_WITH_SPECIFIED_SOURCE('','',#801,
 .NOT_KNOWN.);
#800=PRODUCT_RELATED_PRODUCT_CATEGORY('','',(#801));
#801=PRODUCT('Part 1','Part 1','Part 1',(#803));
#802=PRODUCT_CATEGORY('','');
#803=PRODUCT_CONTEXT('',#805,'mechanical');
#804=APPLICATION_PROTOCOL_DEFINITION('international standard',
'ap242_managed_model_based_3d_engineering',2020,#805);
#805=APPLICATION_CONTEXT('managed model based 3d engineering');
ENDSEC;
END-ISO-10303-21;
