ISO-10303-21;
HEADER;
/*Generated by software containing ST-Developer
 * from STEP Tools, Inc. (www.steptools.com) 
 */
/*OPTION: using custom renumber hook */
/*description */
/*implementation_level */
FILE_DESCRIPTION(('STEP AP242 Edition 2','STEP AP242 Edition 2''CAx-IF Rec.Pracs.---Representation and Presentation of Product Manufa
cturing Information (PMI)---4.0---2014-10-13','STEP AP242 Edition 2''CAx-IF Rec.Pracs.---Representation and Presentation of Product Manufa
cturing Information (PMI)---4.0---2014-10-13''CAx-IF Rec.Pracs.---3D Tessellated Geometry---0.4---2014-09-14','STEP AP242 Edition 2''CAx-IF Rec.Pracs.---Representation and Presentation of Product Manufa
cturing Information (PMI)---4.0---2014-10-13''CAx-IF Rec.Pracs.---3D Tessellated Geometry---0.4---2014-09-14''2;1','STEP AP242 Edition 2''CAx-IF Rec.Pracs.---Representation and Presentation of Product Manufa
cturing Information (PMI)---4.0---2014-10-13''CAx-IF Rec.Pracs.---3D Tessellated Geometry---0.4---2014-09-14''2;1''CAx-IF Rec.Pracs.---User Defined Attributes---1.5---2016-08-15'),'2;1');
/*name */
/*time_stamp */
/*author */
/*organization */
/*preprocessor_version */
/*originating_system */
/*authorisation */
FILE_NAME('/vol/tmp/translate-17475476812348131744/Stands.step','2026-04-29T21:06:00',(''),(''),'ST-DEVELOPER v20','ONSHAPE BY PTC INC, 1.214','  ');
FILE_SCHEMA(('AP242_MANAGED_MODEL_BASED_3D_ENGINEERING_MIM_LF { 1 0 10303 442 3 1 4 }'));
ENDSEC;
DATA;
#10=SHAPE_REPRESENTATION_RELATIONSHIP('','',#135,#11);
#11=ADVANCED_BREP_SHAPE_REPRESENTATION('',(#133),#211);
#12=CIRCLE('',#142,0.0027);
#13=CIRCLE('',#143,0.0027);
#14=CYLINDRICAL_SURFACE('',#141,0.0027);
#15=ORIENTED_EDGE('',*,*,#43,.F.);
#16=ORIENTED_EDGE('',*,*,#44,.F.);
#17=ORIENTED_EDGE('',*,*,#45,.T.);
#18=ORIENTED_EDGE('',*,*,#46,.T.);
#19=ORIENTED_EDGE('',*,*,#47,.T.);
#20=ORIENTED_EDGE('',*,*,#48,.F.);
#21=ORIENTED_EDGE('',*,*,#49,.F.);
#22=ORIENTED_EDGE('',*,*,#44,.T.);
#23=ORIENTED_EDGE('',*,*,#50,.T.);
#24=ORIENTED_EDGE('',*,*,#51,.F.);
#25=ORIENTED_EDGE('',*,*,#52,.F.);
#26=ORIENTED_EDGE('',*,*,#48,.T.);
#27=ORIENTED_EDGE('',*,*,#53,.F.);
#28=ORIENTED_EDGE('',*,*,#46,.F.);
#29=ORIENTED_EDGE('',*,*,#54,.T.);
#30=ORIENTED_EDGE('',*,*,#51,.T.);
#31=ORIENTED_EDGE('',*,*,#55,.T.);
#32=ORIENTED_EDGE('',*,*,#56,.F.);
#33=ORIENTED_EDGE('',*,*,#45,.F.);
#34=ORIENTED_EDGE('',*,*,#49,.T.);
#35=ORIENTED_EDGE('',*,*,#52,.T.);
#36=ORIENTED_EDGE('',*,*,#54,.F.);
#37=ORIENTED_EDGE('',*,*,#55,.F.);
#38=ORIENTED_EDGE('',*,*,#43,.T.);
#39=ORIENTED_EDGE('',*,*,#53,.T.);
#40=ORIENTED_EDGE('',*,*,#50,.F.);
#41=ORIENTED_EDGE('',*,*,#47,.F.);
#42=ORIENTED_EDGE('',*,*,#56,.T.);
#43=EDGE_CURVE('',#57,#58,#67,.T.);
#44=EDGE_CURVE('',#59,#57,#68,.T.);
#45=EDGE_CURVE('',#59,#60,#69,.T.);
#46=EDGE_CURVE('',#60,#58,#70,.T.);
#47=EDGE_CURVE('',#57,#61,#71,.T.);
#48=EDGE_CURVE('',#62,#61,#72,.T.);
#49=EDGE_CURVE('',#59,#62,#73,.T.);
#50=EDGE_CURVE('',#61,#63,#74,.T.);
#51=EDGE_CURVE('',#64,#63,#75,.T.);
#52=EDGE_CURVE('',#62,#64,#76,.T.);
#53=EDGE_CURVE('',#58,#63,#77,.T.);
#54=EDGE_CURVE('',#60,#64,#78,.T.);
#55=EDGE_CURVE('',#65,#65,#12,.T.);
#56=EDGE_CURVE('',#66,#66,#13,.T.);
#57=VERTEX_POINT('',#181);
#58=VERTEX_POINT('',#182);
#59=VERTEX_POINT('',#184);
#60=VERTEX_POINT('',#186);
#61=VERTEX_POINT('',#190);
#62=VERTEX_POINT('',#192);
#63=VERTEX_POINT('',#196);
#64=VERTEX_POINT('',#198);
#65=VERTEX_POINT('',#205);
#66=VERTEX_POINT('',#207);
#67=LINE('',#180,#79);
#68=LINE('',#183,#80);
#69=LINE('',#185,#81);
#70=LINE('',#187,#82);
#71=LINE('',#189,#83);
#72=LINE('',#191,#84);
#73=LINE('',#193,#85);
#74=LINE('',#195,#86);
#75=LINE('',#197,#87);
#76=LINE('',#199,#88);
#77=LINE('',#201,#89);
#78=LINE('',#202,#90);
#79=VECTOR('',#150,1.);
#80=VECTOR('',#151,1.);
#81=VECTOR('',#152,1.);
#82=VECTOR('',#153,1.);
#83=VECTOR('',#156,1.);
#84=VECTOR('',#157,1.);
#85=VECTOR('',#158,1.);
#86=VECTOR('',#161,1.);
#87=VECTOR('',#162,1.);
#88=VECTOR('',#163,1.);
#89=VECTOR('',#166,1.);
#90=VECTOR('',#167,1.);
#91=EDGE_LOOP('',(#15,#16,#17,#18));
#92=EDGE_LOOP('',(#19,#20,#21,#22));
#93=EDGE_LOOP('',(#23,#24,#25,#26));
#94=EDGE_LOOP('',(#27,#28,#29,#30));
#95=EDGE_LOOP('',(#31));
#96=EDGE_LOOP('',(#32));
#97=EDGE_LOOP('',(#33,#34,#35,#36));
#98=EDGE_LOOP('',(#37));
#99=EDGE_LOOP('',(#38,#39,#40,#41));
#100=EDGE_LOOP('',(#42));
#101=FACE_BOUND('',#91,.T.);
#102=FACE_BOUND('',#92,.T.);
#103=FACE_BOUND('',#93,.T.);
#104=FACE_BOUND('',#94,.T.);
#105=FACE_BOUND('',#95,.T.);
#106=FACE_BOUND('',#96,.T.);
#107=FACE_BOUND('',#97,.T.);
#108=FACE_BOUND('',#98,.T.);
#109=FACE_BOUND('',#99,.T.);
#110=FACE_BOUND('',#100,.T.);
#111=PLANE('',#137);
#112=PLANE('',#138);
#113=PLANE('',#139);
#114=PLANE('',#140);
#115=PLANE('',#144);
#116=PLANE('',#145);
#117=ADVANCED_FACE('',(#101),#111,.T.);
#118=ADVANCED_FACE('',(#102),#112,.F.);
#119=ADVANCED_FACE('',(#103),#113,.F.);
#120=ADVANCED_FACE('',(#104),#114,.T.);
#121=ADVANCED_FACE('',(#105,#106),#14,.F.);
#122=ADVANCED_FACE('',(#107,#108),#115,.T.);
#123=ADVANCED_FACE('',(#109,#110),#116,.F.);
#124=CLOSED_SHELL('',(#117,#118,#119,#120,#121,#122,#123));
#125=STYLED_ITEM('',(#126),#133);
#126=PRESENTATION_STYLE_ASSIGNMENT((#127));
#127=SURFACE_STYLE_USAGE(.BOTH.,#128);
#128=SURFACE_SIDE_STYLE('',(#129));
#129=SURFACE_STYLE_FILL_AREA(#130);
#130=FILL_AREA_STYLE('',(#131));
#131=FILL_AREA_STYLE_COLOUR('',#132);
#132=COLOUR_RGB('',0.615686274509804,0.811764705882353,0.929411764705882);
#133=MANIFOLD_SOLID_BREP('Part 1',#124);
#134=SHAPE_DEFINITION_REPRESENTATION(#216,#135);
#135=SHAPE_REPRESENTATION('Part 1',(#136),#211);
#136=AXIS2_PLACEMENT_3D('',#178,#146,#147);
#137=AXIS2_PLACEMENT_3D('',#179,#148,#149);
#138=AXIS2_PLACEMENT_3D('',#188,#154,#155);
#139=AXIS2_PLACEMENT_3D('',#194,#159,#160);
#140=AXIS2_PLACEMENT_3D('',#200,#164,#165);
#141=AXIS2_PLACEMENT_3D('',#203,#168,#169);
#142=AXIS2_PLACEMENT_3D('',#204,#170,#171);
#143=AXIS2_PLACEMENT_3D('',#206,#172,#173);
#144=AXIS2_PLACEMENT_3D('',#208,#174,#175);
#145=AXIS2_PLACEMENT_3D('',#209,#176,#177);
#146=DIRECTION('',(0.,0.,1.));
#147=DIRECTION('',(1.,0.,0.));
#148=DIRECTION('',(1.,1.7347234759768E-16,0.));
#149=DIRECTION('',(-1.7347234759768E-16,1.,0.));
#150=DIRECTION('',(1.7347234759768E-16,-1.,0.));
#151=DIRECTION('',(0.,0.,-1.));
#152=DIRECTION('',(1.7347234759768E-16,-1.,0.));
#153=DIRECTION('',(0.,0.,-1.));
#154=DIRECTION('',(0.,-1.,0.));
#155=DIRECTION('',(0.,0.,-1.));
#156=DIRECTION('',(-1.,0.,0.));
#157=DIRECTION('',(0.,0.,-1.));
#158=DIRECTION('',(-1.,0.,0.));
#159=DIRECTION('',(1.,1.7347234759768E-16,0.));
#160=DIRECTION('',(-1.7347234759768E-16,1.,0.));
#161=DIRECTION('',(1.7347234759768E-16,-1.,0.));
#162=DIRECTION('',(0.,0.,-1.));
#163=DIRECTION('',(1.7347234759768E-16,-1.,0.));
#164=DIRECTION('',(0.,-1.,0.));
#165=DIRECTION('',(0.,0.,-1.));
#166=DIRECTION('',(-1.,0.,0.));
#167=DIRECTION('',(-1.,0.,0.));
#168=DIRECTION('',(0.,0.,-1.));
#169=DIRECTION('',(-1.,0.,0.));
#170=DIRECTION('',(0.,0.,1.));
#171=DIRECTION('',(1.,0.,0.));
#172=DIRECTION('',(0.,0.,1.));
#173=DIRECTION('',(1.,0.,0.));
#174=DIRECTION('',(0.,0.,1.));
#175=DIRECTION('',(1.,0.,0.));
#176=DIRECTION('',(0.,0.,1.));
#177=DIRECTION('',(1.,0.,0.));
#178=CARTESIAN_POINT('',(0.,0.,0.));
#179=CARTESIAN_POINT('',(0.005,-8.67361737988404E-19,0.00655));
#180=CARTESIAN_POINT('',(0.005,-8.67361737988404E-19,0.));
#181=CARTESIAN_POINT('',(0.005,0.005,0.));
#182=CARTESIAN_POINT('',(0.005,-0.005,0.));
#183=CARTESIAN_POINT('',(0.005,0.005,0.00655));
#184=CARTESIAN_POINT('',(0.005,0.005,0.00655));
#185=CARTESIAN_POINT('',(0.005,-8.67361737988404E-19,0.00655));
#186=CARTESIAN_POINT('',(0.005,-0.005,0.00655));
#187=CARTESIAN_POINT('',(0.005,-0.005,0.00655));
#188=CARTESIAN_POINT('',(-8.67361737988404E-19,0.005,0.00655));
#189=CARTESIAN_POINT('',(-8.67361737988404E-19,0.005,0.));
#190=CARTESIAN_POINT('',(-0.005,0.005,0.));
#191=CARTESIAN_POINT('',(-0.005,0.005,0.00655));
#192=CARTESIAN_POINT('',(-0.005,0.005,0.00655));
#193=CARTESIAN_POINT('',(-8.67361737988404E-19,0.005,0.00655));
#194=CARTESIAN_POINT('',(-0.005,-8.67361737988404E-19,0.00655));
#195=CARTESIAN_POINT('',(-0.005,-8.67361737988404E-19,0.));
#196=CARTESIAN_POINT('',(-0.005,-0.005,0.));
#197=CARTESIAN_POINT('',(-0.005,-0.005,0.00655));
#198=CARTESIAN_POINT('',(-0.005,-0.005,0.00655));
#199=CARTESIAN_POINT('',(-0.005,-8.67361737988404E-19,0.00655));
#200=CARTESIAN_POINT('',(8.67361737988404E-19,-0.005,0.00655));
#201=CARTESIAN_POINT('',(8.67361737988404E-19,-0.005,0.));
#202=CARTESIAN_POINT('',(8.67361737988404E-19,-0.005,0.00655));
#203=CARTESIAN_POINT('',(0.,1.65327317884892E-19,0.00655));
#204=CARTESIAN_POINT('',(0.,1.65327317884892E-19,0.00655));
#205=CARTESIAN_POINT('',(0.0027,1.65327317884892E-19,0.00655));
#206=CARTESIAN_POINT('',(0.,1.65327317884892E-19,0.));
#207=CARTESIAN_POINT('',(0.0027,1.65327317884892E-19,0.));
#208=CARTESIAN_POINT('',(0.,0.,0.00655));
#209=CARTESIAN_POINT('',(0.,0.,0.));
#210=MECHANICAL_DESIGN_GEOMETRIC_PRESENTATION_REPRESENTATION('',(#125),#211);
#211=(
GEOMETRIC_REPRESENTATION_CONTEXT(3)
GLOBAL_UNCERTAINTY_ASSIGNED_CONTEXT((#212))
GLOBAL_UNIT_ASSIGNED_CONTEXT((#215,#214,#213))
REPRESENTATION_CONTEXT('Part 1','TOP_LEVEL_ASSEMBLY_PART')
);
#212=UNCERTAINTY_MEASURE_WITH_UNIT(LENGTH_MEASURE(1.E-08),#215,'DISTANCE_ACCURACY_VALUE','Maximum Tolerance applied to model');
#213=(
NAMED_UNIT(*)
SI_UNIT($,.STERADIAN.)
SOLID_ANGLE_UNIT()
);
#214=(
NAMED_UNIT(*)
PLANE_ANGLE_UNIT()
SI_UNIT($,.RADIAN.)
);
#215=(
LENGTH_UNIT()
NAMED_UNIT(*)
SI_UNIT($,.METRE.)
);
#216=PRODUCT_DEFINITION_SHAPE('','',#217);
#217=PRODUCT_DEFINITION('','',#219,#218);
#218=PRODUCT_DEFINITION_CONTEXT('',#225,'design');
#219=PRODUCT_DEFINITION_FORMATION_WITH_SPECIFIED_SOURCE('','',#221,.NOT_KNOWN.);
#220=PRODUCT_RELATED_PRODUCT_CATEGORY('','',(#221));
#221=PRODUCT('Part 1','Part 1','Part 1',(#223));
#222=PRODUCT_CATEGORY('','');
#223=PRODUCT_CONTEXT('',#225,'mechanical');
#224=APPLICATION_PROTOCOL_DEFINITION('international standard','ap242_managed_model_based_3d_engineering',2020,#225);
#225=APPLICATION_CONTEXT('managed model based 3d engineering');
#226=SHAPE_ASPECT('DISTANCE.FeMAMjlkR3My0YO_0',$,#216,.T.);
#227=GEOMETRIC_ITEM_SPECIFIC_USAGE('','',#226,#11,#123);
#228=SHAPE_ASPECT('DISTANCE.FeMAMjlkR3My0YO_0',$,#216,.T.);
#229=GEOMETRIC_ITEM_SPECIFIC_USAGE('','',#228,#11,#122);
#230=DIMENSIONAL_LOCATION('linear distance','DISTANCE.FeMAMjlkR3My0YO_0',#226,#228);
#232=(
LENGTH_UNIT()
NAMED_UNIT(*)
SI_UNIT(.MILLI.,.METRE.)
);
#233=PRECISION_QUALIFIER(3);
#231=(
LENGTH_MEASURE_WITH_UNIT()
MEASURE_REPRESENTATION_ITEM()
MEASURE_WITH_UNIT(POSITIVE_LENGTH_MEASURE(6.55),#232)
QUALIFIED_REPRESENTATION_ITEM((#233))
REPRESENTATION_ITEM('nominal value')
);
#234=SHAPE_DIMENSION_REPRESENTATION('',(#231),#211);
#235=DIMENSIONAL_CHARACTERISTIC_REPRESENTATION(#230,#234);
#236=PRESENTATION_STYLE_ASSIGNMENT((NULL_STYLE(.NULL.)));
#237=CARTESIAN_POINT('',(0.,-0.0075,0.003275));
#238=DIRECTION('',(1.,0.,0.));
#239=DIRECTION('',(0.,0.,1.));
#240=AXIS2_PLACEMENT_3D('',#237,#238,#239);
#241=PLANE('',#240);
#242=ANNOTATION_PLANE('',(#236),#241,(#269));
#243=CARTESIAN_POINT('',(0.,0.,0.));
#244=DIRECTION('',(0.,0.,1.));
#245=DIRECTION('',(1.,0.,0.));
#246=AXIS2_PLACEMENT_3D('',#243,#244,#245);
#247=CARTESIAN_POINT('',(0.,0.,0.));
#248=DIRECTION('',(0.,0.,1.));
#249=DIRECTION('',(1.,0.,0.));
#250=AXIS2_PLACEMENT_3D('',#247,#248,#249);
#251=SHAPE_REPRESENTATION('',(#250,#133),#211);
#252=REPRESENTATION_MAP(#246,#251);
#253=MAPPED_ITEM('',#252,#246);
#254=PRESENTATION_STYLE_ASSIGNMENT((NULL_STYLE(.NULL.)));
#255=STYLED_ITEM('',(#254),#253);
#256=DRAUGHTING_MODEL('',(#242,#246,#253,#255),#211);
#257=DRAUGHTING_PRE_DEFINED_CURVE_FONT('continuous');
#258=COLOUR_RGB('',0.,0.,0.);
#259=CURVE_STYLE('',#257,POSITIVE_LENGTH_MEASURE(0.02),#258);
#260=PRESENTATION_STYLE_ASSIGNMENT((#259));
#261=COORDINATES_LIST('coordinates',1257,((0.,-0.0083944,0.0026833),(0.,-0.0075000,0.),(0.,-0.0066056,0.0026833),(0.,-0.0066056,0.0038667),(0.,-0.0075000,0.0065500),(0.,-0.0083944,0.0038667),(0.,-0.0081455,0.0011645),(0.,-0.0082488,0.0011657),(0.,-0.0083833,0.0011604),(0.,-0.0081455,0.0011645),(0.,-0.0083833,0.0011604),(0.,-0.0085112,0.0011444),(0.,-0.0081455,0.0011645),(0.,-0.0085112,0.0011444),(0.,-0.0086325,0.0011177),(0.,-0.0081455,0.0011645),(0.,-0.0086325,0.0011177),(0.,-0.0087472,0.0010803),(0.,-0.0081455,0.0011645),(0.,-0.0087472,0.0010803),(0.,-0.0088553,0.0010322),(0.,-0.0081455,0.0011645),(0.,-0.0088553,0.0010322),(0.,-0.0089568,0.0009735),(0.,-0.0081455,0.0011645),(0.,-0.0089568,0.0009735),(0.,-0.0090516,0.0009040),(0.,-0.0081455,0.0011645),(0.,-0.0090516,0.0009040),(0.,-0.0091399,0.0008239),(0.,-0.0081455,0.0011645),(0.,-0.0091399,0.0008239),(0.,-0.0092106,0.0007472),(0.,-0.0081455,0.0011645),(0.,-0.0092106,0.0007472),(0.,-0.0092718,0.0006678),(0.,-0.0081455,0.0011645),(0.,-0.0092718,0.0006678),(0.,-0.0093237,0.0005858),(0.,-0.0081455,0.0011645),(0.,-0.0093237,0.0005858),(0.,-0.0093661,0.0005011),(0.,-0.0081455,0.0011645),(0.,-0.0093661,0.0005011),(0.,-0.0093991,0.0004138),(0.,-0.0081455,0.0011645),(0.,-0.0093991,0.0004138),(0.,-0.0094227,0.0003238),(0.,-0.0081455,0.0011645),(0.,-0.0094227,0.0003238),(0.,-0.0094368,0.0002312),(0.,-0.0081455,0.0011645),(0.,-0.0094368,0.0002312),(0.,-0.0094415,0.0001360),(0.,-0.0081455,0.0011645),(0.,-0.0094415,0.0001360),(0.,-0.0094369,0.0000383),(0.,-0.0094369,0.0000383),(0.,-0.0094230,-0.0000567),(0.,-0.0093998,-0.0001491),(0.,-0.0094369,0.0000383),(0.,-0.0093998,-0.0001491),(0.,-0.0093674,-0.0002389),(0.,-0.0094369,0.0000383),(0.,-0.0093674,-0.0002389),(0.,-0.0093258,-0.0003261),(0.,-0.0094369,0.0000383),(0.,-0.0093258,-0.0003261),(0.,-0.0092748,-0.0004107),(0.,-0.0094369,0.0000383),(0.,-0.0092748,-0.0004107),(0.,-0.0092146,-0.0004927),(0.,-0.0094369,0.0000383),(0.,-0.0092146,-0.0004927),(0.,-0.0091452,-0.0005720),(0.,-0.0094369,0.0000383),(0.,-0.0091452,-0.0005720),(0.,-0.0090555,-0.0006524),(0.,-0.0094369,0.0000383),(0.,-0.0090555,-0.0006524),(0.,-0.0089463,-0.0007221),(0.,-0.0094369,0.0000383),(0.,-0.0089463,-0.0007221),(0.,-0.0088175,-0.0007810),(0.,-0.0094369,0.0000383),(0.,-0.0088175,-0.0007810),(0.,-0.0087458,-0.0008064),(0.,-0.0094369,0.0000383),(0.,-0.0087458,-0.0008064),(0.,-0.0086692,-0.0008292),(0.,-0.0094369,0.0000383),(0.,-0.0086692,-0.0008292),(0.,-0.0085877,-0.0008493),(0.,-0.0094369,0.0000383),(0.,-0.0085877,-0.0008493),(0.,-0.0085013,-0.0008667),(0.,-0.0094369,0.0000383),(0.,-0.0085013,-0.0008667),(0.,-0.0084101,-0.0008815),(0.,-0.0094369,0.0000383),(0.,-0.0084101,-0.0008815),(0.,-0.0083139,-0.0008935),(0.,-0.0094369,0.0000383),(0.,-0.0083139,-0.0008935),(0.,-0.0082129,-0.0009029),(0.,-0.0094369,0.0000383),(0.,-0.0082129,-0.0009029),(0.,-0.0081070,-0.0009096),(0.,-0.0094369,0.0000383),(0.,-0.0081070,-0.0009096),(0.,-0.0079962,-0.0009136),(0.,-0.0094369,0.0000383),(0.,-0.0079962,-0.0009136),(0.,-0.0078805,-0.0009149),(0.,-0.0078805,-0.0009149),(0.,-0.0078741,-0.0005191),(0.,-0.0079643,-0.0005182),(0.,-0.0078805,-0.0009149),(0.,-0.0079643,-0.0005182),(0.,-0.0080505,-0.0005154),(0.,-0.0078805,-0.0009149),(0.,-0.0080505,-0.0005154),(0.,-0.0082109,-0.0005042),(0.,-0.0078805,-0.0009149),(0.,-0.0082109,-0.0005042),(0.,-0.0083553,-0.0004856),(0.,-0.0078805,-0.0009149),(0.,-0.0083553,-0.0004856),(0.,-0.0084837,-0.0004596),(0.,-0.0078805,-0.0009149),(0.,-0.0084837,-0.0004596),(0.,-0.0085961,-0.0004261),(0.,-0.0078805,-0.0009149),(0.,-0.0085961,-0.0004261),(0.,-0.0086925,-0.0003852),(0.,-0.0094369,0.0000383),(0.,-0.0078805,-0.0009149),(0.,-0.0086925,-0.0003852),(0.,-0.0094369,0.0000383),(0.,-0.0086925,-0.0003852),(0.,-0.0087728,-0.0003368),(0.,-0.0094369,0.0000383),(0.,-0.0087728,-0.0003368),(0.,-0.0088372,-0.0002810),(0.,-0.0094369,0.0000383),(0.,-0.0088372,-0.0002810),(0.,-0.0089159,-0.0001840),(0.,-0.0094369,0.0000383),(0.,-0.0089159,-0.0001840),(0.,-0.0089721,-0.0000834),(0.,-0.0094369,0.0000383),(0.,-0.0089721,-0.0000834),(0.,-0.0090059,0.0000208),(0.,-0.0094369,0.0000383),(0.,-0.0090059,0.0000208),(0.,-0.0090171,0.0001286),(0.,-0.0094369,0.0000383),(0.,-0.0090171,0.0001286),(0.,-0.0090063,0.0002341),(0.,-0.0094369,0.0000383),(0.,-0.0090063,0.0002341),(0.,-0.0089737,0.0003350),(0.,-0.0094369,0.0000383),(0.,-0.0089737,0.0003350),(0.,-0.0089195,0.0004310),(0.,-0.0094369,0.0000383),(0.,-0.0089195,0.0004310),(0.,-0.0088436,0.0005223),(0.,-0.0081455,0.0011645),(0.,-0.0094369,0.0000383),(0.,-0.0088436,0.0005223),(0.,-0.0081455,0.0011645),(0.,-0.0088436,0.0005223),(0.,-0.0087252,0.0006167),(0.,-0.0081455,0.0011645),(0.,-0.0087252,0.0006167),(0.,-0.0085869,0.0006842),(0.,-0.0081455,0.0011645),(0.,-0.0085869,0.0006842),(0.,-0.0085103,0.0007078),(0.,-0.0081455,0.0011645),(0.,-0.0085103,0.0007078),(0.,-0.0084288,0.0007247),(0.,-0.0081455,0.0011645),(0.,-0.0084288,0.0007247),(0.,-0.0083423,0.0007348),(0.,-0.0081455,0.0011645),(0.,-0.0083423,0.0007348),(0.,-0.0082509,0.0007382),(0.,-0.0081455,0.0011645),(0.,-0.0082509,0.0007382),(0.,-0.0080920,0.0007350),(0.,-0.0081455,0.0011645),(0.,-0.0080920,0.0007350),(0.,-0.0079477,0.0007255),(0.,-0.0081455,0.0011645),(0.,-0.0079477,0.0007255),(0.,-0.0078179,0.0007097),(0.,-0.0081455,0.0011645),(0.,-0.0078179,0.0007097),(0.,-0.0077027,0.0006876),(0.,-0.0081455,0.0011645),(0.,-0.0077027,0.0006876),(0.,-0.0076020,0.0006592),(0.,-0.0081455,0.0011645),(0.,-0.0076020,0.0006592),(0.,-0.0075159,0.0006245),(0.,-0.0081455,0.0011645),(0.,-0.0075159,0.0006245),(0.,-0.0073873,0.0005360),(0.,-0.0077488,-0.0005036),(0.,-0.0078741,-0.0005191),(0.,-0.0078805,-0.0009149),(0.,-0.0076259,-0.0004572),(0.,-0.0077488,-0.0005036),(0.,-0.0078805,-0.0009149),(0.,-0.0075054,-0.0003798),(0.,-0.0076259,-0.0004572),(0.,-0.0078805,-0.0009149),(0.,-0.0073873,-0.0002715),(0.,-0.0075054,-0.0003798),(0.,-0.0078805,-0.0009149),(0.,-0.0073095,-0.0001759),(0.,-0.0073873,-0.0002715),(0.,-0.0078805,-0.0009149),(0.,-0.0078805,-0.0009149),(0.,-0.0065607,-0.0009149),(0.,-0.0064168,-0.0009095),(0.,-0.0078805,-0.0009149),(0.,-0.0064168,-0.0009095),(0.,-0.0062826,-0.0008931),(0.,-0.0078805,-0.0009149),(0.,-0.0062826,-0.0008931),(0.,-0.0061580,-0.0008658),(0.,-0.0078805,-0.0009149),(0.,-0.0061580,-0.0008658),(0.,-0.0060429,-0.0008276),(0.,-0.0078805,-0.0009149),(0.,-0.0060429,-0.0008276),(0.,-0.0059376,-0.0007785),(0.,-0.0078805,-0.0009149),(0.,-0.0059376,-0.0007785),(0.,-0.0058418,-0.0007185),(0.,-0.0078805,-0.0009149),(0.,-0.0058418,-0.0007185),(0.,-0.0057557,-0.0006475),(0.,-0.0078805,-0.0009149),(0.,-0.0057557,-0.0006475),(0.,-0.0056791,-0.0005657),(0.,-0.0078805,-0.0009149),(0.,-0.0056791,-0.0005657),(0.,-0.0056102,-0.0004778),(0.,-0.0078805,-0.0009149),(0.,-0.0056102,-0.0004778),(0.,-0.0055504,-0.0003903),(0.,-0.0078805,-0.0009149),(0.,-0.0055504,-0.0003903),(0.,-0.0054998,-0.0003032),(0.,-0.0078805,-0.0009149),(0.,-0.0054998,-0.0003032),(0.,-0.0054585,-0.0002164),(0.,-0.0054585,-0.0002164),(0.,-0.0054263,-0.0001301),(0.,-0.0054033,-0.0000442),(0.,-0.0054585,-0.0002164),(0.,-0.0054033,-0.0000442),(0.,-0.0053895,0.0000413),(0.,-0.0054585,-0.0002164),(0.,-0.0053895,0.0000413),(0.,-0.0053849,0.0001265),(0.,-0.0054585,-0.0002164),(0.,-0.0053849,0.0001265),(0.,-0.0053897,0.0002247),(0.,-0.0054585,-0.0002164),(0.,-0.0053897,0.0002247),(0.,-0.0054040,0.0003198),(0.,-0.0054585,-0.0002164),(0.,-0.0054040,0.0003198),(0.,-0.0054279,0.0004119),(0.,-0.0054585,-0.0002164),(0.,-0.0054279,0.0004119),(0.,-0.0054614,0.0005008),(0.,-0.0054585,-0.0002164),(0.,-0.0054614,0.0005008),(0.,-0.0055044,0.0005868),(0.,-0.0054585,-0.0002164),(0.,-0.0055044,0.0005868),(0.,-0.0055570,0.0006696),(0.,-0.0054585,-0.0002164),(0.,-0.0055570,0.0006696),(0.,-0.0056191,0.0007493),(0.,-0.0054585,-0.0002164),(0.,-0.0056191,0.0007493),(0.,-0.0056908,0.0008260),(0.,-0.0054585,-0.0002164),(0.,-0.0056908,0.0008260),(0.,-0.0057846,0.0009124),(0.,-0.0054585,-0.0002164),(0.,-0.0057846,0.0009124),(0.,-0.0058860,0.0009864),(0.,-0.0054585,-0.0002164),(0.,-0.0058860,0.0009864),(0.,-0.0059952,0.0010479),(0.,-0.0054585,-0.0002164),(0.,-0.0059952,0.0010479),(0.,-0.0061120,0.0010970),(0.,-0.0054585,-0.0002164),(0.,-0.0061120,0.0010970),(0.,-0.0061861,0.0011033),(0.,-0.0054585,-0.0002164),(0.,-0.0061861,0.0011033),(0.,-0.0063213,0.0010274),(0.,-0.0063213,0.0010274),(0.,-0.0063673,0.0009666),(0.,-0.0063988,0.0008906),(0.,-0.0063213,0.0010274),(0.,-0.0063988,0.0008906),(0.,-0.0063459,0.0007747),(0.,-0.0063213,0.0010274),(0.,-0.0063459,0.0007747),(0.,-0.0062506,0.0006916),(0.,-0.0063213,0.0010274),(0.,-0.0062506,0.0006916),(0.,-0.0061117,0.0006247),(0.,-0.0063213,0.0010274),(0.,-0.0061117,0.0006247),(0.,-0.0059913,0.0005297),(0.,-0.0063213,0.0010274),(0.,-0.0059913,0.0005297),(0.,-0.0059126,0.0004366),(0.,-0.0054585,-0.0002164),(0.,-0.0063213,0.0010274),(0.,-0.0059126,0.0004366),(0.,-0.0054585,-0.0002164),(0.,-0.0059126,0.0004366),(0.,-0.0058564,0.0003384),(0.,-0.0054585,-0.0002164),(0.,-0.0058564,0.0003384),(0.,-0.0058227,0.0002350),(0.,-0.0054585,-0.0002164),(0.,-0.0058227,0.0002350),(0.,-0.0058114,0.0001265),(0.,-0.0054585,-0.0002164),(0.,-0.0058114,0.0001265),(0.,-0.0058234,0.0000311),(0.,-0.0054585,-0.0002164),(0.,-0.0058234,0.0000311),(0.,-0.0058593,-0.0000696),(0.,-0.0054585,-0.0002164),(0.,-0.0058593,-0.0000696),(0.,-0.0059192,-0.0001758),(0.,-0.0054585,-0.0002164),(0.,-0.0059192,-0.0001758),(0.,-0.0060030,-0.0002873),(0.,-0.0054585,-0.0002164),(0.,-0.0060030,-0.0002873),(0.,-0.0060993,-0.0003744),(0.,-0.0054585,-0.0002164),(0.,-0.0060993,-0.0003744),(0.,-0.0062263,-0.0004366),(0.,-0.0054585,-0.0002164),(0.,-0.0062263,-0.0004366),(0.,-0.0063013,-0.0004583),(0.,-0.0078805,-0.0009149),(0.,-0.0054585,-0.0002164),(0.,-0.0063013,-0.0004583),(0.,-0.0078805,-0.0009149),(0.,-0.0063013,-0.0004583),(0.,-0.0063840,-0.0004739),(0.,-0.0078805,-0.0009149),(0.,-0.0063840,-0.0004739),(0.,-0.0064743,-0.0004832),(0.,-0.0078805,-0.0009149),(0.,-0.0064743,-0.0004832),(0.,-0.0065724,-0.0004863),(0.,-0.0078805,-0.0009149),(0.,-0.0065724,-0.0004863),(0.,-0.0070126,-0.0004863),(0.,-0.0073095,-0.0001759),(0.,-0.0078805,-0.0009149),(0.,-0.0070126,-0.0004863),(0.,-0.0072539,-0.0000765),(0.,-0.0073095,-0.0001759),(0.,-0.0070126,-0.0004863),(0.,-0.0072206,0.0000268),(0.,-0.0072539,-0.0000765),(0.,-0.0070126,-0.0004863),(0.,-0.0072095,0.0001339),(0.,-0.0072206,0.0000268),(0.,-0.0070126,-0.0004863),(0.,-0.0072206,0.0002396),(0.,-0.0072095,0.0001339),(0.,-0.0070126,-0.0004863),(0.,-0.0072206,0.0002396),(0.,-0.0070126,-0.0004863),(0.,-0.0069593,-0.0004199),(0.,-0.0072539,0.0003418),(0.,-0.0072206,0.0002396),(0.,-0.0069593,-0.0004199),(0.,-0.0072539,0.0003418),(0.,-0.0069593,-0.0004199),(0.,-0.0069131,-0.0003503),(0.,-0.0072539,0.0003418),(0.,-0.0069131,-0.0003503),(0.,-0.0068740,-0.0002776),(0.,-0.0073095,0.0004407),(0.,-0.0072539,0.0003418),(0.,-0.0068740,-0.0002776),(0.,-0.0073095,0.0004407),(0.,-0.0068740,-0.0002776),(0.,-0.0068420,-0.0002016),(0.,-0.0073095,0.0004407),(0.,-0.0068420,-0.0002016),(0.,-0.0068171,-0.0001225),(0.,-0.0073873,0.0005360),(0.,-0.0073095,0.0004407),(0.,-0.0068171,-0.0001225),(0.,-0.0073873,0.0005360),(0.,-0.0068171,-0.0001225),(0.,-0.0067993,-0.0000402),(0.,-0.0073873,0.0005360),(0.,-0.0067993,-0.0000402),(0.,-0.0067887,0.0000452),(0.,-0.0081455,0.0011645),(0.,-0.0073873,0.0005360),(0.,-0.0067887,0.0000452),(0.,-0.0081455,0.0011645),(0.,-0.0067887,0.0000452),(0.,-0.0067851,0.0001339),(0.,-0.0081455,0.0011645),(0.,-0.0067851,0.0001339),(0.,-0.0067897,0.0002298),(0.,-0.0081455,0.0011645),(0.,-0.0067897,0.0002298),(0.,-0.0068036,0.0003234),(0.,-0.0081455,0.0011645),(0.,-0.0068036,0.0003234),(0.,-0.0068268,0.0004146),(0.,-0.0081455,0.0011645),(0.,-0.0068268,0.0004146),(0.,-0.0068592,0.0005035),(0.,-0.0081455,0.0011645),(0.,-0.0068592,0.0005035),(0.,-0.0069009,0.0005900),(0.,-0.0081455,0.0011645),(0.,-0.0069009,0.0005900),(0.,-0.0069518,0.0006742),(0.,-0.0081455,0.0011645),(0.,-0.0069518,0.0006742),(0.,-0.0070120,0.0007561),(0.,-0.0081455,0.0011645),(0.,-0.0070120,0.0007561),(0.,-0.0070814,0.0008355),(0.,-0.0081455,0.0011645),(0.,-0.0070814,0.0008355),(0.,-0.0071707,0.0009129),(0.,-0.0081455,0.0011645),(0.,-0.0071707,0.0009129),(0.,-0.0072762,0.0009800),(0.,-0.0081455,0.0011645),(0.,-0.0072762,0.0009800),(0.,-0.0073979,0.0010368),(0.,-0.0081455,0.0011645),(0.,-0.0073979,0.0010368),(0.,-0.0075357,0.0010832),(0.,-0.0081455,0.0011645),(0.,-0.0075357,0.0010832),(0.,-0.0076107,0.0011025),(0.,-0.0081455,0.0011645),(0.,-0.0076107,0.0011025),(0.,-0.0076897,0.0011193),(0.,-0.0081455,0.0011645),(0.,-0.0076897,0.0011193),(0.,-0.0077728,0.0011335),(0.,-0.0081455,0.0011645),(0.,-0.0077728,0.0011335),(0.,-0.0078599,0.0011451),(0.,-0.0081455,0.0011645),(0.,-0.0078599,0.0011451),(0.,-0.0079511,0.0011541),(0.,-0.0081455,0.0011645),(0.,-0.0079511,0.0011541),(0.,-0.0080462,0.0011606),(0.,-0.0086626,0.0027401),(0.,-0.0085705,0.0027162),(0.,-0.0085218,0.0027141),(0.,-0.0086626,0.0027401),(0.,-0.0085218,0.0027141),(0.,-0.0083655,0.0027911),(0.,-0.0086626,0.0027401),(0.,-0.0083655,0.0027911),(0.,-0.0083248,0.0028508),(0.,-0.0086626,0.0027401),(0.,-0.0083248,0.0028508),(0.,-0.0083091,0.0029247),(0.,-0.0086626,0.0027401),(0.,-0.0083091,0.0029247),(0.,-0.0083091,0.0029321),(0.,-0.0086626,0.0027401),(0.,-0.0083091,0.0029321),(0.,-0.0083506,0.0030427),(0.,-0.0086626,0.0027401),(0.,-0.0083506,0.0030427),(0.,-0.0084026,0.0030912),(0.,-0.0086626,0.0027401),(0.,-0.0084026,0.0030912),(0.,-0.0084753,0.0031353),(0.,-0.0086626,0.0027401),(0.,-0.0084753,0.0031353),(0.,-0.0085943,0.0031672),(0.,-0.0086626,0.0027401),(0.,-0.0085943,0.0031672),(0.,-0.0086943,0.0032067),(0.,-0.0086626,0.0027401),(0.,-0.0086943,0.0032067),(0.,-0.0088372,0.0033089),(0.,-0.0086626,0.0027401),(0.,-0.0088372,0.0033089),(0.,-0.0089159,0.0034111),(0.,-0.0086626,0.0027401),(0.,-0.0089159,0.0034111),(0.,-0.0089721,0.0035134),(0.,-0.0076355,0.0031259),(0.,-0.0077207,0.0030919),(0.,-0.0078223,0.0030295),(0.,-0.0076355,0.0031259),(0.,-0.0078223,0.0030295),(0.,-0.0078627,0.0029572),(0.,-0.0075516,0.0031750),(0.,-0.0076355,0.0031259),(0.,-0.0078627,0.0029572),(0.,-0.0075516,0.0031750),(0.,-0.0078627,0.0029572),(0.,-0.0078762,0.0028760),(0.,-0.0074688,0.0032391),(0.,-0.0075516,0.0031750),(0.,-0.0078762,0.0028760),(0.,-0.0074688,0.0032391),(0.,-0.0078762,0.0028760),(0.,-0.0078582,0.0027929),(0.,-0.0073873,0.0033184),(0.,-0.0074688,0.0032391),(0.,-0.0078582,0.0027929),(0.,-0.0073873,0.0033184),(0.,-0.0078582,0.0027929),(0.,-0.0078043,0.0027278),(0.,-0.0073095,0.0034140),(0.,-0.0073873,0.0033184),(0.,-0.0078043,0.0027278),(0.,-0.0073095,0.0034140),(0.,-0.0078043,0.0027278),(0.,-0.0077334,0.0026882),(0.,-0.0073095,0.0034140),(0.,-0.0077334,0.0026882),(0.,-0.0076540,0.0026749),(0.,-0.0072539,0.0035134),(0.,-0.0073095,0.0034140),(0.,-0.0076540,0.0026749),(0.,-0.0076540,0.0026749),(0.,-0.0055892,0.0027554),(0.,-0.0055103,0.0027712),(0.,-0.0076540,0.0026749),(0.,-0.0055103,0.0027712),(0.,-0.0054452,0.0028189),(0.,-0.0076540,0.0026749),(0.,-0.0054452,0.0028189),(0.,-0.0054032,0.0028887),(0.,-0.0076540,0.0026749),(0.,-0.0054032,0.0028887),(0.,-0.0053892,0.0029691),(0.,-0.0053892,0.0029691),(0.,-0.0053892,0.0044413),(0.,-0.0054050,0.0045228),(0.,-0.0053892,0.0029691),(0.,-0.0054050,0.0045228),(0.,-0.0054527,0.0045916),(0.,-0.0053892,0.0029691),(0.,-0.0054527,0.0045916),(0.,-0.0055212,0.0046384),(0.,-0.0053892,0.0029691),(0.,-0.0055212,0.0046384),(0.,-0.0056019,0.0046540),(0.,-0.0053892,0.0029691),(0.,-0.0056019,0.0046540),(0.,-0.0056828,0.0046384),(0.,-0.0053892,0.0029691),(0.,-0.0056828,0.0046384),(0.,-0.0057522,0.0045916),(0.,-0.0053892,0.0029691),(0.,-0.0057522,0.0045916),(0.,-0.0057998,0.0045228),(0.,-0.0053892,0.0029691),(0.,-0.0057998,0.0045228),(0.,-0.0058157,0.0044413),(0.,-0.0053892,0.0029691),(0.,-0.0058157,0.0044413),(0.,-0.0058157,0.0031660),(0.,-0.0076540,0.0026749),(0.,-0.0053892,0.0029691),(0.,-0.0058157,0.0031660),(0.,-0.0076540,0.0026749),(0.,-0.0058157,0.0031660),(0.,-0.0069936,0.0031237),(0.,-0.0072539,0.0035134),(0.,-0.0076540,0.0026749),(0.,-0.0069936,0.0031237),(0.,-0.0072206,0.0036166),(0.,-0.0072539,0.0035134),(0.,-0.0069936,0.0031237),(0.,-0.0072095,0.0037237),(0.,-0.0072206,0.0036166),(0.,-0.0069936,0.0031237),(0.,-0.0072206,0.0038302),(0.,-0.0072095,0.0037237),(0.,-0.0069936,0.0031237),(0.,-0.0072206,0.0038302),(0.,-0.0069936,0.0031237),(0.,-0.0069024,0.0032560),(0.,-0.0072539,0.0039328),(0.,-0.0072206,0.0038302),(0.,-0.0069024,0.0032560),(0.,-0.0072539,0.0039328),(0.,-0.0069024,0.0032560),(0.,-0.0068372,0.0034001),(0.,-0.0073095,0.0040313),(0.,-0.0072539,0.0039328),(0.,-0.0068372,0.0034001),(0.,-0.0073095,0.0040313),(0.,-0.0068372,0.0034001),(0.,-0.0068144,0.0034766),(0.,-0.0073873,0.0041259),(0.,-0.0073095,0.0040313),(0.,-0.0068144,0.0034766),(0.,-0.0073873,0.0041259),(0.,-0.0068144,0.0034766),(0.,-0.0067981,0.0035561),(0.,-0.0073873,0.0041259),(0.,-0.0067981,0.0035561),(0.,-0.0067884,0.0036384),(0.,-0.0073873,0.0041259),(0.,-0.0067884,0.0036384),(0.,-0.0067851,0.0037237),(0.,-0.0075159,0.0042162),(0.,-0.0073873,0.0041259),(0.,-0.0067851,0.0037237),(0.,-0.0075159,0.0042162),(0.,-0.0067851,0.0037237),(0.,-0.0067897,0.0038197),(0.,-0.0075159,0.0042162),(0.,-0.0067897,0.0038197),(0.,-0.0068036,0.0039132),(0.,-0.0075159,0.0042162),(0.,-0.0068036,0.0039132),(0.,-0.0068268,0.0040045),(0.,-0.0076020,0.0042517),(0.,-0.0075159,0.0042162),(0.,-0.0068268,0.0040045),(0.,-0.0076020,0.0042517),(0.,-0.0068268,0.0040045),(0.,-0.0068592,0.0040934),(0.,-0.0077027,0.0042807),(0.,-0.0076020,0.0042517),(0.,-0.0068592,0.0040934),(0.,-0.0077027,0.0042807),(0.,-0.0068592,0.0040934),(0.,-0.0069009,0.0041799),(0.,-0.0078179,0.0043033),(0.,-0.0077027,0.0042807),(0.,-0.0069009,0.0041799),(0.,-0.0078179,0.0043033),(0.,-0.0069009,0.0041799),(0.,-0.0069518,0.0042641),(0.,-0.0079477,0.0043194),(0.,-0.0078179,0.0043033),(0.,-0.0069518,0.0042641),(0.,-0.0080920,0.0043291),(0.,-0.0079477,0.0043194),(0.,-0.0069518,0.0042641),(0.,-0.0080920,0.0043291),(0.,-0.0069518,0.0042641),(0.,-0.0070120,0.0043459),(0.,-0.0082509,0.0043323),(0.,-0.0080920,0.0043291),(0.,-0.0070120,0.0043459),(0.,-0.0082509,0.0043323),(0.,-0.0070120,0.0043459),(0.,-0.0070814,0.0044254),(0.,-0.0083423,0.0043288),(0.,-0.0082509,0.0043323),(0.,-0.0070814,0.0044254),(0.,-0.0083423,0.0043288),(0.,-0.0070814,0.0044254),(0.,-0.0071707,0.0045028),(0.,-0.0084288,0.0043185),(0.,-0.0083423,0.0043288),(0.,-0.0071707,0.0045028),(0.,-0.0084288,0.0043185),(0.,-0.0071707,0.0045028),(0.,-0.0072762,0.0045699),(0.,-0.0085103,0.0043013),(0.,-0.0084288,0.0043185),(0.,-0.0072762,0.0045699),(0.,-0.0085103,0.0043013),(0.,-0.0072762,0.0045699),(0.,-0.0073979,0.0046266),(0.,-0.0085103,0.0043013),(0.,-0.0073979,0.0046266),(0.,-0.0075357,0.0046731),(0.,-0.0085869,0.0042772),(0.,-0.0085103,0.0043013),(0.,-0.0075357,0.0046731),(0.,-0.0085869,0.0042772),(0.,-0.0075357,0.0046731),(0.,-0.0076107,0.0046924),(0.,-0.0085869,0.0042772),(0.,-0.0076107,0.0046924),(0.,-0.0076897,0.0047092),(0.,-0.0085869,0.0042772),(0.,-0.0076897,0.0047092),(0.,-0.0077728,0.0047234),(0.,-0.0087252,0.0042085),(0.,-0.0085869,0.0042772),(0.,-0.0077728,0.0047234),(0.,-0.0087252,0.0042085),(0.,-0.0077728,0.0047234),(0.,-0.0078599,0.0047350),(0.,-0.0087252,0.0042085),(0.,-0.0078599,0.0047350),(0.,-0.0079511,0.0047440),(0.,-0.0087252,0.0042085),(0.,-0.0079511,0.0047440),(0.,-0.0080462,0.0047504),(0.,-0.0087252,0.0042085),(0.,-0.0080462,0.0047504),(0.,-0.0081455,0.0047543),(0.,-0.0088436,0.0041121),(0.,-0.0087252,0.0042085),(0.,-0.0081455,0.0047543),(0.,-0.0088436,0.0041121),(0.,-0.0081455,0.0047543),(0.,-0.0082488,0.0047556),(0.,-0.0088436,0.0041121),(0.,-0.0082488,0.0047556),(0.,-0.0083833,0.0047503),(0.,-0.0089195,0.0040209),(0.,-0.0088436,0.0041121),(0.,-0.0083833,0.0047503),(0.,-0.0089195,0.0040209),(0.,-0.0083833,0.0047503),(0.,-0.0085112,0.0047342),(0.,-0.0089195,0.0040209),(0.,-0.0085112,0.0047342),(0.,-0.0086325,0.0047075),(0.,-0.0089737,0.0039248),(0.,-0.0089195,0.0040209),(0.,-0.0086325,0.0047075),(0.,-0.0089737,0.0039248),(0.,-0.0086325,0.0047075),(0.,-0.0087472,0.0046701),(0.,-0.0090063,0.0038240),(0.,-0.0089737,0.0039248),(0.,-0.0087472,0.0046701),(0.,-0.0090063,0.0038240),(0.,-0.0087472,0.0046701),(0.,-0.0088553,0.0046221),(0.,-0.0090063,0.0038240),(0.,-0.0088553,0.0046221),(0.,-0.0089568,0.0045633),(0.,-0.0090171,0.0037184),(0.,-0.0090063,0.0038240),(0.,-0.0089568,0.0045633),(0.,-0.0090171,0.0037184),(0.,-0.0089568,0.0045633),(0.,-0.0090516,0.0044939),(0.,-0.0090171,0.0037184),(0.,-0.0090516,0.0044939),(0.,-0.0091399,0.0044138),(0.,-0.0090059,0.0036158),(0.,-0.0090171,0.0037184),(0.,-0.0091399,0.0044138),(0.,-0.0090059,0.0036158),(0.,-0.0091399,0.0044138),(0.,-0.0092106,0.0043370),(0.,-0.0090059,0.0036158),(0.,-0.0092106,0.0043370),(0.,-0.0092718,0.0042577),(0.,-0.0089721,0.0035134),(0.,-0.0090059,0.0036158),(0.,-0.0092718,0.0042577),(0.,-0.0086626,0.0027401),(0.,-0.0089721,0.0035134),(0.,-0.0092718,0.0042577),(0.,-0.0086626,0.0027401),(0.,-0.0092718,0.0042577),(0.,-0.0093237,0.0041756),(0.,-0.0086626,0.0027401),(0.,-0.0093237,0.0041756),(0.,-0.0093661,0.0040910),(0.,-0.0086626,0.0027401),(0.,-0.0093661,0.0040910),(0.,-0.0093991,0.0040037),(0.,-0.0086626,0.0027401),(0.,-0.0093991,0.0040037),(0.,-0.0094227,0.0039137),(0.,-0.0086626,0.0027401),(0.,-0.0094227,0.0039137),(0.,-0.0094368,0.0038211),(0.,-0.0086626,0.0027401),(0.,-0.0094368,0.0038211),(0.,-0.0094415,0.0037259),(0.,-0.0086626,0.0027401),(0.,-0.0094415,0.0037259),(0.,-0.0094369,0.0036298),(0.,-0.0086626,0.0027401),(0.,-0.0094369,0.0036298),(0.,-0.0094230,0.0035359),(0.,-0.0086626,0.0027401),(0.,-0.0094230,0.0035359),(0.,-0.0093998,0.0034442),(0.,-0.0086626,0.0027401),(0.,-0.0093998,0.0034442),(0.,-0.0093674,0.0033546),(0.,-0.0086626,0.0027401),(0.,-0.0093674,0.0033546),(0.,-0.0093258,0.0032672),(0.,-0.0086626,0.0027401),(0.,-0.0093258,0.0032672),(0.,-0.0092748,0.0031819),(0.,-0.0086626,0.0027401),(0.,-0.0092748,0.0031819),(0.,-0.0092146,0.0030988),(0.,-0.0086626,0.0027401),(0.,-0.0092146,0.0030988),(0.,-0.0091452,0.0030178),(0.,-0.0086626,0.0027401),(0.,-0.0091452,0.0030178),(0.,-0.0090362,0.0029188),(0.,-0.0086626,0.0027401),(0.,-0.0090362,0.0029188),(0.,-0.0089731,0.0028752),(0.,-0.0086626,0.0027401),(0.,-0.0089731,0.0028752),(0.,-0.0089041,0.0028355),(0.,-0.0086626,0.0027401),(0.,-0.0089041,0.0028355),(0.,-0.0088294,0.0027998),(0.,-0.0086626,0.0027401),(0.,-0.0088294,0.0027998),(0.,-0.0087489,0.0027680),(0.,-0.0086626,0.0054495),(0.,-0.0085705,0.0054255),(0.,-0.0085218,0.0054234),(0.,-0.0086626,0.0054495),(0.,-0.0085218,0.0054234),(0.,-0.0083655,0.0055004),(0.,-0.0086626,0.0054495),(0.,-0.0083655,0.0055004),(0.,-0.0083248,0.0055601),(0.,-0.0086626,0.0054495),(0.,-0.0083248,0.0055601),(0.,-0.0083091,0.0056340),(0.,-0.0086626,0.0054495),(0.,-0.0083091,0.0056340),(0.,-0.0083091,0.0056414),(0.,-0.0086626,0.0054495),(0.,-0.0083091,0.0056414),(0.,-0.0083506,0.0057520),(0.,-0.0086626,0.0054495),(0.,-0.0083506,0.0057520),(0.,-0.0084026,0.0058006),(0.,-0.0086626,0.0054495),(0.,-0.0084026,0.0058006),(0.,-0.0084753,0.0058446),(0.,-0.0086626,0.0054495),(0.,-0.0084753,0.0058446),(0.,-0.0085943,0.0058765),(0.,-0.0086626,0.0054495),(0.,-0.0085943,0.0058765),(0.,-0.0086943,0.0059161),(0.,-0.0086626,0.0054495),(0.,-0.0086943,0.0059161),(0.,-0.0088372,0.0060182),(0.,-0.0086626,0.0054495),(0.,-0.0088372,0.0060182),(0.,-0.0089159,0.0061204),(0.,-0.0086626,0.0054495),(0.,-0.0089159,0.0061204),(0.,-0.0089721,0.0062227),(0.,-0.0076355,0.0058352),(0.,-0.0077207,0.0058012),(0.,-0.0078223,0.0057388),(0.,-0.0076355,0.0058352),(0.,-0.0078223,0.0057388),(0.,-0.0078627,0.0056666),(0.,-0.0075516,0.0058843),(0.,-0.0076355,0.0058352),(0.,-0.0078627,0.0056666),(0.,-0.0075516,0.0058843),(0.,-0.0078627,0.0056666),(0.,-0.0078762,0.0055853),(0.,-0.0074688,0.0059485),(0.,-0.0075516,0.0058843),(0.,-0.0078762,0.0055853),(0.,-0.0074688,0.0059485),(0.,-0.0078762,0.0055853),(0.,-0.0078582,0.0055023),(0.,-0.0073873,0.0060277),(0.,-0.0074688,0.0059485),(0.,-0.0078582,0.0055023),(0.,-0.0073873,0.0060277),(0.,-0.0078582,0.0055023),(0.,-0.0078043,0.0054372),(0.,-0.0073095,0.0061233),(0.,-0.0073873,0.0060277),(0.,-0.0078043,0.0054372),(0.,-0.0073095,0.0061233),(0.,-0.0078043,0.0054372),(0.,-0.0077334,0.0053975),(0.,-0.0073095,0.0061233),(0.,-0.0077334,0.0053975),(0.,-0.0076540,0.0053843),(0.,-0.0072539,0.0062227),(0.,-0.0073095,0.0061233),(0.,-0.0076540,0.0053843),(0.,-0.0076540,0.0053843),(0.,-0.0055892,0.0054647),(0.,-0.0055103,0.0054806),(0.,-0.0076540,0.0053843),(0.,-0.0055103,0.0054806),(0.,-0.0054452,0.0055282),(0.,-0.0076540,0.0053843),(0.,-0.0054452,0.0055282),(0.,-0.0054032,0.0055980),(0.,-0.0076540,0.0053843),(0.,-0.0054032,0.0055980),(0.,-0.0053892,0.0056785),(0.,-0.0053892,0.0056785),(0.,-0.0053892,0.0071506),(0.,-0.0054050,0.0072321),(0.,-0.0053892,0.0056785),(0.,-0.0054050,0.0072321),(0.,-0.0054527,0.0073009),(0.,-0.0053892,0.0056785),(0.,-0.0054527,0.0073009),(0.,-0.0055212,0.0073477),(0.,-0.0053892,0.0056785),(0.,-0.0055212,0.0073477),(0.,-0.0056019,0.0073633),(0.,-0.0053892,0.0056785),(0.,-0.0056019,0.0073633),(0.,-0.0056828,0.0073477),(0.,-0.0053892,0.0056785),(0.,-0.0056828,0.0073477),(0.,-0.0057522,0.0073009),(0.,-0.0053892,0.0056785),(0.,-0.0057522,0.0073009),(0.,-0.0057998,0.0072321),(0.,-0.0053892,0.0056785),(0.,-0.0057998,0.0072321),(0.,-0.0058157,0.0071506),(0.,-0.0053892,0.0056785),(0.,-0.0058157,0.0071506),(0.,-0.0058157,0.0058753),(0.,-0.0076540,0.0053843),(0.,-0.0053892,0.0056785),(0.,-0.0058157,0.0058753),(0.,-0.0076540,0.0053843),(0.,-0.0058157,0.0058753),(0.,-0.0069936,0.0058330),(0.,-0.0072539,0.0062227),(0.,-0.0076540,0.0053843),(0.,-0.0069936,0.0058330),(0.,-0.0072206,0.0063260),(0.,-0.0072539,0.0062227),(0.,-0.0069936,0.0058330),(0.,-0.0072095,0.0064331),(0.,-0.0072206,0.0063260),(0.,-0.0069936,0.0058330),(0.,-0.0072206,0.0065396),(0.,-0.0072095,0.0064331),(0.,-0.0069936,0.0058330),(0.,-0.0072206,0.0065396),(0.,-0.0069936,0.0058330),(0.,-0.0069024,0.0059653),(0.,-0.0072539,0.0066421),(0.,-0.0072206,0.0065396),(0.,-0.0069024,0.0059653),(0.,-0.0072539,0.0066421),(0.,-0.0069024,0.0059653),(0.,-0.0068372,0.0061095),(0.,-0.0073095,0.0067406),(0.,-0.0072539,0.0066421),(0.,-0.0068372,0.0061095),(0.,-0.0073095,0.0067406),(0.,-0.0068372,0.0061095),(0.,-0.0068144,0.0061860),(0.,-0.0073873,0.0068352),(0.,-0.0073095,0.0067406),(0.,-0.0068144,0.0061860),(0.,-0.0073873,0.0068352),(0.,-0.0068144,0.0061860),(0.,-0.0067981,0.0062654),(0.,-0.0073873,0.0068352),(0.,-0.0067981,0.0062654),(0.,-0.0067884,0.0063478),(0.,-0.0073873,0.0068352),(0.,-0.0067884,0.0063478),(0.,-0.0067851,0.0064331),(0.,-0.0075159,0.0069255),(0.,-0.0073873,0.0068352),(0.,-0.0067851,0.0064331),(0.,-0.0075159,0.0069255),(0.,-0.0067851,0.0064331),(0.,-0.0067897,0.0065290),(0.,-0.0075159,0.0069255),(0.,-0.0067897,0.0065290),(0.,-0.0068036,0.0066226),(0.,-0.0075159,0.0069255),(0.,-0.0068036,0.0066226),(0.,-0.0068268,0.0067138),(0.,-0.0076020,0.0069610),(0.,-0.0075159,0.0069255),(0.,-0.0068268,0.0067138),(0.,-0.0076020,0.0069610),(0.,-0.0068268,0.0067138),(0.,-0.0068592,0.0068027),(0.,-0.0077027,0.0069900),(0.,-0.0076020,0.0069610),(0.,-0.0068592,0.0068027),(0.,-0.0077027,0.0069900),(0.,-0.0068592,0.0068027),(0.,-0.0069009,0.0068892),(0.,-0.0078179,0.0070126),(0.,-0.0077027,0.0069900),(0.,-0.0069009,0.0068892),(0.,-0.0078179,0.0070126),(0.,-0.0069009,0.0068892),(0.,-0.0069518,0.0069734),(0.,-0.0079477,0.0070287),(0.,-0.0078179,0.0070126),(0.,-0.0069518,0.0069734),(0.,-0.0080920,0.0070384),(0.,-0.0079477,0.0070287),(0.,-0.0069518,0.0069734),(0.,-0.0080920,0.0070384),(0.,-0.0069518,0.0069734),(0.,-0.0070120,0.0070553),(0.,-0.0082509,0.0070416),(0.,-0.0080920,0.0070384),(0.,-0.0070120,0.0070553),(0.,-0.0082509,0.0070416),(0.,-0.0070120,0.0070553),(0.,-0.0070814,0.0071347),(0.,-0.0083423,0.0070382),(0.,-0.0082509,0.0070416),(0.,-0.0070814,0.0071347),(0.,-0.0083423,0.0070382),(0.,-0.0070814,0.0071347),(0.,-0.0071707,0.0072121),(0.,-0.0084288,0.0070279),(0.,-0.0083423,0.0070382),(0.,-0.0071707,0.0072121),(0.,-0.0084288,0.0070279),(0.,-0.0071707,0.0072121),(0.,-0.0072762,0.0072792),(0.,-0.0085103,0.0070107),(0.,-0.0084288,0.0070279),(0.,-0.0072762,0.0072792),(0.,-0.0085103,0.0070107),(0.,-0.0072762,0.0072792),(0.,-0.0073979,0.0073360),(0.,-0.0085103,0.0070107),(0.,-0.0073979,0.0073360),(0.,-0.0075357,0.0073824),(0.,-0.0085869,0.0069866),(0.,-0.0085103,0.0070107),(0.,-0.0075357,0.0073824),(0.,-0.0085869,0.0069866),(0.,-0.0075357,0.0073824),(0.,-0.0076107,0.0074017),(0.,-0.0085869,0.0069866),(0.,-0.0076107,0.0074017),(0.,-0.0076897,0.0074185),(0.,-0.0085869,0.0069866),(0.,-0.0076897,0.0074185),(0.,-0.0077728,0.0074327),(0.,-0.0087252,0.0069178),(0.,-0.0085869,0.0069866),(0.,-0.0077728,0.0074327),(0.,-0.0087252,0.0069178),(0.,-0.0077728,0.0074327),(0.,-0.0078599,0.0074443),(0.,-0.0087252,0.0069178),(0.,-0.0078599,0.0074443),(0.,-0.0079511,0.0074533),(0.,-0.0087252,0.0069178),(0.,-0.0079511,0.0074533),(0.,-0.0080462,0.0074598),(0.,-0.0087252,0.0069178),(0.,-0.0080462,0.0074598),(0.,-0.0081455,0.0074637),(0.,-0.0088436,0.0068215),(0.,-0.0087252,0.0069178),(0.,-0.0081455,0.0074637),(0.,-0.0088436,0.0068215),(0.,-0.0081455,0.0074637),(0.,-0.0082488,0.0074649),(0.,-0.0088436,0.0068215),(0.,-0.0082488,0.0074649),(0.,-0.0083833,0.0074596),(0.,-0.0089195,0.0067302),(0.,-0.0088436,0.0068215),(0.,-0.0083833,0.0074596),(0.,-0.0089195,0.0067302),(0.,-0.0083833,0.0074596),(0.,-0.0085112,0.0074436),(0.,-0.0089195,0.0067302),(0.,-0.0085112,0.0074436),(0.,-0.0086325,0.0074169),(0.,-0.0089737,0.0066342),(0.,-0.0089195,0.0067302),(0.,-0.0086325,0.0074169),(0.,-0.0089737,0.0066342),(0.,-0.0086325,0.0074169),(0.,-0.0087472,0.0073795),(0.,-0.0090063,0.0065333),(0.,-0.0089737,0.0066342),(0.,-0.0087472,0.0073795),(0.,-0.0090063,0.0065333),(0.,-0.0087472,0.0073795),(0.,-0.0088553,0.0073314),(0.,-0.0090063,0.0065333),(0.,-0.0088553,0.0073314),(0.,-0.0089568,0.0072727),(0.,-0.0090171,0.0064278),(0.,-0.0090063,0.0065333),(0.,-0.0089568,0.0072727),(0.,-0.0090171,0.0064278),(0.,-0.0089568,0.0072727),(0.,-0.0090516,0.0072032),(0.,-0.0090171,0.0064278),(0.,-0.0090516,0.0072032),(0.,-0.0091399,0.0071231),(0.,-0.0090059,0.0063252),(0.,-0.0090171,0.0064278),(0.,-0.0091399,0.0071231),(0.,-0.0090059,0.0063252),(0.,-0.0091399,0.0071231),(0.,-0.0092106,0.0070464),(0.,-0.0090059,0.0063252),(0.,-0.0092106,0.0070464),(0.,-0.0092718,0.0069670),(0.,-0.0089721,0.0062227),(0.,-0.0090059,0.0063252),(0.,-0.0092718,0.0069670),(0.,-0.0086626,0.0054495),(0.,-0.0089721,0.0062227),(0.,-0.0092718,0.0069670),(0.,-0.0086626,0.0054495),(0.,-0.0092718,0.0069670),(0.,-0.0093237,0.0068850),(0.,-0.0086626,0.0054495),(0.,-0.0093237,0.0068850),(0.,-0.0093661,0.0068003),(0.,-0.0086626,0.0054495),(0.,-0.0093661,0.0068003),(0.,-0.0093991,0.0067130),(0.,-0.0086626,0.0054495),(0.,-0.0093991,0.0067130),(0.,-0.0094227,0.0066230),(0.,-0.0086626,0.0054495),(0.,-0.0094227,0.0066230),(0.,-0.0094368,0.0065304),(0.,-0.0086626,0.0054495),(0.,-0.0094368,0.0065304),(0.,-0.0094415,0.0064352),(0.,-0.0086626,0.0054495),(0.,-0.0094415,0.0064352),(0.,-0.0094369,0.0063392),(0.,-0.0086626,0.0054495),(0.,-0.0094369,0.0063392),(0.,-0.0094230,0.0062453),(0.,-0.0086626,0.0054495),(0.,-0.0094230,0.0062453),(0.,-0.0093998,0.0061536),(0.,-0.0086626,0.0054495),(0.,-0.0093998,0.0061536),(0.,-0.0093674,0.0060640),(0.,-0.0086626,0.0054495),(0.,-0.0093674,0.0060640),(0.,-0.0093258,0.0059765),(0.,-0.0086626,0.0054495),(0.,-0.0093258,0.0059765),(0.,-0.0092748,0.0058913),(0.,-0.0086626,0.0054495),(0.,-0.0092748,0.0058913),(0.,-0.0092146,0.0058081),(0.,-0.0086626,0.0054495),(0.,-0.0092146,0.0058081),(0.,-0.0091452,0.0057272),(0.,-0.0086626,0.0054495),(0.,-0.0091452,0.0057272),(0.,-0.0090362,0.0056281),(0.,-0.0086626,0.0054495),(0.,-0.0090362,0.0056281),(0.,-0.0089731,0.0055845),(0.,-0.0086626,0.0054495),(0.,-0.0089731,0.0055845),(0.,-0.0089041,0.0055449),(0.,-0.0086626,0.0054495),(0.,-0.0089041,0.0055449),(0.,-0.0088294,0.0055091),(0.,-0.0086626,0.0054495),(0.,-0.0088294,0.0055091),(0.,-0.0087489,0.0054773),(0.,-0.0095907,0.0018037),(0.,-0.0095177,0.0016970),(0.,-0.0094111,0.0016240),(0.,-0.0095907,0.0018037),(0.,-0.0094111,0.0016240),(0.,-0.0092859,0.0015997),(0.,-0.0095907,0.0018037),(0.,-0.0092859,0.0015997),(0.,-0.0091608,0.0016240),(0.,-0.0095907,0.0018037),(0.,-0.0091608,0.0016240),(0.,-0.0090542,0.0016970),(0.,-0.0095907,0.0018037),(0.,-0.0090542,0.0016970),(0.,-0.0089811,0.0018037),(0.,-0.0095907,0.0018037),(0.,-0.0089811,0.0018037),(0.,-0.0089568,0.0019288),(0.,-0.0095907,0.0018037),(0.,-0.0089568,0.0019288),(0.,-0.0089811,0.0020537),(0.,-0.0095907,0.0018037),(0.,-0.0089811,0.0020537),(0.,-0.0090542,0.0021595),(0.,-0.0095907,0.0018037),(0.,-0.0090542,0.0021595),(0.,-0.0091608,0.0022325),(0.,-0.0095907,0.0018037),(0.,-0.0091608,0.0022325),(0.,-0.0092859,0.0022569),(0.,-0.0095907,0.0018037),(0.,-0.0092859,0.0022569),(0.,-0.0094111,0.0022325),(0.,-0.0095907,0.0018037),(0.,-0.0094111,0.0022325),(0.,-0.0095177,0.0021595),(0.,-0.0095907,0.0018037),(0.,-0.0095177,0.0021595),(0.,-0.0095907,0.0020537),(0.,-0.0095907,0.0018037),(0.,-0.0095907,0.0020537),(0.,-0.0096151,0.0019288)));
#262=COMPLEX_TRIANGULATED_SURFACE_SET('surface set',#261,1257,(),(),(),((1,2,3),(4,5,6),(7,8,9),(10,11,12),(13,14,15),(16,17,18),(19,20,21),(22,23,24),(25,26,27),(28,29,30),(31,32,33),(34,35,36),(37,38,39),(40,41,42),(43,44,45),(46,47,48),(49,50,51),(52,53,54),(55,56,57),(58,59,60),(61,62,63),(64,65,66),(67,68,69),(70,71,72),(73,74,75),(76,77,78),(79,80,81),(82,83,84),(85,86,87),(88,89,90),(91,92,93),(94,95,96),(97,98,99),(100,101,102),(103,104,105),(106,107,108),(109,110,111),(112,113,114),(115,116,117),(118,119,120),(121,122,123),(124,125,126),(127,128,129),(130,131,132),(133,134,135),(136,137,138),(139,140,141),(142,143,144),(145,146,147),(148,149,150),(151,152,153),(154,155,156),(157,158,159),(160,161,162),(163,164,165),(166,167,168),(169,170,171),(172,173,174),(175,176,177),(178,179,180),(181,182,183),(184,185,186),(187,188,189),(190,191,192),(193,194,195),(196,197,198),(199,200,201),(202,203,204),(205,206,207),(208,209,210),(211,212,213),(214,215,216),(217,218,219),(220,221,222),(223,224,225),(226,227,228),(229,230,231),(232,233,234),(235,236,237),(238,239,240),(241,242,243),(244,245,246),(247,248,249),(250,251,252),(253,254,255),(256,257,258),(259,260,261),(262,263,264),(265,266,267),(268,269,270),(271,272,273),(274,275,276),(277,278,279),(280,281,282),(283,284,285),(286,287,288),(289,290,291),(292,293,294),(295,296,297),(298,299,300),(301,302,303),(304,305,306),(307,308,309),(310,311,312),(313,314,315),(316,317,318),(319,320,321),(322,323,324),(325,326,327),(328,329,330),(331,332,333),(334,335,336),(337,338,339),(340,341,342),(343,344,345),(346,347,348),(349,350,351),(352,353,354),(355,356,357),(358,359,360),(361,362,363),(364,365,366),(367,368,369),(370,371,372),(373,374,375),(376,377,378),(379,380,381),(382,383,384),(385,386,387),(388,389,390),(391,392,393),(394,395,396),(397,398,399),(400,401,402),(403,404,405),(406,407,408),(409,410,411),(412,413,414),(415,416,417),(418,419,420),(421,422,423),(424,425,426),(427,428,429),(430,431,432),(433,434,435),(436,437,438),(439,440,441),(442,443,444),(445,446,447),(448,449,450),(451,452,453),(454,455,456),(457,458,459),(460,461,462),(463,464,465),(466,467,468),(469,470,471),(472,473,474),(475,476,477),(478,479,480),(481,482,483),(484,485,486),(487,488,489),(490,491,492),(493,494,495),(496,497,498),(499,500,501),(502,503,504),(505,506,507),(508,509,510),(511,512,513),(514,515,516),(517,518,519),(520,521,522),(523,524,525),(526,527,528),(529,530,531),(532,533,534),(535,536,537),(538,539,540),(541,542,543),(544,545,546),(547,548,549),(550,551,552),(553,554,555),(556,557,558),(559,560,561),(562,563,564),(565,566,567),(568,569,570),(571,572,573),(574,575,576),(577,578,579),(580,581,582),(583,584,585),(586,587,588),(589,590,591),(592,593,594),(595,596,597),(598,599,600),(601,602,603),(604,605,606),(607,608,609),(610,611,612),(613,614,615),(616,617,618),(619,620,621),(622,623,624),(625,626,627),(628,629,630),(631,632,633),(634,635,636),(637,638,639),(640,641,642),(643,644,645),(646,647,648),(649,650,651),(652,653,654),(655,656,657),(658,659,660),(661,662,663),(664,665,666),(667,668,669),(670,671,672),(673,674,675),(676,677,678),(679,680,681),(682,683,684),(685,686,687),(688,689,690),(691,692,693),(694,695,696),(697,698,699),(700,701,702),(703,704,705),(706,707,708),(709,710,711),(712,713,714),(715,716,717),(718,719,720),(721,722,723),(724,725,726),(727,728,729),(730,731,732),(733,734,735),(736,737,738),(739,740,741),(742,743,744),(745,746,747),(748,749,750),(751,752,753),(754,755,756),(757,758,759),(760,761,762),(763,764,765),(766,767,768),(769,770,771),(772,773,774),(775,776,777),(778,779,780),(781,782,783),(784,785,786),(787,788,789),(790,791,792),(793,794,795),(796,797,798),(799,800,801),(802,803,804),(805,806,807),(808,809,810),(811,812,813),(814,815,816),(817,818,819),(820,821,822),(823,824,825),(826,827,828),(829,830,831),(832,833,834),(835,836,837),(838,839,840),(841,842,843),(844,845,846),(847,848,849),(850,851,852),(853,854,855),(856,857,858),(859,860,861),(862,863,864),(865,866,867),(868,869,870),(871,872,873),(874,875,876),(877,878,879),(880,881,882),(883,884,885),(886,887,888),(889,890,891),(892,893,894),(895,896,897),(898,899,900),(901,902,903),(904,905,906),(907,908,909),(910,911,912),(913,914,915),(916,917,918),(919,920,921),(922,923,924),(925,926,927),(928,929,930),(931,932,933),(934,935,936),(937,938,939),(940,941,942),(943,944,945),(946,947,948),(949,950,951),(952,953,954),(955,956,957),(958,959,960),(961,962,963),(964,965,966),(967,968,969),(970,971,972),(973,974,975),(976,977,978),(979,980,981),(982,983,984),(985,986,987),(988,989,990),(991,992,993),(994,995,996),(997,998,999),(1000,1001,1002),(1003,1004,1005),(1006,1007,1008),(1009,1010,1011),(1012,1013,1014),(1015,1016,1017),(1018,1019,1020),(1021,1022,1023),(1024,1025,1026),(1027,1028,1029),(1030,1031,1032),(1033,1034,1035),(1036,1037,1038),(1039,1040,1041),(1042,1043,1044),(1045,1046,1047),(1048,1049,1050),(1051,1052,1053),(1054,1055,1056),(1057,1058,1059),(1060,1061,1062),(1063,1064,1065),(1066,1067,1068),(1069,1070,1071),(1072,1073,1074),(1075,1076,1077),(1078,1079,1080),(1081,1082,1083),(1084,1085,1086),(1087,1088,1089),(1090,1091,1092),(1093,1094,1095),(1096,1097,1098),(1099,1100,1101),(1102,1103,1104),(1105,1106,1107),(1108,1109,1110),(1111,1112,1113),(1114,1115,1116),(1117,1118,1119),(1120,1121,1122),(1123,1124,1125),(1126,1127,1128),(1129,1130,1131),(1132,1133,1134),(1135,1136,1137),(1138,1139,1140),(1141,1142,1143),(1144,1145,1146),(1147,1148,1149),(1150,1151,1152),(1153,1154,1155),(1156,1157,1158),(1159,1160,1161),(1162,1163,1164),(1165,1166,1167),(1168,1169,1170),(1171,1172,1173),(1174,1175,1176),(1177,1178,1179),(1180,1181,1182),(1183,1184,1185),(1186,1187,1188),(1189,1190,1191),(1192,1193,1194),(1195,1196,1197),(1198,1199,1200),(1201,1202,1203),(1204,1205,1206),(1207,1208,1209),(1210,1211,1212),(1213,1214,1215),(1216,1217,1218),(1219,1220,1221),(1222,1223,1224),(1225,1226,1227),(1228,1229,1230),(1231,1232,1233),(1234,1235,1236),(1237,1238,1239),(1240,1241,1242),(1243,1244,1245),(1246,1247,1248),(1249,1250,1251),(1252,1253,1254),(1255,1256,1257)));
#263=TESSELLATED_GEOMETRIC_SET('linear dimension',(#262));
#264=COORDINATES_LIST('coordinates',8,((0.,-0.0050000,0.),(0.,-0.0075000,0.),(0.,-0.0050000,0.0065500),(0.,-0.0075000,0.0065500),(0.,-0.0075000,-0.0019149),(0.,-0.0075000,-0.0019149),(0.,-0.0075000,0.0084649),(0.,-0.0075000,0.0084649)));
#265=TESSELLATED_CURVE_SET('curve set',#264,((1,2),(3,4),(5,6),(7,8)));
#266=TESSELLATED_GEOMETRIC_SET('linear dimension',(#265));
#267=TESSELLATED_ANNOTATION_OCCURRENCE('linear dimension',(#260),#263);
#268=TESSELLATED_ANNOTATION_OCCURRENCE('linear dimension',(#260),#266);
#269=DRAUGHTING_CALLOUT('linear dimension',(#267,#268));
#270=DRAUGHTING_MODEL_ITEM_ASSOCIATION('','',#226,#256,#269);
#271=DRAUGHTING_MODEL_ITEM_ASSOCIATION('','',#228,#256,#269);
#272=DRAUGHTING_MODEL_ITEM_ASSOCIATION('','',#230,#256,#269);
ENDSEC;
END-ISO-10303-21;
