ISO-10303-21;
HEADER;
/* Generated by software containing ST-Developer
 * from STEP Tools, Inc. (www.steptools.com) 
 */
/* OPTION: using custom renumber hook */

FILE_DESCRIPTION(
/* description */ ('STEP AP242 Edition 2',
'CAx-IF Rec.Pracs.---Representation and Presentation of Product Manufa
cturing Information (PMI)---4.0---2014-10-13',
'CAx-IF Rec.Pracs.---3D Tessellated Geometry---0.4---2014-09-14','2;1',
'CAx-IF Rec.Pracs.---User Defined Attributes---1.5---2016-08-15'),
/* implementation_level */ '2;1');

FILE_NAME(
/* name */ 'Electronics holer',
/* time_stamp */ '2026-04-29T21:05:45Z',
/* author */ (''),
/* organization */ (''),
/* preprocessor_version */ 'ST-DEVELOPER v20',
/* originating_system */ 'ONSHAPE BY PTC INC, 1.214',
/* authorisation */ '  ');

FILE_SCHEMA (('AP242_MANAGED_MODEL_BASED_3D_ENGINEERING_MIM_LF { 1 0 10303 442 3 1 4 }'));
ENDSEC;

DATA;
#10=SHAPE_REPRESENTATION_RELATIONSHIP('','',#741,#11);
#11=ADVANCED_BREP_SHAPE_REPRESENTATION('',(#739),#1195);
#12=CYLINDRICAL_SURFACE('',#775,0.0016);
#13=CYLINDRICAL_SURFACE('',#776,0.0016);
#14=CYLINDRICAL_SURFACE('',#777,0.0016);
#15=CYLINDRICAL_SURFACE('',#778,0.0016);
#16=CYLINDRICAL_SURFACE('',#779,0.00225);
#17=CYLINDRICAL_SURFACE('',#780,0.00225);
#18=CYLINDRICAL_SURFACE('',#783,0.0014);
#19=CYLINDRICAL_SURFACE('',#786,0.0014);
#20=CYLINDRICAL_SURFACE('',#789,0.0014);
#21=CYLINDRICAL_SURFACE('',#792,0.0014);
#22=CIRCLE('',#753,0.0016);
#23=CIRCLE('',#754,0.0016);
#24=CIRCLE('',#755,0.0016);
#25=CIRCLE('',#756,0.0016);
#26=CIRCLE('',#759,0.00225);
#27=CIRCLE('',#760,0.00225);
#28=CIRCLE('',#763,0.0014);
#29=CIRCLE('',#764,0.0014);
#30=CIRCLE('',#765,0.0014);
#31=CIRCLE('',#766,0.0014);
#32=CIRCLE('',#767,0.0016);
#33=CIRCLE('',#768,0.0016);
#34=CIRCLE('',#769,0.0016);
#35=CIRCLE('',#770,0.0016);
#36=CIRCLE('',#773,0.00225);
#37=CIRCLE('',#774,0.00225);
#38=CIRCLE('',#784,0.0014);
#39=CIRCLE('',#787,0.0014);
#40=CIRCLE('',#790,0.0014);
#41=CIRCLE('',#793,0.0014);
#42=ORIENTED_EDGE('',*,*,#226,.T.);
#43=ORIENTED_EDGE('',*,*,#227,.T.);
#44=ORIENTED_EDGE('',*,*,#228,.T.);
#45=ORIENTED_EDGE('',*,*,#229,.T.);
#46=ORIENTED_EDGE('',*,*,#230,.T.);
#47=ORIENTED_EDGE('',*,*,#231,.F.);
#48=ORIENTED_EDGE('',*,*,#232,.F.);
#49=ORIENTED_EDGE('',*,*,#233,.T.);
#50=ORIENTED_EDGE('',*,*,#234,.T.);
#51=ORIENTED_EDGE('',*,*,#235,.F.);
#52=ORIENTED_EDGE('',*,*,#236,.T.);
#53=ORIENTED_EDGE('',*,*,#237,.F.);
#54=ORIENTED_EDGE('',*,*,#238,.F.);
#55=ORIENTED_EDGE('',*,*,#239,.T.);
#56=ORIENTED_EDGE('',*,*,#240,.T.);
#57=ORIENTED_EDGE('',*,*,#241,.F.);
#58=ORIENTED_EDGE('',*,*,#242,.T.);
#59=ORIENTED_EDGE('',*,*,#243,.T.);
#60=ORIENTED_EDGE('',*,*,#236,.F.);
#61=ORIENTED_EDGE('',*,*,#244,.T.);
#62=ORIENTED_EDGE('',*,*,#245,.F.);
#63=ORIENTED_EDGE('',*,*,#246,.T.);
#64=ORIENTED_EDGE('',*,*,#247,.F.);
#65=ORIENTED_EDGE('',*,*,#248,.T.);
#66=ORIENTED_EDGE('',*,*,#249,.T.);
#67=ORIENTED_EDGE('',*,*,#250,.T.);
#68=ORIENTED_EDGE('',*,*,#251,.F.);
#69=ORIENTED_EDGE('',*,*,#252,.T.);
#70=ORIENTED_EDGE('',*,*,#253,.F.);
#71=ORIENTED_EDGE('',*,*,#254,.F.);
#72=ORIENTED_EDGE('',*,*,#255,.T.);
#73=ORIENTED_EDGE('',*,*,#256,.F.);
#74=ORIENTED_EDGE('',*,*,#249,.F.);
#75=ORIENTED_EDGE('',*,*,#257,.F.);
#76=ORIENTED_EDGE('',*,*,#229,.F.);
#77=ORIENTED_EDGE('',*,*,#258,.F.);
#78=ORIENTED_EDGE('',*,*,#250,.F.);
#79=ORIENTED_EDGE('',*,*,#256,.T.);
#80=ORIENTED_EDGE('',*,*,#259,.F.);
#81=ORIENTED_EDGE('',*,*,#260,.T.);
#82=ORIENTED_EDGE('',*,*,#233,.F.);
#83=ORIENTED_EDGE('',*,*,#261,.F.);
#84=ORIENTED_EDGE('',*,*,#262,.T.);
#85=ORIENTED_EDGE('',*,*,#263,.T.);
#86=ORIENTED_EDGE('',*,*,#264,.F.);
#87=ORIENTED_EDGE('',*,*,#265,.F.);
#88=ORIENTED_EDGE('',*,*,#266,.F.);
#89=ORIENTED_EDGE('',*,*,#267,.T.);
#90=ORIENTED_EDGE('',*,*,#268,.F.);
#91=ORIENTED_EDGE('',*,*,#242,.F.);
#92=ORIENTED_EDGE('',*,*,#269,.F.);
#93=ORIENTED_EDGE('',*,*,#253,.T.);
#94=ORIENTED_EDGE('',*,*,#270,.F.);
#95=ORIENTED_EDGE('',*,*,#254,.T.);
#96=ORIENTED_EDGE('',*,*,#269,.T.);
#97=ORIENTED_EDGE('',*,*,#246,.F.);
#98=ORIENTED_EDGE('',*,*,#271,.T.);
#99=ORIENTED_EDGE('',*,*,#264,.T.);
#100=ORIENTED_EDGE('',*,*,#272,.F.);
#101=ORIENTED_EDGE('',*,*,#273,.F.);
#102=ORIENTED_EDGE('',*,*,#261,.T.);
#103=ORIENTED_EDGE('',*,*,#232,.T.);
#104=ORIENTED_EDGE('',*,*,#274,.F.);
#105=ORIENTED_EDGE('',*,*,#275,.F.);
#106=ORIENTED_EDGE('',*,*,#276,.F.);
#107=ORIENTED_EDGE('',*,*,#277,.F.);
#108=ORIENTED_EDGE('',*,*,#278,.T.);
#109=ORIENTED_EDGE('',*,*,#279,.F.);
#110=ORIENTED_EDGE('',*,*,#262,.F.);
#111=ORIENTED_EDGE('',*,*,#273,.T.);
#112=ORIENTED_EDGE('',*,*,#280,.T.);
#113=ORIENTED_EDGE('',*,*,#230,.F.);
#114=ORIENTED_EDGE('',*,*,#263,.F.);
#115=ORIENTED_EDGE('',*,*,#279,.T.);
#116=ORIENTED_EDGE('',*,*,#281,.F.);
#117=ORIENTED_EDGE('',*,*,#282,.F.);
#118=ORIENTED_EDGE('',*,*,#272,.T.);
#119=ORIENTED_EDGE('',*,*,#231,.T.);
#120=ORIENTED_EDGE('',*,*,#280,.F.);
#121=ORIENTED_EDGE('',*,*,#278,.F.);
#122=ORIENTED_EDGE('',*,*,#260,.F.);
#123=ORIENTED_EDGE('',*,*,#283,.F.);
#124=ORIENTED_EDGE('',*,*,#284,.T.);
#125=ORIENTED_EDGE('',*,*,#285,.T.);
#126=ORIENTED_EDGE('',*,*,#286,.F.);
#127=ORIENTED_EDGE('',*,*,#234,.F.);
#128=ORIENTED_EDGE('',*,*,#287,.F.);
#129=ORIENTED_EDGE('',*,*,#288,.F.);
#130=ORIENTED_EDGE('',*,*,#289,.F.);
#131=ORIENTED_EDGE('',*,*,#290,.F.);
#132=ORIENTED_EDGE('',*,*,#291,.T.);
#133=ORIENTED_EDGE('',*,*,#292,.T.);
#134=ORIENTED_EDGE('',*,*,#293,.T.);
#135=ORIENTED_EDGE('',*,*,#294,.T.);
#136=ORIENTED_EDGE('',*,*,#283,.T.);
#137=ORIENTED_EDGE('',*,*,#259,.T.);
#138=ORIENTED_EDGE('',*,*,#255,.F.);
#139=ORIENTED_EDGE('',*,*,#270,.T.);
#140=ORIENTED_EDGE('',*,*,#267,.F.);
#141=ORIENTED_EDGE('',*,*,#295,.F.);
#142=ORIENTED_EDGE('',*,*,#296,.F.);
#143=ORIENTED_EDGE('',*,*,#297,.F.);
#144=ORIENTED_EDGE('',*,*,#298,.T.);
#145=ORIENTED_EDGE('',*,*,#299,.T.);
#146=ORIENTED_EDGE('',*,*,#265,.T.);
#147=ORIENTED_EDGE('',*,*,#271,.F.);
#148=ORIENTED_EDGE('',*,*,#245,.T.);
#149=ORIENTED_EDGE('',*,*,#300,.F.);
#150=ORIENTED_EDGE('',*,*,#285,.F.);
#151=ORIENTED_EDGE('',*,*,#301,.T.);
#152=ORIENTED_EDGE('',*,*,#299,.F.);
#153=ORIENTED_EDGE('',*,*,#302,.T.);
#154=ORIENTED_EDGE('',*,*,#239,.F.);
#155=ORIENTED_EDGE('',*,*,#303,.F.);
#156=ORIENTED_EDGE('',*,*,#301,.F.);
#157=ORIENTED_EDGE('',*,*,#284,.F.);
#158=ORIENTED_EDGE('',*,*,#295,.T.);
#159=ORIENTED_EDGE('',*,*,#266,.T.);
#160=ORIENTED_EDGE('',*,*,#304,.F.);
#161=ORIENTED_EDGE('',*,*,#305,.F.);
#162=ORIENTED_EDGE('',*,*,#277,.T.);
#163=ORIENTED_EDGE('',*,*,#294,.F.);
#164=ORIENTED_EDGE('',*,*,#276,.T.);
#165=ORIENTED_EDGE('',*,*,#293,.F.);
#166=ORIENTED_EDGE('',*,*,#275,.T.);
#167=ORIENTED_EDGE('',*,*,#292,.F.);
#168=ORIENTED_EDGE('',*,*,#274,.T.);
#169=ORIENTED_EDGE('',*,*,#291,.F.);
#170=ORIENTED_EDGE('',*,*,#305,.T.);
#171=ORIENTED_EDGE('',*,*,#282,.T.);
#172=ORIENTED_EDGE('',*,*,#304,.T.);
#173=ORIENTED_EDGE('',*,*,#281,.T.);
#174=ORIENTED_EDGE('',*,*,#306,.F.);
#175=ORIENTED_EDGE('',*,*,#247,.T.);
#176=ORIENTED_EDGE('',*,*,#258,.T.);
#177=ORIENTED_EDGE('',*,*,#228,.F.);
#178=ORIENTED_EDGE('',*,*,#235,.T.);
#179=ORIENTED_EDGE('',*,*,#286,.T.);
#180=ORIENTED_EDGE('',*,*,#300,.T.);
#181=ORIENTED_EDGE('',*,*,#244,.F.);
#182=ORIENTED_EDGE('',*,*,#307,.F.);
#183=ORIENTED_EDGE('',*,*,#290,.T.);
#184=ORIENTED_EDGE('',*,*,#307,.T.);
#185=ORIENTED_EDGE('',*,*,#308,.F.);
#186=ORIENTED_EDGE('',*,*,#289,.T.);
#187=ORIENTED_EDGE('',*,*,#308,.T.);
#188=ORIENTED_EDGE('',*,*,#309,.F.);
#189=ORIENTED_EDGE('',*,*,#288,.T.);
#190=ORIENTED_EDGE('',*,*,#309,.T.);
#191=ORIENTED_EDGE('',*,*,#310,.F.);
#192=ORIENTED_EDGE('',*,*,#287,.T.);
#193=ORIENTED_EDGE('',*,*,#310,.T.);
#194=ORIENTED_EDGE('',*,*,#268,.T.);
#195=ORIENTED_EDGE('',*,*,#252,.F.);
#196=ORIENTED_EDGE('',*,*,#311,.F.);
#197=ORIENTED_EDGE('',*,*,#312,.T.);
#198=ORIENTED_EDGE('',*,*,#237,.T.);
#199=ORIENTED_EDGE('',*,*,#243,.F.);
#200=ORIENTED_EDGE('',*,*,#248,.F.);
#201=ORIENTED_EDGE('',*,*,#306,.T.);
#202=ORIENTED_EDGE('',*,*,#227,.F.);
#203=ORIENTED_EDGE('',*,*,#313,.F.);
#204=ORIENTED_EDGE('',*,*,#314,.T.);
#205=ORIENTED_EDGE('',*,*,#257,.T.);
#206=ORIENTED_EDGE('',*,*,#314,.F.);
#207=ORIENTED_EDGE('',*,*,#315,.F.);
#208=ORIENTED_EDGE('',*,*,#311,.T.);
#209=ORIENTED_EDGE('',*,*,#251,.T.);
#210=ORIENTED_EDGE('',*,*,#312,.F.);
#211=ORIENTED_EDGE('',*,*,#315,.T.);
#212=ORIENTED_EDGE('',*,*,#313,.T.);
#213=ORIENTED_EDGE('',*,*,#226,.F.);
#214=ORIENTED_EDGE('',*,*,#296,.T.);
#215=ORIENTED_EDGE('',*,*,#303,.T.);
#216=ORIENTED_EDGE('',*,*,#238,.T.);
#217=ORIENTED_EDGE('',*,*,#316,.F.);
#218=ORIENTED_EDGE('',*,*,#297,.T.);
#219=ORIENTED_EDGE('',*,*,#316,.T.);
#220=ORIENTED_EDGE('',*,*,#241,.T.);
#221=ORIENTED_EDGE('',*,*,#317,.F.);
#222=ORIENTED_EDGE('',*,*,#317,.T.);
#223=ORIENTED_EDGE('',*,*,#240,.F.);
#224=ORIENTED_EDGE('',*,*,#302,.F.);
#225=ORIENTED_EDGE('',*,*,#298,.F.);
#226=EDGE_CURVE('',#318,#319,#386,.T.);
#227=EDGE_CURVE('',#319,#320,#387,.T.);
#228=EDGE_CURVE('',#320,#321,#388,.T.);
#229=EDGE_CURVE('',#321,#322,#389,.T.);
#230=EDGE_CURVE('',#322,#323,#390,.T.);
#231=EDGE_CURVE('',#324,#323,#391,.T.);
#232=EDGE_CURVE('',#325,#324,#392,.T.);
#233=EDGE_CURVE('',#325,#326,#393,.T.);
#234=EDGE_CURVE('',#326,#327,#394,.T.);
#235=EDGE_CURVE('',#328,#327,#395,.T.);
#236=EDGE_CURVE('',#328,#329,#396,.T.);
#237=EDGE_CURVE('',#318,#329,#397,.T.);
#238=EDGE_CURVE('',#330,#331,#398,.T.);
#239=EDGE_CURVE('',#330,#332,#399,.T.);
#240=EDGE_CURVE('',#332,#333,#400,.T.);
#241=EDGE_CURVE('',#331,#333,#401,.T.);
#242=EDGE_CURVE('',#334,#335,#402,.T.);
#243=EDGE_CURVE('',#335,#329,#403,.T.);
#244=EDGE_CURVE('',#328,#336,#404,.T.);
#245=EDGE_CURVE('',#337,#336,#405,.T.);
#246=EDGE_CURVE('',#337,#334,#406,.T.);
#247=EDGE_CURVE('',#338,#339,#407,.T.);
#248=EDGE_CURVE('',#338,#340,#408,.T.);
#249=EDGE_CURVE('',#340,#341,#409,.T.);
#250=EDGE_CURVE('',#341,#339,#410,.T.);
#251=EDGE_CURVE('',#342,#343,#411,.T.);
#252=EDGE_CURVE('',#342,#344,#412,.T.);
#253=EDGE_CURVE('',#345,#344,#413,.T.);
#254=EDGE_CURVE('',#346,#345,#414,.T.);
#255=EDGE_CURVE('',#346,#347,#415,.T.);
#256=EDGE_CURVE('',#341,#347,#416,.T.);
#257=EDGE_CURVE('',#343,#340,#417,.T.);
#258=EDGE_CURVE('',#339,#321,#418,.T.);
#259=EDGE_CURVE('',#348,#347,#419,.T.);
#260=EDGE_CURVE('',#348,#326,#420,.T.);
#261=EDGE_CURVE('',#349,#325,#421,.T.);
#262=EDGE_CURVE('',#349,#350,#422,.T.);
#263=EDGE_CURVE('',#350,#322,#423,.T.);
#264=EDGE_CURVE('',#351,#352,#424,.T.);
#265=EDGE_CURVE('',#353,#351,#425,.T.);
#266=EDGE_CURVE('',#354,#353,#426,.T.);
#267=EDGE_CURVE('',#354,#352,#427,.T.);
#268=EDGE_CURVE('',#335,#344,#428,.T.);
#269=EDGE_CURVE('',#345,#334,#429,.T.);
#270=EDGE_CURVE('',#346,#352,#430,.T.);
#271=EDGE_CURVE('',#337,#351,#431,.T.);
#272=EDGE_CURVE('',#355,#324,#432,.T.);
#273=EDGE_CURVE('',#349,#355,#433,.T.);
#274=EDGE_CURVE('',#356,#356,#22,.T.);
#275=EDGE_CURVE('',#357,#357,#23,.T.);
#276=EDGE_CURVE('',#358,#358,#24,.T.);
#277=EDGE_CURVE('',#359,#359,#25,.T.);
#278=EDGE_CURVE('',#355,#360,#434,.T.);
#279=EDGE_CURVE('',#350,#360,#435,.T.);
#280=EDGE_CURVE('',#360,#323,#436,.T.);
#281=EDGE_CURVE('',#361,#361,#26,.T.);
#282=EDGE_CURVE('',#362,#362,#27,.T.);
#283=EDGE_CURVE('',#363,#348,#437,.T.);
#284=EDGE_CURVE('',#363,#364,#438,.T.);
#285=EDGE_CURVE('',#364,#365,#439,.T.);
#286=EDGE_CURVE('',#327,#365,#440,.T.);
#287=EDGE_CURVE('',#366,#366,#28,.F.);
#288=EDGE_CURVE('',#367,#367,#29,.F.);
#289=EDGE_CURVE('',#368,#368,#30,.F.);
#290=EDGE_CURVE('',#369,#369,#31,.F.);
#291=EDGE_CURVE('',#370,#370,#32,.T.);
#292=EDGE_CURVE('',#371,#371,#33,.T.);
#293=EDGE_CURVE('',#372,#372,#34,.T.);
#294=EDGE_CURVE('',#373,#373,#35,.T.);
#295=EDGE_CURVE('',#363,#354,#441,.T.);
#296=EDGE_CURVE('',#374,#375,#442,.T.);
#297=EDGE_CURVE('',#376,#374,#443,.T.);
#298=EDGE_CURVE('',#376,#377,#444,.T.);
#299=EDGE_CURVE('',#377,#353,#445,.T.);
#300=EDGE_CURVE('',#365,#336,#446,.T.);
#301=EDGE_CURVE('',#364,#375,#447,.T.);
#302=EDGE_CURVE('',#377,#332,#448,.T.);
#303=EDGE_CURVE('',#375,#330,#449,.T.);
#304=EDGE_CURVE('',#378,#378,#36,.T.);
#305=EDGE_CURVE('',#379,#379,#37,.T.);
#306=EDGE_CURVE('',#338,#320,#450,.T.);
#307=EDGE_CURVE('',#380,#380,#38,.T.);
#308=EDGE_CURVE('',#381,#381,#39,.T.);
#309=EDGE_CURVE('',#382,#382,#40,.T.);
#310=EDGE_CURVE('',#383,#383,#41,.T.);
#311=EDGE_CURVE('',#384,#342,#451,.T.);
#312=EDGE_CURVE('',#384,#318,#452,.T.);
#313=EDGE_CURVE('',#385,#319,#453,.T.);
#314=EDGE_CURVE('',#385,#343,#454,.T.);
#315=EDGE_CURVE('',#384,#385,#455,.T.);
#316=EDGE_CURVE('',#374,#331,#456,.T.);
#317=EDGE_CURVE('',#376,#333,#457,.T.);
#318=VERTEX_POINT('',#997);
#319=VERTEX_POINT('',#998);
#320=VERTEX_POINT('',#1000);
#321=VERTEX_POINT('',#1002);
#322=VERTEX_POINT('',#1004);
#323=VERTEX_POINT('',#1006);
#324=VERTEX_POINT('',#1008);
#325=VERTEX_POINT('',#1010);
#326=VERTEX_POINT('',#1012);
#327=VERTEX_POINT('',#1014);
#328=VERTEX_POINT('',#1016);
#329=VERTEX_POINT('',#1018);
#330=VERTEX_POINT('',#1021);
#331=VERTEX_POINT('',#1022);
#332=VERTEX_POINT('',#1024);
#333=VERTEX_POINT('',#1026);
#334=VERTEX_POINT('',#1030);
#335=VERTEX_POINT('',#1031);
#336=VERTEX_POINT('',#1034);
#337=VERTEX_POINT('',#1036);
#338=VERTEX_POINT('',#1040);
#339=VERTEX_POINT('',#1041);
#340=VERTEX_POINT('',#1043);
#341=VERTEX_POINT('',#1045);
#342=VERTEX_POINT('',#1049);
#343=VERTEX_POINT('',#1050);
#344=VERTEX_POINT('',#1052);
#345=VERTEX_POINT('',#1054);
#346=VERTEX_POINT('',#1056);
#347=VERTEX_POINT('',#1058);
#348=VERTEX_POINT('',#1064);
#349=VERTEX_POINT('',#1067);
#350=VERTEX_POINT('',#1069);
#351=VERTEX_POINT('',#1073);
#352=VERTEX_POINT('',#1074);
#353=VERTEX_POINT('',#1076);
#354=VERTEX_POINT('',#1078);
#355=VERTEX_POINT('',#1088);
#356=VERTEX_POINT('',#1092);
#357=VERTEX_POINT('',#1094);
#358=VERTEX_POINT('',#1096);
#359=VERTEX_POINT('',#1098);
#360=VERTEX_POINT('',#1100);
#361=VERTEX_POINT('',#1106);
#362=VERTEX_POINT('',#1108);
#363=VERTEX_POINT('',#1111);
#364=VERTEX_POINT('',#1113);
#365=VERTEX_POINT('',#1115);
#366=VERTEX_POINT('',#1119);
#367=VERTEX_POINT('',#1121);
#368=VERTEX_POINT('',#1123);
#369=VERTEX_POINT('',#1125);
#370=VERTEX_POINT('',#1127);
#371=VERTEX_POINT('',#1129);
#372=VERTEX_POINT('',#1131);
#373=VERTEX_POINT('',#1133);
#374=VERTEX_POINT('',#1137);
#375=VERTEX_POINT('',#1138);
#376=VERTEX_POINT('',#1140);
#377=VERTEX_POINT('',#1142);
#378=VERTEX_POINT('',#1150);
#379=VERTEX_POINT('',#1152);
#380=VERTEX_POINT('',#1164);
#381=VERTEX_POINT('',#1168);
#382=VERTEX_POINT('',#1172);
#383=VERTEX_POINT('',#1176);
#384=VERTEX_POINT('',#1180);
#385=VERTEX_POINT('',#1184);
#386=LINE('',#996,#458);
#387=LINE('',#999,#459);
#388=LINE('',#1001,#460);
#389=LINE('',#1003,#461);
#390=LINE('',#1005,#462);
#391=LINE('',#1007,#463);
#392=LINE('',#1009,#464);
#393=LINE('',#1011,#465);
#394=LINE('',#1013,#466);
#395=LINE('',#1015,#467);
#396=LINE('',#1017,#468);
#397=LINE('',#1019,#469);
#398=LINE('',#1020,#470);
#399=LINE('',#1023,#471);
#400=LINE('',#1025,#472);
#401=LINE('',#1027,#473);
#402=LINE('',#1029,#474);
#403=LINE('',#1032,#475);
#404=LINE('',#1033,#476);
#405=LINE('',#1035,#477);
#406=LINE('',#1037,#478);
#407=LINE('',#1039,#479);
#408=LINE('',#1042,#480);
#409=LINE('',#1044,#481);
#410=LINE('',#1046,#482);
#411=LINE('',#1048,#483);
#412=LINE('',#1051,#484);
#413=LINE('',#1053,#485);
#414=LINE('',#1055,#486);
#415=LINE('',#1057,#487);
#416=LINE('',#1059,#488);
#417=LINE('',#1060,#489);
#418=LINE('',#1062,#490);
#419=LINE('',#1063,#491);
#420=LINE('',#1065,#492);
#421=LINE('',#1066,#493);
#422=LINE('',#1068,#494);
#423=LINE('',#1070,#495);
#424=LINE('',#1072,#496);
#425=LINE('',#1075,#497);
#426=LINE('',#1077,#498);
#427=LINE('',#1079,#499);
#428=LINE('',#1081,#500);
#429=LINE('',#1082,#501);
#430=LINE('',#1084,#502);
#431=LINE('',#1085,#503);
#432=LINE('',#1087,#504);
#433=LINE('',#1089,#505);
#434=LINE('',#1099,#506);
#435=LINE('',#1101,#507);
#436=LINE('',#1103,#508);
#437=LINE('',#1110,#509);
#438=LINE('',#1112,#510);
#439=LINE('',#1114,#511);
#440=LINE('',#1116,#512);
#441=LINE('',#1134,#513);
#442=LINE('',#1136,#514);
#443=LINE('',#1139,#515);
#444=LINE('',#1141,#516);
#445=LINE('',#1143,#517);
#446=LINE('',#1144,#518);
#447=LINE('',#1145,#519);
#448=LINE('',#1147,#520);
#449=LINE('',#1148,#521);
#450=LINE('',#1160,#522);
#451=LINE('',#1179,#523);
#452=LINE('',#1181,#524);
#453=LINE('',#1183,#525);
#454=LINE('',#1185,#526);
#455=LINE('',#1187,#527);
#456=LINE('',#1190,#528);
#457=LINE('',#1192,#529);
#458=VECTOR('',#806,1.);
#459=VECTOR('',#807,1.);
#460=VECTOR('',#808,1.);
#461=VECTOR('',#809,1.);
#462=VECTOR('',#810,1.);
#463=VECTOR('',#811,1.);
#464=VECTOR('',#812,1.);
#465=VECTOR('',#813,1.);
#466=VECTOR('',#814,1.);
#467=VECTOR('',#815,1.);
#468=VECTOR('',#816,1.);
#469=VECTOR('',#817,1.);
#470=VECTOR('',#818,1.);
#471=VECTOR('',#819,1.);
#472=VECTOR('',#820,1.);
#473=VECTOR('',#821,1.);
#474=VECTOR('',#824,1.);
#475=VECTOR('',#825,1.);
#476=VECTOR('',#826,1.);
#477=VECTOR('',#827,1.);
#478=VECTOR('',#828,1.);
#479=VECTOR('',#831,1.);
#480=VECTOR('',#832,1.);
#481=VECTOR('',#833,1.);
#482=VECTOR('',#834,1.);
#483=VECTOR('',#837,1.);
#484=VECTOR('',#838,1.);
#485=VECTOR('',#839,1.);
#486=VECTOR('',#840,1.);
#487=VECTOR('',#841,1.);
#488=VECTOR('',#842,1.);
#489=VECTOR('',#843,1.);
#490=VECTOR('',#846,1.);
#491=VECTOR('',#847,1.);
#492=VECTOR('',#848,1.);
#493=VECTOR('',#849,1.);
#494=VECTOR('',#850,1.);
#495=VECTOR('',#851,1.);
#496=VECTOR('',#854,1.);
#497=VECTOR('',#855,1.);
#498=VECTOR('',#856,1.);
#499=VECTOR('',#857,1.);
#500=VECTOR('',#860,1.);
#501=VECTOR('',#861,1.);
#502=VECTOR('',#864,1.);
#503=VECTOR('',#865,1.);
#504=VECTOR('',#868,1.);
#505=VECTOR('',#869,1.);
#506=VECTOR('',#880,1.);
#507=VECTOR('',#881,1.);
#508=VECTOR('',#884,1.);
#509=VECTOR('',#893,1.);
#510=VECTOR('',#894,1.);
#511=VECTOR('',#895,1.);
#512=VECTOR('',#896,1.);
#513=VECTOR('',#915,1.);
#514=VECTOR('',#918,1.);
#515=VECTOR('',#919,1.);
#516=VECTOR('',#920,1.);
#517=VECTOR('',#921,1.);
#518=VECTOR('',#922,1.);
#519=VECTOR('',#923,1.);
#520=VECTOR('',#926,1.);
#521=VECTOR('',#927,1.);
#522=VECTOR('',#946,1.);
#523=VECTOR('',#975,1.);
#524=VECTOR('',#976,1.);
#525=VECTOR('',#979,1.);
#526=VECTOR('',#980,1.);
#527=VECTOR('',#983,1.);
#528=VECTOR('',#988,1.);
#529=VECTOR('',#991,1.);
#530=EDGE_LOOP('',(#42,#43,#44,#45,#46,#47,#48,#49,#50,#51,#52,#53));
#531=EDGE_LOOP('',(#54,#55,#56,#57));
#532=EDGE_LOOP('',(#58,#59,#60,#61,#62,#63));
#533=EDGE_LOOP('',(#64,#65,#66,#67));
#534=EDGE_LOOP('',(#68,#69,#70,#71,#72,#73,#74,#75));
#535=EDGE_LOOP('',(#76,#77,#78,#79,#80,#81,#82,#83,#84,#85));
#536=EDGE_LOOP('',(#86,#87,#88,#89));
#537=EDGE_LOOP('',(#90,#91,#92,#93));
#538=EDGE_LOOP('',(#94,#95,#96,#97,#98,#99));
#539=EDGE_LOOP('',(#100,#101,#102,#103));
#540=EDGE_LOOP('',(#104));
#541=EDGE_LOOP('',(#105));
#542=EDGE_LOOP('',(#106));
#543=EDGE_LOOP('',(#107));
#544=EDGE_LOOP('',(#108,#109,#110,#111));
#545=EDGE_LOOP('',(#112,#113,#114,#115));
#546=EDGE_LOOP('',(#116));
#547=EDGE_LOOP('',(#117));
#548=EDGE_LOOP('',(#118,#119,#120,#121));
#549=EDGE_LOOP('',(#122,#123,#124,#125,#126,#127));
#550=EDGE_LOOP('',(#128));
#551=EDGE_LOOP('',(#129));
#552=EDGE_LOOP('',(#130));
#553=EDGE_LOOP('',(#131));
#554=EDGE_LOOP('',(#132));
#555=EDGE_LOOP('',(#133));
#556=EDGE_LOOP('',(#134));
#557=EDGE_LOOP('',(#135));
#558=EDGE_LOOP('',(#136,#137,#138,#139,#140,#141));
#559=EDGE_LOOP('',(#142,#143,#144,#145,#146,#147,#148,#149,#150,#151));
#560=EDGE_LOOP('',(#152,#153,#154,#155,#156,#157,#158,#159));
#561=EDGE_LOOP('',(#160));
#562=EDGE_LOOP('',(#161));
#563=EDGE_LOOP('',(#162));
#564=EDGE_LOOP('',(#163));
#565=EDGE_LOOP('',(#164));
#566=EDGE_LOOP('',(#165));
#567=EDGE_LOOP('',(#166));
#568=EDGE_LOOP('',(#167));
#569=EDGE_LOOP('',(#168));
#570=EDGE_LOOP('',(#169));
#571=EDGE_LOOP('',(#170));
#572=EDGE_LOOP('',(#171));
#573=EDGE_LOOP('',(#172));
#574=EDGE_LOOP('',(#173));
#575=EDGE_LOOP('',(#174,#175,#176,#177));
#576=EDGE_LOOP('',(#178,#179,#180,#181));
#577=EDGE_LOOP('',(#182));
#578=EDGE_LOOP('',(#183));
#579=EDGE_LOOP('',(#184));
#580=EDGE_LOOP('',(#185));
#581=EDGE_LOOP('',(#186));
#582=EDGE_LOOP('',(#187));
#583=EDGE_LOOP('',(#188));
#584=EDGE_LOOP('',(#189));
#585=EDGE_LOOP('',(#190));
#586=EDGE_LOOP('',(#191));
#587=EDGE_LOOP('',(#192));
#588=EDGE_LOOP('',(#193));
#589=EDGE_LOOP('',(#194,#195,#196,#197,#198,#199));
#590=EDGE_LOOP('',(#200,#201,#202,#203,#204,#205));
#591=EDGE_LOOP('',(#206,#207,#208,#209));
#592=EDGE_LOOP('',(#210,#211,#212,#213));
#593=EDGE_LOOP('',(#214,#215,#216,#217));
#594=EDGE_LOOP('',(#218,#219,#220,#221));
#595=EDGE_LOOP('',(#222,#223,#224,#225));
#596=FACE_BOUND('',#530,.T.);
#597=FACE_BOUND('',#531,.T.);
#598=FACE_BOUND('',#532,.T.);
#599=FACE_BOUND('',#533,.T.);
#600=FACE_BOUND('',#534,.T.);
#601=FACE_BOUND('',#535,.T.);
#602=FACE_BOUND('',#536,.T.);
#603=FACE_BOUND('',#537,.T.);
#604=FACE_BOUND('',#538,.T.);
#605=FACE_BOUND('',#539,.T.);
#606=FACE_BOUND('',#540,.T.);
#607=FACE_BOUND('',#541,.T.);
#608=FACE_BOUND('',#542,.T.);
#609=FACE_BOUND('',#543,.T.);
#610=FACE_BOUND('',#544,.T.);
#611=FACE_BOUND('',#545,.T.);
#612=FACE_BOUND('',#546,.T.);
#613=FACE_BOUND('',#547,.T.);
#614=FACE_BOUND('',#548,.T.);
#615=FACE_BOUND('',#549,.T.);
#616=FACE_BOUND('',#550,.T.);
#617=FACE_BOUND('',#551,.T.);
#618=FACE_BOUND('',#552,.T.);
#619=FACE_BOUND('',#553,.T.);
#620=FACE_BOUND('',#554,.T.);
#621=FACE_BOUND('',#555,.T.);
#622=FACE_BOUND('',#556,.T.);
#623=FACE_BOUND('',#557,.T.);
#624=FACE_BOUND('',#558,.T.);
#625=FACE_BOUND('',#559,.T.);
#626=FACE_BOUND('',#560,.T.);
#627=FACE_BOUND('',#561,.T.);
#628=FACE_BOUND('',#562,.T.);
#629=FACE_BOUND('',#563,.T.);
#630=FACE_BOUND('',#564,.T.);
#631=FACE_BOUND('',#565,.T.);
#632=FACE_BOUND('',#566,.T.);
#633=FACE_BOUND('',#567,.T.);
#634=FACE_BOUND('',#568,.T.);
#635=FACE_BOUND('',#569,.T.);
#636=FACE_BOUND('',#570,.T.);
#637=FACE_BOUND('',#571,.T.);
#638=FACE_BOUND('',#572,.T.);
#639=FACE_BOUND('',#573,.T.);
#640=FACE_BOUND('',#574,.T.);
#641=FACE_BOUND('',#575,.T.);
#642=FACE_BOUND('',#576,.T.);
#643=FACE_BOUND('',#577,.T.);
#644=FACE_BOUND('',#578,.T.);
#645=FACE_BOUND('',#579,.T.);
#646=FACE_BOUND('',#580,.T.);
#647=FACE_BOUND('',#581,.T.);
#648=FACE_BOUND('',#582,.T.);
#649=FACE_BOUND('',#583,.T.);
#650=FACE_BOUND('',#584,.T.);
#651=FACE_BOUND('',#585,.T.);
#652=FACE_BOUND('',#586,.T.);
#653=FACE_BOUND('',#587,.T.);
#654=FACE_BOUND('',#588,.T.);
#655=FACE_BOUND('',#589,.T.);
#656=FACE_BOUND('',#590,.T.);
#657=FACE_BOUND('',#591,.T.);
#658=FACE_BOUND('',#592,.T.);
#659=FACE_BOUND('',#593,.T.);
#660=FACE_BOUND('',#594,.T.);
#661=FACE_BOUND('',#595,.T.);
#662=PLANE('',#743);
#663=PLANE('',#744);
#664=PLANE('',#745);
#665=PLANE('',#746);
#666=PLANE('',#747);
#667=PLANE('',#748);
#668=PLANE('',#749);
#669=PLANE('',#750);
#670=PLANE('',#751);
#671=PLANE('',#752);
#672=PLANE('',#757);
#673=PLANE('',#758);
#674=PLANE('',#761);
#675=PLANE('',#762);
#676=PLANE('',#771);
#677=PLANE('',#772);
#678=PLANE('',#781);
#679=PLANE('',#782);
#680=PLANE('',#785);
#681=PLANE('',#788);
#682=PLANE('',#791);
#683=PLANE('',#794);
#684=PLANE('',#795);
#685=PLANE('',#796);
#686=PLANE('',#797);
#687=PLANE('',#798);
#688=PLANE('',#799);
#689=PLANE('',#800);
#690=PLANE('',#801);
#691=ADVANCED_FACE('',(#596,#597),#662,.T.);
#692=ADVANCED_FACE('',(#598),#663,.T.);
#693=ADVANCED_FACE('',(#599),#664,.T.);
#694=ADVANCED_FACE('',(#600),#665,.T.);
#695=ADVANCED_FACE('',(#601),#666,.T.);
#696=ADVANCED_FACE('',(#602),#667,.F.);
#697=ADVANCED_FACE('',(#603),#668,.T.);
#698=ADVANCED_FACE('',(#604),#669,.T.);
#699=ADVANCED_FACE('',(#605),#670,.T.);
#700=ADVANCED_FACE('',(#606,#607,#608,#609,#610),#671,.F.);
#701=ADVANCED_FACE('',(#611),#672,.F.);
#702=ADVANCED_FACE('',(#612,#613,#614),#673,.F.);
#703=ADVANCED_FACE('',(#615),#674,.T.);
#704=ADVANCED_FACE('',(#616,#617,#618,#619,#620,#621,#622,#623,#624),#675,
 .F.);
#705=ADVANCED_FACE('',(#625),#676,.T.);
#706=ADVANCED_FACE('',(#626,#627,#628),#677,.T.);
#707=ADVANCED_FACE('',(#629,#630),#12,.F.);
#708=ADVANCED_FACE('',(#631,#632),#13,.F.);
#709=ADVANCED_FACE('',(#633,#634),#14,.F.);
#710=ADVANCED_FACE('',(#635,#636),#15,.F.);
#711=ADVANCED_FACE('',(#637,#638),#16,.F.);
#712=ADVANCED_FACE('',(#639,#640),#17,.F.);
#713=ADVANCED_FACE('',(#641),#678,.T.);
#714=ADVANCED_FACE('',(#642),#679,.F.);
#715=ADVANCED_FACE('',(#643,#644),#18,.T.);
#716=ADVANCED_FACE('',(#645),#680,.T.);
#717=ADVANCED_FACE('',(#646,#647),#19,.T.);
#718=ADVANCED_FACE('',(#648),#681,.T.);
#719=ADVANCED_FACE('',(#649,#650),#20,.T.);
#720=ADVANCED_FACE('',(#651),#682,.T.);
#721=ADVANCED_FACE('',(#652,#653),#21,.T.);
#722=ADVANCED_FACE('',(#654),#683,.T.);
#723=ADVANCED_FACE('',(#655),#684,.F.);
#724=ADVANCED_FACE('',(#656),#685,.T.);
#725=ADVANCED_FACE('',(#657),#686,.T.);
#726=ADVANCED_FACE('',(#658),#687,.T.);
#727=ADVANCED_FACE('',(#659),#688,.F.);
#728=ADVANCED_FACE('',(#660),#689,.F.);
#729=ADVANCED_FACE('',(#661),#690,.T.);
#730=CLOSED_SHELL('',(#691,#692,#693,#694,#695,#696,#697,#698,#699,#700,
#701,#702,#703,#704,#705,#706,#707,#708,#709,#710,#711,#712,#713,#714,#715,
#716,#717,#718,#719,#720,#721,#722,#723,#724,#725,#726,#727,#728,#729));
#731=STYLED_ITEM('',(#732),#739);
#732=PRESENTATION_STYLE_ASSIGNMENT((#733));
#733=SURFACE_STYLE_USAGE(.BOTH.,#734);
#734=SURFACE_SIDE_STYLE('',(#735));
#735=SURFACE_STYLE_FILL_AREA(#736);
#736=FILL_AREA_STYLE('',(#737));
#737=FILL_AREA_STYLE_COLOUR('',#738);
#738=COLOUR_RGB('',0.615686274509804,0.811764705882353,0.929411764705882);
#739=MANIFOLD_SOLID_BREP('Part 1',#730);
#740=SHAPE_DEFINITION_REPRESENTATION(#1200,#741);
#741=SHAPE_REPRESENTATION('Part 1',(#742),#1195);
#742=AXIS2_PLACEMENT_3D('',#994,#802,#803);
#743=AXIS2_PLACEMENT_3D('',#995,#804,#805);
#744=AXIS2_PLACEMENT_3D('',#1028,#822,#823);
#745=AXIS2_PLACEMENT_3D('',#1038,#829,#830);
#746=AXIS2_PLACEMENT_3D('',#1047,#835,#836);
#747=AXIS2_PLACEMENT_3D('',#1061,#844,#845);
#748=AXIS2_PLACEMENT_3D('',#1071,#852,#853);
#749=AXIS2_PLACEMENT_3D('',#1080,#858,#859);
#750=AXIS2_PLACEMENT_3D('',#1083,#862,#863);
#751=AXIS2_PLACEMENT_3D('',#1086,#866,#867);
#752=AXIS2_PLACEMENT_3D('',#1090,#870,#871);
#753=AXIS2_PLACEMENT_3D('',#1091,#872,#873);
#754=AXIS2_PLACEMENT_3D('',#1093,#874,#875);
#755=AXIS2_PLACEMENT_3D('',#1095,#876,#877);
#756=AXIS2_PLACEMENT_3D('',#1097,#878,#879);
#757=AXIS2_PLACEMENT_3D('',#1102,#882,#883);
#758=AXIS2_PLACEMENT_3D('',#1104,#885,#886);
#759=AXIS2_PLACEMENT_3D('',#1105,#887,#888);
#760=AXIS2_PLACEMENT_3D('',#1107,#889,#890);
#761=AXIS2_PLACEMENT_3D('',#1109,#891,#892);
#762=AXIS2_PLACEMENT_3D('',#1117,#897,#898);
#763=AXIS2_PLACEMENT_3D('',#1118,#899,#900);
#764=AXIS2_PLACEMENT_3D('',#1120,#901,#902);
#765=AXIS2_PLACEMENT_3D('',#1122,#903,#904);
#766=AXIS2_PLACEMENT_3D('',#1124,#905,#906);
#767=AXIS2_PLACEMENT_3D('',#1126,#907,#908);
#768=AXIS2_PLACEMENT_3D('',#1128,#909,#910);
#769=AXIS2_PLACEMENT_3D('',#1130,#911,#912);
#770=AXIS2_PLACEMENT_3D('',#1132,#913,#914);
#771=AXIS2_PLACEMENT_3D('',#1135,#916,#917);
#772=AXIS2_PLACEMENT_3D('',#1146,#924,#925);
#773=AXIS2_PLACEMENT_3D('',#1149,#928,#929);
#774=AXIS2_PLACEMENT_3D('',#1151,#930,#931);
#775=AXIS2_PLACEMENT_3D('',#1153,#932,#933);
#776=AXIS2_PLACEMENT_3D('',#1154,#934,#935);
#777=AXIS2_PLACEMENT_3D('',#1155,#936,#937);
#778=AXIS2_PLACEMENT_3D('',#1156,#938,#939);
#779=AXIS2_PLACEMENT_3D('',#1157,#940,#941);
#780=AXIS2_PLACEMENT_3D('',#1158,#942,#943);
#781=AXIS2_PLACEMENT_3D('',#1159,#944,#945);
#782=AXIS2_PLACEMENT_3D('',#1161,#947,#948);
#783=AXIS2_PLACEMENT_3D('',#1162,#949,#950);
#784=AXIS2_PLACEMENT_3D('',#1163,#951,#952);
#785=AXIS2_PLACEMENT_3D('',#1165,#953,#954);
#786=AXIS2_PLACEMENT_3D('',#1166,#955,#956);
#787=AXIS2_PLACEMENT_3D('',#1167,#957,#958);
#788=AXIS2_PLACEMENT_3D('',#1169,#959,#960);
#789=AXIS2_PLACEMENT_3D('',#1170,#961,#962);
#790=AXIS2_PLACEMENT_3D('',#1171,#963,#964);
#791=AXIS2_PLACEMENT_3D('',#1173,#965,#966);
#792=AXIS2_PLACEMENT_3D('',#1174,#967,#968);
#793=AXIS2_PLACEMENT_3D('',#1175,#969,#970);
#794=AXIS2_PLACEMENT_3D('',#1177,#971,#972);
#795=AXIS2_PLACEMENT_3D('',#1178,#973,#974);
#796=AXIS2_PLACEMENT_3D('',#1182,#977,#978);
#797=AXIS2_PLACEMENT_3D('',#1186,#981,#982);
#798=AXIS2_PLACEMENT_3D('',#1188,#984,#985);
#799=AXIS2_PLACEMENT_3D('',#1189,#986,#987);
#800=AXIS2_PLACEMENT_3D('',#1191,#989,#990);
#801=AXIS2_PLACEMENT_3D('',#1193,#992,#993);
#802=DIRECTION('',(0.,0.,1.));
#803=DIRECTION('',(1.,0.,0.));
#804=DIRECTION('',(1.27319154200133E-16,-1.,0.));
#805=DIRECTION('',(1.,1.27319154200133E-16,0.));
#806=DIRECTION('',(0.,0.,1.));
#807=DIRECTION('',(1.,0.,0.));
#808=DIRECTION('',(0.,0.,1.));
#809=DIRECTION('',(-1.,-1.27319154200133E-16,0.));
#810=DIRECTION('',(0.,0.,-1.));
#811=DIRECTION('',(-1.,-1.27319154200133E-16,0.));
#812=DIRECTION('',(0.,0.,-1.));
#813=DIRECTION('',(-1.,-1.27319154200133E-16,0.));
#814=DIRECTION('',(0.,0.,-1.));
#815=DIRECTION('',(1.,1.27319154200133E-16,0.));
#816=DIRECTION('',(0.,0.,1.));
#817=DIRECTION('',(1.,0.,0.));
#818=DIRECTION('',(0.,0.,1.));
#819=DIRECTION('',(-1.,-1.27319154200133E-16,0.));
#820=DIRECTION('',(-2.31296463463574E-16,-2.94484700976641E-32,1.));
#821=DIRECTION('',(-1.,-1.27319154200133E-16,-1.38777878078145E-16));
#822=DIRECTION('',(1.,0.,0.));
#823=DIRECTION('',(0.,1.,0.));
#824=DIRECTION('',(0.,0.,1.));
#825=DIRECTION('',(0.,-1.,0.));
#826=DIRECTION('',(0.,1.,0.));
#827=DIRECTION('',(0.,0.,-1.));
#828=DIRECTION('',(0.,1.,0.));
#829=DIRECTION('',(0.,-1.,0.));
#830=DIRECTION('',(1.,0.,0.));
#831=DIRECTION('',(0.,0.,1.));
#832=DIRECTION('',(1.,0.,0.));
#833=DIRECTION('',(0.,0.,1.));
#834=DIRECTION('',(-1.,0.,0.));
#835=DIRECTION('',(1.,0.,0.));
#836=DIRECTION('',(0.,0.,-1.));
#837=DIRECTION('',(0.,0.,1.));
#838=DIRECTION('',(0.,-1.,0.));
#839=DIRECTION('',(0.,0.,1.));
#840=DIRECTION('',(0.,-1.,0.));
#841=DIRECTION('',(0.,0.,1.));
#842=DIRECTION('',(0.,1.,0.));
#843=DIRECTION('',(0.,-1.,0.));
#844=DIRECTION('',(0.,0.,1.));
#845=DIRECTION('',(1.,0.,0.));
#846=DIRECTION('',(0.,-1.,0.));
#847=DIRECTION('',(-1.,0.,0.));
#848=DIRECTION('',(0.,-1.,0.));
#849=DIRECTION('',(1.98254111540206E-16,-1.,0.));
#850=DIRECTION('',(-1.,-1.27319154200133E-16,0.));
#851=DIRECTION('',(1.98254111540206E-16,-1.,0.));
#852=DIRECTION('',(-1.,0.,0.));
#853=DIRECTION('',(0.,0.,1.));
#854=DIRECTION('',(0.,1.,0.));
#855=DIRECTION('',(0.,0.,1.));
#856=DIRECTION('',(0.,-1.,0.));
#857=DIRECTION('',(0.,0.,1.));
#858=DIRECTION('',(0.,-1.,0.));
#859=DIRECTION('',(1.,0.,0.));
#860=DIRECTION('',(1.,0.,0.));
#861=DIRECTION('',(-1.,0.,-1.28498035257541E-16));
#862=DIRECTION('',(1.28498035257541E-16,0.,-1.));
#863=DIRECTION('',(-1.,0.,-1.28498035257541E-16));
#864=DIRECTION('',(-1.,0.,-1.28498035257541E-16));
#865=DIRECTION('',(-1.,0.,0.));
#866=DIRECTION('',(1.,1.98254111540206E-16,0.));
#867=DIRECTION('',(-1.98254111540206E-16,1.,0.));
#868=DIRECTION('',(1.98254111540206E-16,-1.,0.));
#869=DIRECTION('',(0.,0.,-1.));
#870=DIRECTION('',(1.27319154200133E-16,-1.,0.));
#871=DIRECTION('',(1.,1.27319154200133E-16,0.));
#872=DIRECTION('',(-1.27319154200133E-16,1.,0.));
#873=DIRECTION('',(-1.,-1.27319154200133E-16,0.));
#874=DIRECTION('',(-1.27319154200133E-16,1.,0.));
#875=DIRECTION('',(-1.,-1.27319154200133E-16,0.));
#876=DIRECTION('',(-1.27319154200133E-16,1.,0.));
#877=DIRECTION('',(-1.,-1.27319154200133E-16,0.));
#878=DIRECTION('',(-1.27319154200133E-16,1.,0.));
#879=DIRECTION('',(-1.,-1.27319154200133E-16,0.));
#880=DIRECTION('',(-1.,-1.27319154200133E-16,0.));
#881=DIRECTION('',(0.,0.,-1.));
#882=DIRECTION('',(1.,1.98254111540206E-16,0.));
#883=DIRECTION('',(-1.98254111540206E-16,1.,0.));
#884=DIRECTION('',(1.98254111540206E-16,-1.,0.));
#885=DIRECTION('',(0.,0.,1.));
#886=DIRECTION('',(1.,0.,0.));
#887=DIRECTION('',(0.,0.,-1.));
#888=DIRECTION('',(-1.,0.,0.));
#889=DIRECTION('',(0.,0.,-1.));
#890=DIRECTION('',(-1.,0.,0.));
#891=DIRECTION('',(-1.,0.,0.));
#892=DIRECTION('',(0.,0.,1.));
#893=DIRECTION('',(0.,0.,1.));
#894=DIRECTION('',(0.,-1.,0.));
#895=DIRECTION('',(0.,0.,1.));
#896=DIRECTION('',(0.,1.,0.));
#897=DIRECTION('',(0.,1.,0.));
#898=DIRECTION('',(0.,0.,1.));
#899=DIRECTION('',(0.,1.,0.));
#900=DIRECTION('',(0.,0.,1.));
#901=DIRECTION('',(0.,1.,0.));
#902=DIRECTION('',(0.,0.,1.));
#903=DIRECTION('',(0.,1.,0.));
#904=DIRECTION('',(0.,0.,1.));
#905=DIRECTION('',(0.,1.,0.));
#906=DIRECTION('',(0.,0.,1.));
#907=DIRECTION('',(0.,1.,0.));
#908=DIRECTION('',(0.,0.,1.));
#909=DIRECTION('',(0.,1.,0.));
#910=DIRECTION('',(0.,0.,1.));
#911=DIRECTION('',(0.,1.,0.));
#912=DIRECTION('',(0.,0.,1.));
#913=DIRECTION('',(0.,1.,0.));
#914=DIRECTION('',(0.,0.,1.));
#915=DIRECTION('',(-1.,0.,0.));
#916=DIRECTION('',(0.,1.,0.));
#917=DIRECTION('',(0.,0.,1.));
#918=DIRECTION('',(0.,0.,-1.));
#919=DIRECTION('',(1.,0.,1.38777878078145E-16));
#920=DIRECTION('',(2.31296463463574E-16,0.,-1.));
#921=DIRECTION('',(-1.,0.,0.));
#922=DIRECTION('',(-1.,0.,0.));
#923=DIRECTION('',(-1.,0.,0.));
#924=DIRECTION('',(0.,0.,1.));
#925=DIRECTION('',(1.,0.,0.));
#926=DIRECTION('',(1.27319154200133E-16,-1.,0.));
#927=DIRECTION('',(1.27319154200133E-16,-1.,0.));
#928=DIRECTION('',(0.,0.,1.));
#929=DIRECTION('',(1.,0.,0.));
#930=DIRECTION('',(0.,0.,1.));
#931=DIRECTION('',(1.,0.,0.));
#932=DIRECTION('',(-1.27319154200133E-16,1.,0.));
#933=DIRECTION('',(-1.,-1.27319154200133E-16,0.));
#934=DIRECTION('',(-1.27319154200133E-16,1.,0.));
#935=DIRECTION('',(-1.,-1.27319154200133E-16,0.));
#936=DIRECTION('',(-1.27319154200133E-16,1.,0.));
#937=DIRECTION('',(-1.,-1.27319154200133E-16,0.));
#938=DIRECTION('',(-1.27319154200133E-16,1.,0.));
#939=DIRECTION('',(-1.,-1.27319154200133E-16,0.));
#940=DIRECTION('',(0.,0.,-1.));
#941=DIRECTION('',(-1.,0.,0.));
#942=DIRECTION('',(0.,0.,-1.));
#943=DIRECTION('',(-1.,0.,0.));
#944=DIRECTION('',(1.,0.,0.));
#945=DIRECTION('',(0.,1.,0.));
#946=DIRECTION('',(0.,-1.,0.));
#947=DIRECTION('',(0.,0.,-1.));
#948=DIRECTION('',(-1.,0.,0.));
#949=DIRECTION('',(0.,1.,0.));
#950=DIRECTION('',(0.,0.,1.));
#951=DIRECTION('',(0.,-1.,0.));
#952=DIRECTION('',(0.,0.,-1.));
#953=DIRECTION('',(0.,-1.,0.));
#954=DIRECTION('',(1.,0.,0.));
#955=DIRECTION('',(0.,1.,0.));
#956=DIRECTION('',(0.,0.,1.));
#957=DIRECTION('',(0.,-1.,0.));
#958=DIRECTION('',(0.,0.,-1.));
#959=DIRECTION('',(0.,-1.,0.));
#960=DIRECTION('',(1.,0.,0.));
#961=DIRECTION('',(0.,1.,0.));
#962=DIRECTION('',(0.,0.,1.));
#963=DIRECTION('',(0.,-1.,0.));
#964=DIRECTION('',(0.,0.,-1.));
#965=DIRECTION('',(0.,-1.,0.));
#966=DIRECTION('',(1.,0.,0.));
#967=DIRECTION('',(0.,1.,0.));
#968=DIRECTION('',(0.,0.,1.));
#969=DIRECTION('',(0.,-1.,0.));
#970=DIRECTION('',(0.,0.,-1.));
#971=DIRECTION('',(0.,-1.,0.));
#972=DIRECTION('',(1.,0.,0.));
#973=DIRECTION('',(0.,0.,-1.));
#974=DIRECTION('',(-1.,0.,0.));
#975=DIRECTION('',(1.,0.,0.));
#976=DIRECTION('',(0.,-1.,0.));
#977=DIRECTION('',(0.,0.,-1.));
#978=DIRECTION('',(-1.,0.,0.));
#979=DIRECTION('',(0.,-1.,0.));
#980=DIRECTION('',(1.,0.,0.));
#981=DIRECTION('',(0.,-1.,0.));
#982=DIRECTION('',(1.,0.,0.));
#983=DIRECTION('',(0.,0.,1.));
#984=DIRECTION('',(1.,0.,0.));
#985=DIRECTION('',(0.,1.,0.));
#986=DIRECTION('',(1.,1.27319154200133E-16,0.));
#987=DIRECTION('',(-1.27319154200133E-16,1.,0.));
#988=DIRECTION('',(1.27319154200133E-16,-1.,0.));
#989=DIRECTION('',(-1.38777878078145E-16,-1.76690820585985E-32,1.));
#990=DIRECTION('',(1.,0.,1.38777878078145E-16));
#991=DIRECTION('',(1.27319154200133E-16,-1.,0.));
#992=DIRECTION('',(1.,1.27319154200133E-16,2.31296463463574E-16));
#993=DIRECTION('',(2.31296463463574E-16,0.,-1.));
#994=CARTESIAN_POINT('',(0.,0.,0.));
#995=CARTESIAN_POINT('',(1.38777878078145E-17,-0.035,0.105));
#996=CARTESIAN_POINT('',(-0.1,-0.035,0.105));
#997=CARTESIAN_POINT('',(-0.1,-0.035,0.1016));
#998=CARTESIAN_POINT('',(-0.1,-0.035,0.104));
#999=CARTESIAN_POINT('',(-0.1,-0.035,0.104));
#1000=CARTESIAN_POINT('',(-0.098,-0.035,0.104));
#1001=CARTESIAN_POINT('',(-0.098,-0.035,0.105));
#1002=CARTESIAN_POINT('',(-0.098,-0.035,0.105));
#1003=CARTESIAN_POINT('',(1.38777878078145E-17,-0.035,0.105));
#1004=CARTESIAN_POINT('',(-0.109,-0.035,0.105));
#1005=CARTESIAN_POINT('',(-0.109,-0.035,0.105));
#1006=CARTESIAN_POINT('',(-0.109,-0.035,0.));
#1007=CARTESIAN_POINT('',(1.38777878078145E-17,-0.035,0.));
#1008=CARTESIAN_POINT('',(0.109,-0.035,0.));
#1009=CARTESIAN_POINT('',(0.109,-0.035,0.105));
#1010=CARTESIAN_POINT('',(0.109,-0.035,0.105));
#1011=CARTESIAN_POINT('',(1.38777878078145E-17,-0.035,0.105));
#1012=CARTESIAN_POINT('',(0.108,-0.035,0.105));
#1013=CARTESIAN_POINT('',(0.108,-0.035,0.105));
#1014=CARTESIAN_POINT('',(0.108,-0.035,0.09));
#1015=CARTESIAN_POINT('',(1.38777878078145E-17,-0.035,0.09));
#1016=CARTESIAN_POINT('',(-0.098,-0.035,0.09));
#1017=CARTESIAN_POINT('',(-0.098,-0.035,0.105));
#1018=CARTESIAN_POINT('',(-0.098,-0.035,0.1016));
#1019=CARTESIAN_POINT('',(-0.1,-0.035,0.1016));
#1020=CARTESIAN_POINT('',(4.45617039700464E-18,-0.035,0.0095));
#1021=CARTESIAN_POINT('',(4.33680868994202E-18,-0.035,0.002));
#1022=CARTESIAN_POINT('',(2.97196524752168E-49,-0.035,0.017));
#1023=CARTESIAN_POINT('',(-0.0125,-0.035,0.002));
#1024=CARTESIAN_POINT('',(-0.025,-0.035,0.002));
#1025=CARTESIAN_POINT('',(-0.025,-0.035,0.0095));
#1026=CARTESIAN_POINT('',(-0.025,-0.035,0.017));
#1027=CARTESIAN_POINT('',(-0.0125,-0.035,0.017));
#1028=CARTESIAN_POINT('',(-0.098,-6.93889390390723E-18,0.0535));
#1029=CARTESIAN_POINT('',(-0.098,0.014,0.002));
#1030=CARTESIAN_POINT('',(-0.098,0.014,0.101));
#1031=CARTESIAN_POINT('',(-0.098,0.014,0.1016));
#1032=CARTESIAN_POINT('',(-0.098,-0.0095,0.1016));
#1033=CARTESIAN_POINT('',(-0.098,-0.059,0.09));
#1034=CARTESIAN_POINT('',(-0.098,-0.034,0.09));
#1035=CARTESIAN_POINT('',(-0.098,-0.034,0.0975));
#1036=CARTESIAN_POINT('',(-0.098,-0.034,0.101));
#1037=CARTESIAN_POINT('',(-0.098,-0.01,0.101));
#1038=CARTESIAN_POINT('',(-1.38777878078145E-17,0.014,0.0535));
#1039=CARTESIAN_POINT('',(-0.098,0.014,0.002));
#1040=CARTESIAN_POINT('',(-0.098,0.014,0.104));
#1041=CARTESIAN_POINT('',(-0.098,0.014,0.105));
#1042=CARTESIAN_POINT('',(0.0038,0.014,0.104));
#1043=CARTESIAN_POINT('',(0.1056,0.014,0.104));
#1044=CARTESIAN_POINT('',(0.1056,0.014,0.095));
#1045=CARTESIAN_POINT('',(0.1056,0.014,0.105));
#1046=CARTESIAN_POINT('',(0.,0.014,0.105));
#1047=CARTESIAN_POINT('',(0.1056,0.024,0.095));
#1048=CARTESIAN_POINT('',(0.1056,0.016,0.095));
#1049=CARTESIAN_POINT('',(0.1056,0.016,0.1016));
#1050=CARTESIAN_POINT('',(0.1056,0.016,0.104));
#1051=CARTESIAN_POINT('',(0.1056,0.016,0.1016));
#1052=CARTESIAN_POINT('',(0.1056,0.014,0.1016));
#1053=CARTESIAN_POINT('',(0.1056,0.014,0.095));
#1054=CARTESIAN_POINT('',(0.1056,0.014,0.101));
#1055=CARTESIAN_POINT('',(0.1056,0.014,0.101));
#1056=CARTESIAN_POINT('',(0.1056,0.034,0.101));
#1057=CARTESIAN_POINT('',(0.1056,0.034,0.095));
#1058=CARTESIAN_POINT('',(0.1056,0.034,0.105));
#1059=CARTESIAN_POINT('',(0.1056,0.024,0.105));
#1060=CARTESIAN_POINT('',(0.1056,0.016,0.104));
#1061=CARTESIAN_POINT('',(0.,0.,0.105));
#1062=CARTESIAN_POINT('',(-0.098,0.,0.105));
#1063=CARTESIAN_POINT('',(0.1068,0.034,0.105));
#1064=CARTESIAN_POINT('',(0.108,0.034,0.105));
#1065=CARTESIAN_POINT('',(0.108,0.,0.105));
#1066=CARTESIAN_POINT('',(0.109,1.7347234759768E-17,0.105));
#1067=CARTESIAN_POINT('',(0.109,0.035,0.105));
#1068=CARTESIAN_POINT('',(0.,0.035,0.105));
#1069=CARTESIAN_POINT('',(-0.109,0.035,0.105));
#1070=CARTESIAN_POINT('',(-0.109,-6.93889390390723E-18,0.105));
#1071=CARTESIAN_POINT('',(-0.108,0.,0.002));
#1072=CARTESIAN_POINT('',(-0.108,0.014,0.101));
#1073=CARTESIAN_POINT('',(-0.108,-0.034,0.101));
#1074=CARTESIAN_POINT('',(-0.108,0.034,0.101));
#1075=CARTESIAN_POINT('',(-0.108,-0.034,0.002));
#1076=CARTESIAN_POINT('',(-0.108,-0.034,0.002));
#1077=CARTESIAN_POINT('',(-0.108,0.,0.002));
#1078=CARTESIAN_POINT('',(-0.108,0.034,0.002));
#1079=CARTESIAN_POINT('',(-0.108,0.034,0.002));
#1080=CARTESIAN_POINT('',(-1.38777878078145E-17,0.014,0.0535));
#1081=CARTESIAN_POINT('',(0.0038,0.014,0.1016));
#1082=CARTESIAN_POINT('',(0.,0.014,0.101));
#1083=CARTESIAN_POINT('',(0.,0.014,0.101));
#1084=CARTESIAN_POINT('',(0.,0.034,0.101));
#1085=CARTESIAN_POINT('',(-0.098,-0.034,0.101));
#1086=CARTESIAN_POINT('',(0.109,1.7347234759768E-17,0.105));
#1087=CARTESIAN_POINT('',(0.109,1.7347234759768E-17,0.));
#1088=CARTESIAN_POINT('',(0.109,0.035,0.));
#1089=CARTESIAN_POINT('',(0.109,0.035,0.105));
#1090=CARTESIAN_POINT('',(0.,0.035,0.105));
#1091=CARTESIAN_POINT('',(0.0149,0.035,0.043));
#1092=CARTESIAN_POINT('',(0.0133,0.035,0.043));
#1093=CARTESIAN_POINT('',(0.0374,0.035,0.043));
#1094=CARTESIAN_POINT('',(0.0358,0.035,0.043));
#1095=CARTESIAN_POINT('',(0.0694,0.035,0.0315));
#1096=CARTESIAN_POINT('',(0.0678,0.035,0.0315));
#1097=CARTESIAN_POINT('',(0.0819,0.035,0.043));
#1098=CARTESIAN_POINT('',(0.0803,0.035,0.043));
#1099=CARTESIAN_POINT('',(0.,0.035,0.));
#1100=CARTESIAN_POINT('',(-0.109,0.035,0.));
#1101=CARTESIAN_POINT('',(-0.109,0.035,0.105));
#1102=CARTESIAN_POINT('',(-0.109,-6.93889390390723E-18,0.105));
#1103=CARTESIAN_POINT('',(-0.109,-6.93889390390723E-18,0.));
#1104=CARTESIAN_POINT('',(0.,0.,0.));
#1105=CARTESIAN_POINT('',(0.01475,-0.012,0.));
#1106=CARTESIAN_POINT('',(0.0125,-0.012,0.));
#1107=CARTESIAN_POINT('',(0.10225,-0.012,0.));
#1108=CARTESIAN_POINT('',(0.1,-0.012,0.));
#1109=CARTESIAN_POINT('',(0.108,0.,0.002));
#1110=CARTESIAN_POINT('',(0.108,0.034,0.002));
#1111=CARTESIAN_POINT('',(0.108,0.034,0.002));
#1112=CARTESIAN_POINT('',(0.108,0.,0.002));
#1113=CARTESIAN_POINT('',(0.108,-0.034,0.002));
#1114=CARTESIAN_POINT('',(0.108,-0.034,0.002));
#1115=CARTESIAN_POINT('',(0.108,-0.034,0.09));
#1116=CARTESIAN_POINT('',(0.108,-0.059,0.09));
#1117=CARTESIAN_POINT('',(0.,0.034,0.002));
#1118=CARTESIAN_POINT('',(-0.0618,0.034,0.0548));
#1119=CARTESIAN_POINT('',(-0.0618,0.034,0.0562));
#1120=CARTESIAN_POINT('',(-0.1016,0.034,0.015));
#1121=CARTESIAN_POINT('',(-0.1016,0.034,0.0164));
#1122=CARTESIAN_POINT('',(-0.0618,0.034,0.015));
#1123=CARTESIAN_POINT('',(-0.0618,0.034,0.0164));
#1124=CARTESIAN_POINT('',(-0.1016,0.034,0.0548));
#1125=CARTESIAN_POINT('',(-0.1016,0.034,0.0562));
#1126=CARTESIAN_POINT('',(0.0149,0.034,0.043));
#1127=CARTESIAN_POINT('',(0.0149,0.034,0.0446));
#1128=CARTESIAN_POINT('',(0.0374,0.034,0.043));
#1129=CARTESIAN_POINT('',(0.0374,0.034,0.0446));
#1130=CARTESIAN_POINT('',(0.0694,0.034,0.0315));
#1131=CARTESIAN_POINT('',(0.0694,0.034,0.0331));
#1132=CARTESIAN_POINT('',(0.0819,0.034,0.043));
#1133=CARTESIAN_POINT('',(0.0819,0.034,0.0446));
#1134=CARTESIAN_POINT('',(0.,0.034,0.002));
#1135=CARTESIAN_POINT('',(0.,-0.034,0.002));
#1136=CARTESIAN_POINT('',(4.32885124280451E-18,-0.034,0.002));
#1137=CARTESIAN_POINT('',(-1.27319154200133E-19,-0.034,0.017));
#1138=CARTESIAN_POINT('',(4.20948953574189E-18,-0.034,0.002));
#1139=CARTESIAN_POINT('',(-2.08166817117217E-18,-0.034,0.017));
#1140=CARTESIAN_POINT('',(-0.025,-0.034,0.017));
#1141=CARTESIAN_POINT('',(-0.025,-0.034,0.002));
#1142=CARTESIAN_POINT('',(-0.025,-0.034,0.002));
#1143=CARTESIAN_POINT('',(0.,-0.034,0.002));
#1144=CARTESIAN_POINT('',(0.005,-0.034,0.09));
#1145=CARTESIAN_POINT('',(0.,-0.034,0.002));
#1146=CARTESIAN_POINT('',(0.,0.,0.002));
#1147=CARTESIAN_POINT('',(-0.025,-0.01,0.002));
#1148=CARTESIAN_POINT('',(1.1538298349387E-18,-0.01,0.002));
#1149=CARTESIAN_POINT('',(0.01475,-0.012,0.002));
#1150=CARTESIAN_POINT('',(0.017,-0.012,0.002));
#1151=CARTESIAN_POINT('',(0.10225,-0.012,0.002));
#1152=CARTESIAN_POINT('',(0.1045,-0.012,0.002));
#1153=CARTESIAN_POINT('',(0.0819,0.01,0.043));
#1154=CARTESIAN_POINT('',(0.0694,0.01,0.0315));
#1155=CARTESIAN_POINT('',(0.0374,0.01,0.043));
#1156=CARTESIAN_POINT('',(0.0149,0.01,0.043));
#1157=CARTESIAN_POINT('',(0.10225,-0.012,0.025));
#1158=CARTESIAN_POINT('',(0.01475,-0.012,0.025));
#1159=CARTESIAN_POINT('',(-0.098,-6.93889390390723E-18,0.0535));
#1160=CARTESIAN_POINT('',(-0.098,0.016,0.104));
#1161=CARTESIAN_POINT('',(0.005,-0.059,0.09));
#1162=CARTESIAN_POINT('',(-0.1016,0.009,0.0548));
#1163=CARTESIAN_POINT('',(-0.1016,0.009,0.0548));
#1164=CARTESIAN_POINT('',(-0.1016,0.009,0.0534));
#1165=CARTESIAN_POINT('',(0.,0.009,0.0535));
#1166=CARTESIAN_POINT('',(-0.0618,0.009,0.015));
#1167=CARTESIAN_POINT('',(-0.0618,0.009,0.015));
#1168=CARTESIAN_POINT('',(-0.0618,0.009,0.0136));
#1169=CARTESIAN_POINT('',(0.,0.009,0.0535));
#1170=CARTESIAN_POINT('',(-0.1016,0.009,0.015));
#1171=CARTESIAN_POINT('',(-0.1016,0.009,0.015));
#1172=CARTESIAN_POINT('',(-0.1016,0.009,0.0136));
#1173=CARTESIAN_POINT('',(0.,0.009,0.0535));
#1174=CARTESIAN_POINT('',(-0.0618,0.009,0.0548));
#1175=CARTESIAN_POINT('',(-0.0618,0.009,0.0548));
#1176=CARTESIAN_POINT('',(-0.0618,0.009,0.0534));
#1177=CARTESIAN_POINT('',(0.,0.009,0.0535));
#1178=CARTESIAN_POINT('',(0.0038,0.016,0.1016));
#1179=CARTESIAN_POINT('',(0.0038,0.016,0.1016));
#1180=CARTESIAN_POINT('',(-0.1,0.016,0.1016));
#1181=CARTESIAN_POINT('',(-0.1,-0.0095,0.1016));
#1182=CARTESIAN_POINT('',(0.0038,0.016,0.104));
#1183=CARTESIAN_POINT('',(-0.1,0.016,0.104));
#1184=CARTESIAN_POINT('',(-0.1,0.016,0.104));
#1185=CARTESIAN_POINT('',(0.0038,0.016,0.104));
#1186=CARTESIAN_POINT('',(0.0038,0.016,0.103));
#1187=CARTESIAN_POINT('',(-0.1,0.016,0.002));
#1188=CARTESIAN_POINT('',(-0.1,-0.0095,0.0975));
#1189=CARTESIAN_POINT('',(1.27319154200133E-18,-0.01,0.0095));
#1190=CARTESIAN_POINT('',(-3.18297885500331E-18,-0.01,0.017));
#1191=CARTESIAN_POINT('',(-0.0125,-0.01,0.017));
#1192=CARTESIAN_POINT('',(-0.025,-0.01,0.017));
#1193=CARTESIAN_POINT('',(-0.025,-0.01,0.0095));
#1194=MECHANICAL_DESIGN_GEOMETRIC_PRESENTATION_REPRESENTATION('',(#731),
#1195);
#1195=(
GEOMETRIC_REPRESENTATION_CONTEXT(3)
GLOBAL_UNCERTAINTY_ASSIGNED_CONTEXT((#1196))
GLOBAL_UNIT_ASSIGNED_CONTEXT((#1199,#1198,#1197))
REPRESENTATION_CONTEXT('Part 1','TOP_LEVEL_ASSEMBLY_PART')
);
#1196=UNCERTAINTY_MEASURE_WITH_UNIT(LENGTH_MEASURE(1.E-8),#1199,
'DISTANCE_ACCURACY_VALUE','Maximum Tolerance applied to model');
#1197=(
NAMED_UNIT(*)
SI_UNIT($,.STERADIAN.)
SOLID_ANGLE_UNIT()
);
#1198=(
NAMED_UNIT(*)
PLANE_ANGLE_UNIT()
SI_UNIT($,.RADIAN.)
);
#1199=(
LENGTH_UNIT()
NAMED_UNIT(*)
SI_UNIT($,.METRE.)
);
#1200=PRODUCT_DEFINITION_SHAPE('','',#1201);
#1201=PRODUCT_DEFINITION('','',#1203,#1202);
#1202=PRODUCT_DEFINITION_CONTEXT('',#1209,'design');
#1203=PRODUCT_DEFINITION_FORMATION_WITH_SPECIFIED_SOURCE('','',#1205,
 .NOT_KNOWN.);
#1204=PRODUCT_RELATED_PRODUCT_CATEGORY('','',(#1205));
#1205=PRODUCT('Part 1','Part 1','Part 1',(#1207));
#1206=PRODUCT_CATEGORY('','');
#1207=PRODUCT_CONTEXT('',#1209,'mechanical');
#1208=APPLICATION_PROTOCOL_DEFINITION('international standard',
'ap242_managed_model_based_3d_engineering',2020,#1209);
#1209=APPLICATION_CONTEXT('managed model based 3d engineering');
ENDSEC;
END-ISO-10303-21;
