ISO-10303-21;
HEADER;
/* Generated by software containing ST-Developer
 * from STEP Tools, Inc. (www.steptools.com) 
 */
/* OPTION: using custom renumber hook */

FILE_DESCRIPTION(
/* description */ ('STEP AP242 Edition 2',
'CAx-IF Rec.Pracs.---Representation and Presentation of Product Manufa
cturing Information (PMI)---4.0---2014-10-13',
'CAx-IF Rec.Pracs.---3D Tessellated Geometry---0.4---2014-09-14','2;1',
'CAx-IF Rec.Pracs.---User Defined Attributes---1.5---2016-08-15'),
/* implementation_level */ '2;1');

FILE_NAME(
/* name */ 'Bottom Arm',
/* time_stamp */ '2026-04-29T21:02:30Z',
/* author */ (''),
/* organization */ (''),
/* preprocessor_version */ 'ST-DEVELOPER v20',
/* originating_system */ 'ONSHAPE BY PTC INC, 1.214',
/* authorisation */ '  ');

FILE_SCHEMA (('AP242_MANAGED_MODEL_BASED_3D_ENGINEERING_MIM_LF { 1 0 10303 442 3 1 4 }'));
ENDSEC;

DATA;
#10=SHAPE_REPRESENTATION_RELATIONSHIP('','',#338,#11);
#11=ADVANCED_BREP_SHAPE_REPRESENTATION('',(#336),#542);
#12=CYLINDRICAL_SURFACE('',#348,0.015);
#13=CYLINDRICAL_SURFACE('',#359,0.0055);
#14=CYLINDRICAL_SURFACE('',#360,0.00325);
#15=CYLINDRICAL_SURFACE('',#365,0.0055);
#16=LINE('',#459,#49);
#17=LINE('',#462,#50);
#18=LINE('',#464,#51);
#19=LINE('',#468,#52);
#20=LINE('',#470,#53);
#21=LINE('',#472,#54);
#22=LINE('',#478,#55);
#23=LINE('',#481,#56);
#24=LINE('',#483,#57);
#25=LINE('',#485,#58);
#26=LINE('',#487,#59);
#27=LINE('',#491,#60);
#28=LINE('',#493,#61);
#29=LINE('',#494,#62);
#30=LINE('',#496,#63);
#31=LINE('',#498,#64);
#32=LINE('',#500,#65);
#33=LINE('',#502,#66);
#34=LINE('',#506,#67);
#35=LINE('',#508,#68);
#36=LINE('',#510,#69);
#37=LINE('',#512,#70);
#38=LINE('',#514,#71);
#39=LINE('',#516,#72);
#40=LINE('',#518,#73);
#41=LINE('',#520,#74);
#42=LINE('',#524,#75);
#43=LINE('',#526,#76);
#44=LINE('',#527,#77);
#45=LINE('',#528,#78);
#46=LINE('',#530,#79);
#47=LINE('',#535,#80);
#48=LINE('',#538,#81);
#49=VECTOR('',#374,1.);
#50=VECTOR('',#375,1.);
#51=VECTOR('',#376,1.);
#52=VECTOR('',#379,1.);
#53=VECTOR('',#380,1.);
#54=VECTOR('',#381,1.);
#55=VECTOR('',#388,1.);
#56=VECTOR('',#389,1.);
#57=VECTOR('',#390,1.);
#58=VECTOR('',#391,1.);
#59=VECTOR('',#392,1.);
#60=VECTOR('',#395,1.);
#61=VECTOR('',#398,1.);
#62=VECTOR('',#399,1.);
#63=VECTOR('',#402,1.);
#64=VECTOR('',#405,1.);
#65=VECTOR('',#408,1.);
#66=VECTOR('',#411,1.);
#67=VECTOR('',#416,1.);
#68=VECTOR('',#417,1.);
#69=VECTOR('',#418,1.);
#70=VECTOR('',#419,1.);
#71=VECTOR('',#420,1.);
#72=VECTOR('',#423,1.);
#73=VECTOR('',#424,1.);
#74=VECTOR('',#425,1.);
#75=VECTOR('',#430,1.);
#76=VECTOR('',#431,1.);
#77=VECTOR('',#432,1.);
#78=VECTOR('',#433,1.);
#79=VECTOR('',#434,1.);
#80=VECTOR('',#443,1.);
#81=VECTOR('',#448,1.);
#82=ORIENTED_EDGE('',*,*,#164,.F.);
#83=ORIENTED_EDGE('',*,*,#165,.F.);
#84=ORIENTED_EDGE('',*,*,#166,.F.);
#85=ORIENTED_EDGE('',*,*,#167,.T.);
#86=ORIENTED_EDGE('',*,*,#168,.F.);
#87=ORIENTED_EDGE('',*,*,#169,.T.);
#88=ORIENTED_EDGE('',*,*,#170,.T.);
#89=ORIENTED_EDGE('',*,*,#171,.T.);
#90=ORIENTED_EDGE('',*,*,#172,.F.);
#91=ORIENTED_EDGE('',*,*,#173,.T.);
#92=ORIENTED_EDGE('',*,*,#174,.T.);
#93=ORIENTED_EDGE('',*,*,#175,.F.);
#94=ORIENTED_EDGE('',*,*,#176,.T.);
#95=ORIENTED_EDGE('',*,*,#177,.T.);
#96=ORIENTED_EDGE('',*,*,#178,.F.);
#97=ORIENTED_EDGE('',*,*,#179,.F.);
#98=ORIENTED_EDGE('',*,*,#180,.F.);
#99=ORIENTED_EDGE('',*,*,#181,.T.);
#100=ORIENTED_EDGE('',*,*,#180,.T.);
#101=ORIENTED_EDGE('',*,*,#182,.F.);
#102=ORIENTED_EDGE('',*,*,#169,.F.);
#103=ORIENTED_EDGE('',*,*,#183,.T.);
#104=ORIENTED_EDGE('',*,*,#179,.T.);
#105=ORIENTED_EDGE('',*,*,#184,.F.);
#106=ORIENTED_EDGE('',*,*,#170,.F.);
#107=ORIENTED_EDGE('',*,*,#182,.T.);
#108=ORIENTED_EDGE('',*,*,#178,.T.);
#109=ORIENTED_EDGE('',*,*,#185,.F.);
#110=ORIENTED_EDGE('',*,*,#171,.F.);
#111=ORIENTED_EDGE('',*,*,#184,.T.);
#112=ORIENTED_EDGE('',*,*,#177,.F.);
#113=ORIENTED_EDGE('',*,*,#186,.F.);
#114=ORIENTED_EDGE('',*,*,#172,.T.);
#115=ORIENTED_EDGE('',*,*,#185,.T.);
#116=ORIENTED_EDGE('',*,*,#176,.F.);
#117=ORIENTED_EDGE('',*,*,#187,.F.);
#118=ORIENTED_EDGE('',*,*,#166,.T.);
#119=ORIENTED_EDGE('',*,*,#186,.T.);
#120=ORIENTED_EDGE('',*,*,#188,.F.);
#121=ORIENTED_EDGE('',*,*,#187,.T.);
#122=ORIENTED_EDGE('',*,*,#189,.T.);
#123=ORIENTED_EDGE('',*,*,#190,.T.);
#124=ORIENTED_EDGE('',*,*,#191,.F.);
#125=ORIENTED_EDGE('',*,*,#192,.F.);
#126=ORIENTED_EDGE('',*,*,#193,.T.);
#127=ORIENTED_EDGE('',*,*,#191,.T.);
#128=ORIENTED_EDGE('',*,*,#194,.T.);
#129=ORIENTED_EDGE('',*,*,#195,.F.);
#130=ORIENTED_EDGE('',*,*,#196,.F.);
#131=ORIENTED_EDGE('',*,*,#197,.F.);
#132=ORIENTED_EDGE('',*,*,#195,.T.);
#133=ORIENTED_EDGE('',*,*,#198,.T.);
#134=ORIENTED_EDGE('',*,*,#199,.F.);
#135=ORIENTED_EDGE('',*,*,#200,.F.);
#136=ORIENTED_EDGE('',*,*,#201,.F.);
#137=ORIENTED_EDGE('',*,*,#202,.F.);
#138=ORIENTED_EDGE('',*,*,#181,.F.);
#139=ORIENTED_EDGE('',*,*,#183,.F.);
#140=ORIENTED_EDGE('',*,*,#168,.T.);
#141=ORIENTED_EDGE('',*,*,#200,.T.);
#142=ORIENTED_EDGE('',*,*,#164,.T.);
#143=ORIENTED_EDGE('',*,*,#174,.F.);
#144=ORIENTED_EDGE('',*,*,#165,.T.);
#145=ORIENTED_EDGE('',*,*,#173,.F.);
#146=ORIENTED_EDGE('',*,*,#198,.F.);
#147=ORIENTED_EDGE('',*,*,#194,.F.);
#148=ORIENTED_EDGE('',*,*,#190,.F.);
#149=ORIENTED_EDGE('',*,*,#203,.F.);
#150=ORIENTED_EDGE('',*,*,#189,.F.);
#151=ORIENTED_EDGE('',*,*,#175,.T.);
#152=ORIENTED_EDGE('',*,*,#199,.T.);
#153=ORIENTED_EDGE('',*,*,#203,.T.);
#154=ORIENTED_EDGE('',*,*,#167,.F.);
#155=ORIENTED_EDGE('',*,*,#193,.F.);
#156=ORIENTED_EDGE('',*,*,#204,.F.);
#157=ORIENTED_EDGE('',*,*,#201,.T.);
#158=ORIENTED_EDGE('',*,*,#202,.T.);
#159=ORIENTED_EDGE('',*,*,#204,.T.);
#160=ORIENTED_EDGE('',*,*,#192,.T.);
#161=ORIENTED_EDGE('',*,*,#196,.T.);
#162=ORIENTED_EDGE('',*,*,#197,.T.);
#163=ORIENTED_EDGE('',*,*,#188,.T.);
#164=EDGE_CURVE('',#205,#205,#233,.T.);
#165=EDGE_CURVE('',#206,#206,#234,.T.);
#166=EDGE_CURVE('',#207,#208,#16,.T.);
#167=EDGE_CURVE('',#207,#209,#17,.T.);
#168=EDGE_CURVE('',#210,#209,#18,.T.);
#169=EDGE_CURVE('',#210,#211,#235,.T.);
#170=EDGE_CURVE('',#211,#212,#19,.T.);
#171=EDGE_CURVE('',#212,#213,#20,.T.);
#172=EDGE_CURVE('',#208,#213,#21,.T.);
#173=EDGE_CURVE('',#214,#214,#236,.T.);
#174=EDGE_CURVE('',#215,#215,#237,.T.);
#175=EDGE_CURVE('',#216,#217,#22,.T.);
#176=EDGE_CURVE('',#216,#218,#23,.T.);
#177=EDGE_CURVE('',#218,#219,#24,.T.);
#178=EDGE_CURVE('',#220,#219,#25,.T.);
#179=EDGE_CURVE('',#221,#220,#26,.T.);
#180=EDGE_CURVE('',#222,#221,#238,.T.);
#181=EDGE_CURVE('',#222,#217,#27,.T.);
#182=EDGE_CURVE('',#211,#221,#28,.T.);
#183=EDGE_CURVE('',#210,#222,#29,.T.);
#184=EDGE_CURVE('',#212,#220,#30,.T.);
#185=EDGE_CURVE('',#213,#219,#31,.T.);
#186=EDGE_CURVE('',#208,#218,#32,.T.);
#187=EDGE_CURVE('',#207,#216,#33,.T.);
#188=EDGE_CURVE('',#223,#223,#239,.T.);
#189=EDGE_CURVE('',#216,#224,#34,.T.);
#190=EDGE_CURVE('',#224,#225,#35,.T.);
#191=EDGE_CURVE('',#226,#225,#36,.T.);
#192=EDGE_CURVE('',#227,#226,#37,.T.);
#193=EDGE_CURVE('',#227,#207,#38,.T.);
#194=EDGE_CURVE('',#225,#228,#39,.T.);
#195=EDGE_CURVE('',#229,#228,#40,.T.);
#196=EDGE_CURVE('',#226,#229,#41,.T.);
#197=EDGE_CURVE('',#230,#230,#240,.T.);
#198=EDGE_CURVE('',#228,#231,#42,.T.);
#199=EDGE_CURVE('',#217,#231,#43,.T.);
#200=EDGE_CURVE('',#209,#217,#44,.T.);
#201=EDGE_CURVE('',#232,#209,#45,.T.);
#202=EDGE_CURVE('',#229,#232,#46,.T.);
#203=EDGE_CURVE('',#231,#224,#47,.T.);
#204=EDGE_CURVE('',#232,#227,#48,.T.);
#205=VERTEX_POINT('',#456);
#206=VERTEX_POINT('',#458);
#207=VERTEX_POINT('',#460);
#208=VERTEX_POINT('',#461);
#209=VERTEX_POINT('',#463);
#210=VERTEX_POINT('',#465);
#211=VERTEX_POINT('',#467);
#212=VERTEX_POINT('',#469);
#213=VERTEX_POINT('',#471);
#214=VERTEX_POINT('',#475);
#215=VERTEX_POINT('',#477);
#216=VERTEX_POINT('',#479);
#217=VERTEX_POINT('',#480);
#218=VERTEX_POINT('',#482);
#219=VERTEX_POINT('',#484);
#220=VERTEX_POINT('',#486);
#221=VERTEX_POINT('',#488);
#222=VERTEX_POINT('',#490);
#223=VERTEX_POINT('',#505);
#224=VERTEX_POINT('',#507);
#225=VERTEX_POINT('',#509);
#226=VERTEX_POINT('',#511);
#227=VERTEX_POINT('',#513);
#228=VERTEX_POINT('',#517);
#229=VERTEX_POINT('',#519);
#230=VERTEX_POINT('',#523);
#231=VERTEX_POINT('',#525);
#232=VERTEX_POINT('',#529);
#233=CIRCLE('',#341,0.0055);
#234=CIRCLE('',#342,0.00325);
#235=CIRCLE('',#343,0.015);
#236=CIRCLE('',#345,0.00325);
#237=CIRCLE('',#346,0.0055);
#238=CIRCLE('',#347,0.015);
#239=CIRCLE('',#354,0.0055);
#240=CIRCLE('',#357,0.0055);
#241=EDGE_LOOP('',(#82));
#242=EDGE_LOOP('',(#83));
#243=EDGE_LOOP('',(#84,#85,#86,#87,#88,#89,#90));
#244=EDGE_LOOP('',(#91));
#245=EDGE_LOOP('',(#92));
#246=EDGE_LOOP('',(#93,#94,#95,#96,#97,#98,#99));
#247=EDGE_LOOP('',(#100,#101,#102,#103));
#248=EDGE_LOOP('',(#104,#105,#106,#107));
#249=EDGE_LOOP('',(#108,#109,#110,#111));
#250=EDGE_LOOP('',(#112,#113,#114,#115));
#251=EDGE_LOOP('',(#116,#117,#118,#119));
#252=EDGE_LOOP('',(#120));
#253=EDGE_LOOP('',(#121,#122,#123,#124,#125,#126));
#254=EDGE_LOOP('',(#127,#128,#129,#130));
#255=EDGE_LOOP('',(#131));
#256=EDGE_LOOP('',(#132,#133,#134,#135,#136,#137));
#257=EDGE_LOOP('',(#138,#139,#140,#141));
#258=EDGE_LOOP('',(#142));
#259=EDGE_LOOP('',(#143));
#260=EDGE_LOOP('',(#144));
#261=EDGE_LOOP('',(#145));
#262=EDGE_LOOP('',(#146,#147,#148,#149));
#263=EDGE_LOOP('',(#150,#151,#152,#153));
#264=EDGE_LOOP('',(#154,#155,#156,#157));
#265=EDGE_LOOP('',(#158,#159,#160,#161));
#266=EDGE_LOOP('',(#162));
#267=EDGE_LOOP('',(#163));
#268=FACE_BOUND('',#241,.T.);
#269=FACE_BOUND('',#242,.T.);
#270=FACE_BOUND('',#243,.T.);
#271=FACE_BOUND('',#244,.T.);
#272=FACE_BOUND('',#245,.T.);
#273=FACE_BOUND('',#246,.T.);
#274=FACE_BOUND('',#247,.T.);
#275=FACE_BOUND('',#248,.T.);
#276=FACE_BOUND('',#249,.T.);
#277=FACE_BOUND('',#250,.T.);
#278=FACE_BOUND('',#251,.T.);
#279=FACE_BOUND('',#252,.T.);
#280=FACE_BOUND('',#253,.T.);
#281=FACE_BOUND('',#254,.T.);
#282=FACE_BOUND('',#255,.T.);
#283=FACE_BOUND('',#256,.T.);
#284=FACE_BOUND('',#257,.T.);
#285=FACE_BOUND('',#258,.T.);
#286=FACE_BOUND('',#259,.T.);
#287=FACE_BOUND('',#260,.T.);
#288=FACE_BOUND('',#261,.T.);
#289=FACE_BOUND('',#262,.T.);
#290=FACE_BOUND('',#263,.T.);
#291=FACE_BOUND('',#264,.T.);
#292=FACE_BOUND('',#265,.T.);
#293=FACE_BOUND('',#266,.T.);
#294=FACE_BOUND('',#267,.T.);
#295=PLANE('',#340);
#296=PLANE('',#344);
#297=PLANE('',#349);
#298=PLANE('',#350);
#299=PLANE('',#351);
#300=PLANE('',#352);
#301=PLANE('',#353);
#302=PLANE('',#355);
#303=PLANE('',#356);
#304=PLANE('',#358);
#305=PLANE('',#361);
#306=PLANE('',#362);
#307=PLANE('',#363);
#308=PLANE('',#364);
#309=ADVANCED_FACE('',(#268,#269,#270),#295,.T.);
#310=ADVANCED_FACE('',(#271,#272,#273),#296,.F.);
#311=ADVANCED_FACE('',(#274),#12,.T.);
#312=ADVANCED_FACE('',(#275),#297,.F.);
#313=ADVANCED_FACE('',(#276),#298,.F.);
#314=ADVANCED_FACE('',(#277),#299,.T.);
#315=ADVANCED_FACE('',(#278),#300,.T.);
#316=ADVANCED_FACE('',(#279,#280),#301,.T.);
#317=ADVANCED_FACE('',(#281),#302,.T.);
#318=ADVANCED_FACE('',(#282,#283),#303,.T.);
#319=ADVANCED_FACE('',(#284),#304,.T.);
#320=ADVANCED_FACE('',(#285,#286),#13,.F.);
#321=ADVANCED_FACE('',(#287,#288),#14,.F.);
#322=ADVANCED_FACE('',(#289),#305,.F.);
#323=ADVANCED_FACE('',(#290),#306,.F.);
#324=ADVANCED_FACE('',(#291),#307,.F.);
#325=ADVANCED_FACE('',(#292),#308,.T.);
#326=ADVANCED_FACE('',(#293,#294),#15,.F.);
#327=CLOSED_SHELL('',(#309,#310,#311,#312,#313,#314,#315,#316,#317,#318,
#319,#320,#321,#322,#323,#324,#325,#326));
#328=STYLED_ITEM('',(#329),#336);
#329=PRESENTATION_STYLE_ASSIGNMENT((#330));
#330=SURFACE_STYLE_USAGE(.BOTH.,#331);
#331=SURFACE_SIDE_STYLE('',(#332));
#332=SURFACE_STYLE_FILL_AREA(#333);
#333=FILL_AREA_STYLE('',(#334));
#334=FILL_AREA_STYLE_COLOUR('',#335);
#335=COLOUR_RGB('',0.615686274509804,0.811764705882353,0.929411764705882);
#336=MANIFOLD_SOLID_BREP('Part 1',#327);
#337=SHAPE_DEFINITION_REPRESENTATION(#547,#338);
#338=SHAPE_REPRESENTATION('Part 1',(#339),#542);
#339=AXIS2_PLACEMENT_3D('',#453,#366,#367);
#340=AXIS2_PLACEMENT_3D('',#454,#368,#369);
#341=AXIS2_PLACEMENT_3D('',#455,#370,#371);
#342=AXIS2_PLACEMENT_3D('',#457,#372,#373);
#343=AXIS2_PLACEMENT_3D('',#466,#377,#378);
#344=AXIS2_PLACEMENT_3D('',#473,#382,#383);
#345=AXIS2_PLACEMENT_3D('',#474,#384,#385);
#346=AXIS2_PLACEMENT_3D('',#476,#386,#387);
#347=AXIS2_PLACEMENT_3D('',#489,#393,#394);
#348=AXIS2_PLACEMENT_3D('',#492,#396,#397);
#349=AXIS2_PLACEMENT_3D('',#495,#400,#401);
#350=AXIS2_PLACEMENT_3D('',#497,#403,#404);
#351=AXIS2_PLACEMENT_3D('',#499,#406,#407);
#352=AXIS2_PLACEMENT_3D('',#501,#409,#410);
#353=AXIS2_PLACEMENT_3D('',#503,#412,#413);
#354=AXIS2_PLACEMENT_3D('',#504,#414,#415);
#355=AXIS2_PLACEMENT_3D('',#515,#421,#422);
#356=AXIS2_PLACEMENT_3D('',#521,#426,#427);
#357=AXIS2_PLACEMENT_3D('',#522,#428,#429);
#358=AXIS2_PLACEMENT_3D('',#531,#435,#436);
#359=AXIS2_PLACEMENT_3D('',#532,#437,#438);
#360=AXIS2_PLACEMENT_3D('',#533,#439,#440);
#361=AXIS2_PLACEMENT_3D('',#534,#441,#442);
#362=AXIS2_PLACEMENT_3D('',#536,#444,#445);
#363=AXIS2_PLACEMENT_3D('',#537,#446,#447);
#364=AXIS2_PLACEMENT_3D('',#539,#449,#450);
#365=AXIS2_PLACEMENT_3D('',#540,#451,#452);
#366=DIRECTION('',(0.,0.,1.));
#367=DIRECTION('',(1.,0.,0.));
#368=DIRECTION('',(0.,0.,1.));
#369=DIRECTION('',(1.,0.,0.));
#370=DIRECTION('',(0.,0.,1.));
#371=DIRECTION('',(1.,0.,0.));
#372=DIRECTION('',(0.,0.,1.));
#373=DIRECTION('',(1.,0.,0.));
#374=DIRECTION('',(-8.67361737988404E-19,1.,0.));
#375=DIRECTION('',(-2.16840434497101E-16,-1.,0.));
#376=DIRECTION('',(-1.,0.,0.));
#377=DIRECTION('',(0.,0.,1.));
#378=DIRECTION('',(1.,0.,0.));
#379=DIRECTION('',(-1.,-1.11468175163168E-16,0.));
#380=DIRECTION('',(-1.19636101791504E-16,1.,0.));
#381=DIRECTION('',(1.,0.,0.));
#382=DIRECTION('',(0.,0.,1.));
#383=DIRECTION('',(1.,0.,0.));
#384=DIRECTION('',(0.,0.,1.));
#385=DIRECTION('',(1.,0.,0.));
#386=DIRECTION('',(0.,0.,1.));
#387=DIRECTION('',(1.,0.,0.));
#388=DIRECTION('',(-2.16840434497101E-16,-1.,0.));
#389=DIRECTION('',(-8.67361737988404E-19,1.,0.));
#390=DIRECTION('',(1.,0.,0.));
#391=DIRECTION('',(-1.19636101791504E-16,1.,0.));
#392=DIRECTION('',(-1.,-1.11468175163168E-16,0.));
#393=DIRECTION('',(0.,0.,1.));
#394=DIRECTION('',(1.,0.,0.));
#395=DIRECTION('',(-1.,0.,0.));
#396=DIRECTION('',(0.,0.,-1.));
#397=DIRECTION('',(-1.,0.,0.));
#398=DIRECTION('',(0.,0.,-1.));
#399=DIRECTION('',(0.,0.,-1.));
#400=DIRECTION('',(1.11468175163168E-16,-1.,0.));
#401=DIRECTION('',(1.,1.11468175163168E-16,0.));
#402=DIRECTION('',(0.,0.,-1.));
#403=DIRECTION('',(-1.,-1.19636101791504E-16,0.));
#404=DIRECTION('',(1.19636101791504E-16,-1.,0.));
#405=DIRECTION('',(0.,0.,-1.));
#406=DIRECTION('',(0.,1.,0.));
#407=DIRECTION('',(0.,0.,1.));
#408=DIRECTION('',(0.,0.,-1.));
#409=DIRECTION('',(-1.,-8.67361737988404E-19,0.));
#410=DIRECTION('',(8.67361737988404E-19,-1.,0.));
#411=DIRECTION('',(0.,0.,-1.));
#412=DIRECTION('',(0.120136838834646,0.992757341929446,0.));
#413=DIRECTION('',(-0.992757341929446,0.120136838834646,0.));
#414=DIRECTION('',(0.120136838834646,0.992757341929446,0.));
#415=DIRECTION('',(-0.992757341929446,0.120136838834646,0.));
#416=DIRECTION('',(0.,0.,-1.));
#417=DIRECTION('',(-0.992757341929446,0.120136838834646,0.));
#418=DIRECTION('',(0.,0.,-1.));
#419=DIRECTION('',(-0.992757341929446,0.120136838834646,0.));
#420=DIRECTION('',(0.,0.,-1.));
#421=DIRECTION('',(-1.,0.,0.));
#422=DIRECTION('',(0.,0.,1.));
#423=DIRECTION('',(0.,-1.,0.));
#424=DIRECTION('',(0.,0.,-1.));
#425=DIRECTION('',(0.,-1.,0.));
#426=DIRECTION('',(-0.120136838834647,-0.992757341929446,0.));
#427=DIRECTION('',(0.992757341929446,-0.120136838834647,0.));
#428=DIRECTION('',(-0.120136838834647,-0.992757341929446,0.));
#429=DIRECTION('',(0.992757341929446,-0.120136838834647,0.));
#430=DIRECTION('',(0.992757341929446,-0.120136838834647,0.));
#431=DIRECTION('',(0.,0.,-1.));
#432=DIRECTION('',(0.,0.,-1.));
#433=DIRECTION('',(0.,0.,-1.));
#434=DIRECTION('',(0.992757341929446,-0.120136838834647,0.));
#435=DIRECTION('',(0.,-1.,0.));
#436=DIRECTION('',(0.,0.,-1.));
#437=DIRECTION('',(0.,0.,-1.));
#438=DIRECTION('',(-1.,0.,0.));
#439=DIRECTION('',(0.,0.,-1.));
#440=DIRECTION('',(-1.,0.,0.));
#441=DIRECTION('',(0.,0.,1.));
#442=DIRECTION('',(1.,0.,0.));
#443=DIRECTION('',(2.16840434497101E-16,1.,0.));
#444=DIRECTION('',(-1.,2.16840434497101E-16,0.));
#445=DIRECTION('',(-2.16840434497101E-16,-1.,0.));
#446=DIRECTION('',(-1.,2.16840434497101E-16,0.));
#447=DIRECTION('',(-2.16840434497101E-16,-1.,0.));
#448=DIRECTION('',(2.16840434497101E-16,1.,0.));
#449=DIRECTION('',(0.,0.,1.));
#450=DIRECTION('',(1.,0.,0.));
#451=DIRECTION('',(0.120136838834646,0.992757341929446,0.));
#452=DIRECTION('',(-0.992757341929446,0.120136838834646,0.));
#453=CARTESIAN_POINT('',(0.,0.,0.));
#454=CARTESIAN_POINT('',(0.0957155332258819,0.02225,0.004));
#455=CARTESIAN_POINT('',(0.20125,0.015,0.004));
#456=CARTESIAN_POINT('',(0.20675,0.015,0.004));
#457=CARTESIAN_POINT('',(0.00725,0.03725,0.004));
#458=CARTESIAN_POINT('',(0.0105,0.03725,0.004));
#459=CARTESIAN_POINT('',(1.55256231150833E-20,0.019,0.004));
#460=CARTESIAN_POINT('',(1.7347234759768E-18,0.008,0.004));
#461=CARTESIAN_POINT('',(0.,0.0445,0.004));
#462=CARTESIAN_POINT('',(0.,0.02225,0.004));
#463=CARTESIAN_POINT('',(-5.20417042793042E-18,4.33680868994202E-19,0.004));
#464=CARTESIAN_POINT('',(0.100625,0.,0.004));
#465=CARTESIAN_POINT('',(0.20125,0.,0.004));
#466=CARTESIAN_POINT('',(0.20125,0.015,0.004));
#467=CARTESIAN_POINT('',(0.20125,0.03,0.004));
#468=CARTESIAN_POINT('',(0.107875,0.03,0.004));
#469=CARTESIAN_POINT('',(0.0145,0.03,0.004));
#470=CARTESIAN_POINT('',(0.0145,0.03725,0.004));
#471=CARTESIAN_POINT('',(0.0145,0.0445,0.004));
#472=CARTESIAN_POINT('',(0.00725,0.0445,0.004));
#473=CARTESIAN_POINT('',(0.0957155332258819,0.02225,-0.004));
#474=CARTESIAN_POINT('',(0.00725,0.03725,-0.004));
#475=CARTESIAN_POINT('',(0.0105,0.03725,-0.004));
#476=CARTESIAN_POINT('',(0.20125,0.015,-0.004));
#477=CARTESIAN_POINT('',(0.20675,0.015,-0.004));
#478=CARTESIAN_POINT('',(0.,0.02225,-0.004));
#479=CARTESIAN_POINT('',(1.7347234759768E-18,0.008,-0.004));
#480=CARTESIAN_POINT('',(1.56125112837912E-17,-1.3010426069826E-18,-0.004));
#481=CARTESIAN_POINT('',(1.55256231150833E-20,0.019,-0.004));
#482=CARTESIAN_POINT('',(0.,0.0445,-0.004));
#483=CARTESIAN_POINT('',(0.00725,0.0445,-0.004));
#484=CARTESIAN_POINT('',(0.0145,0.0445,-0.004));
#485=CARTESIAN_POINT('',(0.0145,0.03725,-0.004));
#486=CARTESIAN_POINT('',(0.0145,0.03,-0.004));
#487=CARTESIAN_POINT('',(0.107875,0.03,-0.004));
#488=CARTESIAN_POINT('',(0.20125,0.03,-0.004));
#489=CARTESIAN_POINT('',(0.20125,0.015,-0.004));
#490=CARTESIAN_POINT('',(0.20125,0.,-0.004));
#491=CARTESIAN_POINT('',(0.100625,0.,-0.004));
#492=CARTESIAN_POINT('',(0.20125,0.015,0.004));
#493=CARTESIAN_POINT('',(0.20125,0.03,0.004));
#494=CARTESIAN_POINT('',(0.20125,0.,0.004));
#495=CARTESIAN_POINT('',(0.107875,0.03,0.004));
#496=CARTESIAN_POINT('',(0.0145,0.03,0.004));
#497=CARTESIAN_POINT('',(0.0145,0.03725,0.004));
#498=CARTESIAN_POINT('',(0.0145,0.0445,0.004));
#499=CARTESIAN_POINT('',(0.00725,0.0445,0.004));
#500=CARTESIAN_POINT('',(0.,0.0445,0.004));
#501=CARTESIAN_POINT('',(1.55256231150833E-20,0.019,0.004));
#502=CARTESIAN_POINT('',(1.7347234759768E-18,0.008,0.004));
#503=CARTESIAN_POINT('',(-0.0124094667741181,0.0095017104854331,0.004));
#504=CARTESIAN_POINT('',(-0.0124094667741181,0.0095017104854331,3.36777869765522E-19));
#505=CARTESIAN_POINT('',(-0.01786963215473,0.0101624630990237,3.36777869765522E-19));
#506=CARTESIAN_POINT('',(1.7347234759768E-18,0.008,0.0125));
#507=CARTESIAN_POINT('',(1.7347234759768E-18,0.008,-0.0125));
#508=CARTESIAN_POINT('',(-0.0124094667741181,0.0095017104854331,-0.0125));
#509=CARTESIAN_POINT('',(-0.0248189335482362,0.0110034209708662,-0.0125));
#510=CARTESIAN_POINT('',(-0.0248189335482362,0.0110034209708662,0.004));
#511=CARTESIAN_POINT('',(-0.0248189335482362,0.0110034209708662,0.0125));
#512=CARTESIAN_POINT('',(-0.0124094667741181,0.0095017104854331,0.0125));
#513=CARTESIAN_POINT('',(1.7347234759768E-18,0.008,0.0125));
#514=CARTESIAN_POINT('',(1.7347234759768E-18,0.008,0.0125));
#515=CARTESIAN_POINT('',(-0.0248189335482362,0.00700342097086618,0.004));
#516=CARTESIAN_POINT('',(-0.0248189335482362,0.00700342097086618,-0.0125));
#517=CARTESIAN_POINT('',(-0.0248189335482362,0.00300342097086618,-0.0125));
#518=CARTESIAN_POINT('',(-0.0248189335482362,0.00300342097086618,0.004));
#519=CARTESIAN_POINT('',(-0.0248189335482362,0.00300342097086618,0.0125));
#520=CARTESIAN_POINT('',(-0.0248189335482362,0.00700342097086618,0.0125));
#521=CARTESIAN_POINT('',(-0.0124094667741181,0.00150171048543309,0.004));
#522=CARTESIAN_POINT('',(-0.0133636006044324,0.00161717336579454,3.36777869765522E-19));
#523=CARTESIAN_POINT('',(-0.00790343522382045,0.000956420752203982,3.36777869765522E-19));
#524=CARTESIAN_POINT('',(-0.0124094667741181,0.00150171048543309,-0.0125));
#525=CARTESIAN_POINT('',(-5.20417042793042E-18,4.33680868994202E-19,-0.0125));
#526=CARTESIAN_POINT('',(-5.20417042793042E-18,4.33680868994202E-19,0.0125));
#527=CARTESIAN_POINT('',(1.56125112837912E-17,-1.3010426069826E-18,0.004));
#528=CARTESIAN_POINT('',(-5.20417042793042E-18,4.33680868994202E-19,0.0125));
#529=CARTESIAN_POINT('',(-5.20417042793042E-18,4.33680868994202E-19,0.0125));
#530=CARTESIAN_POINT('',(-0.0124094667741181,0.00150171048543309,0.0125));
#531=CARTESIAN_POINT('',(0.100625,0.,0.004));
#532=CARTESIAN_POINT('',(0.20125,0.015,0.004));
#533=CARTESIAN_POINT('',(0.00725,0.03725,0.004));
#534=CARTESIAN_POINT('',(-0.0124094667741181,0.00550171048543309,-0.0125));
#535=CARTESIAN_POINT('',(8.67361737988404E-19,0.004,-0.0125));
#536=CARTESIAN_POINT('',(8.67361737988404E-19,0.004,0.0125));
#537=CARTESIAN_POINT('',(8.67361737988404E-19,0.004,0.0125));
#538=CARTESIAN_POINT('',(8.67361737988404E-19,0.004,0.0125));
#539=CARTESIAN_POINT('',(-0.0124094667741181,0.00550171048543309,0.0125));
#540=CARTESIAN_POINT('',(-0.0154128877449843,-0.015317223062803,3.36777869765522E-19));
#541=MECHANICAL_DESIGN_GEOMETRIC_PRESENTATION_REPRESENTATION('',(#328),
#542);
#542=(
GEOMETRIC_REPRESENTATION_CONTEXT(3)
GLOBAL_UNCERTAINTY_ASSIGNED_CONTEXT((#543))
GLOBAL_UNIT_ASSIGNED_CONTEXT((#546,#545,#544))
REPRESENTATION_CONTEXT('Part 1','TOP_LEVEL_ASSEMBLY_PART')
);
#543=UNCERTAINTY_MEASURE_WITH_UNIT(LENGTH_MEASURE(1.E-8),#546,
'DISTANCE_ACCURACY_VALUE','Maximum Tolerance applied to model');
#544=(
NAMED_UNIT(*)
SI_UNIT($,.STERADIAN.)
SOLID_ANGLE_UNIT()
);
#545=(
NAMED_UNIT(*)
PLANE_ANGLE_UNIT()
SI_UNIT($,.RADIAN.)
);
#546=(
LENGTH_UNIT()
NAMED_UNIT(*)
SI_UNIT($,.METRE.)
);
#547=PRODUCT_DEFINITION_SHAPE('','',#548);
#548=PRODUCT_DEFINITION('','',#550,#549);
#549=PRODUCT_DEFINITION_CONTEXT('',#556,'design');
#550=PRODUCT_DEFINITION_FORMATION_WITH_SPECIFIED_SOURCE('','',#552,
 .NOT_KNOWN.);
#551=PRODUCT_RELATED_PRODUCT_CATEGORY('','',(#552));
#552=PRODUCT('Part 1','Part 1','Part 1',(#554));
#553=PRODUCT_CATEGORY('','');
#554=PRODUCT_CONTEXT('',#556,'mechanical');
#555=APPLICATION_PROTOCOL_DEFINITION('international standard',
'ap242_managed_model_based_3d_engineering',2020,#556);
#556=APPLICATION_CONTEXT('managed model based 3d engineering');
ENDSEC;
END-ISO-10303-21;
