ISO-10303-21;
HEADER;
/* Generated by software containing ST-Developer
 * from STEP Tools, Inc. (www.steptools.com) 
 */
/* OPTION: using custom renumber hook */

FILE_DESCRIPTION(
/* description */ ('STEP AP242 Edition 2',
'CAx-IF Rec.Pracs.---Representation and Presentation of Product Manufa
cturing Information (PMI)---4.0---2014-10-13',
'CAx-IF Rec.Pracs.---3D Tessellated Geometry---0.4---2014-09-14','2;1',
'CAx-IF Rec.Pracs.---User Defined Attributes---1.5---2016-08-15'),
/* implementation_level */ '2;1');

FILE_NAME(
/* name */ 'Bot Side Attachment',
/* time_stamp */ '2026-04-29T21:02:11Z',
/* author */ (''),
/* organization */ (''),
/* preprocessor_version */ 'ST-DEVELOPER v20',
/* originating_system */ 'ONSHAPE BY PTC INC, 1.214',
/* authorisation */ '  ');

FILE_SCHEMA (('AP242_MANAGED_MODEL_BASED_3D_ENGINEERING_MIM_LF { 1 0 10303 442 3 1 4 }'));
ENDSEC;

DATA;
#10=SHAPE_REPRESENTATION_RELATIONSHIP('','',#893,#11);
#11=ADVANCED_BREP_SHAPE_REPRESENTATION('',(#891),#1423);
#12=CIRCLE('',#898,0.0085);
#13=CIRCLE('',#899,0.0085);
#14=CIRCLE('',#901,0.0055);
#15=CIRCLE('',#902,0.0055);
#16=CIRCLE('',#906,0.00425);
#17=CIRCLE('',#907,0.00425);
#18=CIRCLE('',#909,0.00325);
#19=CIRCLE('',#910,0.00325);
#20=CIRCLE('',#934,0.00425);
#21=CIRCLE('',#935,0.00425);
#22=CIRCLE('',#937,0.00325);
#23=CIRCLE('',#938,0.00325);
#24=CIRCLE('',#946,0.0085);
#25=CIRCLE('',#947,0.0085);
#26=CIRCLE('',#949,0.0055);
#27=CIRCLE('',#950,0.0055);
#28=CYLINDRICAL_SURFACE('',#897,0.0085);
#29=CYLINDRICAL_SURFACE('',#900,0.0055);
#30=CYLINDRICAL_SURFACE('',#905,0.00425);
#31=CYLINDRICAL_SURFACE('',#908,0.00325);
#32=CYLINDRICAL_SURFACE('',#933,0.00425);
#33=CYLINDRICAL_SURFACE('',#936,0.00325);
#34=CYLINDRICAL_SURFACE('',#945,0.0085);
#35=CYLINDRICAL_SURFACE('',#948,0.0055);
#36=ORIENTED_EDGE('',*,*,#272,.F.);
#37=ORIENTED_EDGE('',*,*,#273,.T.);
#38=ORIENTED_EDGE('',*,*,#274,.T.);
#39=ORIENTED_EDGE('',*,*,#275,.F.);
#40=ORIENTED_EDGE('',*,*,#276,.F.);
#41=ORIENTED_EDGE('',*,*,#277,.T.);
#42=ORIENTED_EDGE('',*,*,#278,.T.);
#43=ORIENTED_EDGE('',*,*,#279,.F.);
#44=ORIENTED_EDGE('',*,*,#280,.F.);
#45=ORIENTED_EDGE('',*,*,#276,.T.);
#46=ORIENTED_EDGE('',*,*,#281,.T.);
#47=ORIENTED_EDGE('',*,*,#273,.F.);
#48=ORIENTED_EDGE('',*,*,#282,.F.);
#49=ORIENTED_EDGE('',*,*,#283,.T.);
#50=ORIENTED_EDGE('',*,*,#278,.F.);
#51=ORIENTED_EDGE('',*,*,#284,.T.);
#52=ORIENTED_EDGE('',*,*,#285,.F.);
#53=ORIENTED_EDGE('',*,*,#286,.F.);
#54=ORIENTED_EDGE('',*,*,#287,.F.);
#55=ORIENTED_EDGE('',*,*,#288,.F.);
#56=ORIENTED_EDGE('',*,*,#289,.T.);
#57=ORIENTED_EDGE('',*,*,#290,.T.);
#58=ORIENTED_EDGE('',*,*,#291,.F.);
#59=ORIENTED_EDGE('',*,*,#292,.F.);
#60=ORIENTED_EDGE('',*,*,#293,.T.);
#61=ORIENTED_EDGE('',*,*,#294,.T.);
#62=ORIENTED_EDGE('',*,*,#295,.F.);
#63=ORIENTED_EDGE('',*,*,#296,.F.);
#64=ORIENTED_EDGE('',*,*,#297,.T.);
#65=ORIENTED_EDGE('',*,*,#298,.T.);
#66=ORIENTED_EDGE('',*,*,#299,.F.);
#67=ORIENTED_EDGE('',*,*,#300,.F.);
#68=ORIENTED_EDGE('',*,*,#301,.T.);
#69=ORIENTED_EDGE('',*,*,#302,.T.);
#70=ORIENTED_EDGE('',*,*,#303,.F.);
#71=ORIENTED_EDGE('',*,*,#304,.T.);
#72=ORIENTED_EDGE('',*,*,#305,.T.);
#73=ORIENTED_EDGE('',*,*,#306,.F.);
#74=ORIENTED_EDGE('',*,*,#307,.F.);
#75=ORIENTED_EDGE('',*,*,#308,.T.);
#76=ORIENTED_EDGE('',*,*,#309,.T.);
#77=ORIENTED_EDGE('',*,*,#310,.F.);
#78=ORIENTED_EDGE('',*,*,#311,.F.);
#79=ORIENTED_EDGE('',*,*,#312,.T.);
#80=ORIENTED_EDGE('',*,*,#313,.T.);
#81=ORIENTED_EDGE('',*,*,#314,.F.);
#82=ORIENTED_EDGE('',*,*,#315,.F.);
#83=ORIENTED_EDGE('',*,*,#316,.T.);
#84=ORIENTED_EDGE('',*,*,#317,.T.);
#85=ORIENTED_EDGE('',*,*,#318,.F.);
#86=ORIENTED_EDGE('',*,*,#319,.F.);
#87=ORIENTED_EDGE('',*,*,#293,.F.);
#88=ORIENTED_EDGE('',*,*,#320,.F.);
#89=ORIENTED_EDGE('',*,*,#321,.T.);
#90=ORIENTED_EDGE('',*,*,#322,.F.);
#91=ORIENTED_EDGE('',*,*,#321,.F.);
#92=ORIENTED_EDGE('',*,*,#323,.F.);
#93=ORIENTED_EDGE('',*,*,#324,.T.);
#94=ORIENTED_EDGE('',*,*,#325,.T.);
#95=ORIENTED_EDGE('',*,*,#326,.T.);
#96=ORIENTED_EDGE('',*,*,#327,.F.);
#97=ORIENTED_EDGE('',*,*,#328,.F.);
#98=ORIENTED_EDGE('',*,*,#307,.T.);
#99=ORIENTED_EDGE('',*,*,#329,.T.);
#100=ORIENTED_EDGE('',*,*,#330,.T.);
#101=ORIENTED_EDGE('',*,*,#331,.F.);
#102=ORIENTED_EDGE('',*,*,#308,.F.);
#103=ORIENTED_EDGE('',*,*,#328,.T.);
#104=ORIENTED_EDGE('',*,*,#332,.T.);
#105=ORIENTED_EDGE('',*,*,#333,.F.);
#106=ORIENTED_EDGE('',*,*,#309,.F.);
#107=ORIENTED_EDGE('',*,*,#331,.T.);
#108=ORIENTED_EDGE('',*,*,#334,.F.);
#109=ORIENTED_EDGE('',*,*,#335,.F.);
#110=ORIENTED_EDGE('',*,*,#311,.T.);
#111=ORIENTED_EDGE('',*,*,#336,.T.);
#112=ORIENTED_EDGE('',*,*,#337,.T.);
#113=ORIENTED_EDGE('',*,*,#338,.F.);
#114=ORIENTED_EDGE('',*,*,#312,.F.);
#115=ORIENTED_EDGE('',*,*,#335,.T.);
#116=ORIENTED_EDGE('',*,*,#339,.T.);
#117=ORIENTED_EDGE('',*,*,#340,.F.);
#118=ORIENTED_EDGE('',*,*,#313,.F.);
#119=ORIENTED_EDGE('',*,*,#338,.T.);
#120=ORIENTED_EDGE('',*,*,#341,.F.);
#121=ORIENTED_EDGE('',*,*,#342,.F.);
#122=ORIENTED_EDGE('',*,*,#303,.T.);
#123=ORIENTED_EDGE('',*,*,#343,.T.);
#124=ORIENTED_EDGE('',*,*,#344,.T.);
#125=ORIENTED_EDGE('',*,*,#345,.F.);
#126=ORIENTED_EDGE('',*,*,#304,.F.);
#127=ORIENTED_EDGE('',*,*,#342,.T.);
#128=ORIENTED_EDGE('',*,*,#346,.T.);
#129=ORIENTED_EDGE('',*,*,#347,.F.);
#130=ORIENTED_EDGE('',*,*,#305,.F.);
#131=ORIENTED_EDGE('',*,*,#345,.T.);
#132=ORIENTED_EDGE('',*,*,#348,.F.);
#133=ORIENTED_EDGE('',*,*,#349,.F.);
#134=ORIENTED_EDGE('',*,*,#315,.T.);
#135=ORIENTED_EDGE('',*,*,#350,.T.);
#136=ORIENTED_EDGE('',*,*,#351,.T.);
#137=ORIENTED_EDGE('',*,*,#352,.F.);
#138=ORIENTED_EDGE('',*,*,#316,.F.);
#139=ORIENTED_EDGE('',*,*,#349,.T.);
#140=ORIENTED_EDGE('',*,*,#353,.T.);
#141=ORIENTED_EDGE('',*,*,#354,.F.);
#142=ORIENTED_EDGE('',*,*,#317,.F.);
#143=ORIENTED_EDGE('',*,*,#352,.T.);
#144=ORIENTED_EDGE('',*,*,#355,.F.);
#145=ORIENTED_EDGE('',*,*,#356,.F.);
#146=ORIENTED_EDGE('',*,*,#300,.T.);
#147=ORIENTED_EDGE('',*,*,#357,.T.);
#148=ORIENTED_EDGE('',*,*,#358,.T.);
#149=ORIENTED_EDGE('',*,*,#359,.F.);
#150=ORIENTED_EDGE('',*,*,#289,.F.);
#151=ORIENTED_EDGE('',*,*,#360,.T.);
#152=ORIENTED_EDGE('',*,*,#285,.T.);
#153=ORIENTED_EDGE('',*,*,#275,.T.);
#154=ORIENTED_EDGE('',*,*,#301,.F.);
#155=ORIENTED_EDGE('',*,*,#356,.T.);
#156=ORIENTED_EDGE('',*,*,#361,.T.);
#157=ORIENTED_EDGE('',*,*,#362,.F.);
#158=ORIENTED_EDGE('',*,*,#290,.F.);
#159=ORIENTED_EDGE('',*,*,#359,.T.);
#160=ORIENTED_EDGE('',*,*,#363,.F.);
#161=ORIENTED_EDGE('',*,*,#336,.F.);
#162=ORIENTED_EDGE('',*,*,#314,.T.);
#163=ORIENTED_EDGE('',*,*,#340,.T.);
#164=ORIENTED_EDGE('',*,*,#364,.F.);
#165=ORIENTED_EDGE('',*,*,#343,.F.);
#166=ORIENTED_EDGE('',*,*,#306,.T.);
#167=ORIENTED_EDGE('',*,*,#347,.T.);
#168=ORIENTED_EDGE('',*,*,#365,.F.);
#169=ORIENTED_EDGE('',*,*,#350,.F.);
#170=ORIENTED_EDGE('',*,*,#318,.T.);
#171=ORIENTED_EDGE('',*,*,#354,.T.);
#172=ORIENTED_EDGE('',*,*,#366,.F.);
#173=ORIENTED_EDGE('',*,*,#295,.T.);
#174=ORIENTED_EDGE('',*,*,#367,.T.);
#175=ORIENTED_EDGE('',*,*,#324,.F.);
#176=ORIENTED_EDGE('',*,*,#368,.F.);
#177=ORIENTED_EDGE('',*,*,#291,.T.);
#178=ORIENTED_EDGE('',*,*,#362,.T.);
#179=ORIENTED_EDGE('',*,*,#369,.F.);
#180=ORIENTED_EDGE('',*,*,#357,.F.);
#181=ORIENTED_EDGE('',*,*,#299,.T.);
#182=ORIENTED_EDGE('',*,*,#370,.T.);
#183=ORIENTED_EDGE('',*,*,#371,.F.);
#184=ORIENTED_EDGE('',*,*,#372,.F.);
#185=ORIENTED_EDGE('',*,*,#329,.F.);
#186=ORIENTED_EDGE('',*,*,#310,.T.);
#187=ORIENTED_EDGE('',*,*,#333,.T.);
#188=ORIENTED_EDGE('',*,*,#355,.T.);
#189=ORIENTED_EDGE('',*,*,#369,.T.);
#190=ORIENTED_EDGE('',*,*,#361,.F.);
#191=ORIENTED_EDGE('',*,*,#358,.F.);
#192=ORIENTED_EDGE('',*,*,#348,.T.);
#193=ORIENTED_EDGE('',*,*,#365,.T.);
#194=ORIENTED_EDGE('',*,*,#353,.F.);
#195=ORIENTED_EDGE('',*,*,#351,.F.);
#196=ORIENTED_EDGE('',*,*,#341,.T.);
#197=ORIENTED_EDGE('',*,*,#364,.T.);
#198=ORIENTED_EDGE('',*,*,#346,.F.);
#199=ORIENTED_EDGE('',*,*,#344,.F.);
#200=ORIENTED_EDGE('',*,*,#334,.T.);
#201=ORIENTED_EDGE('',*,*,#363,.T.);
#202=ORIENTED_EDGE('',*,*,#339,.F.);
#203=ORIENTED_EDGE('',*,*,#337,.F.);
#204=ORIENTED_EDGE('',*,*,#327,.T.);
#205=ORIENTED_EDGE('',*,*,#372,.T.);
#206=ORIENTED_EDGE('',*,*,#332,.F.);
#207=ORIENTED_EDGE('',*,*,#330,.F.);
#208=ORIENTED_EDGE('',*,*,#297,.F.);
#209=ORIENTED_EDGE('',*,*,#373,.T.);
#210=ORIENTED_EDGE('',*,*,#374,.T.);
#211=ORIENTED_EDGE('',*,*,#375,.T.);
#212=ORIENTED_EDGE('',*,*,#374,.F.);
#213=ORIENTED_EDGE('',*,*,#376,.T.);
#214=ORIENTED_EDGE('',*,*,#371,.T.);
#215=ORIENTED_EDGE('',*,*,#377,.T.);
#216=ORIENTED_EDGE('',*,*,#378,.F.);
#217=ORIENTED_EDGE('',*,*,#379,.F.);
#218=ORIENTED_EDGE('',*,*,#320,.T.);
#219=ORIENTED_EDGE('',*,*,#292,.T.);
#220=ORIENTED_EDGE('',*,*,#368,.T.);
#221=ORIENTED_EDGE('',*,*,#323,.T.);
#222=ORIENTED_EDGE('',*,*,#325,.F.);
#223=ORIENTED_EDGE('',*,*,#375,.F.);
#224=ORIENTED_EDGE('',*,*,#377,.F.);
#225=ORIENTED_EDGE('',*,*,#370,.F.);
#226=ORIENTED_EDGE('',*,*,#298,.F.);
#227=ORIENTED_EDGE('',*,*,#379,.T.);
#228=ORIENTED_EDGE('',*,*,#378,.T.);
#229=ORIENTED_EDGE('',*,*,#296,.T.);
#230=ORIENTED_EDGE('',*,*,#366,.T.);
#231=ORIENTED_EDGE('',*,*,#376,.F.);
#232=ORIENTED_EDGE('',*,*,#373,.F.);
#233=ORIENTED_EDGE('',*,*,#326,.F.);
#234=ORIENTED_EDGE('',*,*,#319,.T.);
#235=ORIENTED_EDGE('',*,*,#322,.T.);
#236=ORIENTED_EDGE('',*,*,#367,.F.);
#237=ORIENTED_EDGE('',*,*,#294,.F.);
#238=ORIENTED_EDGE('',*,*,#380,.T.);
#239=ORIENTED_EDGE('',*,*,#381,.T.);
#240=ORIENTED_EDGE('',*,*,#360,.F.);
#241=ORIENTED_EDGE('',*,*,#382,.F.);
#242=ORIENTED_EDGE('',*,*,#383,.F.);
#243=ORIENTED_EDGE('',*,*,#384,.F.);
#244=ORIENTED_EDGE('',*,*,#385,.T.);
#245=ORIENTED_EDGE('',*,*,#287,.T.);
#246=ORIENTED_EDGE('',*,*,#384,.T.);
#247=ORIENTED_EDGE('',*,*,#386,.T.);
#248=ORIENTED_EDGE('',*,*,#380,.F.);
#249=ORIENTED_EDGE('',*,*,#387,.F.);
#250=ORIENTED_EDGE('',*,*,#388,.F.);
#251=ORIENTED_EDGE('',*,*,#389,.T.);
#252=ORIENTED_EDGE('',*,*,#382,.T.);
#253=ORIENTED_EDGE('',*,*,#288,.T.);
#254=ORIENTED_EDGE('',*,*,#385,.F.);
#255=ORIENTED_EDGE('',*,*,#387,.T.);
#256=ORIENTED_EDGE('',*,*,#389,.F.);
#257=ORIENTED_EDGE('',*,*,#274,.F.);
#258=ORIENTED_EDGE('',*,*,#281,.F.);
#259=ORIENTED_EDGE('',*,*,#279,.T.);
#260=ORIENTED_EDGE('',*,*,#302,.F.);
#261=ORIENTED_EDGE('',*,*,#282,.T.);
#262=ORIENTED_EDGE('',*,*,#283,.F.);
#263=ORIENTED_EDGE('',*,*,#272,.T.);
#264=ORIENTED_EDGE('',*,*,#284,.F.);
#265=ORIENTED_EDGE('',*,*,#277,.F.);
#266=ORIENTED_EDGE('',*,*,#280,.T.);
#267=ORIENTED_EDGE('',*,*,#388,.T.);
#268=ORIENTED_EDGE('',*,*,#386,.F.);
#269=ORIENTED_EDGE('',*,*,#383,.T.);
#270=ORIENTED_EDGE('',*,*,#286,.T.);
#271=ORIENTED_EDGE('',*,*,#381,.F.);
#272=EDGE_CURVE('',#390,#391,#470,.T.);
#273=EDGE_CURVE('',#390,#392,#471,.T.);
#274=EDGE_CURVE('',#392,#393,#472,.T.);
#275=EDGE_CURVE('',#391,#393,#473,.T.);
#276=EDGE_CURVE('',#394,#395,#474,.T.);
#277=EDGE_CURVE('',#394,#396,#475,.T.);
#278=EDGE_CURVE('',#396,#397,#476,.T.);
#279=EDGE_CURVE('',#395,#397,#477,.T.);
#280=EDGE_CURVE('',#394,#390,#12,.T.);
#281=EDGE_CURVE('',#395,#392,#13,.T.);
#282=EDGE_CURVE('',#398,#398,#14,.T.);
#283=EDGE_CURVE('',#399,#399,#15,.T.);
#284=EDGE_CURVE('',#396,#391,#478,.T.);
#285=EDGE_CURVE('',#400,#391,#479,.T.);
#286=EDGE_CURVE('',#401,#400,#480,.T.);
#287=EDGE_CURVE('',#402,#401,#481,.T.);
#288=EDGE_CURVE('',#403,#402,#482,.T.);
#289=EDGE_CURVE('',#403,#404,#483,.T.);
#290=EDGE_CURVE('',#404,#405,#484,.T.);
#291=EDGE_CURVE('',#406,#405,#485,.T.);
#292=EDGE_CURVE('',#407,#406,#486,.T.);
#293=EDGE_CURVE('',#407,#408,#487,.T.);
#294=EDGE_CURVE('',#408,#409,#488,.T.);
#295=EDGE_CURVE('',#410,#409,#489,.T.);
#296=EDGE_CURVE('',#411,#410,#490,.T.);
#297=EDGE_CURVE('',#411,#412,#491,.T.);
#298=EDGE_CURVE('',#412,#413,#492,.T.);
#299=EDGE_CURVE('',#414,#413,#493,.T.);
#300=EDGE_CURVE('',#415,#414,#494,.T.);
#301=EDGE_CURVE('',#415,#393,#495,.T.);
#302=EDGE_CURVE('',#393,#397,#496,.T.);
#303=EDGE_CURVE('',#416,#417,#497,.T.);
#304=EDGE_CURVE('',#416,#418,#498,.T.);
#305=EDGE_CURVE('',#418,#419,#499,.T.);
#306=EDGE_CURVE('',#417,#419,#500,.T.);
#307=EDGE_CURVE('',#420,#421,#501,.T.);
#308=EDGE_CURVE('',#420,#422,#502,.T.);
#309=EDGE_CURVE('',#422,#423,#503,.T.);
#310=EDGE_CURVE('',#421,#423,#504,.T.);
#311=EDGE_CURVE('',#424,#425,#505,.T.);
#312=EDGE_CURVE('',#424,#426,#506,.T.);
#313=EDGE_CURVE('',#426,#427,#507,.T.);
#314=EDGE_CURVE('',#425,#427,#508,.T.);
#315=EDGE_CURVE('',#428,#429,#509,.T.);
#316=EDGE_CURVE('',#428,#430,#510,.T.);
#317=EDGE_CURVE('',#430,#431,#511,.T.);
#318=EDGE_CURVE('',#429,#431,#512,.T.);
#319=EDGE_CURVE('',#408,#432,#513,.T.);
#320=EDGE_CURVE('',#433,#407,#514,.T.);
#321=EDGE_CURVE('',#433,#432,#515,.T.);
#322=EDGE_CURVE('',#432,#434,#16,.T.);
#323=EDGE_CURVE('',#435,#433,#17,.T.);
#324=EDGE_CURVE('',#435,#434,#516,.T.);
#325=EDGE_CURVE('',#436,#436,#18,.T.);
#326=EDGE_CURVE('',#437,#437,#19,.T.);
#327=EDGE_CURVE('',#438,#439,#517,.T.);
#328=EDGE_CURVE('',#420,#438,#518,.T.);
#329=EDGE_CURVE('',#421,#439,#519,.T.);
#330=EDGE_CURVE('',#438,#440,#520,.T.);
#331=EDGE_CURVE('',#422,#440,#521,.T.);
#332=EDGE_CURVE('',#440,#441,#522,.T.);
#333=EDGE_CURVE('',#423,#441,#523,.T.);
#334=EDGE_CURVE('',#442,#443,#524,.T.);
#335=EDGE_CURVE('',#424,#442,#525,.T.);
#336=EDGE_CURVE('',#425,#443,#526,.T.);
#337=EDGE_CURVE('',#442,#444,#527,.T.);
#338=EDGE_CURVE('',#426,#444,#528,.T.);
#339=EDGE_CURVE('',#444,#445,#529,.T.);
#340=EDGE_CURVE('',#427,#445,#530,.T.);
#341=EDGE_CURVE('',#446,#447,#531,.T.);
#342=EDGE_CURVE('',#416,#446,#532,.T.);
#343=EDGE_CURVE('',#417,#447,#533,.T.);
#344=EDGE_CURVE('',#446,#448,#534,.T.);
#345=EDGE_CURVE('',#418,#448,#535,.T.);
#346=EDGE_CURVE('',#448,#449,#536,.T.);
#347=EDGE_CURVE('',#419,#449,#537,.T.);
#348=EDGE_CURVE('',#450,#451,#538,.T.);
#349=EDGE_CURVE('',#428,#450,#539,.T.);
#350=EDGE_CURVE('',#429,#451,#540,.T.);
#351=EDGE_CURVE('',#450,#452,#541,.T.);
#352=EDGE_CURVE('',#430,#452,#542,.T.);
#353=EDGE_CURVE('',#452,#453,#543,.T.);
#354=EDGE_CURVE('',#431,#453,#544,.T.);
#355=EDGE_CURVE('',#454,#455,#545,.T.);
#356=EDGE_CURVE('',#415,#454,#546,.T.);
#357=EDGE_CURVE('',#414,#455,#547,.T.);
#358=EDGE_CURVE('',#454,#456,#548,.T.);
#359=EDGE_CURVE('',#404,#456,#549,.T.);
#360=EDGE_CURVE('',#403,#400,#550,.T.);
#361=EDGE_CURVE('',#456,#457,#551,.T.);
#362=EDGE_CURVE('',#405,#457,#552,.T.);
#363=EDGE_CURVE('',#443,#445,#553,.T.);
#364=EDGE_CURVE('',#447,#449,#554,.T.);
#365=EDGE_CURVE('',#451,#453,#555,.T.);
#366=EDGE_CURVE('',#410,#458,#556,.T.);
#367=EDGE_CURVE('',#409,#434,#557,.T.);
#368=EDGE_CURVE('',#406,#435,#558,.T.);
#369=EDGE_CURVE('',#455,#457,#559,.T.);
#370=EDGE_CURVE('',#413,#459,#560,.T.);
#371=EDGE_CURVE('',#458,#459,#561,.T.);
#372=EDGE_CURVE('',#439,#441,#562,.T.);
#373=EDGE_CURVE('',#411,#460,#563,.T.);
#374=EDGE_CURVE('',#460,#461,#564,.T.);
#375=EDGE_CURVE('',#461,#412,#565,.T.);
#376=EDGE_CURVE('',#460,#458,#20,.T.);
#377=EDGE_CURVE('',#459,#461,#21,.T.);
#378=EDGE_CURVE('',#462,#462,#22,.T.);
#379=EDGE_CURVE('',#463,#463,#23,.T.);
#380=EDGE_CURVE('',#464,#465,#566,.T.);
#381=EDGE_CURVE('',#465,#400,#567,.T.);
#382=EDGE_CURVE('',#464,#403,#568,.T.);
#383=EDGE_CURVE('',#466,#401,#569,.T.);
#384=EDGE_CURVE('',#467,#466,#570,.T.);
#385=EDGE_CURVE('',#467,#402,#571,.T.);
#386=EDGE_CURVE('',#466,#465,#24,.T.);
#387=EDGE_CURVE('',#467,#464,#25,.T.);
#388=EDGE_CURVE('',#468,#468,#26,.T.);
#389=EDGE_CURVE('',#469,#469,#27,.T.);
#390=VERTEX_POINT('',#1182);
#391=VERTEX_POINT('',#1183);
#392=VERTEX_POINT('',#1185);
#393=VERTEX_POINT('',#1187);
#394=VERTEX_POINT('',#1191);
#395=VERTEX_POINT('',#1192);
#396=VERTEX_POINT('',#1194);
#397=VERTEX_POINT('',#1196);
#398=VERTEX_POINT('',#1203);
#399=VERTEX_POINT('',#1205);
#400=VERTEX_POINT('',#1209);
#401=VERTEX_POINT('',#1211);
#402=VERTEX_POINT('',#1213);
#403=VERTEX_POINT('',#1215);
#404=VERTEX_POINT('',#1217);
#405=VERTEX_POINT('',#1219);
#406=VERTEX_POINT('',#1221);
#407=VERTEX_POINT('',#1223);
#408=VERTEX_POINT('',#1225);
#409=VERTEX_POINT('',#1227);
#410=VERTEX_POINT('',#1229);
#411=VERTEX_POINT('',#1231);
#412=VERTEX_POINT('',#1233);
#413=VERTEX_POINT('',#1235);
#414=VERTEX_POINT('',#1237);
#415=VERTEX_POINT('',#1239);
#416=VERTEX_POINT('',#1243);
#417=VERTEX_POINT('',#1244);
#418=VERTEX_POINT('',#1246);
#419=VERTEX_POINT('',#1248);
#420=VERTEX_POINT('',#1251);
#421=VERTEX_POINT('',#1252);
#422=VERTEX_POINT('',#1254);
#423=VERTEX_POINT('',#1256);
#424=VERTEX_POINT('',#1259);
#425=VERTEX_POINT('',#1260);
#426=VERTEX_POINT('',#1262);
#427=VERTEX_POINT('',#1264);
#428=VERTEX_POINT('',#1267);
#429=VERTEX_POINT('',#1268);
#430=VERTEX_POINT('',#1270);
#431=VERTEX_POINT('',#1272);
#432=VERTEX_POINT('',#1276);
#433=VERTEX_POINT('',#1278);
#434=VERTEX_POINT('',#1282);
#435=VERTEX_POINT('',#1284);
#436=VERTEX_POINT('',#1288);
#437=VERTEX_POINT('',#1290);
#438=VERTEX_POINT('',#1293);
#439=VERTEX_POINT('',#1294);
#440=VERTEX_POINT('',#1299);
#441=VERTEX_POINT('',#1303);
#442=VERTEX_POINT('',#1307);
#443=VERTEX_POINT('',#1308);
#444=VERTEX_POINT('',#1313);
#445=VERTEX_POINT('',#1317);
#446=VERTEX_POINT('',#1321);
#447=VERTEX_POINT('',#1322);
#448=VERTEX_POINT('',#1327);
#449=VERTEX_POINT('',#1331);
#450=VERTEX_POINT('',#1335);
#451=VERTEX_POINT('',#1336);
#452=VERTEX_POINT('',#1341);
#453=VERTEX_POINT('',#1345);
#454=VERTEX_POINT('',#1349);
#455=VERTEX_POINT('',#1350);
#456=VERTEX_POINT('',#1355);
#457=VERTEX_POINT('',#1360);
#458=VERTEX_POINT('',#1370);
#459=VERTEX_POINT('',#1375);
#460=VERTEX_POINT('',#1382);
#461=VERTEX_POINT('',#1384);
#462=VERTEX_POINT('',#1391);
#463=VERTEX_POINT('',#1393);
#464=VERTEX_POINT('',#1400);
#465=VERTEX_POINT('',#1401);
#466=VERTEX_POINT('',#1406);
#467=VERTEX_POINT('',#1408);
#468=VERTEX_POINT('',#1415);
#469=VERTEX_POINT('',#1417);
#470=LINE('',#1181,#572);
#471=LINE('',#1184,#573);
#472=LINE('',#1186,#574);
#473=LINE('',#1188,#575);
#474=LINE('',#1190,#576);
#475=LINE('',#1193,#577);
#476=LINE('',#1195,#578);
#477=LINE('',#1197,#579);
#478=LINE('',#1207,#580);
#479=LINE('',#1208,#581);
#480=LINE('',#1210,#582);
#481=LINE('',#1212,#583);
#482=LINE('',#1214,#584);
#483=LINE('',#1216,#585);
#484=LINE('',#1218,#586);
#485=LINE('',#1220,#587);
#486=LINE('',#1222,#588);
#487=LINE('',#1224,#589);
#488=LINE('',#1226,#590);
#489=LINE('',#1228,#591);
#490=LINE('',#1230,#592);
#491=LINE('',#1232,#593);
#492=LINE('',#1234,#594);
#493=LINE('',#1236,#595);
#494=LINE('',#1238,#596);
#495=LINE('',#1240,#597);
#496=LINE('',#1241,#598);
#497=LINE('',#1242,#599);
#498=LINE('',#1245,#600);
#499=LINE('',#1247,#601);
#500=LINE('',#1249,#602);
#501=LINE('',#1250,#603);
#502=LINE('',#1253,#604);
#503=LINE('',#1255,#605);
#504=LINE('',#1257,#606);
#505=LINE('',#1258,#607);
#506=LINE('',#1261,#608);
#507=LINE('',#1263,#609);
#508=LINE('',#1265,#610);
#509=LINE('',#1266,#611);
#510=LINE('',#1269,#612);
#511=LINE('',#1271,#613);
#512=LINE('',#1273,#614);
#513=LINE('',#1275,#615);
#514=LINE('',#1277,#616);
#515=LINE('',#1279,#617);
#516=LINE('',#1285,#618);
#517=LINE('',#1292,#619);
#518=LINE('',#1295,#620);
#519=LINE('',#1296,#621);
#520=LINE('',#1298,#622);
#521=LINE('',#1300,#623);
#522=LINE('',#1302,#624);
#523=LINE('',#1304,#625);
#524=LINE('',#1306,#626);
#525=LINE('',#1309,#627);
#526=LINE('',#1310,#628);
#527=LINE('',#1312,#629);
#528=LINE('',#1314,#630);
#529=LINE('',#1316,#631);
#530=LINE('',#1318,#632);
#531=LINE('',#1320,#633);
#532=LINE('',#1323,#634);
#533=LINE('',#1324,#635);
#534=LINE('',#1326,#636);
#535=LINE('',#1328,#637);
#536=LINE('',#1330,#638);
#537=LINE('',#1332,#639);
#538=LINE('',#1334,#640);
#539=LINE('',#1337,#641);
#540=LINE('',#1338,#642);
#541=LINE('',#1340,#643);
#542=LINE('',#1342,#644);
#543=LINE('',#1344,#645);
#544=LINE('',#1346,#646);
#545=LINE('',#1348,#647);
#546=LINE('',#1351,#648);
#547=LINE('',#1352,#649);
#548=LINE('',#1354,#650);
#549=LINE('',#1356,#651);
#550=LINE('',#1357,#652);
#551=LINE('',#1359,#653);
#552=LINE('',#1361,#654);
#553=LINE('',#1363,#655);
#554=LINE('',#1365,#656);
#555=LINE('',#1367,#657);
#556=LINE('',#1369,#658);
#557=LINE('',#1371,#659);
#558=LINE('',#1372,#660);
#559=LINE('',#1373,#661);
#560=LINE('',#1374,#662);
#561=LINE('',#1376,#663);
#562=LINE('',#1378,#664);
#563=LINE('',#1381,#665);
#564=LINE('',#1383,#666);
#565=LINE('',#1385,#667);
#566=LINE('',#1399,#668);
#567=LINE('',#1402,#669);
#568=LINE('',#1403,#670);
#569=LINE('',#1405,#671);
#570=LINE('',#1407,#672);
#571=LINE('',#1409,#673);
#572=VECTOR('',#959,1.);
#573=VECTOR('',#960,1.);
#574=VECTOR('',#961,1.);
#575=VECTOR('',#962,1.);
#576=VECTOR('',#965,1.);
#577=VECTOR('',#966,1.);
#578=VECTOR('',#967,1.);
#579=VECTOR('',#968,1.);
#580=VECTOR('',#983,1.);
#581=VECTOR('',#984,1.);
#582=VECTOR('',#985,1.);
#583=VECTOR('',#986,1.);
#584=VECTOR('',#987,1.);
#585=VECTOR('',#988,1.);
#586=VECTOR('',#989,1.);
#587=VECTOR('',#990,1.);
#588=VECTOR('',#991,1.);
#589=VECTOR('',#992,1.);
#590=VECTOR('',#993,1.);
#591=VECTOR('',#994,1.);
#592=VECTOR('',#995,1.);
#593=VECTOR('',#996,1.);
#594=VECTOR('',#997,1.);
#595=VECTOR('',#998,1.);
#596=VECTOR('',#999,1.);
#597=VECTOR('',#1000,1.);
#598=VECTOR('',#1001,1.);
#599=VECTOR('',#1002,1.);
#600=VECTOR('',#1003,1.);
#601=VECTOR('',#1004,1.);
#602=VECTOR('',#1005,1.);
#603=VECTOR('',#1006,1.);
#604=VECTOR('',#1007,1.);
#605=VECTOR('',#1008,1.);
#606=VECTOR('',#1009,1.);
#607=VECTOR('',#1010,1.);
#608=VECTOR('',#1011,1.);
#609=VECTOR('',#1012,1.);
#610=VECTOR('',#1013,1.);
#611=VECTOR('',#1014,1.);
#612=VECTOR('',#1015,1.);
#613=VECTOR('',#1016,1.);
#614=VECTOR('',#1017,1.);
#615=VECTOR('',#1020,1.);
#616=VECTOR('',#1021,1.);
#617=VECTOR('',#1022,1.);
#618=VECTOR('',#1029,1.);
#619=VECTOR('',#1038,1.);
#620=VECTOR('',#1039,1.);
#621=VECTOR('',#1040,1.);
#622=VECTOR('',#1043,1.);
#623=VECTOR('',#1044,1.);
#624=VECTOR('',#1047,1.);
#625=VECTOR('',#1048,1.);
#626=VECTOR('',#1051,1.);
#627=VECTOR('',#1052,1.);
#628=VECTOR('',#1053,1.);
#629=VECTOR('',#1056,1.);
#630=VECTOR('',#1057,1.);
#631=VECTOR('',#1060,1.);
#632=VECTOR('',#1061,1.);
#633=VECTOR('',#1064,1.);
#634=VECTOR('',#1065,1.);
#635=VECTOR('',#1066,1.);
#636=VECTOR('',#1069,1.);
#637=VECTOR('',#1070,1.);
#638=VECTOR('',#1073,1.);
#639=VECTOR('',#1074,1.);
#640=VECTOR('',#1077,1.);
#641=VECTOR('',#1078,1.);
#642=VECTOR('',#1079,1.);
#643=VECTOR('',#1082,1.);
#644=VECTOR('',#1083,1.);
#645=VECTOR('',#1086,1.);
#646=VECTOR('',#1087,1.);
#647=VECTOR('',#1090,1.);
#648=VECTOR('',#1091,1.);
#649=VECTOR('',#1092,1.);
#650=VECTOR('',#1095,1.);
#651=VECTOR('',#1096,1.);
#652=VECTOR('',#1097,1.);
#653=VECTOR('',#1100,1.);
#654=VECTOR('',#1101,1.);
#655=VECTOR('',#1104,1.);
#656=VECTOR('',#1107,1.);
#657=VECTOR('',#1110,1.);
#658=VECTOR('',#1113,1.);
#659=VECTOR('',#1114,1.);
#660=VECTOR('',#1115,1.);
#661=VECTOR('',#1116,1.);
#662=VECTOR('',#1117,1.);
#663=VECTOR('',#1118,1.);
#664=VECTOR('',#1121,1.);
#665=VECTOR('',#1126,1.);
#666=VECTOR('',#1127,1.);
#667=VECTOR('',#1128,1.);
#668=VECTOR('',#1151,1.);
#669=VECTOR('',#1152,1.);
#670=VECTOR('',#1153,1.);
#671=VECTOR('',#1156,1.);
#672=VECTOR('',#1157,1.);
#673=VECTOR('',#1158,1.);
#674=EDGE_LOOP('',(#36,#37,#38,#39));
#675=EDGE_LOOP('',(#40,#41,#42,#43));
#676=EDGE_LOOP('',(#44,#45,#46,#47));
#677=EDGE_LOOP('',(#48));
#678=EDGE_LOOP('',(#49));
#679=EDGE_LOOP('',(#50,#51,#52,#53,#54,#55,#56,#57,#58,#59,#60,#61,#62,
#63,#64,#65,#66,#67,#68,#69));
#680=EDGE_LOOP('',(#70,#71,#72,#73));
#681=EDGE_LOOP('',(#74,#75,#76,#77));
#682=EDGE_LOOP('',(#78,#79,#80,#81));
#683=EDGE_LOOP('',(#82,#83,#84,#85));
#684=EDGE_LOOP('',(#86,#87,#88,#89));
#685=EDGE_LOOP('',(#90,#91,#92,#93));
#686=EDGE_LOOP('',(#94));
#687=EDGE_LOOP('',(#95));
#688=EDGE_LOOP('',(#96,#97,#98,#99));
#689=EDGE_LOOP('',(#100,#101,#102,#103));
#690=EDGE_LOOP('',(#104,#105,#106,#107));
#691=EDGE_LOOP('',(#108,#109,#110,#111));
#692=EDGE_LOOP('',(#112,#113,#114,#115));
#693=EDGE_LOOP('',(#116,#117,#118,#119));
#694=EDGE_LOOP('',(#120,#121,#122,#123));
#695=EDGE_LOOP('',(#124,#125,#126,#127));
#696=EDGE_LOOP('',(#128,#129,#130,#131));
#697=EDGE_LOOP('',(#132,#133,#134,#135));
#698=EDGE_LOOP('',(#136,#137,#138,#139));
#699=EDGE_LOOP('',(#140,#141,#142,#143));
#700=EDGE_LOOP('',(#144,#145,#146,#147));
#701=EDGE_LOOP('',(#148,#149,#150,#151,#152,#153,#154,#155));
#702=EDGE_LOOP('',(#156,#157,#158,#159));
#703=EDGE_LOOP('',(#160,#161,#162,#163));
#704=EDGE_LOOP('',(#164,#165,#166,#167));
#705=EDGE_LOOP('',(#168,#169,#170,#171));
#706=EDGE_LOOP('',(#172,#173,#174,#175,#176,#177,#178,#179,#180,#181,#182,
#183));
#707=EDGE_LOOP('',(#184,#185,#186,#187));
#708=EDGE_LOOP('',(#188,#189,#190,#191));
#709=EDGE_LOOP('',(#192,#193,#194,#195));
#710=EDGE_LOOP('',(#196,#197,#198,#199));
#711=EDGE_LOOP('',(#200,#201,#202,#203));
#712=EDGE_LOOP('',(#204,#205,#206,#207));
#713=EDGE_LOOP('',(#208,#209,#210,#211));
#714=EDGE_LOOP('',(#212,#213,#214,#215));
#715=EDGE_LOOP('',(#216));
#716=EDGE_LOOP('',(#217));
#717=EDGE_LOOP('',(#218,#219,#220,#221));
#718=EDGE_LOOP('',(#222));
#719=EDGE_LOOP('',(#223,#224,#225,#226));
#720=EDGE_LOOP('',(#227));
#721=EDGE_LOOP('',(#228));
#722=EDGE_LOOP('',(#229,#230,#231,#232));
#723=EDGE_LOOP('',(#233));
#724=EDGE_LOOP('',(#234,#235,#236,#237));
#725=EDGE_LOOP('',(#238,#239,#240,#241));
#726=EDGE_LOOP('',(#242,#243,#244,#245));
#727=EDGE_LOOP('',(#246,#247,#248,#249));
#728=EDGE_LOOP('',(#250));
#729=EDGE_LOOP('',(#251));
#730=EDGE_LOOP('',(#252,#253,#254,#255));
#731=EDGE_LOOP('',(#256));
#732=EDGE_LOOP('',(#257,#258,#259,#260));
#733=EDGE_LOOP('',(#261));
#734=EDGE_LOOP('',(#262));
#735=EDGE_LOOP('',(#263,#264,#265,#266));
#736=EDGE_LOOP('',(#267));
#737=EDGE_LOOP('',(#268,#269,#270,#271));
#738=FACE_BOUND('',#674,.T.);
#739=FACE_BOUND('',#675,.T.);
#740=FACE_BOUND('',#676,.T.);
#741=FACE_BOUND('',#677,.T.);
#742=FACE_BOUND('',#678,.T.);
#743=FACE_BOUND('',#679,.T.);
#744=FACE_BOUND('',#680,.T.);
#745=FACE_BOUND('',#681,.T.);
#746=FACE_BOUND('',#682,.T.);
#747=FACE_BOUND('',#683,.T.);
#748=FACE_BOUND('',#684,.T.);
#749=FACE_BOUND('',#685,.T.);
#750=FACE_BOUND('',#686,.T.);
#751=FACE_BOUND('',#687,.T.);
#752=FACE_BOUND('',#688,.T.);
#753=FACE_BOUND('',#689,.T.);
#754=FACE_BOUND('',#690,.T.);
#755=FACE_BOUND('',#691,.T.);
#756=FACE_BOUND('',#692,.T.);
#757=FACE_BOUND('',#693,.T.);
#758=FACE_BOUND('',#694,.T.);
#759=FACE_BOUND('',#695,.T.);
#760=FACE_BOUND('',#696,.T.);
#761=FACE_BOUND('',#697,.T.);
#762=FACE_BOUND('',#698,.T.);
#763=FACE_BOUND('',#699,.T.);
#764=FACE_BOUND('',#700,.T.);
#765=FACE_BOUND('',#701,.T.);
#766=FACE_BOUND('',#702,.T.);
#767=FACE_BOUND('',#703,.T.);
#768=FACE_BOUND('',#704,.T.);
#769=FACE_BOUND('',#705,.T.);
#770=FACE_BOUND('',#706,.T.);
#771=FACE_BOUND('',#707,.T.);
#772=FACE_BOUND('',#708,.T.);
#773=FACE_BOUND('',#709,.T.);
#774=FACE_BOUND('',#710,.T.);
#775=FACE_BOUND('',#711,.T.);
#776=FACE_BOUND('',#712,.T.);
#777=FACE_BOUND('',#713,.T.);
#778=FACE_BOUND('',#714,.T.);
#779=FACE_BOUND('',#715,.T.);
#780=FACE_BOUND('',#716,.T.);
#781=FACE_BOUND('',#717,.T.);
#782=FACE_BOUND('',#718,.T.);
#783=FACE_BOUND('',#719,.T.);
#784=FACE_BOUND('',#720,.T.);
#785=FACE_BOUND('',#721,.T.);
#786=FACE_BOUND('',#722,.T.);
#787=FACE_BOUND('',#723,.T.);
#788=FACE_BOUND('',#724,.T.);
#789=FACE_BOUND('',#725,.T.);
#790=FACE_BOUND('',#726,.T.);
#791=FACE_BOUND('',#727,.T.);
#792=FACE_BOUND('',#728,.T.);
#793=FACE_BOUND('',#729,.T.);
#794=FACE_BOUND('',#730,.T.);
#795=FACE_BOUND('',#731,.T.);
#796=FACE_BOUND('',#732,.T.);
#797=FACE_BOUND('',#733,.T.);
#798=FACE_BOUND('',#734,.T.);
#799=FACE_BOUND('',#735,.T.);
#800=FACE_BOUND('',#736,.T.);
#801=FACE_BOUND('',#737,.T.);
#802=PLANE('',#895);
#803=PLANE('',#896);
#804=PLANE('',#903);
#805=PLANE('',#904);
#806=PLANE('',#911);
#807=PLANE('',#912);
#808=PLANE('',#913);
#809=PLANE('',#914);
#810=PLANE('',#915);
#811=PLANE('',#916);
#812=PLANE('',#917);
#813=PLANE('',#918);
#814=PLANE('',#919);
#815=PLANE('',#920);
#816=PLANE('',#921);
#817=PLANE('',#922);
#818=PLANE('',#923);
#819=PLANE('',#924);
#820=PLANE('',#925);
#821=PLANE('',#926);
#822=PLANE('',#927);
#823=PLANE('',#928);
#824=PLANE('',#929);
#825=PLANE('',#930);
#826=PLANE('',#931);
#827=PLANE('',#932);
#828=PLANE('',#939);
#829=PLANE('',#940);
#830=PLANE('',#941);
#831=PLANE('',#942);
#832=PLANE('',#943);
#833=PLANE('',#944);
#834=PLANE('',#951);
#835=PLANE('',#952);
#836=PLANE('',#953);
#837=PLANE('',#954);
#838=ADVANCED_FACE('',(#738),#802,.F.);
#839=ADVANCED_FACE('',(#739),#803,.T.);
#840=ADVANCED_FACE('',(#740),#28,.T.);
#841=ADVANCED_FACE('',(#741,#742),#29,.F.);
#842=ADVANCED_FACE('',(#743,#744,#745,#746,#747),#804,.T.);
#843=ADVANCED_FACE('',(#748),#805,.F.);
#844=ADVANCED_FACE('',(#749),#30,.T.);
#845=ADVANCED_FACE('',(#750,#751),#31,.F.);
#846=ADVANCED_FACE('',(#752),#806,.T.);
#847=ADVANCED_FACE('',(#753),#807,.F.);
#848=ADVANCED_FACE('',(#754),#808,.F.);
#849=ADVANCED_FACE('',(#755),#809,.T.);
#850=ADVANCED_FACE('',(#756),#810,.F.);
#851=ADVANCED_FACE('',(#757),#811,.F.);
#852=ADVANCED_FACE('',(#758),#812,.T.);
#853=ADVANCED_FACE('',(#759),#813,.F.);
#854=ADVANCED_FACE('',(#760),#814,.F.);
#855=ADVANCED_FACE('',(#761),#815,.T.);
#856=ADVANCED_FACE('',(#762),#816,.F.);
#857=ADVANCED_FACE('',(#763),#817,.F.);
#858=ADVANCED_FACE('',(#764),#818,.T.);
#859=ADVANCED_FACE('',(#765),#819,.F.);
#860=ADVANCED_FACE('',(#766),#820,.F.);
#861=ADVANCED_FACE('',(#767),#821,.T.);
#862=ADVANCED_FACE('',(#768),#822,.T.);
#863=ADVANCED_FACE('',(#769),#823,.T.);
#864=ADVANCED_FACE('',(#770),#824,.T.);
#865=ADVANCED_FACE('',(#771),#825,.T.);
#866=ADVANCED_FACE('',(#772,#773,#774,#775,#776),#826,.F.);
#867=ADVANCED_FACE('',(#777),#827,.F.);
#868=ADVANCED_FACE('',(#778),#32,.T.);
#869=ADVANCED_FACE('',(#779,#780),#33,.F.);
#870=ADVANCED_FACE('',(#781,#782),#828,.T.);
#871=ADVANCED_FACE('',(#783,#784),#829,.F.);
#872=ADVANCED_FACE('',(#785,#786),#830,.F.);
#873=ADVANCED_FACE('',(#787,#788),#831,.T.);
#874=ADVANCED_FACE('',(#789),#832,.F.);
#875=ADVANCED_FACE('',(#790),#833,.T.);
#876=ADVANCED_FACE('',(#791),#34,.T.);
#877=ADVANCED_FACE('',(#792,#793),#35,.F.);
#878=ADVANCED_FACE('',(#794,#795),#834,.T.);
#879=ADVANCED_FACE('',(#796,#797),#835,.F.);
#880=ADVANCED_FACE('',(#798,#799),#836,.T.);
#881=ADVANCED_FACE('',(#800,#801),#837,.F.);
#882=CLOSED_SHELL('',(#838,#839,#840,#841,#842,#843,#844,#845,#846,#847,
#848,#849,#850,#851,#852,#853,#854,#855,#856,#857,#858,#859,#860,#861,#862,
#863,#864,#865,#866,#867,#868,#869,#870,#871,#872,#873,#874,#875,#876,#877,
#878,#879,#880,#881));
#883=STYLED_ITEM('',(#884),#891);
#884=PRESENTATION_STYLE_ASSIGNMENT((#885));
#885=SURFACE_STYLE_USAGE(.BOTH.,#886);
#886=SURFACE_SIDE_STYLE('',(#887));
#887=SURFACE_STYLE_FILL_AREA(#888);
#888=FILL_AREA_STYLE('',(#889));
#889=FILL_AREA_STYLE_COLOUR('',#890);
#890=COLOUR_RGB('',0.615686274509804,0.811764705882353,0.929411764705882);
#891=MANIFOLD_SOLID_BREP('Part 1',#882);
#892=SHAPE_DEFINITION_REPRESENTATION(#1428,#893);
#893=SHAPE_REPRESENTATION('Part 1',(#894),#1423);
#894=AXIS2_PLACEMENT_3D('',#1179,#955,#956);
#895=AXIS2_PLACEMENT_3D('',#1180,#957,#958);
#896=AXIS2_PLACEMENT_3D('',#1189,#963,#964);
#897=AXIS2_PLACEMENT_3D('',#1198,#969,#970);
#898=AXIS2_PLACEMENT_3D('',#1199,#971,#972);
#899=AXIS2_PLACEMENT_3D('',#1200,#973,#974);
#900=AXIS2_PLACEMENT_3D('',#1201,#975,#976);
#901=AXIS2_PLACEMENT_3D('',#1202,#977,#978);
#902=AXIS2_PLACEMENT_3D('',#1204,#979,#980);
#903=AXIS2_PLACEMENT_3D('',#1206,#981,#982);
#904=AXIS2_PLACEMENT_3D('',#1274,#1018,#1019);
#905=AXIS2_PLACEMENT_3D('',#1280,#1023,#1024);
#906=AXIS2_PLACEMENT_3D('',#1281,#1025,#1026);
#907=AXIS2_PLACEMENT_3D('',#1283,#1027,#1028);
#908=AXIS2_PLACEMENT_3D('',#1286,#1030,#1031);
#909=AXIS2_PLACEMENT_3D('',#1287,#1032,#1033);
#910=AXIS2_PLACEMENT_3D('',#1289,#1034,#1035);
#911=AXIS2_PLACEMENT_3D('',#1291,#1036,#1037);
#912=AXIS2_PLACEMENT_3D('',#1297,#1041,#1042);
#913=AXIS2_PLACEMENT_3D('',#1301,#1045,#1046);
#914=AXIS2_PLACEMENT_3D('',#1305,#1049,#1050);
#915=AXIS2_PLACEMENT_3D('',#1311,#1054,#1055);
#916=AXIS2_PLACEMENT_3D('',#1315,#1058,#1059);
#917=AXIS2_PLACEMENT_3D('',#1319,#1062,#1063);
#918=AXIS2_PLACEMENT_3D('',#1325,#1067,#1068);
#919=AXIS2_PLACEMENT_3D('',#1329,#1071,#1072);
#920=AXIS2_PLACEMENT_3D('',#1333,#1075,#1076);
#921=AXIS2_PLACEMENT_3D('',#1339,#1080,#1081);
#922=AXIS2_PLACEMENT_3D('',#1343,#1084,#1085);
#923=AXIS2_PLACEMENT_3D('',#1347,#1088,#1089);
#924=AXIS2_PLACEMENT_3D('',#1353,#1093,#1094);
#925=AXIS2_PLACEMENT_3D('',#1358,#1098,#1099);
#926=AXIS2_PLACEMENT_3D('',#1362,#1102,#1103);
#927=AXIS2_PLACEMENT_3D('',#1364,#1105,#1106);
#928=AXIS2_PLACEMENT_3D('',#1366,#1108,#1109);
#929=AXIS2_PLACEMENT_3D('',#1368,#1111,#1112);
#930=AXIS2_PLACEMENT_3D('',#1377,#1119,#1120);
#931=AXIS2_PLACEMENT_3D('',#1379,#1122,#1123);
#932=AXIS2_PLACEMENT_3D('',#1380,#1124,#1125);
#933=AXIS2_PLACEMENT_3D('',#1386,#1129,#1130);
#934=AXIS2_PLACEMENT_3D('',#1387,#1131,#1132);
#935=AXIS2_PLACEMENT_3D('',#1388,#1133,#1134);
#936=AXIS2_PLACEMENT_3D('',#1389,#1135,#1136);
#937=AXIS2_PLACEMENT_3D('',#1390,#1137,#1138);
#938=AXIS2_PLACEMENT_3D('',#1392,#1139,#1140);
#939=AXIS2_PLACEMENT_3D('',#1394,#1141,#1142);
#940=AXIS2_PLACEMENT_3D('',#1395,#1143,#1144);
#941=AXIS2_PLACEMENT_3D('',#1396,#1145,#1146);
#942=AXIS2_PLACEMENT_3D('',#1397,#1147,#1148);
#943=AXIS2_PLACEMENT_3D('',#1398,#1149,#1150);
#944=AXIS2_PLACEMENT_3D('',#1404,#1154,#1155);
#945=AXIS2_PLACEMENT_3D('',#1410,#1159,#1160);
#946=AXIS2_PLACEMENT_3D('',#1411,#1161,#1162);
#947=AXIS2_PLACEMENT_3D('',#1412,#1163,#1164);
#948=AXIS2_PLACEMENT_3D('',#1413,#1165,#1166);
#949=AXIS2_PLACEMENT_3D('',#1414,#1167,#1168);
#950=AXIS2_PLACEMENT_3D('',#1416,#1169,#1170);
#951=AXIS2_PLACEMENT_3D('',#1418,#1171,#1172);
#952=AXIS2_PLACEMENT_3D('',#1419,#1173,#1174);
#953=AXIS2_PLACEMENT_3D('',#1420,#1175,#1176);
#954=AXIS2_PLACEMENT_3D('',#1421,#1177,#1178);
#955=DIRECTION('',(0.,0.,1.));
#956=DIRECTION('',(1.,0.,0.));
#957=DIRECTION('',(0.,0.800227390300544,0.599696693181463));
#958=DIRECTION('',(0.,-0.599696693181463,0.800227390300544));
#959=DIRECTION('',(1.0571450637106E-16,0.599696693181463,-0.800227390300544));
#960=DIRECTION('',(-1.,0.,0.));
#961=DIRECTION('',(0.,0.599696693181463,-0.800227390300544));
#962=DIRECTION('',(-1.,0.,0.));
#963=DIRECTION('',(0.,-0.773887934527085,0.633322559832983));
#964=DIRECTION('',(0.,-0.633322559832983,-0.773887934527085));
#965=DIRECTION('',(-1.,0.,0.));
#966=DIRECTION('',(1.11642072647116E-16,0.633322559832983,0.773887934527085));
#967=DIRECTION('',(-1.,0.,0.));
#968=DIRECTION('',(0.,0.633322559832983,0.773887934527085));
#969=DIRECTION('',(-1.,0.,0.));
#970=DIRECTION('',(0.,0.,1.));
#971=DIRECTION('',(1.,-1.76279955472544E-16,0.));
#972=DIRECTION('',(1.76279955472544E-16,1.,0.));
#973=DIRECTION('',(1.,0.,0.));
#974=DIRECTION('',(0.,0.,-1.));
#975=DIRECTION('',(-1.,0.,0.));
#976=DIRECTION('',(0.,0.,1.));
#977=DIRECTION('',(1.,0.,0.));
#978=DIRECTION('',(0.,0.,-1.));
#979=DIRECTION('',(1.,-1.76279955472544E-16,0.));
#980=DIRECTION('',(1.76279955472544E-16,1.,0.));
#981=DIRECTION('',(0.,-1.,0.));
#982=DIRECTION('',(1.,0.,0.));
#983=DIRECTION('',(0.,0.,-1.));
#984=DIRECTION('',(-1.,0.,0.));
#985=DIRECTION('',(0.,0.,-1.));
#986=DIRECTION('',(-1.,0.,0.));
#987=DIRECTION('',(0.,7.58941520739853E-17,1.));
#988=DIRECTION('',(1.,0.,0.));
#989=DIRECTION('',(-2.33928155209683E-16,0.,1.));
#990=DIRECTION('',(1.,0.,0.));
#991=DIRECTION('',(0.,0.,1.));
#992=DIRECTION('',(-1.,0.,0.));
#993=DIRECTION('',(0.,0.,1.));
#994=DIRECTION('',(1.,0.,0.));
#995=DIRECTION('',(0.,0.,1.));
#996=DIRECTION('',(-1.,0.,0.));
#997=DIRECTION('',(0.,0.,1.));
#998=DIRECTION('',(1.,0.,0.));
#999=DIRECTION('',(-2.33928155209683E-16,0.,1.));
#1000=DIRECTION('',(1.,0.,0.));
#1001=DIRECTION('',(0.,7.58941520739853E-17,1.));
#1002=DIRECTION('',(1.,0.,0.));
#1003=DIRECTION('',(0.,0.,1.));
#1004=DIRECTION('',(1.,0.,0.));
#1005=DIRECTION('',(0.,0.,1.));
#1006=DIRECTION('',(1.,0.,0.));
#1007=DIRECTION('',(0.,0.,1.));
#1008=DIRECTION('',(1.,0.,0.));
#1009=DIRECTION('',(0.,0.,1.));
#1010=DIRECTION('',(1.,0.,0.));
#1011=DIRECTION('',(0.,0.,1.));
#1012=DIRECTION('',(1.,0.,1.38777878078144E-16));
#1013=DIRECTION('',(0.,0.,1.));
#1014=DIRECTION('',(1.,0.,0.));
#1015=DIRECTION('',(0.,0.,1.));
#1016=DIRECTION('',(1.,0.,0.));
#1017=DIRECTION('',(0.,0.,1.));
#1018=DIRECTION('',(0.,0.416091945229738,0.909322546247993));
#1019=DIRECTION('',(0.,-0.909322546247993,0.416091945229738));
#1020=DIRECTION('',(0.,-0.909322546247993,0.416091945229738));
#1021=DIRECTION('',(0.,0.909322546247993,-0.416091945229738));
#1022=DIRECTION('',(-1.,0.,0.));
#1023=DIRECTION('',(-1.,0.,0.));
#1024=DIRECTION('',(0.,0.,1.));
#1025=DIRECTION('',(-1.,0.,0.));
#1026=DIRECTION('',(0.,0.,1.));
#1027=DIRECTION('',(1.,0.,0.));
#1028=DIRECTION('',(0.,0.,-1.));
#1029=DIRECTION('',(-1.,0.,0.));
#1030=DIRECTION('',(-1.,0.,0.));
#1031=DIRECTION('',(0.,0.,1.));
#1032=DIRECTION('',(1.,0.,0.));
#1033=DIRECTION('',(0.,0.,-1.));
#1034=DIRECTION('',(-1.,0.,0.));
#1035=DIRECTION('',(0.,0.,1.));
#1036=DIRECTION('',(0.,0.,1.));
#1037=DIRECTION('',(1.,0.,0.));
#1038=DIRECTION('',(1.,0.,0.));
#1039=DIRECTION('',(0.,1.,0.));
#1040=DIRECTION('',(0.,1.,0.));
#1041=DIRECTION('',(-1.,0.,0.));
#1042=DIRECTION('',(0.,0.,1.));
#1043=DIRECTION('',(0.,0.,1.));
#1044=DIRECTION('',(0.,1.,0.));
#1045=DIRECTION('',(0.,0.,1.));
#1046=DIRECTION('',(1.,0.,0.));
#1047=DIRECTION('',(1.,0.,0.));
#1048=DIRECTION('',(0.,1.,0.));
#1049=DIRECTION('',(0.,0.,1.));
#1050=DIRECTION('',(1.,0.,0.));
#1051=DIRECTION('',(1.,0.,0.));
#1052=DIRECTION('',(0.,1.,0.));
#1053=DIRECTION('',(0.,1.,0.));
#1054=DIRECTION('',(-1.,0.,0.));
#1055=DIRECTION('',(0.,0.,1.));
#1056=DIRECTION('',(0.,0.,1.));
#1057=DIRECTION('',(0.,1.,0.));
#1058=DIRECTION('',(-1.38777878078144E-16,0.,1.));
#1059=DIRECTION('',(1.,0.,1.38777878078144E-16));
#1060=DIRECTION('',(1.,0.,1.38777878078144E-16));
#1061=DIRECTION('',(0.,1.,0.));
#1062=DIRECTION('',(0.,0.,1.));
#1063=DIRECTION('',(1.,0.,0.));
#1064=DIRECTION('',(1.,0.,0.));
#1065=DIRECTION('',(0.,1.,0.));
#1066=DIRECTION('',(0.,1.,0.));
#1067=DIRECTION('',(-1.,0.,0.));
#1068=DIRECTION('',(0.,0.,1.));
#1069=DIRECTION('',(0.,0.,1.));
#1070=DIRECTION('',(0.,1.,0.));
#1071=DIRECTION('',(0.,0.,1.));
#1072=DIRECTION('',(1.,0.,0.));
#1073=DIRECTION('',(1.,0.,0.));
#1074=DIRECTION('',(0.,1.,0.));
#1075=DIRECTION('',(0.,0.,1.));
#1076=DIRECTION('',(1.,0.,0.));
#1077=DIRECTION('',(1.,0.,0.));
#1078=DIRECTION('',(0.,1.,0.));
#1079=DIRECTION('',(0.,1.,0.));
#1080=DIRECTION('',(-1.,0.,0.));
#1081=DIRECTION('',(0.,0.,1.));
#1082=DIRECTION('',(0.,0.,1.));
#1083=DIRECTION('',(0.,1.,0.));
#1084=DIRECTION('',(0.,0.,1.));
#1085=DIRECTION('',(1.,0.,0.));
#1086=DIRECTION('',(1.,0.,0.));
#1087=DIRECTION('',(0.,1.,0.));
#1088=DIRECTION('',(-1.,0.,-2.33928155209683E-16));
#1089=DIRECTION('',(-2.33928155209683E-16,0.,1.));
#1090=DIRECTION('',(-2.33928155209683E-16,0.,1.));
#1091=DIRECTION('',(0.,1.,0.));
#1092=DIRECTION('',(0.,1.,0.));
#1093=DIRECTION('',(0.,0.,1.));
#1094=DIRECTION('',(1.,0.,0.));
#1095=DIRECTION('',(1.,0.,0.));
#1096=DIRECTION('',(0.,1.,0.));
#1097=DIRECTION('',(-1.,0.,0.));
#1098=DIRECTION('',(-1.,0.,-2.33928155209683E-16));
#1099=DIRECTION('',(-2.33928155209683E-16,0.,1.));
#1100=DIRECTION('',(-2.33928155209683E-16,0.,1.));
#1101=DIRECTION('',(0.,1.,0.));
#1102=DIRECTION('',(-1.,0.,0.));
#1103=DIRECTION('',(0.,0.,1.));
#1104=DIRECTION('',(0.,0.,1.));
#1105=DIRECTION('',(-1.,0.,0.));
#1106=DIRECTION('',(0.,0.,1.));
#1107=DIRECTION('',(0.,0.,1.));
#1108=DIRECTION('',(-1.,0.,0.));
#1109=DIRECTION('',(0.,0.,1.));
#1110=DIRECTION('',(0.,0.,1.));
#1111=DIRECTION('',(0.,0.,1.));
#1112=DIRECTION('',(1.,0.,0.));
#1113=DIRECTION('',(0.,-1.,0.));
#1114=DIRECTION('',(0.,-1.,0.));
#1115=DIRECTION('',(0.,-1.,0.));
#1116=DIRECTION('',(1.,0.,0.));
#1117=DIRECTION('',(0.,-1.,0.));
#1118=DIRECTION('',(-1.,0.,0.));
#1119=DIRECTION('',(-1.,0.,0.));
#1120=DIRECTION('',(0.,0.,1.));
#1121=DIRECTION('',(0.,0.,1.));
#1122=DIRECTION('',(0.,-1.,0.));
#1123=DIRECTION('',(1.,0.,0.));
#1124=DIRECTION('',(0.,0.416091945229738,0.909322546247993));
#1125=DIRECTION('',(0.,-0.909322546247993,0.416091945229738));
#1126=DIRECTION('',(0.,-0.909322546247993,0.416091945229738));
#1127=DIRECTION('',(-1.,0.,0.));
#1128=DIRECTION('',(0.,0.909322546247993,-0.416091945229738));
#1129=DIRECTION('',(-1.,0.,0.));
#1130=DIRECTION('',(0.,0.,1.));
#1131=DIRECTION('',(-1.,0.,0.));
#1132=DIRECTION('',(0.,0.,1.));
#1133=DIRECTION('',(1.,0.,0.));
#1134=DIRECTION('',(0.,0.,-1.));
#1135=DIRECTION('',(-1.,0.,0.));
#1136=DIRECTION('',(0.,0.,1.));
#1137=DIRECTION('',(-1.,0.,0.));
#1138=DIRECTION('',(0.,0.,1.));
#1139=DIRECTION('',(1.,0.,0.));
#1140=DIRECTION('',(0.,0.,-1.));
#1141=DIRECTION('',(1.,0.,0.));
#1142=DIRECTION('',(0.,1.,0.));
#1143=DIRECTION('',(1.,0.,0.));
#1144=DIRECTION('',(0.,1.,0.));
#1145=DIRECTION('',(-1.,0.,0.));
#1146=DIRECTION('',(0.,0.,1.));
#1147=DIRECTION('',(-1.,0.,0.));
#1148=DIRECTION('',(0.,0.,1.));
#1149=DIRECTION('',(0.,0.800227390300544,0.599696693181463));
#1150=DIRECTION('',(0.,-0.599696693181463,0.800227390300544));
#1151=DIRECTION('',(-1.,0.,0.));
#1152=DIRECTION('',(1.0571450637106E-16,0.599696693181463,-0.800227390300544));
#1153=DIRECTION('',(0.,0.599696693181463,-0.800227390300544));
#1154=DIRECTION('',(0.,-0.773887934527085,0.633322559832983));
#1155=DIRECTION('',(0.,-0.633322559832983,-0.773887934527085));
#1156=DIRECTION('',(1.11642072647116E-16,0.633322559832983,0.773887934527085));
#1157=DIRECTION('',(-1.,0.,0.));
#1158=DIRECTION('',(0.,0.633322559832983,0.773887934527085));
#1159=DIRECTION('',(-1.,0.,0.));
#1160=DIRECTION('',(0.,0.,1.));
#1161=DIRECTION('',(1.,-1.76279955472544E-16,0.));
#1162=DIRECTION('',(1.76279955472544E-16,1.,0.));
#1163=DIRECTION('',(1.,0.,0.));
#1164=DIRECTION('',(0.,0.,-1.));
#1165=DIRECTION('',(-1.,0.,0.));
#1166=DIRECTION('',(0.,0.,1.));
#1167=DIRECTION('',(1.,-1.76279955472544E-16,0.));
#1168=DIRECTION('',(1.76279955472544E-16,1.,0.));
#1169=DIRECTION('',(1.,0.,0.));
#1170=DIRECTION('',(0.,0.,-1.));
#1171=DIRECTION('',(1.,0.,0.));
#1172=DIRECTION('',(0.,1.,0.));
#1173=DIRECTION('',(1.,0.,0.));
#1174=DIRECTION('',(0.,1.,0.));
#1175=DIRECTION('',(1.,-1.76279955472544E-16,0.));
#1176=DIRECTION('',(1.76279955472544E-16,1.,0.));
#1177=DIRECTION('',(1.,-1.76279955472544E-16,0.));
#1178=DIRECTION('',(1.76279955472544E-16,1.,0.));
#1179=CARTESIAN_POINT('',(0.,0.,0.));
#1180=CARTESIAN_POINT('',(0.0085,-0.0159509664087773,0.0132156702689551));
#1181=CARTESIAN_POINT('',(-0.00425,-0.0159509664087773,0.0132156702689551));
#1182=CARTESIAN_POINT('',(-0.00425,-0.0296019328175546,0.0314313405379102));
#1183=CARTESIAN_POINT('',(-0.00425,-0.0023,-0.005));
#1184=CARTESIAN_POINT('',(0.0085,-0.0296019328175546,0.0314313405379102));
#1185=CARTESIAN_POINT('',(-0.0085,-0.0296019328175546,0.0314313405379102));
#1186=CARTESIAN_POINT('',(-0.0085,-0.0159509664087773,0.0132156702689551));
#1187=CARTESIAN_POINT('',(-0.0085,-0.0023,-0.005));
#1188=CARTESIAN_POINT('',(0.0085,-0.0023,-0.005));
#1189=CARTESIAN_POINT('',(0.0085,-0.0158390237217401,0.0584560020942665));
#1190=CARTESIAN_POINT('',(0.0085,-0.0293780474434802,0.041912004188533));
#1191=CARTESIAN_POINT('',(-0.00425,-0.0293780474434802,0.041912004188533));
#1192=CARTESIAN_POINT('',(-0.0085,-0.0293780474434802,0.041912004188533));
#1193=CARTESIAN_POINT('',(-0.00425,-0.0158390237217401,0.0584560020942665));
#1194=CARTESIAN_POINT('',(-0.00425,-0.0023,0.075));
#1195=CARTESIAN_POINT('',(0.0085,-0.0023,0.075));
#1196=CARTESIAN_POINT('',(-0.0085,-0.0023,0.075));
#1197=CARTESIAN_POINT('',(-0.0085,-0.0158390237217401,0.0584560020942665));
#1198=CARTESIAN_POINT('',(0.0085,-0.0228,0.0365287624299526));
#1199=CARTESIAN_POINT('',(-0.00425,-0.0228,0.0365287624299526));
#1200=CARTESIAN_POINT('',(-0.0085,-0.0228,0.0365287624299526));
#1201=CARTESIAN_POINT('',(0.0085,-0.0228,0.0365287624299526));
#1202=CARTESIAN_POINT('',(-0.0085,-0.0228,0.0365287624299526));
#1203=CARTESIAN_POINT('',(-0.0085,-0.0228,0.0310287624299526));
#1204=CARTESIAN_POINT('',(-0.00425,-0.0228,0.0365287624299526));
#1205=CARTESIAN_POINT('',(-0.00425,-0.0173,0.0365287624299526));
#1206=CARTESIAN_POINT('',(-4.16333634234433E-17,-0.0023,0.11365));
#1207=CARTESIAN_POINT('',(-0.00425,-0.0023,0.311831978483612));
#1208=CARTESIAN_POINT('',(0.0085,-0.0023,-0.005));
#1209=CARTESIAN_POINT('',(0.00425,-0.0023,-0.005));
#1210=CARTESIAN_POINT('',(0.00425,-0.0023,0.311831978483612));
#1211=CARTESIAN_POINT('',(0.00425,-0.0023,0.075));
#1212=CARTESIAN_POINT('',(0.0085,-0.0023,0.075));
#1213=CARTESIAN_POINT('',(0.0085,-0.0023,0.075));
#1214=CARTESIAN_POINT('',(0.0085,-0.0023,0.035));
#1215=CARTESIAN_POINT('',(0.0085,-0.0023,-0.005));
#1216=CARTESIAN_POINT('',(0.,-0.0023,-0.005));
#1217=CARTESIAN_POINT('',(0.10175,-0.0023,-0.005));
#1218=CARTESIAN_POINT('',(0.10175,-0.0023,0.11365));
#1219=CARTESIAN_POINT('',(0.10175,-0.0023,0.2323));
#1220=CARTESIAN_POINT('',(-5.55111512312578E-17,-0.0023,0.2323));
#1221=CARTESIAN_POINT('',(0.0125,-0.0023,0.2323));
#1222=CARTESIAN_POINT('',(0.0125,-0.0023,0.225122));
#1223=CARTESIAN_POINT('',(0.0125,-0.0023,0.217944));
#1224=CARTESIAN_POINT('',(0.0125,-0.0023,0.217944));
#1225=CARTESIAN_POINT('',(0.009,-0.0023,0.217944));
#1226=CARTESIAN_POINT('',(0.009,-0.0023,0.2073));
#1227=CARTESIAN_POINT('',(0.009,-0.0023,0.2323));
#1228=CARTESIAN_POINT('',(0.,-0.0023,0.2323));
#1229=CARTESIAN_POINT('',(-0.009,-0.0023,0.2323));
#1230=CARTESIAN_POINT('',(-0.009,-0.0023,0.2073));
#1231=CARTESIAN_POINT('',(-0.009,-0.0023,0.217944));
#1232=CARTESIAN_POINT('',(0.0125,-0.0023,0.217944));
#1233=CARTESIAN_POINT('',(-0.0125,-0.0023,0.217944));
#1234=CARTESIAN_POINT('',(-0.0125,-0.0023,0.225122));
#1235=CARTESIAN_POINT('',(-0.0125,-0.0023,0.2323));
#1236=CARTESIAN_POINT('',(-5.55111512312578E-17,-0.0023,0.2323));
#1237=CARTESIAN_POINT('',(-0.10175,-0.0023,0.2323));
#1238=CARTESIAN_POINT('',(-0.10175,-0.0023,0.11365));
#1239=CARTESIAN_POINT('',(-0.10175,-0.0023,-0.005));
#1240=CARTESIAN_POINT('',(0.,-0.0023,-0.005));
#1241=CARTESIAN_POINT('',(-0.0085,-0.0023,0.035));
#1242=CARTESIAN_POINT('',(-0.08425,-0.0023,0.2173));
#1243=CARTESIAN_POINT('',(-0.09675,-0.0023,0.2173));
#1244=CARTESIAN_POINT('',(-0.07175,-0.0023,0.2173));
#1245=CARTESIAN_POINT('',(-0.09675,-0.0023,0.2223));
#1246=CARTESIAN_POINT('',(-0.09675,-0.0023,0.2273));
#1247=CARTESIAN_POINT('',(-0.08425,-0.0023,0.2273));
#1248=CARTESIAN_POINT('',(-0.07175,-0.0023,0.2273));
#1249=CARTESIAN_POINT('',(-0.07175,-0.0023,0.2223));
#1250=CARTESIAN_POINT('',(-0.08425,-0.0023,0.));
#1251=CARTESIAN_POINT('',(-0.09675,-0.0023,0.));
#1252=CARTESIAN_POINT('',(-0.07175,-0.0023,-4.25007251614318E-17));
#1253=CARTESIAN_POINT('',(-0.09675,-0.0023,0.005));
#1254=CARTESIAN_POINT('',(-0.09675,-0.0023,0.01));
#1255=CARTESIAN_POINT('',(-0.08425,-0.0023,0.01));
#1256=CARTESIAN_POINT('',(-0.07175,-0.0023,0.01));
#1257=CARTESIAN_POINT('',(-0.07175,-0.0023,0.005));
#1258=CARTESIAN_POINT('',(0.08425,-0.0023,0.));
#1259=CARTESIAN_POINT('',(0.07175,-0.0023,0.));
#1260=CARTESIAN_POINT('',(0.09675,-0.0023,-1.7347234759768E-17));
#1261=CARTESIAN_POINT('',(0.07175,-0.0023,0.005));
#1262=CARTESIAN_POINT('',(0.07175,-0.0023,0.01));
#1263=CARTESIAN_POINT('',(0.08425,-0.0023,0.01));
#1264=CARTESIAN_POINT('',(0.09675,-0.0023,0.01));
#1265=CARTESIAN_POINT('',(0.09675,-0.0023,0.005));
#1266=CARTESIAN_POINT('',(0.08425,-0.0023,0.2173));
#1267=CARTESIAN_POINT('',(0.07175,-0.0023,0.2173));
#1268=CARTESIAN_POINT('',(0.09675,-0.0023,0.2173));
#1269=CARTESIAN_POINT('',(0.07175,-0.0023,0.2223));
#1270=CARTESIAN_POINT('',(0.07175,-0.0023,0.2273));
#1271=CARTESIAN_POINT('',(0.08425,-0.0023,0.2273));
#1272=CARTESIAN_POINT('',(0.09675,-0.0023,0.2273));
#1273=CARTESIAN_POINT('',(0.09675,-0.0023,0.2223));
#1274=CARTESIAN_POINT('',(0.0125,-0.00911991909685994,0.221064689589223));
#1275=CARTESIAN_POINT('',(0.009,-0.00911991909685994,0.221064689589223));
#1276=CARTESIAN_POINT('',(0.009,-0.0159398381937199,0.224185379178446));
#1277=CARTESIAN_POINT('',(0.0125,-0.00911991909685994,0.221064689589223));
#1278=CARTESIAN_POINT('',(0.0125,-0.0159398381937199,0.224185379178446));
#1279=CARTESIAN_POINT('',(0.0125,-0.0159398381937199,0.224185379178446));
#1280=CARTESIAN_POINT('',(0.0125,-0.0141714474264935,0.22805));
#1281=CARTESIAN_POINT('',(0.009,-0.0141714474264935,0.22805));
#1282=CARTESIAN_POINT('',(0.009,-0.0141714474264935,0.2323));
#1283=CARTESIAN_POINT('',(0.0125,-0.0141714474264935,0.22805));
#1284=CARTESIAN_POINT('',(0.0125,-0.0141714474264935,0.2323));
#1285=CARTESIAN_POINT('',(0.0125,-0.0141714474264935,0.2323));
#1286=CARTESIAN_POINT('',(0.0125,-0.0141714474264935,0.22805));
#1287=CARTESIAN_POINT('',(0.0125,-0.0141714474264935,0.22805));
#1288=CARTESIAN_POINT('',(0.0125,-0.0141714474264935,0.2248));
#1289=CARTESIAN_POINT('',(0.009,-0.0141714474264935,0.22805));
#1290=CARTESIAN_POINT('',(0.009,-0.0141714474264935,0.2313));
#1291=CARTESIAN_POINT('',(-0.08425,-0.0023,0.));
#1292=CARTESIAN_POINT('',(-0.08425,0.,0.));
#1293=CARTESIAN_POINT('',(-0.09675,0.,0.));
#1294=CARTESIAN_POINT('',(-0.07175,0.,-4.25007251614318E-17));
#1295=CARTESIAN_POINT('',(-0.09675,-0.0023,0.));
#1296=CARTESIAN_POINT('',(-0.07175,-0.0023,-4.25007251614318E-17));
#1297=CARTESIAN_POINT('',(-0.09675,-0.0023,0.005));
#1298=CARTESIAN_POINT('',(-0.09675,0.,0.005));
#1299=CARTESIAN_POINT('',(-0.09675,0.,0.01));
#1300=CARTESIAN_POINT('',(-0.09675,-0.0023,0.01));
#1301=CARTESIAN_POINT('',(-0.08425,-0.0023,0.01));
#1302=CARTESIAN_POINT('',(-0.08425,0.,0.01));
#1303=CARTESIAN_POINT('',(-0.07175,0.,0.01));
#1304=CARTESIAN_POINT('',(-0.07175,-0.0023,0.01));
#1305=CARTESIAN_POINT('',(0.08425,-0.0023,0.));
#1306=CARTESIAN_POINT('',(0.08425,0.,0.));
#1307=CARTESIAN_POINT('',(0.07175,0.,0.));
#1308=CARTESIAN_POINT('',(0.09675,0.,-1.7347234759768E-17));
#1309=CARTESIAN_POINT('',(0.07175,-0.0023,0.));
#1310=CARTESIAN_POINT('',(0.09675,-0.0023,-1.7347234759768E-17));
#1311=CARTESIAN_POINT('',(0.07175,-0.0023,0.005));
#1312=CARTESIAN_POINT('',(0.07175,0.,0.005));
#1313=CARTESIAN_POINT('',(0.07175,0.,0.01));
#1314=CARTESIAN_POINT('',(0.07175,-0.0023,0.01));
#1315=CARTESIAN_POINT('',(0.08425,-0.0023,0.01));
#1316=CARTESIAN_POINT('',(0.08425,0.,0.01));
#1317=CARTESIAN_POINT('',(0.09675,0.,0.01));
#1318=CARTESIAN_POINT('',(0.09675,-0.0023,0.01));
#1319=CARTESIAN_POINT('',(-0.08425,-0.0023,0.2173));
#1320=CARTESIAN_POINT('',(-0.08425,0.,0.2173));
#1321=CARTESIAN_POINT('',(-0.09675,0.,0.2173));
#1322=CARTESIAN_POINT('',(-0.07175,0.,0.2173));
#1323=CARTESIAN_POINT('',(-0.09675,-0.0023,0.2173));
#1324=CARTESIAN_POINT('',(-0.07175,-0.0023,0.2173));
#1325=CARTESIAN_POINT('',(-0.09675,-0.0023,0.2223));
#1326=CARTESIAN_POINT('',(-0.09675,0.,0.2223));
#1327=CARTESIAN_POINT('',(-0.09675,0.,0.2273));
#1328=CARTESIAN_POINT('',(-0.09675,-0.0023,0.2273));
#1329=CARTESIAN_POINT('',(-0.08425,-0.0023,0.2273));
#1330=CARTESIAN_POINT('',(-0.08425,0.,0.2273));
#1331=CARTESIAN_POINT('',(-0.07175,0.,0.2273));
#1332=CARTESIAN_POINT('',(-0.07175,-0.0023,0.2273));
#1333=CARTESIAN_POINT('',(0.08425,-0.0023,0.2173));
#1334=CARTESIAN_POINT('',(0.08425,0.,0.2173));
#1335=CARTESIAN_POINT('',(0.07175,0.,0.2173));
#1336=CARTESIAN_POINT('',(0.09675,0.,0.2173));
#1337=CARTESIAN_POINT('',(0.07175,-0.0023,0.2173));
#1338=CARTESIAN_POINT('',(0.09675,-0.0023,0.2173));
#1339=CARTESIAN_POINT('',(0.07175,-0.0023,0.2223));
#1340=CARTESIAN_POINT('',(0.07175,0.,0.2223));
#1341=CARTESIAN_POINT('',(0.07175,0.,0.2273));
#1342=CARTESIAN_POINT('',(0.07175,-0.0023,0.2273));
#1343=CARTESIAN_POINT('',(0.08425,-0.0023,0.2273));
#1344=CARTESIAN_POINT('',(0.08425,0.,0.2273));
#1345=CARTESIAN_POINT('',(0.09675,0.,0.2273));
#1346=CARTESIAN_POINT('',(0.09675,-0.0023,0.2273));
#1347=CARTESIAN_POINT('',(-0.10175,-0.0023,0.11365));
#1348=CARTESIAN_POINT('',(-0.10175,0.,0.11365));
#1349=CARTESIAN_POINT('',(-0.10175,0.,-0.005));
#1350=CARTESIAN_POINT('',(-0.10175,0.,0.2323));
#1351=CARTESIAN_POINT('',(-0.10175,-0.0023,-0.005));
#1352=CARTESIAN_POINT('',(-0.10175,-0.0023,0.2323));
#1353=CARTESIAN_POINT('',(0.,-0.0023,-0.005));
#1354=CARTESIAN_POINT('',(0.,0.,-0.005));
#1355=CARTESIAN_POINT('',(0.10175,0.,-0.005));
#1356=CARTESIAN_POINT('',(0.10175,-0.0023,-0.005));
#1357=CARTESIAN_POINT('',(0.0085,-0.0023,-0.005));
#1358=CARTESIAN_POINT('',(0.10175,-0.0023,0.11365));
#1359=CARTESIAN_POINT('',(0.10175,0.,0.11365));
#1360=CARTESIAN_POINT('',(0.10175,0.,0.2323));
#1361=CARTESIAN_POINT('',(0.10175,-0.0023,0.2323));
#1362=CARTESIAN_POINT('',(0.09675,-0.0023,0.005));
#1363=CARTESIAN_POINT('',(0.09675,0.,0.005));
#1364=CARTESIAN_POINT('',(-0.07175,-0.0023,0.2223));
#1365=CARTESIAN_POINT('',(-0.07175,0.,0.2223));
#1366=CARTESIAN_POINT('',(0.09675,-0.0023,0.2223));
#1367=CARTESIAN_POINT('',(0.09675,0.,0.2223));
#1368=CARTESIAN_POINT('',(-5.55111512312578E-17,-0.0023,0.2323));
#1369=CARTESIAN_POINT('',(-0.009,-0.0114611360222101,0.2323));
#1370=CARTESIAN_POINT('',(-0.009,-0.0141714474264935,0.2323));
#1371=CARTESIAN_POINT('',(0.009,-0.0114611360222101,0.2323));
#1372=CARTESIAN_POINT('',(0.0125,-0.00823572371324675,0.2323));
#1373=CARTESIAN_POINT('',(-5.55111512312578E-17,0.,0.2323));
#1374=CARTESIAN_POINT('',(-0.0125,-0.00823572371324675,0.2323));
#1375=CARTESIAN_POINT('',(-0.0125,-0.0141714474264935,0.2323));
#1376=CARTESIAN_POINT('',(0.0125,-0.0141714474264935,0.2323));
#1377=CARTESIAN_POINT('',(-0.07175,-0.0023,0.005));
#1378=CARTESIAN_POINT('',(-0.07175,0.,0.005));
#1379=CARTESIAN_POINT('',(-4.16333634234433E-17,0.,0.11365));
#1380=CARTESIAN_POINT('',(0.0125,-0.00911991909685994,0.221064689589223));
#1381=CARTESIAN_POINT('',(-0.009,-0.00911991909685994,0.221064689589223));
#1382=CARTESIAN_POINT('',(-0.009,-0.0159398381937199,0.224185379178446));
#1383=CARTESIAN_POINT('',(0.0125,-0.0159398381937199,0.224185379178446));
#1384=CARTESIAN_POINT('',(-0.0125,-0.0159398381937199,0.224185379178446));
#1385=CARTESIAN_POINT('',(-0.0125,-0.00911991909685994,0.221064689589223));
#1386=CARTESIAN_POINT('',(0.0125,-0.0141714474264935,0.22805));
#1387=CARTESIAN_POINT('',(-0.009,-0.0141714474264935,0.22805));
#1388=CARTESIAN_POINT('',(-0.0125,-0.0141714474264935,0.22805));
#1389=CARTESIAN_POINT('',(0.0125,-0.0141714474264935,0.22805));
#1390=CARTESIAN_POINT('',(-0.009,-0.0141714474264935,0.22805));
#1391=CARTESIAN_POINT('',(-0.009,-0.0141714474264935,0.2313));
#1392=CARTESIAN_POINT('',(-0.0125,-0.0141714474264935,0.22805));
#1393=CARTESIAN_POINT('',(-0.0125,-0.0141714474264935,0.2248));
#1394=CARTESIAN_POINT('',(0.0125,-0.00921072371324675,0.225122));
#1395=CARTESIAN_POINT('',(-0.0125,-0.00921072371324675,0.225122));
#1396=CARTESIAN_POINT('',(-0.009,-0.0114611360222101,0.2073));
#1397=CARTESIAN_POINT('',(0.009,-0.0114611360222101,0.2073));
#1398=CARTESIAN_POINT('',(0.0085,-0.0159509664087773,0.0132156702689551));
#1399=CARTESIAN_POINT('',(0.0085,-0.0296019328175546,0.0314313405379102));
#1400=CARTESIAN_POINT('',(0.0085,-0.0296019328175546,0.0314313405379102));
#1401=CARTESIAN_POINT('',(0.00425,-0.0296019328175546,0.0314313405379102));
#1402=CARTESIAN_POINT('',(0.00425,-0.0159509664087773,0.0132156702689551));
#1403=CARTESIAN_POINT('',(0.0085,-0.0159509664087773,0.0132156702689551));
#1404=CARTESIAN_POINT('',(0.0085,-0.0158390237217401,0.0584560020942665));
#1405=CARTESIAN_POINT('',(0.00425,-0.0158390237217401,0.0584560020942665));
#1406=CARTESIAN_POINT('',(0.00425,-0.0293780474434802,0.041912004188533));
#1407=CARTESIAN_POINT('',(0.0085,-0.0293780474434802,0.041912004188533));
#1408=CARTESIAN_POINT('',(0.0085,-0.0293780474434802,0.041912004188533));
#1409=CARTESIAN_POINT('',(0.0085,-0.0158390237217401,0.0584560020942665));
#1410=CARTESIAN_POINT('',(0.0085,-0.0228,0.0365287624299526));
#1411=CARTESIAN_POINT('',(0.00425,-0.0228,0.0365287624299526));
#1412=CARTESIAN_POINT('',(0.0085,-0.0228,0.0365287624299526));
#1413=CARTESIAN_POINT('',(0.0085,-0.0228,0.0365287624299526));
#1414=CARTESIAN_POINT('',(0.00425,-0.0228,0.0365287624299526));
#1415=CARTESIAN_POINT('',(0.00425,-0.0173,0.0365287624299526));
#1416=CARTESIAN_POINT('',(0.0085,-0.0228,0.0365287624299526));
#1417=CARTESIAN_POINT('',(0.0085,-0.0228,0.0310287624299526));
#1418=CARTESIAN_POINT('',(0.0085,-0.0168,0.035));
#1419=CARTESIAN_POINT('',(-0.0085,-0.0168,0.035));
#1420=CARTESIAN_POINT('',(-0.00425,-0.0269018254220485,0.311831978483612));
#1421=CARTESIAN_POINT('',(0.00425,-0.0269018254220485,0.311831978483612));
#1422=MECHANICAL_DESIGN_GEOMETRIC_PRESENTATION_REPRESENTATION('',(#883),
#1423);
#1423=(
GEOMETRIC_REPRESENTATION_CONTEXT(3)
GLOBAL_UNCERTAINTY_ASSIGNED_CONTEXT((#1424))
GLOBAL_UNIT_ASSIGNED_CONTEXT((#1427,#1426,#1425))
REPRESENTATION_CONTEXT('Part 1','TOP_LEVEL_ASSEMBLY_PART')
);
#1424=UNCERTAINTY_MEASURE_WITH_UNIT(LENGTH_MEASURE(1.E-8),#1427,
'DISTANCE_ACCURACY_VALUE','Maximum Tolerance applied to model');
#1425=(
NAMED_UNIT(*)
SI_UNIT($,.STERADIAN.)
SOLID_ANGLE_UNIT()
);
#1426=(
NAMED_UNIT(*)
PLANE_ANGLE_UNIT()
SI_UNIT($,.RADIAN.)
);
#1427=(
LENGTH_UNIT()
NAMED_UNIT(*)
SI_UNIT($,.METRE.)
);
#1428=PRODUCT_DEFINITION_SHAPE('','',#1429);
#1429=PRODUCT_DEFINITION('','',#1431,#1430);
#1430=PRODUCT_DEFINITION_CONTEXT('',#1437,'design');
#1431=PRODUCT_DEFINITION_FORMATION_WITH_SPECIFIED_SOURCE('','',#1433,
 .NOT_KNOWN.);
#1432=PRODUCT_RELATED_PRODUCT_CATEGORY('','',(#1433));
#1433=PRODUCT('Part 1','Part 1','Part 1',(#1435));
#1434=PRODUCT_CATEGORY('','');
#1435=PRODUCT_CONTEXT('',#1437,'mechanical');
#1436=APPLICATION_PROTOCOL_DEFINITION('international standard',
'ap242_managed_model_based_3d_engineering',2020,#1437);
#1437=APPLICATION_CONTEXT('managed model based 3d engineering');
ENDSEC;
END-ISO-10303-21;
