ISO-10303-21;
HEADER;
/* Generated by software containing ST-Developer
 * from STEP Tools, Inc. (www.steptools.com) 
 */
/* OPTION: using custom renumber hook */

FILE_DESCRIPTION(
/* description */ ('STEP AP242 Edition 2',
'CAx-IF Rec.Pracs.---Representation and Presentation of Product Manufa
cturing Information (PMI)---4.0---2014-10-13',
'CAx-IF Rec.Pracs.---3D Tessellated Geometry---0.4---2014-09-14','2;1',
'CAx-IF Rec.Pracs.---User Defined Attributes---1.5---2016-08-15'),
/* implementation_level */ '2;1');

FILE_NAME(
/* name */ 'Nail Bed Left',
/* time_stamp */ '2026-04-29T21:02:50Z',
/* author */ (''),
/* organization */ (''),
/* preprocessor_version */ 'ST-DEVELOPER v20',
/* originating_system */ 'ONSHAPE BY PTC INC, 1.214',
/* authorisation */ '  ');

FILE_SCHEMA (('AP242_MANAGED_MODEL_BASED_3D_ENGINEERING_MIM_LF { 1 0 10303 442 3 1 4 }'));
ENDSEC;

DATA;
#10=SHAPE_REPRESENTATION_RELATIONSHIP('','',#1057,#11);
#11=ADVANCED_BREP_SHAPE_REPRESENTATION('',(#1055),#1773);
#12=CIRCLE('',#1066,0.00180000000000002);
#13=CIRCLE('',#1067,0.00180000000000002);
#14=CIRCLE('',#1069,0.00180000000000002);
#15=CIRCLE('',#1070,0.00180000000000002);
#16=CIRCLE('',#1072,0.00180000000000002);
#17=CIRCLE('',#1073,0.00180000000000002);
#18=CIRCLE('',#1075,0.00180000000000002);
#19=CIRCLE('',#1076,0.00180000000000002);
#20=CIRCLE('',#1078,0.00180000000000002);
#21=CIRCLE('',#1079,0.00180000000000002);
#22=CIRCLE('',#1081,0.00180000000000002);
#23=CIRCLE('',#1082,0.00180000000000002);
#24=CIRCLE('',#1084,0.00180000000000002);
#25=CIRCLE('',#1085,0.00180000000000002);
#26=CIRCLE('',#1087,0.00180000000000002);
#27=CIRCLE('',#1088,0.00180000000000002);
#28=CIRCLE('',#1090,0.00180000000000002);
#29=CIRCLE('',#1091,0.00180000000000002);
#30=CIRCLE('',#1093,0.00180000000000002);
#31=CIRCLE('',#1094,0.00180000000000002);
#32=CIRCLE('',#1096,0.00180000000000002);
#33=CIRCLE('',#1097,0.00180000000000002);
#34=CIRCLE('',#1099,0.00180000000000002);
#35=CIRCLE('',#1100,0.00180000000000002);
#36=CIRCLE('',#1102,0.0018);
#37=CIRCLE('',#1103,0.0018);
#38=CIRCLE('',#1105,0.0018);
#39=CIRCLE('',#1106,0.0018);
#40=CIRCLE('',#1108,0.0018);
#41=CIRCLE('',#1109,0.0018);
#42=CIRCLE('',#1111,0.0018);
#43=CIRCLE('',#1112,0.0018);
#44=CIRCLE('',#1114,0.0018);
#45=CIRCLE('',#1115,0.0018);
#46=CIRCLE('',#1117,0.0018);
#47=CIRCLE('',#1118,0.0018);
#48=CIRCLE('',#1120,0.0018);
#49=CIRCLE('',#1121,0.0018);
#50=CIRCLE('',#1123,0.0018);
#51=CIRCLE('',#1124,0.0018);
#52=CIRCLE('',#1126,0.0018);
#53=CIRCLE('',#1127,0.0018);
#54=CIRCLE('',#1129,0.0018);
#55=CIRCLE('',#1130,0.0018);
#56=CIRCLE('',#1132,0.0018);
#57=CIRCLE('',#1133,0.0018);
#58=CIRCLE('',#1135,0.0018);
#59=CIRCLE('',#1136,0.0018);
#60=CIRCLE('',#1138,0.0018);
#61=CIRCLE('',#1139,0.0018);
#62=CIRCLE('',#1141,0.0018);
#63=CIRCLE('',#1142,0.0018);
#64=CIRCLE('',#1144,0.0018);
#65=CIRCLE('',#1145,0.0018);
#66=CIRCLE('',#1147,0.0018);
#67=CIRCLE('',#1148,0.0018);
#68=CIRCLE('',#1150,0.0018);
#69=CIRCLE('',#1151,0.0018);
#70=CIRCLE('',#1153,0.0018);
#71=CIRCLE('',#1154,0.0018);
#72=CIRCLE('',#1156,0.0018);
#73=CIRCLE('',#1157,0.0018);
#74=CIRCLE('',#1159,0.0018);
#75=CIRCLE('',#1160,0.0018);
#76=CIRCLE('',#1162,0.0018);
#77=CIRCLE('',#1163,0.0018);
#78=CIRCLE('',#1165,0.0018);
#79=CIRCLE('',#1166,0.0018);
#80=CIRCLE('',#1168,0.0018);
#81=CIRCLE('',#1169,0.0018);
#82=CIRCLE('',#1171,0.0018);
#83=CIRCLE('',#1172,0.0018);
#84=CIRCLE('',#1174,0.0018);
#85=CIRCLE('',#1175,0.0018);
#86=CIRCLE('',#1177,0.0018);
#87=CIRCLE('',#1178,0.0018);
#88=CIRCLE('',#1180,0.0018);
#89=CIRCLE('',#1181,0.0018);
#90=CIRCLE('',#1183,0.0018);
#91=CIRCLE('',#1184,0.0018);
#92=CIRCLE('',#1186,0.0018);
#93=CIRCLE('',#1187,0.0018);
#94=CIRCLE('',#1189,0.0018);
#95=CIRCLE('',#1190,0.0018);
#96=CIRCLE('',#1192,0.0021);
#97=CIRCLE('',#1193,0.0021);
#98=CIRCLE('',#1195,0.0021);
#99=CIRCLE('',#1196,0.0021);
#100=CIRCLE('',#1198,0.0055);
#101=CIRCLE('',#1199,0.0055);
#102=CYLINDRICAL_SURFACE('',#1065,0.00180000000000002);
#103=CYLINDRICAL_SURFACE('',#1068,0.00180000000000002);
#104=CYLINDRICAL_SURFACE('',#1071,0.00180000000000002);
#105=CYLINDRICAL_SURFACE('',#1074,0.00180000000000002);
#106=CYLINDRICAL_SURFACE('',#1077,0.00180000000000002);
#107=CYLINDRICAL_SURFACE('',#1080,0.00180000000000002);
#108=CYLINDRICAL_SURFACE('',#1083,0.00180000000000002);
#109=CYLINDRICAL_SURFACE('',#1086,0.00180000000000002);
#110=CYLINDRICAL_SURFACE('',#1089,0.00180000000000002);
#111=CYLINDRICAL_SURFACE('',#1092,0.00180000000000002);
#112=CYLINDRICAL_SURFACE('',#1095,0.00180000000000002);
#113=CYLINDRICAL_SURFACE('',#1098,0.00180000000000002);
#114=CYLINDRICAL_SURFACE('',#1101,0.0018);
#115=CYLINDRICAL_SURFACE('',#1104,0.0018);
#116=CYLINDRICAL_SURFACE('',#1107,0.0018);
#117=CYLINDRICAL_SURFACE('',#1110,0.0018);
#118=CYLINDRICAL_SURFACE('',#1113,0.0018);
#119=CYLINDRICAL_SURFACE('',#1116,0.0018);
#120=CYLINDRICAL_SURFACE('',#1119,0.0018);
#121=CYLINDRICAL_SURFACE('',#1122,0.0018);
#122=CYLINDRICAL_SURFACE('',#1125,0.0018);
#123=CYLINDRICAL_SURFACE('',#1128,0.0018);
#124=CYLINDRICAL_SURFACE('',#1131,0.0018);
#125=CYLINDRICAL_SURFACE('',#1134,0.0018);
#126=CYLINDRICAL_SURFACE('',#1137,0.0018);
#127=CYLINDRICAL_SURFACE('',#1140,0.0018);
#128=CYLINDRICAL_SURFACE('',#1143,0.0018);
#129=CYLINDRICAL_SURFACE('',#1146,0.0018);
#130=CYLINDRICAL_SURFACE('',#1149,0.0018);
#131=CYLINDRICAL_SURFACE('',#1152,0.0018);
#132=CYLINDRICAL_SURFACE('',#1155,0.0018);
#133=CYLINDRICAL_SURFACE('',#1158,0.0018);
#134=CYLINDRICAL_SURFACE('',#1161,0.0018);
#135=CYLINDRICAL_SURFACE('',#1164,0.0018);
#136=CYLINDRICAL_SURFACE('',#1167,0.0018);
#137=CYLINDRICAL_SURFACE('',#1170,0.0018);
#138=CYLINDRICAL_SURFACE('',#1173,0.0018);
#139=CYLINDRICAL_SURFACE('',#1176,0.0018);
#140=CYLINDRICAL_SURFACE('',#1179,0.0018);
#141=CYLINDRICAL_SURFACE('',#1182,0.0018);
#142=CYLINDRICAL_SURFACE('',#1185,0.0018);
#143=CYLINDRICAL_SURFACE('',#1188,0.0018);
#144=CYLINDRICAL_SURFACE('',#1191,0.0021);
#145=CYLINDRICAL_SURFACE('',#1194,0.0021);
#146=CYLINDRICAL_SURFACE('',#1197,0.0055);
#147=ORIENTED_EDGE('',*,*,#363,.F.);
#148=ORIENTED_EDGE('',*,*,#364,.F.);
#149=ORIENTED_EDGE('',*,*,#365,.T.);
#150=ORIENTED_EDGE('',*,*,#366,.T.);
#151=ORIENTED_EDGE('',*,*,#367,.T.);
#152=ORIENTED_EDGE('',*,*,#368,.F.);
#153=ORIENTED_EDGE('',*,*,#369,.F.);
#154=ORIENTED_EDGE('',*,*,#364,.T.);
#155=ORIENTED_EDGE('',*,*,#370,.F.);
#156=ORIENTED_EDGE('',*,*,#371,.F.);
#157=ORIENTED_EDGE('',*,*,#372,.T.);
#158=ORIENTED_EDGE('',*,*,#368,.T.);
#159=ORIENTED_EDGE('',*,*,#373,.T.);
#160=ORIENTED_EDGE('',*,*,#374,.F.);
#161=ORIENTED_EDGE('',*,*,#375,.F.);
#162=ORIENTED_EDGE('',*,*,#371,.T.);
#163=ORIENTED_EDGE('',*,*,#376,.T.);
#164=ORIENTED_EDGE('',*,*,#377,.F.);
#165=ORIENTED_EDGE('',*,*,#378,.F.);
#166=ORIENTED_EDGE('',*,*,#374,.T.);
#167=ORIENTED_EDGE('',*,*,#379,.F.);
#168=ORIENTED_EDGE('',*,*,#366,.F.);
#169=ORIENTED_EDGE('',*,*,#380,.T.);
#170=ORIENTED_EDGE('',*,*,#377,.T.);
#171=ORIENTED_EDGE('',*,*,#381,.T.);
#172=ORIENTED_EDGE('',*,*,#382,.F.);
#173=ORIENTED_EDGE('',*,*,#383,.T.);
#174=ORIENTED_EDGE('',*,*,#384,.F.);
#175=ORIENTED_EDGE('',*,*,#385,.T.);
#176=ORIENTED_EDGE('',*,*,#386,.F.);
#177=ORIENTED_EDGE('',*,*,#387,.T.);
#178=ORIENTED_EDGE('',*,*,#388,.F.);
#179=ORIENTED_EDGE('',*,*,#389,.T.);
#180=ORIENTED_EDGE('',*,*,#390,.F.);
#181=ORIENTED_EDGE('',*,*,#391,.T.);
#182=ORIENTED_EDGE('',*,*,#392,.F.);
#183=ORIENTED_EDGE('',*,*,#393,.T.);
#184=ORIENTED_EDGE('',*,*,#394,.F.);
#185=ORIENTED_EDGE('',*,*,#395,.T.);
#186=ORIENTED_EDGE('',*,*,#396,.F.);
#187=ORIENTED_EDGE('',*,*,#397,.T.);
#188=ORIENTED_EDGE('',*,*,#398,.F.);
#189=ORIENTED_EDGE('',*,*,#399,.T.);
#190=ORIENTED_EDGE('',*,*,#400,.F.);
#191=ORIENTED_EDGE('',*,*,#401,.T.);
#192=ORIENTED_EDGE('',*,*,#402,.F.);
#193=ORIENTED_EDGE('',*,*,#403,.T.);
#194=ORIENTED_EDGE('',*,*,#404,.F.);
#195=ORIENTED_EDGE('',*,*,#405,.T.);
#196=ORIENTED_EDGE('',*,*,#406,.F.);
#197=ORIENTED_EDGE('',*,*,#407,.T.);
#198=ORIENTED_EDGE('',*,*,#408,.F.);
#199=ORIENTED_EDGE('',*,*,#409,.T.);
#200=ORIENTED_EDGE('',*,*,#410,.F.);
#201=ORIENTED_EDGE('',*,*,#411,.T.);
#202=ORIENTED_EDGE('',*,*,#412,.F.);
#203=ORIENTED_EDGE('',*,*,#413,.T.);
#204=ORIENTED_EDGE('',*,*,#414,.F.);
#205=ORIENTED_EDGE('',*,*,#415,.T.);
#206=ORIENTED_EDGE('',*,*,#416,.F.);
#207=ORIENTED_EDGE('',*,*,#417,.T.);
#208=ORIENTED_EDGE('',*,*,#418,.F.);
#209=ORIENTED_EDGE('',*,*,#419,.T.);
#210=ORIENTED_EDGE('',*,*,#420,.F.);
#211=ORIENTED_EDGE('',*,*,#421,.T.);
#212=ORIENTED_EDGE('',*,*,#422,.F.);
#213=ORIENTED_EDGE('',*,*,#423,.T.);
#214=ORIENTED_EDGE('',*,*,#424,.F.);
#215=ORIENTED_EDGE('',*,*,#425,.T.);
#216=ORIENTED_EDGE('',*,*,#426,.F.);
#217=ORIENTED_EDGE('',*,*,#427,.T.);
#218=ORIENTED_EDGE('',*,*,#428,.F.);
#219=ORIENTED_EDGE('',*,*,#429,.T.);
#220=ORIENTED_EDGE('',*,*,#430,.F.);
#221=ORIENTED_EDGE('',*,*,#431,.T.);
#222=ORIENTED_EDGE('',*,*,#432,.F.);
#223=ORIENTED_EDGE('',*,*,#433,.T.);
#224=ORIENTED_EDGE('',*,*,#434,.F.);
#225=ORIENTED_EDGE('',*,*,#435,.T.);
#226=ORIENTED_EDGE('',*,*,#436,.F.);
#227=ORIENTED_EDGE('',*,*,#437,.T.);
#228=ORIENTED_EDGE('',*,*,#438,.F.);
#229=ORIENTED_EDGE('',*,*,#439,.T.);
#230=ORIENTED_EDGE('',*,*,#440,.F.);
#231=ORIENTED_EDGE('',*,*,#441,.T.);
#232=ORIENTED_EDGE('',*,*,#442,.F.);
#233=ORIENTED_EDGE('',*,*,#443,.T.);
#234=ORIENTED_EDGE('',*,*,#444,.F.);
#235=ORIENTED_EDGE('',*,*,#445,.T.);
#236=ORIENTED_EDGE('',*,*,#446,.F.);
#237=ORIENTED_EDGE('',*,*,#447,.T.);
#238=ORIENTED_EDGE('',*,*,#448,.F.);
#239=ORIENTED_EDGE('',*,*,#449,.T.);
#240=ORIENTED_EDGE('',*,*,#450,.F.);
#241=ORIENTED_EDGE('',*,*,#451,.T.);
#242=ORIENTED_EDGE('',*,*,#452,.F.);
#243=ORIENTED_EDGE('',*,*,#453,.T.);
#244=ORIENTED_EDGE('',*,*,#454,.F.);
#245=ORIENTED_EDGE('',*,*,#455,.T.);
#246=ORIENTED_EDGE('',*,*,#456,.F.);
#247=ORIENTED_EDGE('',*,*,#457,.T.);
#248=ORIENTED_EDGE('',*,*,#458,.F.);
#249=ORIENTED_EDGE('',*,*,#459,.T.);
#250=ORIENTED_EDGE('',*,*,#460,.F.);
#251=ORIENTED_EDGE('',*,*,#461,.T.);
#252=ORIENTED_EDGE('',*,*,#462,.F.);
#253=ORIENTED_EDGE('',*,*,#463,.T.);
#254=ORIENTED_EDGE('',*,*,#464,.F.);
#255=ORIENTED_EDGE('',*,*,#465,.T.);
#256=ORIENTED_EDGE('',*,*,#466,.F.);
#257=ORIENTED_EDGE('',*,*,#467,.T.);
#258=ORIENTED_EDGE('',*,*,#468,.F.);
#259=ORIENTED_EDGE('',*,*,#469,.T.);
#260=ORIENTED_EDGE('',*,*,#470,.F.);
#261=ORIENTED_EDGE('',*,*,#467,.F.);
#262=ORIENTED_EDGE('',*,*,#465,.F.);
#263=ORIENTED_EDGE('',*,*,#463,.F.);
#264=ORIENTED_EDGE('',*,*,#461,.F.);
#265=ORIENTED_EDGE('',*,*,#459,.F.);
#266=ORIENTED_EDGE('',*,*,#457,.F.);
#267=ORIENTED_EDGE('',*,*,#455,.F.);
#268=ORIENTED_EDGE('',*,*,#453,.F.);
#269=ORIENTED_EDGE('',*,*,#451,.F.);
#270=ORIENTED_EDGE('',*,*,#449,.F.);
#271=ORIENTED_EDGE('',*,*,#447,.F.);
#272=ORIENTED_EDGE('',*,*,#445,.F.);
#273=ORIENTED_EDGE('',*,*,#443,.F.);
#274=ORIENTED_EDGE('',*,*,#441,.F.);
#275=ORIENTED_EDGE('',*,*,#439,.F.);
#276=ORIENTED_EDGE('',*,*,#437,.F.);
#277=ORIENTED_EDGE('',*,*,#435,.F.);
#278=ORIENTED_EDGE('',*,*,#433,.F.);
#279=ORIENTED_EDGE('',*,*,#431,.F.);
#280=ORIENTED_EDGE('',*,*,#429,.F.);
#281=ORIENTED_EDGE('',*,*,#427,.F.);
#282=ORIENTED_EDGE('',*,*,#425,.F.);
#283=ORIENTED_EDGE('',*,*,#423,.F.);
#284=ORIENTED_EDGE('',*,*,#421,.F.);
#285=ORIENTED_EDGE('',*,*,#419,.F.);
#286=ORIENTED_EDGE('',*,*,#417,.F.);
#287=ORIENTED_EDGE('',*,*,#415,.F.);
#288=ORIENTED_EDGE('',*,*,#413,.F.);
#289=ORIENTED_EDGE('',*,*,#411,.F.);
#290=ORIENTED_EDGE('',*,*,#409,.F.);
#291=ORIENTED_EDGE('',*,*,#407,.F.);
#292=ORIENTED_EDGE('',*,*,#405,.F.);
#293=ORIENTED_EDGE('',*,*,#403,.F.);
#294=ORIENTED_EDGE('',*,*,#401,.F.);
#295=ORIENTED_EDGE('',*,*,#399,.F.);
#296=ORIENTED_EDGE('',*,*,#397,.F.);
#297=ORIENTED_EDGE('',*,*,#395,.F.);
#298=ORIENTED_EDGE('',*,*,#393,.F.);
#299=ORIENTED_EDGE('',*,*,#391,.F.);
#300=ORIENTED_EDGE('',*,*,#389,.F.);
#301=ORIENTED_EDGE('',*,*,#387,.F.);
#302=ORIENTED_EDGE('',*,*,#385,.F.);
#303=ORIENTED_EDGE('',*,*,#383,.F.);
#304=ORIENTED_EDGE('',*,*,#381,.F.);
#305=ORIENTED_EDGE('',*,*,#365,.F.);
#306=ORIENTED_EDGE('',*,*,#369,.T.);
#307=ORIENTED_EDGE('',*,*,#372,.F.);
#308=ORIENTED_EDGE('',*,*,#375,.T.);
#309=ORIENTED_EDGE('',*,*,#378,.T.);
#310=ORIENTED_EDGE('',*,*,#380,.F.);
#311=ORIENTED_EDGE('',*,*,#469,.F.);
#312=ORIENTED_EDGE('',*,*,#468,.T.);
#313=ORIENTED_EDGE('',*,*,#466,.T.);
#314=ORIENTED_EDGE('',*,*,#464,.T.);
#315=ORIENTED_EDGE('',*,*,#462,.T.);
#316=ORIENTED_EDGE('',*,*,#460,.T.);
#317=ORIENTED_EDGE('',*,*,#458,.T.);
#318=ORIENTED_EDGE('',*,*,#456,.T.);
#319=ORIENTED_EDGE('',*,*,#454,.T.);
#320=ORIENTED_EDGE('',*,*,#452,.T.);
#321=ORIENTED_EDGE('',*,*,#450,.T.);
#322=ORIENTED_EDGE('',*,*,#448,.T.);
#323=ORIENTED_EDGE('',*,*,#446,.T.);
#324=ORIENTED_EDGE('',*,*,#444,.T.);
#325=ORIENTED_EDGE('',*,*,#442,.T.);
#326=ORIENTED_EDGE('',*,*,#440,.T.);
#327=ORIENTED_EDGE('',*,*,#438,.T.);
#328=ORIENTED_EDGE('',*,*,#436,.T.);
#329=ORIENTED_EDGE('',*,*,#434,.T.);
#330=ORIENTED_EDGE('',*,*,#432,.T.);
#331=ORIENTED_EDGE('',*,*,#430,.T.);
#332=ORIENTED_EDGE('',*,*,#428,.T.);
#333=ORIENTED_EDGE('',*,*,#426,.T.);
#334=ORIENTED_EDGE('',*,*,#424,.T.);
#335=ORIENTED_EDGE('',*,*,#422,.T.);
#336=ORIENTED_EDGE('',*,*,#420,.T.);
#337=ORIENTED_EDGE('',*,*,#418,.T.);
#338=ORIENTED_EDGE('',*,*,#416,.T.);
#339=ORIENTED_EDGE('',*,*,#414,.T.);
#340=ORIENTED_EDGE('',*,*,#412,.T.);
#341=ORIENTED_EDGE('',*,*,#410,.T.);
#342=ORIENTED_EDGE('',*,*,#408,.T.);
#343=ORIENTED_EDGE('',*,*,#406,.T.);
#344=ORIENTED_EDGE('',*,*,#404,.T.);
#345=ORIENTED_EDGE('',*,*,#402,.T.);
#346=ORIENTED_EDGE('',*,*,#400,.T.);
#347=ORIENTED_EDGE('',*,*,#398,.T.);
#348=ORIENTED_EDGE('',*,*,#396,.T.);
#349=ORIENTED_EDGE('',*,*,#394,.T.);
#350=ORIENTED_EDGE('',*,*,#392,.T.);
#351=ORIENTED_EDGE('',*,*,#390,.T.);
#352=ORIENTED_EDGE('',*,*,#388,.T.);
#353=ORIENTED_EDGE('',*,*,#386,.T.);
#354=ORIENTED_EDGE('',*,*,#384,.T.);
#355=ORIENTED_EDGE('',*,*,#382,.T.);
#356=ORIENTED_EDGE('',*,*,#363,.T.);
#357=ORIENTED_EDGE('',*,*,#379,.T.);
#358=ORIENTED_EDGE('',*,*,#376,.F.);
#359=ORIENTED_EDGE('',*,*,#373,.F.);
#360=ORIENTED_EDGE('',*,*,#370,.T.);
#361=ORIENTED_EDGE('',*,*,#367,.F.);
#362=ORIENTED_EDGE('',*,*,#470,.T.);
#363=EDGE_CURVE('',#471,#472,#573,.T.);
#364=EDGE_CURVE('',#473,#471,#574,.T.);
#365=EDGE_CURVE('',#473,#474,#575,.T.);
#366=EDGE_CURVE('',#474,#472,#576,.T.);
#367=EDGE_CURVE('',#471,#475,#577,.T.);
#368=EDGE_CURVE('',#476,#475,#578,.T.);
#369=EDGE_CURVE('',#473,#476,#579,.T.);
#370=EDGE_CURVE('',#477,#475,#580,.T.);
#371=EDGE_CURVE('',#478,#477,#581,.T.);
#372=EDGE_CURVE('',#478,#476,#582,.T.);
#373=EDGE_CURVE('',#477,#479,#583,.T.);
#374=EDGE_CURVE('',#480,#479,#584,.T.);
#375=EDGE_CURVE('',#478,#480,#585,.T.);
#376=EDGE_CURVE('',#479,#481,#586,.T.);
#377=EDGE_CURVE('',#482,#481,#587,.T.);
#378=EDGE_CURVE('',#480,#482,#588,.T.);
#379=EDGE_CURVE('',#472,#481,#589,.T.);
#380=EDGE_CURVE('',#474,#482,#590,.T.);
#381=EDGE_CURVE('',#483,#483,#12,.T.);
#382=EDGE_CURVE('',#484,#484,#13,.T.);
#383=EDGE_CURVE('',#485,#485,#14,.T.);
#384=EDGE_CURVE('',#486,#486,#15,.T.);
#385=EDGE_CURVE('',#487,#487,#16,.T.);
#386=EDGE_CURVE('',#488,#488,#17,.T.);
#387=EDGE_CURVE('',#489,#489,#18,.T.);
#388=EDGE_CURVE('',#490,#490,#19,.T.);
#389=EDGE_CURVE('',#491,#491,#20,.T.);
#390=EDGE_CURVE('',#492,#492,#21,.T.);
#391=EDGE_CURVE('',#493,#493,#22,.T.);
#392=EDGE_CURVE('',#494,#494,#23,.T.);
#393=EDGE_CURVE('',#495,#495,#24,.T.);
#394=EDGE_CURVE('',#496,#496,#25,.T.);
#395=EDGE_CURVE('',#497,#497,#26,.T.);
#396=EDGE_CURVE('',#498,#498,#27,.T.);
#397=EDGE_CURVE('',#499,#499,#28,.T.);
#398=EDGE_CURVE('',#500,#500,#29,.T.);
#399=EDGE_CURVE('',#501,#501,#30,.T.);
#400=EDGE_CURVE('',#502,#502,#31,.T.);
#401=EDGE_CURVE('',#503,#503,#32,.T.);
#402=EDGE_CURVE('',#504,#504,#33,.T.);
#403=EDGE_CURVE('',#505,#505,#34,.T.);
#404=EDGE_CURVE('',#506,#506,#35,.T.);
#405=EDGE_CURVE('',#507,#507,#36,.T.);
#406=EDGE_CURVE('',#508,#508,#37,.T.);
#407=EDGE_CURVE('',#509,#509,#38,.T.);
#408=EDGE_CURVE('',#510,#510,#39,.T.);
#409=EDGE_CURVE('',#511,#511,#40,.T.);
#410=EDGE_CURVE('',#512,#512,#41,.T.);
#411=EDGE_CURVE('',#513,#513,#42,.T.);
#412=EDGE_CURVE('',#514,#514,#43,.T.);
#413=EDGE_CURVE('',#515,#515,#44,.T.);
#414=EDGE_CURVE('',#516,#516,#45,.T.);
#415=EDGE_CURVE('',#517,#517,#46,.T.);
#416=EDGE_CURVE('',#518,#518,#47,.T.);
#417=EDGE_CURVE('',#519,#519,#48,.T.);
#418=EDGE_CURVE('',#520,#520,#49,.T.);
#419=EDGE_CURVE('',#521,#521,#50,.T.);
#420=EDGE_CURVE('',#522,#522,#51,.T.);
#421=EDGE_CURVE('',#523,#523,#52,.T.);
#422=EDGE_CURVE('',#524,#524,#53,.T.);
#423=EDGE_CURVE('',#525,#525,#54,.T.);
#424=EDGE_CURVE('',#526,#526,#55,.T.);
#425=EDGE_CURVE('',#527,#527,#56,.T.);
#426=EDGE_CURVE('',#528,#528,#57,.T.);
#427=EDGE_CURVE('',#529,#529,#58,.T.);
#428=EDGE_CURVE('',#530,#530,#59,.T.);
#429=EDGE_CURVE('',#531,#531,#60,.T.);
#430=EDGE_CURVE('',#532,#532,#61,.T.);
#431=EDGE_CURVE('',#533,#533,#62,.T.);
#432=EDGE_CURVE('',#534,#534,#63,.T.);
#433=EDGE_CURVE('',#535,#535,#64,.T.);
#434=EDGE_CURVE('',#536,#536,#65,.T.);
#435=EDGE_CURVE('',#537,#537,#66,.T.);
#436=EDGE_CURVE('',#538,#538,#67,.T.);
#437=EDGE_CURVE('',#539,#539,#68,.T.);
#438=EDGE_CURVE('',#540,#540,#69,.T.);
#439=EDGE_CURVE('',#541,#541,#70,.T.);
#440=EDGE_CURVE('',#542,#542,#71,.T.);
#441=EDGE_CURVE('',#543,#543,#72,.T.);
#442=EDGE_CURVE('',#544,#544,#73,.T.);
#443=EDGE_CURVE('',#545,#545,#74,.T.);
#444=EDGE_CURVE('',#546,#546,#75,.T.);
#445=EDGE_CURVE('',#547,#547,#76,.T.);
#446=EDGE_CURVE('',#548,#548,#77,.T.);
#447=EDGE_CURVE('',#549,#549,#78,.T.);
#448=EDGE_CURVE('',#550,#550,#79,.T.);
#449=EDGE_CURVE('',#551,#551,#80,.T.);
#450=EDGE_CURVE('',#552,#552,#81,.T.);
#451=EDGE_CURVE('',#553,#553,#82,.T.);
#452=EDGE_CURVE('',#554,#554,#83,.T.);
#453=EDGE_CURVE('',#555,#555,#84,.T.);
#454=EDGE_CURVE('',#556,#556,#85,.T.);
#455=EDGE_CURVE('',#557,#557,#86,.T.);
#456=EDGE_CURVE('',#558,#558,#87,.T.);
#457=EDGE_CURVE('',#559,#559,#88,.T.);
#458=EDGE_CURVE('',#560,#560,#89,.T.);
#459=EDGE_CURVE('',#561,#561,#90,.T.);
#460=EDGE_CURVE('',#562,#562,#91,.T.);
#461=EDGE_CURVE('',#563,#563,#92,.T.);
#462=EDGE_CURVE('',#564,#564,#93,.T.);
#463=EDGE_CURVE('',#565,#565,#94,.T.);
#464=EDGE_CURVE('',#566,#566,#95,.T.);
#465=EDGE_CURVE('',#567,#567,#96,.T.);
#466=EDGE_CURVE('',#568,#568,#97,.T.);
#467=EDGE_CURVE('',#569,#569,#98,.T.);
#468=EDGE_CURVE('',#570,#570,#99,.T.);
#469=EDGE_CURVE('',#571,#571,#100,.T.);
#470=EDGE_CURVE('',#572,#572,#101,.T.);
#471=VERTEX_POINT('',#1511);
#472=VERTEX_POINT('',#1512);
#473=VERTEX_POINT('',#1514);
#474=VERTEX_POINT('',#1516);
#475=VERTEX_POINT('',#1520);
#476=VERTEX_POINT('',#1522);
#477=VERTEX_POINT('',#1526);
#478=VERTEX_POINT('',#1528);
#479=VERTEX_POINT('',#1532);
#480=VERTEX_POINT('',#1534);
#481=VERTEX_POINT('',#1538);
#482=VERTEX_POINT('',#1540);
#483=VERTEX_POINT('',#1547);
#484=VERTEX_POINT('',#1549);
#485=VERTEX_POINT('',#1552);
#486=VERTEX_POINT('',#1554);
#487=VERTEX_POINT('',#1557);
#488=VERTEX_POINT('',#1559);
#489=VERTEX_POINT('',#1562);
#490=VERTEX_POINT('',#1564);
#491=VERTEX_POINT('',#1567);
#492=VERTEX_POINT('',#1569);
#493=VERTEX_POINT('',#1572);
#494=VERTEX_POINT('',#1574);
#495=VERTEX_POINT('',#1577);
#496=VERTEX_POINT('',#1579);
#497=VERTEX_POINT('',#1582);
#498=VERTEX_POINT('',#1584);
#499=VERTEX_POINT('',#1587);
#500=VERTEX_POINT('',#1589);
#501=VERTEX_POINT('',#1592);
#502=VERTEX_POINT('',#1594);
#503=VERTEX_POINT('',#1597);
#504=VERTEX_POINT('',#1599);
#505=VERTEX_POINT('',#1602);
#506=VERTEX_POINT('',#1604);
#507=VERTEX_POINT('',#1607);
#508=VERTEX_POINT('',#1609);
#509=VERTEX_POINT('',#1612);
#510=VERTEX_POINT('',#1614);
#511=VERTEX_POINT('',#1617);
#512=VERTEX_POINT('',#1619);
#513=VERTEX_POINT('',#1622);
#514=VERTEX_POINT('',#1624);
#515=VERTEX_POINT('',#1627);
#516=VERTEX_POINT('',#1629);
#517=VERTEX_POINT('',#1632);
#518=VERTEX_POINT('',#1634);
#519=VERTEX_POINT('',#1637);
#520=VERTEX_POINT('',#1639);
#521=VERTEX_POINT('',#1642);
#522=VERTEX_POINT('',#1644);
#523=VERTEX_POINT('',#1647);
#524=VERTEX_POINT('',#1649);
#525=VERTEX_POINT('',#1652);
#526=VERTEX_POINT('',#1654);
#527=VERTEX_POINT('',#1657);
#528=VERTEX_POINT('',#1659);
#529=VERTEX_POINT('',#1662);
#530=VERTEX_POINT('',#1664);
#531=VERTEX_POINT('',#1667);
#532=VERTEX_POINT('',#1669);
#533=VERTEX_POINT('',#1672);
#534=VERTEX_POINT('',#1674);
#535=VERTEX_POINT('',#1677);
#536=VERTEX_POINT('',#1679);
#537=VERTEX_POINT('',#1682);
#538=VERTEX_POINT('',#1684);
#539=VERTEX_POINT('',#1687);
#540=VERTEX_POINT('',#1689);
#541=VERTEX_POINT('',#1692);
#542=VERTEX_POINT('',#1694);
#543=VERTEX_POINT('',#1697);
#544=VERTEX_POINT('',#1699);
#545=VERTEX_POINT('',#1702);
#546=VERTEX_POINT('',#1704);
#547=VERTEX_POINT('',#1707);
#548=VERTEX_POINT('',#1709);
#549=VERTEX_POINT('',#1712);
#550=VERTEX_POINT('',#1714);
#551=VERTEX_POINT('',#1717);
#552=VERTEX_POINT('',#1719);
#553=VERTEX_POINT('',#1722);
#554=VERTEX_POINT('',#1724);
#555=VERTEX_POINT('',#1727);
#556=VERTEX_POINT('',#1729);
#557=VERTEX_POINT('',#1732);
#558=VERTEX_POINT('',#1734);
#559=VERTEX_POINT('',#1737);
#560=VERTEX_POINT('',#1739);
#561=VERTEX_POINT('',#1742);
#562=VERTEX_POINT('',#1744);
#563=VERTEX_POINT('',#1747);
#564=VERTEX_POINT('',#1749);
#565=VERTEX_POINT('',#1752);
#566=VERTEX_POINT('',#1754);
#567=VERTEX_POINT('',#1757);
#568=VERTEX_POINT('',#1759);
#569=VERTEX_POINT('',#1762);
#570=VERTEX_POINT('',#1764);
#571=VERTEX_POINT('',#1767);
#572=VERTEX_POINT('',#1769);
#573=LINE('',#1510,#591);
#574=LINE('',#1513,#592);
#575=LINE('',#1515,#593);
#576=LINE('',#1517,#594);
#577=LINE('',#1519,#595);
#578=LINE('',#1521,#596);
#579=LINE('',#1523,#597);
#580=LINE('',#1525,#598);
#581=LINE('',#1527,#599);
#582=LINE('',#1529,#600);
#583=LINE('',#1531,#601);
#584=LINE('',#1533,#602);
#585=LINE('',#1535,#603);
#586=LINE('',#1537,#604);
#587=LINE('',#1539,#605);
#588=LINE('',#1541,#606);
#589=LINE('',#1543,#607);
#590=LINE('',#1544,#608);
#591=VECTOR('',#1206,1.);
#592=VECTOR('',#1207,1.);
#593=VECTOR('',#1208,1.);
#594=VECTOR('',#1209,1.);
#595=VECTOR('',#1212,1.);
#596=VECTOR('',#1213,1.);
#597=VECTOR('',#1214,1.);
#598=VECTOR('',#1217,1.);
#599=VECTOR('',#1218,1.);
#600=VECTOR('',#1219,1.);
#601=VECTOR('',#1222,1.);
#602=VECTOR('',#1223,1.);
#603=VECTOR('',#1224,1.);
#604=VECTOR('',#1227,1.);
#605=VECTOR('',#1228,1.);
#606=VECTOR('',#1229,1.);
#607=VECTOR('',#1232,1.);
#608=VECTOR('',#1233,1.);
#609=EDGE_LOOP('',(#147,#148,#149,#150));
#610=EDGE_LOOP('',(#151,#152,#153,#154));
#611=EDGE_LOOP('',(#155,#156,#157,#158));
#612=EDGE_LOOP('',(#159,#160,#161,#162));
#613=EDGE_LOOP('',(#163,#164,#165,#166));
#614=EDGE_LOOP('',(#167,#168,#169,#170));
#615=EDGE_LOOP('',(#171));
#616=EDGE_LOOP('',(#172));
#617=EDGE_LOOP('',(#173));
#618=EDGE_LOOP('',(#174));
#619=EDGE_LOOP('',(#175));
#620=EDGE_LOOP('',(#176));
#621=EDGE_LOOP('',(#177));
#622=EDGE_LOOP('',(#178));
#623=EDGE_LOOP('',(#179));
#624=EDGE_LOOP('',(#180));
#625=EDGE_LOOP('',(#181));
#626=EDGE_LOOP('',(#182));
#627=EDGE_LOOP('',(#183));
#628=EDGE_LOOP('',(#184));
#629=EDGE_LOOP('',(#185));
#630=EDGE_LOOP('',(#186));
#631=EDGE_LOOP('',(#187));
#632=EDGE_LOOP('',(#188));
#633=EDGE_LOOP('',(#189));
#634=EDGE_LOOP('',(#190));
#635=EDGE_LOOP('',(#191));
#636=EDGE_LOOP('',(#192));
#637=EDGE_LOOP('',(#193));
#638=EDGE_LOOP('',(#194));
#639=EDGE_LOOP('',(#195));
#640=EDGE_LOOP('',(#196));
#641=EDGE_LOOP('',(#197));
#642=EDGE_LOOP('',(#198));
#643=EDGE_LOOP('',(#199));
#644=EDGE_LOOP('',(#200));
#645=EDGE_LOOP('',(#201));
#646=EDGE_LOOP('',(#202));
#647=EDGE_LOOP('',(#203));
#648=EDGE_LOOP('',(#204));
#649=EDGE_LOOP('',(#205));
#650=EDGE_LOOP('',(#206));
#651=EDGE_LOOP('',(#207));
#652=EDGE_LOOP('',(#208));
#653=EDGE_LOOP('',(#209));
#654=EDGE_LOOP('',(#210));
#655=EDGE_LOOP('',(#211));
#656=EDGE_LOOP('',(#212));
#657=EDGE_LOOP('',(#213));
#658=EDGE_LOOP('',(#214));
#659=EDGE_LOOP('',(#215));
#660=EDGE_LOOP('',(#216));
#661=EDGE_LOOP('',(#217));
#662=EDGE_LOOP('',(#218));
#663=EDGE_LOOP('',(#219));
#664=EDGE_LOOP('',(#220));
#665=EDGE_LOOP('',(#221));
#666=EDGE_LOOP('',(#222));
#667=EDGE_LOOP('',(#223));
#668=EDGE_LOOP('',(#224));
#669=EDGE_LOOP('',(#225));
#670=EDGE_LOOP('',(#226));
#671=EDGE_LOOP('',(#227));
#672=EDGE_LOOP('',(#228));
#673=EDGE_LOOP('',(#229));
#674=EDGE_LOOP('',(#230));
#675=EDGE_LOOP('',(#231));
#676=EDGE_LOOP('',(#232));
#677=EDGE_LOOP('',(#233));
#678=EDGE_LOOP('',(#234));
#679=EDGE_LOOP('',(#235));
#680=EDGE_LOOP('',(#236));
#681=EDGE_LOOP('',(#237));
#682=EDGE_LOOP('',(#238));
#683=EDGE_LOOP('',(#239));
#684=EDGE_LOOP('',(#240));
#685=EDGE_LOOP('',(#241));
#686=EDGE_LOOP('',(#242));
#687=EDGE_LOOP('',(#243));
#688=EDGE_LOOP('',(#244));
#689=EDGE_LOOP('',(#245));
#690=EDGE_LOOP('',(#246));
#691=EDGE_LOOP('',(#247));
#692=EDGE_LOOP('',(#248));
#693=EDGE_LOOP('',(#249));
#694=EDGE_LOOP('',(#250));
#695=EDGE_LOOP('',(#251));
#696=EDGE_LOOP('',(#252));
#697=EDGE_LOOP('',(#253));
#698=EDGE_LOOP('',(#254));
#699=EDGE_LOOP('',(#255));
#700=EDGE_LOOP('',(#256));
#701=EDGE_LOOP('',(#257));
#702=EDGE_LOOP('',(#258));
#703=EDGE_LOOP('',(#259));
#704=EDGE_LOOP('',(#260));
#705=EDGE_LOOP('',(#261));
#706=EDGE_LOOP('',(#262));
#707=EDGE_LOOP('',(#263));
#708=EDGE_LOOP('',(#264));
#709=EDGE_LOOP('',(#265));
#710=EDGE_LOOP('',(#266));
#711=EDGE_LOOP('',(#267));
#712=EDGE_LOOP('',(#268));
#713=EDGE_LOOP('',(#269));
#714=EDGE_LOOP('',(#270));
#715=EDGE_LOOP('',(#271));
#716=EDGE_LOOP('',(#272));
#717=EDGE_LOOP('',(#273));
#718=EDGE_LOOP('',(#274));
#719=EDGE_LOOP('',(#275));
#720=EDGE_LOOP('',(#276));
#721=EDGE_LOOP('',(#277));
#722=EDGE_LOOP('',(#278));
#723=EDGE_LOOP('',(#279));
#724=EDGE_LOOP('',(#280));
#725=EDGE_LOOP('',(#281));
#726=EDGE_LOOP('',(#282));
#727=EDGE_LOOP('',(#283));
#728=EDGE_LOOP('',(#284));
#729=EDGE_LOOP('',(#285));
#730=EDGE_LOOP('',(#286));
#731=EDGE_LOOP('',(#287));
#732=EDGE_LOOP('',(#288));
#733=EDGE_LOOP('',(#289));
#734=EDGE_LOOP('',(#290));
#735=EDGE_LOOP('',(#291));
#736=EDGE_LOOP('',(#292));
#737=EDGE_LOOP('',(#293));
#738=EDGE_LOOP('',(#294));
#739=EDGE_LOOP('',(#295));
#740=EDGE_LOOP('',(#296));
#741=EDGE_LOOP('',(#297));
#742=EDGE_LOOP('',(#298));
#743=EDGE_LOOP('',(#299));
#744=EDGE_LOOP('',(#300));
#745=EDGE_LOOP('',(#301));
#746=EDGE_LOOP('',(#302));
#747=EDGE_LOOP('',(#303));
#748=EDGE_LOOP('',(#304));
#749=EDGE_LOOP('',(#305,#306,#307,#308,#309,#310));
#750=EDGE_LOOP('',(#311));
#751=EDGE_LOOP('',(#312));
#752=EDGE_LOOP('',(#313));
#753=EDGE_LOOP('',(#314));
#754=EDGE_LOOP('',(#315));
#755=EDGE_LOOP('',(#316));
#756=EDGE_LOOP('',(#317));
#757=EDGE_LOOP('',(#318));
#758=EDGE_LOOP('',(#319));
#759=EDGE_LOOP('',(#320));
#760=EDGE_LOOP('',(#321));
#761=EDGE_LOOP('',(#322));
#762=EDGE_LOOP('',(#323));
#763=EDGE_LOOP('',(#324));
#764=EDGE_LOOP('',(#325));
#765=EDGE_LOOP('',(#326));
#766=EDGE_LOOP('',(#327));
#767=EDGE_LOOP('',(#328));
#768=EDGE_LOOP('',(#329));
#769=EDGE_LOOP('',(#330));
#770=EDGE_LOOP('',(#331));
#771=EDGE_LOOP('',(#332));
#772=EDGE_LOOP('',(#333));
#773=EDGE_LOOP('',(#334));
#774=EDGE_LOOP('',(#335));
#775=EDGE_LOOP('',(#336));
#776=EDGE_LOOP('',(#337));
#777=EDGE_LOOP('',(#338));
#778=EDGE_LOOP('',(#339));
#779=EDGE_LOOP('',(#340));
#780=EDGE_LOOP('',(#341));
#781=EDGE_LOOP('',(#342));
#782=EDGE_LOOP('',(#343));
#783=EDGE_LOOP('',(#344));
#784=EDGE_LOOP('',(#345));
#785=EDGE_LOOP('',(#346));
#786=EDGE_LOOP('',(#347));
#787=EDGE_LOOP('',(#348));
#788=EDGE_LOOP('',(#349));
#789=EDGE_LOOP('',(#350));
#790=EDGE_LOOP('',(#351));
#791=EDGE_LOOP('',(#352));
#792=EDGE_LOOP('',(#353));
#793=EDGE_LOOP('',(#354));
#794=EDGE_LOOP('',(#355));
#795=EDGE_LOOP('',(#356,#357,#358,#359,#360,#361));
#796=EDGE_LOOP('',(#362));
#797=FACE_BOUND('',#609,.T.);
#798=FACE_BOUND('',#610,.T.);
#799=FACE_BOUND('',#611,.T.);
#800=FACE_BOUND('',#612,.T.);
#801=FACE_BOUND('',#613,.T.);
#802=FACE_BOUND('',#614,.T.);
#803=FACE_BOUND('',#615,.T.);
#804=FACE_BOUND('',#616,.T.);
#805=FACE_BOUND('',#617,.T.);
#806=FACE_BOUND('',#618,.T.);
#807=FACE_BOUND('',#619,.T.);
#808=FACE_BOUND('',#620,.T.);
#809=FACE_BOUND('',#621,.T.);
#810=FACE_BOUND('',#622,.T.);
#811=FACE_BOUND('',#623,.T.);
#812=FACE_BOUND('',#624,.T.);
#813=FACE_BOUND('',#625,.T.);
#814=FACE_BOUND('',#626,.T.);
#815=FACE_BOUND('',#627,.T.);
#816=FACE_BOUND('',#628,.T.);
#817=FACE_BOUND('',#629,.T.);
#818=FACE_BOUND('',#630,.T.);
#819=FACE_BOUND('',#631,.T.);
#820=FACE_BOUND('',#632,.T.);
#821=FACE_BOUND('',#633,.T.);
#822=FACE_BOUND('',#634,.T.);
#823=FACE_BOUND('',#635,.T.);
#824=FACE_BOUND('',#636,.T.);
#825=FACE_BOUND('',#637,.T.);
#826=FACE_BOUND('',#638,.T.);
#827=FACE_BOUND('',#639,.T.);
#828=FACE_BOUND('',#640,.T.);
#829=FACE_BOUND('',#641,.T.);
#830=FACE_BOUND('',#642,.T.);
#831=FACE_BOUND('',#643,.T.);
#832=FACE_BOUND('',#644,.T.);
#833=FACE_BOUND('',#645,.T.);
#834=FACE_BOUND('',#646,.T.);
#835=FACE_BOUND('',#647,.T.);
#836=FACE_BOUND('',#648,.T.);
#837=FACE_BOUND('',#649,.T.);
#838=FACE_BOUND('',#650,.T.);
#839=FACE_BOUND('',#651,.T.);
#840=FACE_BOUND('',#652,.T.);
#841=FACE_BOUND('',#653,.T.);
#842=FACE_BOUND('',#654,.T.);
#843=FACE_BOUND('',#655,.T.);
#844=FACE_BOUND('',#656,.T.);
#845=FACE_BOUND('',#657,.T.);
#846=FACE_BOUND('',#658,.T.);
#847=FACE_BOUND('',#659,.T.);
#848=FACE_BOUND('',#660,.T.);
#849=FACE_BOUND('',#661,.T.);
#850=FACE_BOUND('',#662,.T.);
#851=FACE_BOUND('',#663,.T.);
#852=FACE_BOUND('',#664,.T.);
#853=FACE_BOUND('',#665,.T.);
#854=FACE_BOUND('',#666,.T.);
#855=FACE_BOUND('',#667,.T.);
#856=FACE_BOUND('',#668,.T.);
#857=FACE_BOUND('',#669,.T.);
#858=FACE_BOUND('',#670,.T.);
#859=FACE_BOUND('',#671,.T.);
#860=FACE_BOUND('',#672,.T.);
#861=FACE_BOUND('',#673,.T.);
#862=FACE_BOUND('',#674,.T.);
#863=FACE_BOUND('',#675,.T.);
#864=FACE_BOUND('',#676,.T.);
#865=FACE_BOUND('',#677,.T.);
#866=FACE_BOUND('',#678,.T.);
#867=FACE_BOUND('',#679,.T.);
#868=FACE_BOUND('',#680,.T.);
#869=FACE_BOUND('',#681,.T.);
#870=FACE_BOUND('',#682,.T.);
#871=FACE_BOUND('',#683,.T.);
#872=FACE_BOUND('',#684,.T.);
#873=FACE_BOUND('',#685,.T.);
#874=FACE_BOUND('',#686,.T.);
#875=FACE_BOUND('',#687,.T.);
#876=FACE_BOUND('',#688,.T.);
#877=FACE_BOUND('',#689,.T.);
#878=FACE_BOUND('',#690,.T.);
#879=FACE_BOUND('',#691,.T.);
#880=FACE_BOUND('',#692,.T.);
#881=FACE_BOUND('',#693,.T.);
#882=FACE_BOUND('',#694,.T.);
#883=FACE_BOUND('',#695,.T.);
#884=FACE_BOUND('',#696,.T.);
#885=FACE_BOUND('',#697,.T.);
#886=FACE_BOUND('',#698,.T.);
#887=FACE_BOUND('',#699,.T.);
#888=FACE_BOUND('',#700,.T.);
#889=FACE_BOUND('',#701,.T.);
#890=FACE_BOUND('',#702,.T.);
#891=FACE_BOUND('',#703,.T.);
#892=FACE_BOUND('',#704,.T.);
#893=FACE_BOUND('',#705,.T.);
#894=FACE_BOUND('',#706,.T.);
#895=FACE_BOUND('',#707,.T.);
#896=FACE_BOUND('',#708,.T.);
#897=FACE_BOUND('',#709,.T.);
#898=FACE_BOUND('',#710,.T.);
#899=FACE_BOUND('',#711,.T.);
#900=FACE_BOUND('',#712,.T.);
#901=FACE_BOUND('',#713,.T.);
#902=FACE_BOUND('',#714,.T.);
#903=FACE_BOUND('',#715,.T.);
#904=FACE_BOUND('',#716,.T.);
#905=FACE_BOUND('',#717,.T.);
#906=FACE_BOUND('',#718,.T.);
#907=FACE_BOUND('',#719,.T.);
#908=FACE_BOUND('',#720,.T.);
#909=FACE_BOUND('',#721,.T.);
#910=FACE_BOUND('',#722,.T.);
#911=FACE_BOUND('',#723,.T.);
#912=FACE_BOUND('',#724,.T.);
#913=FACE_BOUND('',#725,.T.);
#914=FACE_BOUND('',#726,.T.);
#915=FACE_BOUND('',#727,.T.);
#916=FACE_BOUND('',#728,.T.);
#917=FACE_BOUND('',#729,.T.);
#918=FACE_BOUND('',#730,.T.);
#919=FACE_BOUND('',#731,.T.);
#920=FACE_BOUND('',#732,.T.);
#921=FACE_BOUND('',#733,.T.);
#922=FACE_BOUND('',#734,.T.);
#923=FACE_BOUND('',#735,.T.);
#924=FACE_BOUND('',#736,.T.);
#925=FACE_BOUND('',#737,.T.);
#926=FACE_BOUND('',#738,.T.);
#927=FACE_BOUND('',#739,.T.);
#928=FACE_BOUND('',#740,.T.);
#929=FACE_BOUND('',#741,.T.);
#930=FACE_BOUND('',#742,.T.);
#931=FACE_BOUND('',#743,.T.);
#932=FACE_BOUND('',#744,.T.);
#933=FACE_BOUND('',#745,.T.);
#934=FACE_BOUND('',#746,.T.);
#935=FACE_BOUND('',#747,.T.);
#936=FACE_BOUND('',#748,.T.);
#937=FACE_BOUND('',#749,.T.);
#938=FACE_BOUND('',#750,.T.);
#939=FACE_BOUND('',#751,.T.);
#940=FACE_BOUND('',#752,.T.);
#941=FACE_BOUND('',#753,.T.);
#942=FACE_BOUND('',#754,.T.);
#943=FACE_BOUND('',#755,.T.);
#944=FACE_BOUND('',#756,.T.);
#945=FACE_BOUND('',#757,.T.);
#946=FACE_BOUND('',#758,.T.);
#947=FACE_BOUND('',#759,.T.);
#948=FACE_BOUND('',#760,.T.);
#949=FACE_BOUND('',#761,.T.);
#950=FACE_BOUND('',#762,.T.);
#951=FACE_BOUND('',#763,.T.);
#952=FACE_BOUND('',#764,.T.);
#953=FACE_BOUND('',#765,.T.);
#954=FACE_BOUND('',#766,.T.);
#955=FACE_BOUND('',#767,.T.);
#956=FACE_BOUND('',#768,.T.);
#957=FACE_BOUND('',#769,.T.);
#958=FACE_BOUND('',#770,.T.);
#959=FACE_BOUND('',#771,.T.);
#960=FACE_BOUND('',#772,.T.);
#961=FACE_BOUND('',#773,.T.);
#962=FACE_BOUND('',#774,.T.);
#963=FACE_BOUND('',#775,.T.);
#964=FACE_BOUND('',#776,.T.);
#965=FACE_BOUND('',#777,.T.);
#966=FACE_BOUND('',#778,.T.);
#967=FACE_BOUND('',#779,.T.);
#968=FACE_BOUND('',#780,.T.);
#969=FACE_BOUND('',#781,.T.);
#970=FACE_BOUND('',#782,.T.);
#971=FACE_BOUND('',#783,.T.);
#972=FACE_BOUND('',#784,.T.);
#973=FACE_BOUND('',#785,.T.);
#974=FACE_BOUND('',#786,.T.);
#975=FACE_BOUND('',#787,.T.);
#976=FACE_BOUND('',#788,.T.);
#977=FACE_BOUND('',#789,.T.);
#978=FACE_BOUND('',#790,.T.);
#979=FACE_BOUND('',#791,.T.);
#980=FACE_BOUND('',#792,.T.);
#981=FACE_BOUND('',#793,.T.);
#982=FACE_BOUND('',#794,.T.);
#983=FACE_BOUND('',#795,.T.);
#984=FACE_BOUND('',#796,.T.);
#985=PLANE('',#1059);
#986=PLANE('',#1060);
#987=PLANE('',#1061);
#988=PLANE('',#1062);
#989=PLANE('',#1063);
#990=PLANE('',#1064);
#991=PLANE('',#1200);
#992=PLANE('',#1201);
#993=ADVANCED_FACE('',(#797),#985,.T.);
#994=ADVANCED_FACE('',(#798),#986,.F.);
#995=ADVANCED_FACE('',(#799),#987,.T.);
#996=ADVANCED_FACE('',(#800),#988,.F.);
#997=ADVANCED_FACE('',(#801),#989,.F.);
#998=ADVANCED_FACE('',(#802),#990,.T.);
#999=ADVANCED_FACE('',(#803,#804),#102,.F.);
#1000=ADVANCED_FACE('',(#805,#806),#103,.F.);
#1001=ADVANCED_FACE('',(#807,#808),#104,.F.);
#1002=ADVANCED_FACE('',(#809,#810),#105,.F.);
#1003=ADVANCED_FACE('',(#811,#812),#106,.F.);
#1004=ADVANCED_FACE('',(#813,#814),#107,.F.);
#1005=ADVANCED_FACE('',(#815,#816),#108,.F.);
#1006=ADVANCED_FACE('',(#817,#818),#109,.F.);
#1007=ADVANCED_FACE('',(#819,#820),#110,.F.);
#1008=ADVANCED_FACE('',(#821,#822),#111,.F.);
#1009=ADVANCED_FACE('',(#823,#824),#112,.F.);
#1010=ADVANCED_FACE('',(#825,#826),#113,.F.);
#1011=ADVANCED_FACE('',(#827,#828),#114,.F.);
#1012=ADVANCED_FACE('',(#829,#830),#115,.F.);
#1013=ADVANCED_FACE('',(#831,#832),#116,.F.);
#1014=ADVANCED_FACE('',(#833,#834),#117,.F.);
#1015=ADVANCED_FACE('',(#835,#836),#118,.F.);
#1016=ADVANCED_FACE('',(#837,#838),#119,.F.);
#1017=ADVANCED_FACE('',(#839,#840),#120,.F.);
#1018=ADVANCED_FACE('',(#841,#842),#121,.F.);
#1019=ADVANCED_FACE('',(#843,#844),#122,.F.);
#1020=ADVANCED_FACE('',(#845,#846),#123,.F.);
#1021=ADVANCED_FACE('',(#847,#848),#124,.F.);
#1022=ADVANCED_FACE('',(#849,#850),#125,.F.);
#1023=ADVANCED_FACE('',(#851,#852),#126,.F.);
#1024=ADVANCED_FACE('',(#853,#854),#127,.F.);
#1025=ADVANCED_FACE('',(#855,#856),#128,.F.);
#1026=ADVANCED_FACE('',(#857,#858),#129,.F.);
#1027=ADVANCED_FACE('',(#859,#860),#130,.F.);
#1028=ADVANCED_FACE('',(#861,#862),#131,.F.);
#1029=ADVANCED_FACE('',(#863,#864),#132,.F.);
#1030=ADVANCED_FACE('',(#865,#866),#133,.F.);
#1031=ADVANCED_FACE('',(#867,#868),#134,.F.);
#1032=ADVANCED_FACE('',(#869,#870),#135,.F.);
#1033=ADVANCED_FACE('',(#871,#872),#136,.F.);
#1034=ADVANCED_FACE('',(#873,#874),#137,.F.);
#1035=ADVANCED_FACE('',(#875,#876),#138,.F.);
#1036=ADVANCED_FACE('',(#877,#878),#139,.F.);
#1037=ADVANCED_FACE('',(#879,#880),#140,.F.);
#1038=ADVANCED_FACE('',(#881,#882),#141,.F.);
#1039=ADVANCED_FACE('',(#883,#884),#142,.F.);
#1040=ADVANCED_FACE('',(#885,#886),#143,.F.);
#1041=ADVANCED_FACE('',(#887,#888),#144,.F.);
#1042=ADVANCED_FACE('',(#889,#890),#145,.F.);
#1043=ADVANCED_FACE('',(#891,#892),#146,.F.);
#1044=ADVANCED_FACE('',(#893,#894,#895,#896,#897,#898,#899,#900,#901,#902,
#903,#904,#905,#906,#907,#908,#909,#910,#911,#912,#913,#914,#915,#916,#917,
#918,#919,#920,#921,#922,#923,#924,#925,#926,#927,#928,#929,#930,#931,#932,
#933,#934,#935,#936,#937,#938),#991,.T.);
#1045=ADVANCED_FACE('',(#939,#940,#941,#942,#943,#944,#945,#946,#947,#948,
#949,#950,#951,#952,#953,#954,#955,#956,#957,#958,#959,#960,#961,#962,#963,
#964,#965,#966,#967,#968,#969,#970,#971,#972,#973,#974,#975,#976,#977,#978,
#979,#980,#981,#982,#983,#984),#992,.F.);
#1046=CLOSED_SHELL('',(#993,#994,#995,#996,#997,#998,#999,#1000,#1001,#1002,
#1003,#1004,#1005,#1006,#1007,#1008,#1009,#1010,#1011,#1012,#1013,#1014,
#1015,#1016,#1017,#1018,#1019,#1020,#1021,#1022,#1023,#1024,#1025,#1026,
#1027,#1028,#1029,#1030,#1031,#1032,#1033,#1034,#1035,#1036,#1037,#1038,
#1039,#1040,#1041,#1042,#1043,#1044,#1045));
#1047=STYLED_ITEM('',(#1048),#1055);
#1048=PRESENTATION_STYLE_ASSIGNMENT((#1049));
#1049=SURFACE_STYLE_USAGE(.BOTH.,#1050);
#1050=SURFACE_SIDE_STYLE('',(#1051));
#1051=SURFACE_STYLE_FILL_AREA(#1052);
#1052=FILL_AREA_STYLE('',(#1053));
#1053=FILL_AREA_STYLE_COLOUR('',#1054);
#1054=COLOUR_RGB('',0.615686274509804,0.811764705882353,0.929411764705882);
#1055=MANIFOLD_SOLID_BREP('Part 1',#1046);
#1056=SHAPE_DEFINITION_REPRESENTATION(#1778,#1057);
#1057=SHAPE_REPRESENTATION('Part 1',(#1058),#1773);
#1058=AXIS2_PLACEMENT_3D('',#1508,#1202,#1203);
#1059=AXIS2_PLACEMENT_3D('',#1509,#1204,#1205);
#1060=AXIS2_PLACEMENT_3D('',#1518,#1210,#1211);
#1061=AXIS2_PLACEMENT_3D('',#1524,#1215,#1216);
#1062=AXIS2_PLACEMENT_3D('',#1530,#1220,#1221);
#1063=AXIS2_PLACEMENT_3D('',#1536,#1225,#1226);
#1064=AXIS2_PLACEMENT_3D('',#1542,#1230,#1231);
#1065=AXIS2_PLACEMENT_3D('',#1545,#1234,#1235);
#1066=AXIS2_PLACEMENT_3D('',#1546,#1236,#1237);
#1067=AXIS2_PLACEMENT_3D('',#1548,#1238,#1239);
#1068=AXIS2_PLACEMENT_3D('',#1550,#1240,#1241);
#1069=AXIS2_PLACEMENT_3D('',#1551,#1242,#1243);
#1070=AXIS2_PLACEMENT_3D('',#1553,#1244,#1245);
#1071=AXIS2_PLACEMENT_3D('',#1555,#1246,#1247);
#1072=AXIS2_PLACEMENT_3D('',#1556,#1248,#1249);
#1073=AXIS2_PLACEMENT_3D('',#1558,#1250,#1251);
#1074=AXIS2_PLACEMENT_3D('',#1560,#1252,#1253);
#1075=AXIS2_PLACEMENT_3D('',#1561,#1254,#1255);
#1076=AXIS2_PLACEMENT_3D('',#1563,#1256,#1257);
#1077=AXIS2_PLACEMENT_3D('',#1565,#1258,#1259);
#1078=AXIS2_PLACEMENT_3D('',#1566,#1260,#1261);
#1079=AXIS2_PLACEMENT_3D('',#1568,#1262,#1263);
#1080=AXIS2_PLACEMENT_3D('',#1570,#1264,#1265);
#1081=AXIS2_PLACEMENT_3D('',#1571,#1266,#1267);
#1082=AXIS2_PLACEMENT_3D('',#1573,#1268,#1269);
#1083=AXIS2_PLACEMENT_3D('',#1575,#1270,#1271);
#1084=AXIS2_PLACEMENT_3D('',#1576,#1272,#1273);
#1085=AXIS2_PLACEMENT_3D('',#1578,#1274,#1275);
#1086=AXIS2_PLACEMENT_3D('',#1580,#1276,#1277);
#1087=AXIS2_PLACEMENT_3D('',#1581,#1278,#1279);
#1088=AXIS2_PLACEMENT_3D('',#1583,#1280,#1281);
#1089=AXIS2_PLACEMENT_3D('',#1585,#1282,#1283);
#1090=AXIS2_PLACEMENT_3D('',#1586,#1284,#1285);
#1091=AXIS2_PLACEMENT_3D('',#1588,#1286,#1287);
#1092=AXIS2_PLACEMENT_3D('',#1590,#1288,#1289);
#1093=AXIS2_PLACEMENT_3D('',#1591,#1290,#1291);
#1094=AXIS2_PLACEMENT_3D('',#1593,#1292,#1293);
#1095=AXIS2_PLACEMENT_3D('',#1595,#1294,#1295);
#1096=AXIS2_PLACEMENT_3D('',#1596,#1296,#1297);
#1097=AXIS2_PLACEMENT_3D('',#1598,#1298,#1299);
#1098=AXIS2_PLACEMENT_3D('',#1600,#1300,#1301);
#1099=AXIS2_PLACEMENT_3D('',#1601,#1302,#1303);
#1100=AXIS2_PLACEMENT_3D('',#1603,#1304,#1305);
#1101=AXIS2_PLACEMENT_3D('',#1605,#1306,#1307);
#1102=AXIS2_PLACEMENT_3D('',#1606,#1308,#1309);
#1103=AXIS2_PLACEMENT_3D('',#1608,#1310,#1311);
#1104=AXIS2_PLACEMENT_3D('',#1610,#1312,#1313);
#1105=AXIS2_PLACEMENT_3D('',#1611,#1314,#1315);
#1106=AXIS2_PLACEMENT_3D('',#1613,#1316,#1317);
#1107=AXIS2_PLACEMENT_3D('',#1615,#1318,#1319);
#1108=AXIS2_PLACEMENT_3D('',#1616,#1320,#1321);
#1109=AXIS2_PLACEMENT_3D('',#1618,#1322,#1323);
#1110=AXIS2_PLACEMENT_3D('',#1620,#1324,#1325);
#1111=AXIS2_PLACEMENT_3D('',#1621,#1326,#1327);
#1112=AXIS2_PLACEMENT_3D('',#1623,#1328,#1329);
#1113=AXIS2_PLACEMENT_3D('',#1625,#1330,#1331);
#1114=AXIS2_PLACEMENT_3D('',#1626,#1332,#1333);
#1115=AXIS2_PLACEMENT_3D('',#1628,#1334,#1335);
#1116=AXIS2_PLACEMENT_3D('',#1630,#1336,#1337);
#1117=AXIS2_PLACEMENT_3D('',#1631,#1338,#1339);
#1118=AXIS2_PLACEMENT_3D('',#1633,#1340,#1341);
#1119=AXIS2_PLACEMENT_3D('',#1635,#1342,#1343);
#1120=AXIS2_PLACEMENT_3D('',#1636,#1344,#1345);
#1121=AXIS2_PLACEMENT_3D('',#1638,#1346,#1347);
#1122=AXIS2_PLACEMENT_3D('',#1640,#1348,#1349);
#1123=AXIS2_PLACEMENT_3D('',#1641,#1350,#1351);
#1124=AXIS2_PLACEMENT_3D('',#1643,#1352,#1353);
#1125=AXIS2_PLACEMENT_3D('',#1645,#1354,#1355);
#1126=AXIS2_PLACEMENT_3D('',#1646,#1356,#1357);
#1127=AXIS2_PLACEMENT_3D('',#1648,#1358,#1359);
#1128=AXIS2_PLACEMENT_3D('',#1650,#1360,#1361);
#1129=AXIS2_PLACEMENT_3D('',#1651,#1362,#1363);
#1130=AXIS2_PLACEMENT_3D('',#1653,#1364,#1365);
#1131=AXIS2_PLACEMENT_3D('',#1655,#1366,#1367);
#1132=AXIS2_PLACEMENT_3D('',#1656,#1368,#1369);
#1133=AXIS2_PLACEMENT_3D('',#1658,#1370,#1371);
#1134=AXIS2_PLACEMENT_3D('',#1660,#1372,#1373);
#1135=AXIS2_PLACEMENT_3D('',#1661,#1374,#1375);
#1136=AXIS2_PLACEMENT_3D('',#1663,#1376,#1377);
#1137=AXIS2_PLACEMENT_3D('',#1665,#1378,#1379);
#1138=AXIS2_PLACEMENT_3D('',#1666,#1380,#1381);
#1139=AXIS2_PLACEMENT_3D('',#1668,#1382,#1383);
#1140=AXIS2_PLACEMENT_3D('',#1670,#1384,#1385);
#1141=AXIS2_PLACEMENT_3D('',#1671,#1386,#1387);
#1142=AXIS2_PLACEMENT_3D('',#1673,#1388,#1389);
#1143=AXIS2_PLACEMENT_3D('',#1675,#1390,#1391);
#1144=AXIS2_PLACEMENT_3D('',#1676,#1392,#1393);
#1145=AXIS2_PLACEMENT_3D('',#1678,#1394,#1395);
#1146=AXIS2_PLACEMENT_3D('',#1680,#1396,#1397);
#1147=AXIS2_PLACEMENT_3D('',#1681,#1398,#1399);
#1148=AXIS2_PLACEMENT_3D('',#1683,#1400,#1401);
#1149=AXIS2_PLACEMENT_3D('',#1685,#1402,#1403);
#1150=AXIS2_PLACEMENT_3D('',#1686,#1404,#1405);
#1151=AXIS2_PLACEMENT_3D('',#1688,#1406,#1407);
#1152=AXIS2_PLACEMENT_3D('',#1690,#1408,#1409);
#1153=AXIS2_PLACEMENT_3D('',#1691,#1410,#1411);
#1154=AXIS2_PLACEMENT_3D('',#1693,#1412,#1413);
#1155=AXIS2_PLACEMENT_3D('',#1695,#1414,#1415);
#1156=AXIS2_PLACEMENT_3D('',#1696,#1416,#1417);
#1157=AXIS2_PLACEMENT_3D('',#1698,#1418,#1419);
#1158=AXIS2_PLACEMENT_3D('',#1700,#1420,#1421);
#1159=AXIS2_PLACEMENT_3D('',#1701,#1422,#1423);
#1160=AXIS2_PLACEMENT_3D('',#1703,#1424,#1425);
#1161=AXIS2_PLACEMENT_3D('',#1705,#1426,#1427);
#1162=AXIS2_PLACEMENT_3D('',#1706,#1428,#1429);
#1163=AXIS2_PLACEMENT_3D('',#1708,#1430,#1431);
#1164=AXIS2_PLACEMENT_3D('',#1710,#1432,#1433);
#1165=AXIS2_PLACEMENT_3D('',#1711,#1434,#1435);
#1166=AXIS2_PLACEMENT_3D('',#1713,#1436,#1437);
#1167=AXIS2_PLACEMENT_3D('',#1715,#1438,#1439);
#1168=AXIS2_PLACEMENT_3D('',#1716,#1440,#1441);
#1169=AXIS2_PLACEMENT_3D('',#1718,#1442,#1443);
#1170=AXIS2_PLACEMENT_3D('',#1720,#1444,#1445);
#1171=AXIS2_PLACEMENT_3D('',#1721,#1446,#1447);
#1172=AXIS2_PLACEMENT_3D('',#1723,#1448,#1449);
#1173=AXIS2_PLACEMENT_3D('',#1725,#1450,#1451);
#1174=AXIS2_PLACEMENT_3D('',#1726,#1452,#1453);
#1175=AXIS2_PLACEMENT_3D('',#1728,#1454,#1455);
#1176=AXIS2_PLACEMENT_3D('',#1730,#1456,#1457);
#1177=AXIS2_PLACEMENT_3D('',#1731,#1458,#1459);
#1178=AXIS2_PLACEMENT_3D('',#1733,#1460,#1461);
#1179=AXIS2_PLACEMENT_3D('',#1735,#1462,#1463);
#1180=AXIS2_PLACEMENT_3D('',#1736,#1464,#1465);
#1181=AXIS2_PLACEMENT_3D('',#1738,#1466,#1467);
#1182=AXIS2_PLACEMENT_3D('',#1740,#1468,#1469);
#1183=AXIS2_PLACEMENT_3D('',#1741,#1470,#1471);
#1184=AXIS2_PLACEMENT_3D('',#1743,#1472,#1473);
#1185=AXIS2_PLACEMENT_3D('',#1745,#1474,#1475);
#1186=AXIS2_PLACEMENT_3D('',#1746,#1476,#1477);
#1187=AXIS2_PLACEMENT_3D('',#1748,#1478,#1479);
#1188=AXIS2_PLACEMENT_3D('',#1750,#1480,#1481);
#1189=AXIS2_PLACEMENT_3D('',#1751,#1482,#1483);
#1190=AXIS2_PLACEMENT_3D('',#1753,#1484,#1485);
#1191=AXIS2_PLACEMENT_3D('',#1755,#1486,#1487);
#1192=AXIS2_PLACEMENT_3D('',#1756,#1488,#1489);
#1193=AXIS2_PLACEMENT_3D('',#1758,#1490,#1491);
#1194=AXIS2_PLACEMENT_3D('',#1760,#1492,#1493);
#1195=AXIS2_PLACEMENT_3D('',#1761,#1494,#1495);
#1196=AXIS2_PLACEMENT_3D('',#1763,#1496,#1497);
#1197=AXIS2_PLACEMENT_3D('',#1765,#1498,#1499);
#1198=AXIS2_PLACEMENT_3D('',#1766,#1500,#1501);
#1199=AXIS2_PLACEMENT_3D('',#1768,#1502,#1503);
#1200=AXIS2_PLACEMENT_3D('',#1770,#1504,#1505);
#1201=AXIS2_PLACEMENT_3D('',#1771,#1506,#1507);
#1202=DIRECTION('',(0.,0.,1.));
#1203=DIRECTION('',(1.,0.,0.));
#1204=DIRECTION('',(-1.,0.,0.));
#1205=DIRECTION('',(0.,0.,1.));
#1206=DIRECTION('',(0.,1.,0.));
#1207=DIRECTION('',(0.,0.,-1.));
#1208=DIRECTION('',(0.,1.,0.));
#1209=DIRECTION('',(0.,0.,-1.));
#1210=DIRECTION('',(0.,1.,0.));
#1211=DIRECTION('',(0.,0.,1.));
#1212=DIRECTION('',(1.,0.,0.));
#1213=DIRECTION('',(0.,0.,-1.));
#1214=DIRECTION('',(1.,0.,0.));
#1215=DIRECTION('',(1.,0.,0.));
#1216=DIRECTION('',(0.,0.,-1.));
#1217=DIRECTION('',(0.,-1.,0.));
#1218=DIRECTION('',(0.,0.,-1.));
#1219=DIRECTION('',(0.,-1.,0.));
#1220=DIRECTION('',(0.,1.,0.));
#1221=DIRECTION('',(0.,0.,1.));
#1222=DIRECTION('',(1.,0.,0.));
#1223=DIRECTION('',(0.,0.,-1.));
#1224=DIRECTION('',(1.,0.,0.));
#1225=DIRECTION('',(-1.,0.,0.));
#1226=DIRECTION('',(0.,0.,1.));
#1227=DIRECTION('',(0.,1.,0.));
#1228=DIRECTION('',(0.,0.,-1.));
#1229=DIRECTION('',(0.,1.,0.));
#1230=DIRECTION('',(0.,1.,0.));
#1231=DIRECTION('',(0.,0.,1.));
#1232=DIRECTION('',(1.,0.,0.));
#1233=DIRECTION('',(1.,0.,0.));
#1234=DIRECTION('',(0.,0.,-1.));
#1235=DIRECTION('',(-1.,0.,0.));
#1236=DIRECTION('',(0.,0.,1.));
#1237=DIRECTION('',(1.,0.,0.));
#1238=DIRECTION('',(0.,0.,1.));
#1239=DIRECTION('',(1.,0.,0.));
#1240=DIRECTION('',(0.,0.,-1.));
#1241=DIRECTION('',(-1.,0.,0.));
#1242=DIRECTION('',(0.,0.,1.));
#1243=DIRECTION('',(1.,0.,0.));
#1244=DIRECTION('',(0.,0.,1.));
#1245=DIRECTION('',(1.,0.,0.));
#1246=DIRECTION('',(0.,0.,-1.));
#1247=DIRECTION('',(-1.,0.,0.));
#1248=DIRECTION('',(0.,0.,1.));
#1249=DIRECTION('',(1.,0.,0.));
#1250=DIRECTION('',(0.,0.,1.));
#1251=DIRECTION('',(1.,0.,0.));
#1252=DIRECTION('',(0.,0.,-1.));
#1253=DIRECTION('',(-1.,0.,0.));
#1254=DIRECTION('',(0.,0.,1.));
#1255=DIRECTION('',(1.,0.,0.));
#1256=DIRECTION('',(0.,0.,1.));
#1257=DIRECTION('',(1.,0.,0.));
#1258=DIRECTION('',(0.,0.,-1.));
#1259=DIRECTION('',(-1.,0.,0.));
#1260=DIRECTION('',(0.,0.,1.));
#1261=DIRECTION('',(1.,0.,0.));
#1262=DIRECTION('',(0.,0.,1.));
#1263=DIRECTION('',(1.,0.,0.));
#1264=DIRECTION('',(0.,0.,-1.));
#1265=DIRECTION('',(-1.,0.,0.));
#1266=DIRECTION('',(0.,0.,1.));
#1267=DIRECTION('',(1.,0.,0.));
#1268=DIRECTION('',(0.,0.,1.));
#1269=DIRECTION('',(1.,0.,0.));
#1270=DIRECTION('',(0.,0.,-1.));
#1271=DIRECTION('',(-1.,0.,0.));
#1272=DIRECTION('',(0.,0.,1.));
#1273=DIRECTION('',(1.,0.,0.));
#1274=DIRECTION('',(0.,0.,1.));
#1275=DIRECTION('',(1.,0.,0.));
#1276=DIRECTION('',(0.,0.,-1.));
#1277=DIRECTION('',(-1.,0.,0.));
#1278=DIRECTION('',(0.,0.,1.));
#1279=DIRECTION('',(1.,0.,0.));
#1280=DIRECTION('',(0.,0.,1.));
#1281=DIRECTION('',(1.,0.,0.));
#1282=DIRECTION('',(0.,0.,-1.));
#1283=DIRECTION('',(-1.,0.,0.));
#1284=DIRECTION('',(0.,0.,1.));
#1285=DIRECTION('',(1.,0.,0.));
#1286=DIRECTION('',(0.,0.,1.));
#1287=DIRECTION('',(1.,0.,0.));
#1288=DIRECTION('',(0.,0.,-1.));
#1289=DIRECTION('',(-1.,0.,0.));
#1290=DIRECTION('',(0.,0.,1.));
#1291=DIRECTION('',(1.,0.,0.));
#1292=DIRECTION('',(0.,0.,1.));
#1293=DIRECTION('',(1.,0.,0.));
#1294=DIRECTION('',(0.,0.,-1.));
#1295=DIRECTION('',(-1.,0.,0.));
#1296=DIRECTION('',(0.,0.,1.));
#1297=DIRECTION('',(1.,0.,0.));
#1298=DIRECTION('',(0.,0.,1.));
#1299=DIRECTION('',(1.,0.,0.));
#1300=DIRECTION('',(0.,0.,-1.));
#1301=DIRECTION('',(-1.,0.,0.));
#1302=DIRECTION('',(0.,0.,1.));
#1303=DIRECTION('',(1.,0.,0.));
#1304=DIRECTION('',(0.,0.,1.));
#1305=DIRECTION('',(1.,0.,0.));
#1306=DIRECTION('',(0.,0.,-1.));
#1307=DIRECTION('',(-1.,0.,0.));
#1308=DIRECTION('',(0.,0.,1.));
#1309=DIRECTION('',(1.,0.,0.));
#1310=DIRECTION('',(0.,0.,1.));
#1311=DIRECTION('',(1.,0.,0.));
#1312=DIRECTION('',(0.,0.,-1.));
#1313=DIRECTION('',(-1.,0.,0.));
#1314=DIRECTION('',(0.,0.,1.));
#1315=DIRECTION('',(1.,0.,0.));
#1316=DIRECTION('',(0.,0.,1.));
#1317=DIRECTION('',(1.,0.,0.));
#1318=DIRECTION('',(0.,0.,-1.));
#1319=DIRECTION('',(-1.,0.,0.));
#1320=DIRECTION('',(0.,0.,1.));
#1321=DIRECTION('',(1.,0.,0.));
#1322=DIRECTION('',(0.,0.,1.));
#1323=DIRECTION('',(1.,0.,0.));
#1324=DIRECTION('',(0.,0.,-1.));
#1325=DIRECTION('',(-1.,0.,0.));
#1326=DIRECTION('',(0.,0.,1.));
#1327=DIRECTION('',(1.,0.,0.));
#1328=DIRECTION('',(0.,0.,1.));
#1329=DIRECTION('',(1.,0.,0.));
#1330=DIRECTION('',(0.,0.,-1.));
#1331=DIRECTION('',(-1.,0.,0.));
#1332=DIRECTION('',(0.,0.,1.));
#1333=DIRECTION('',(1.,0.,0.));
#1334=DIRECTION('',(0.,0.,1.));
#1335=DIRECTION('',(1.,0.,0.));
#1336=DIRECTION('',(0.,0.,-1.));
#1337=DIRECTION('',(-1.,0.,0.));
#1338=DIRECTION('',(0.,0.,1.));
#1339=DIRECTION('',(1.,0.,0.));
#1340=DIRECTION('',(0.,0.,1.));
#1341=DIRECTION('',(1.,0.,0.));
#1342=DIRECTION('',(0.,0.,-1.));
#1343=DIRECTION('',(-1.,0.,0.));
#1344=DIRECTION('',(0.,0.,1.));
#1345=DIRECTION('',(1.,0.,0.));
#1346=DIRECTION('',(0.,0.,1.));
#1347=DIRECTION('',(1.,0.,0.));
#1348=DIRECTION('',(0.,0.,-1.));
#1349=DIRECTION('',(-1.,0.,0.));
#1350=DIRECTION('',(0.,0.,1.));
#1351=DIRECTION('',(1.,0.,0.));
#1352=DIRECTION('',(0.,0.,1.));
#1353=DIRECTION('',(1.,0.,0.));
#1354=DIRECTION('',(0.,0.,-1.));
#1355=DIRECTION('',(-1.,0.,0.));
#1356=DIRECTION('',(0.,0.,1.));
#1357=DIRECTION('',(1.,0.,0.));
#1358=DIRECTION('',(0.,0.,1.));
#1359=DIRECTION('',(1.,0.,0.));
#1360=DIRECTION('',(0.,0.,-1.));
#1361=DIRECTION('',(-1.,0.,0.));
#1362=DIRECTION('',(0.,0.,1.));
#1363=DIRECTION('',(1.,0.,0.));
#1364=DIRECTION('',(0.,0.,1.));
#1365=DIRECTION('',(1.,0.,0.));
#1366=DIRECTION('',(0.,0.,-1.));
#1367=DIRECTION('',(-1.,0.,0.));
#1368=DIRECTION('',(0.,0.,1.));
#1369=DIRECTION('',(1.,0.,0.));
#1370=DIRECTION('',(0.,0.,1.));
#1371=DIRECTION('',(1.,0.,0.));
#1372=DIRECTION('',(0.,0.,-1.));
#1373=DIRECTION('',(-1.,0.,0.));
#1374=DIRECTION('',(0.,0.,1.));
#1375=DIRECTION('',(1.,0.,0.));
#1376=DIRECTION('',(0.,0.,1.));
#1377=DIRECTION('',(1.,0.,0.));
#1378=DIRECTION('',(0.,0.,-1.));
#1379=DIRECTION('',(-1.,0.,0.));
#1380=DIRECTION('',(0.,0.,1.));
#1381=DIRECTION('',(1.,0.,0.));
#1382=DIRECTION('',(0.,0.,1.));
#1383=DIRECTION('',(1.,0.,0.));
#1384=DIRECTION('',(0.,0.,-1.));
#1385=DIRECTION('',(-1.,0.,0.));
#1386=DIRECTION('',(0.,0.,1.));
#1387=DIRECTION('',(1.,0.,0.));
#1388=DIRECTION('',(0.,0.,1.));
#1389=DIRECTION('',(1.,0.,0.));
#1390=DIRECTION('',(0.,0.,-1.));
#1391=DIRECTION('',(-1.,0.,0.));
#1392=DIRECTION('',(0.,0.,1.));
#1393=DIRECTION('',(1.,0.,0.));
#1394=DIRECTION('',(0.,0.,1.));
#1395=DIRECTION('',(1.,0.,0.));
#1396=DIRECTION('',(0.,0.,-1.));
#1397=DIRECTION('',(-1.,0.,0.));
#1398=DIRECTION('',(0.,0.,1.));
#1399=DIRECTION('',(1.,0.,0.));
#1400=DIRECTION('',(0.,0.,1.));
#1401=DIRECTION('',(1.,0.,0.));
#1402=DIRECTION('',(0.,0.,-1.));
#1403=DIRECTION('',(-1.,0.,0.));
#1404=DIRECTION('',(0.,0.,1.));
#1405=DIRECTION('',(1.,0.,0.));
#1406=DIRECTION('',(0.,0.,1.));
#1407=DIRECTION('',(1.,0.,0.));
#1408=DIRECTION('',(0.,0.,-1.));
#1409=DIRECTION('',(-1.,0.,0.));
#1410=DIRECTION('',(0.,0.,1.));
#1411=DIRECTION('',(1.,0.,0.));
#1412=DIRECTION('',(0.,0.,1.));
#1413=DIRECTION('',(1.,0.,0.));
#1414=DIRECTION('',(0.,0.,-1.));
#1415=DIRECTION('',(-1.,0.,0.));
#1416=DIRECTION('',(0.,0.,1.));
#1417=DIRECTION('',(1.,0.,0.));
#1418=DIRECTION('',(0.,0.,1.));
#1419=DIRECTION('',(1.,0.,0.));
#1420=DIRECTION('',(0.,0.,-1.));
#1421=DIRECTION('',(-1.,0.,0.));
#1422=DIRECTION('',(0.,0.,1.));
#1423=DIRECTION('',(1.,0.,0.));
#1424=DIRECTION('',(0.,0.,1.));
#1425=DIRECTION('',(1.,0.,0.));
#1426=DIRECTION('',(0.,0.,-1.));
#1427=DIRECTION('',(-1.,0.,0.));
#1428=DIRECTION('',(0.,0.,1.));
#1429=DIRECTION('',(1.,0.,0.));
#1430=DIRECTION('',(0.,0.,1.));
#1431=DIRECTION('',(1.,0.,0.));
#1432=DIRECTION('',(0.,0.,-1.));
#1433=DIRECTION('',(-1.,0.,0.));
#1434=DIRECTION('',(0.,0.,1.));
#1435=DIRECTION('',(1.,0.,0.));
#1436=DIRECTION('',(0.,0.,1.));
#1437=DIRECTION('',(1.,0.,0.));
#1438=DIRECTION('',(0.,0.,-1.));
#1439=DIRECTION('',(-1.,0.,0.));
#1440=DIRECTION('',(0.,0.,1.));
#1441=DIRECTION('',(1.,0.,0.));
#1442=DIRECTION('',(0.,0.,1.));
#1443=DIRECTION('',(1.,0.,0.));
#1444=DIRECTION('',(0.,0.,-1.));
#1445=DIRECTION('',(-1.,0.,0.));
#1446=DIRECTION('',(0.,0.,1.));
#1447=DIRECTION('',(1.,0.,0.));
#1448=DIRECTION('',(0.,0.,1.));
#1449=DIRECTION('',(1.,0.,0.));
#1450=DIRECTION('',(0.,0.,-1.));
#1451=DIRECTION('',(-1.,0.,0.));
#1452=DIRECTION('',(0.,0.,1.));
#1453=DIRECTION('',(1.,0.,0.));
#1454=DIRECTION('',(0.,0.,1.));
#1455=DIRECTION('',(1.,0.,0.));
#1456=DIRECTION('',(0.,0.,-1.));
#1457=DIRECTION('',(-1.,0.,0.));
#1458=DIRECTION('',(0.,0.,1.));
#1459=DIRECTION('',(1.,0.,0.));
#1460=DIRECTION('',(0.,0.,1.));
#1461=DIRECTION('',(1.,0.,0.));
#1462=DIRECTION('',(0.,0.,-1.));
#1463=DIRECTION('',(-1.,0.,0.));
#1464=DIRECTION('',(0.,0.,1.));
#1465=DIRECTION('',(1.,0.,0.));
#1466=DIRECTION('',(0.,0.,1.));
#1467=DIRECTION('',(1.,0.,0.));
#1468=DIRECTION('',(0.,0.,-1.));
#1469=DIRECTION('',(-1.,0.,0.));
#1470=DIRECTION('',(0.,0.,1.));
#1471=DIRECTION('',(1.,0.,0.));
#1472=DIRECTION('',(0.,0.,1.));
#1473=DIRECTION('',(1.,0.,0.));
#1474=DIRECTION('',(0.,0.,-1.));
#1475=DIRECTION('',(-1.,0.,0.));
#1476=DIRECTION('',(0.,0.,1.));
#1477=DIRECTION('',(1.,0.,0.));
#1478=DIRECTION('',(0.,0.,1.));
#1479=DIRECTION('',(1.,0.,0.));
#1480=DIRECTION('',(0.,0.,-1.));
#1481=DIRECTION('',(-1.,0.,0.));
#1482=DIRECTION('',(0.,0.,1.));
#1483=DIRECTION('',(1.,0.,0.));
#1484=DIRECTION('',(0.,0.,1.));
#1485=DIRECTION('',(1.,0.,0.));
#1486=DIRECTION('',(0.,0.,-1.));
#1487=DIRECTION('',(-1.,0.,0.));
#1488=DIRECTION('',(0.,0.,1.));
#1489=DIRECTION('',(1.,0.,0.));
#1490=DIRECTION('',(0.,0.,1.));
#1491=DIRECTION('',(1.,0.,0.));
#1492=DIRECTION('',(0.,0.,-1.));
#1493=DIRECTION('',(-1.,0.,0.));
#1494=DIRECTION('',(0.,0.,1.));
#1495=DIRECTION('',(1.,0.,0.));
#1496=DIRECTION('',(0.,0.,1.));
#1497=DIRECTION('',(1.,0.,0.));
#1498=DIRECTION('',(0.,0.,-1.));
#1499=DIRECTION('',(-1.,0.,0.));
#1500=DIRECTION('',(0.,0.,1.));
#1501=DIRECTION('',(1.,0.,0.));
#1502=DIRECTION('',(0.,0.,1.));
#1503=DIRECTION('',(1.,0.,0.));
#1504=DIRECTION('',(0.,0.,1.));
#1505=DIRECTION('',(1.,0.,0.));
#1506=DIRECTION('',(0.,0.,1.));
#1507=DIRECTION('',(1.,0.,0.));
#1508=CARTESIAN_POINT('',(0.,0.,0.));
#1509=CARTESIAN_POINT('',(0.,0.015,0.004));
#1510=CARTESIAN_POINT('',(0.,0.015,0.));
#1511=CARTESIAN_POINT('',(0.,-0.022,0.));
#1512=CARTESIAN_POINT('',(0.,0.03,0.));
#1513=CARTESIAN_POINT('',(0.,-0.022,0.004));
#1514=CARTESIAN_POINT('',(0.,-0.022,0.004));
#1515=CARTESIAN_POINT('',(0.,0.015,0.004));
#1516=CARTESIAN_POINT('',(0.,0.03,0.004));
#1517=CARTESIAN_POINT('',(0.,0.03,0.004));
#1518=CARTESIAN_POINT('',(0.02,-0.022,0.004));
#1519=CARTESIAN_POINT('',(0.02,-0.022,0.));
#1520=CARTESIAN_POINT('',(0.04,-0.022,0.));
#1521=CARTESIAN_POINT('',(0.04,-0.022,0.004));
#1522=CARTESIAN_POINT('',(0.04,-0.022,0.004));
#1523=CARTESIAN_POINT('',(0.02,-0.022,0.004));
#1524=CARTESIAN_POINT('',(0.04,-0.011,0.004));
#1525=CARTESIAN_POINT('',(0.04,-0.011,0.));
#1526=CARTESIAN_POINT('',(0.04,0.,0.));
#1527=CARTESIAN_POINT('',(0.04,0.,0.004));
#1528=CARTESIAN_POINT('',(0.04,0.,0.004));
#1529=CARTESIAN_POINT('',(0.04,-0.011,0.004));
#1530=CARTESIAN_POINT('',(0.195,0.,0.004));
#1531=CARTESIAN_POINT('',(0.195,0.,0.));
#1532=CARTESIAN_POINT('',(0.35,0.,0.));
#1533=CARTESIAN_POINT('',(0.35,0.,0.004));
#1534=CARTESIAN_POINT('',(0.35,0.,0.004));
#1535=CARTESIAN_POINT('',(0.195,0.,0.004));
#1536=CARTESIAN_POINT('',(0.35,0.015,0.004));
#1537=CARTESIAN_POINT('',(0.35,0.015,0.));
#1538=CARTESIAN_POINT('',(0.35,0.03,0.));
#1539=CARTESIAN_POINT('',(0.35,0.03,0.004));
#1540=CARTESIAN_POINT('',(0.35,0.03,0.004));
#1541=CARTESIAN_POINT('',(0.35,0.015,0.004));
#1542=CARTESIAN_POINT('',(0.175,0.03,0.004));
#1543=CARTESIAN_POINT('',(0.175,0.03,0.));
#1544=CARTESIAN_POINT('',(0.175,0.03,0.004));
#1545=CARTESIAN_POINT('',(0.3452,0.0048,0.004));
#1546=CARTESIAN_POINT('',(0.3452,0.0048,0.004));
#1547=CARTESIAN_POINT('',(0.347,0.0048,0.004));
#1548=CARTESIAN_POINT('',(0.3452,0.0048,0.));
#1549=CARTESIAN_POINT('',(0.347,0.0048,0.));
#1550=CARTESIAN_POINT('',(0.3377,0.0177903810567666,0.004));
#1551=CARTESIAN_POINT('',(0.3377,0.0177903810567666,0.004));
#1552=CARTESIAN_POINT('',(0.3395,0.0177903810567666,0.004));
#1553=CARTESIAN_POINT('',(0.3377,0.0177903810567666,0.));
#1554=CARTESIAN_POINT('',(0.3395,0.0177903810567666,0.));
#1555=CARTESIAN_POINT('',(0.3211,0.0177903810567666,0.004));
#1556=CARTESIAN_POINT('',(0.3211,0.0177903810567666,0.004));
#1557=CARTESIAN_POINT('',(0.3229,0.0177903810567666,0.004));
#1558=CARTESIAN_POINT('',(0.3211,0.0177903810567666,0.));
#1559=CARTESIAN_POINT('',(0.3229,0.0177903810567666,0.));
#1560=CARTESIAN_POINT('',(0.3286,0.0048,0.004));
#1561=CARTESIAN_POINT('',(0.3286,0.0048,0.004));
#1562=CARTESIAN_POINT('',(0.3304,0.0048,0.004));
#1563=CARTESIAN_POINT('',(0.3286,0.0048,0.));
#1564=CARTESIAN_POINT('',(0.3304,0.0048,0.));
#1565=CARTESIAN_POINT('',(0.3045,0.0177903810567666,0.004));
#1566=CARTESIAN_POINT('',(0.3045,0.0177903810567666,0.004));
#1567=CARTESIAN_POINT('',(0.3063,0.0177903810567666,0.004));
#1568=CARTESIAN_POINT('',(0.3045,0.0177903810567666,0.));
#1569=CARTESIAN_POINT('',(0.3063,0.0177903810567666,0.));
#1570=CARTESIAN_POINT('',(0.312,0.0048,0.004));
#1571=CARTESIAN_POINT('',(0.312,0.0048,0.004));
#1572=CARTESIAN_POINT('',(0.3138,0.0048,0.004));
#1573=CARTESIAN_POINT('',(0.312,0.0048,0.));
#1574=CARTESIAN_POINT('',(0.3138,0.0048,0.));
#1575=CARTESIAN_POINT('',(0.2879,0.0177903810567666,0.004));
#1576=CARTESIAN_POINT('',(0.2879,0.0177903810567666,0.004));
#1577=CARTESIAN_POINT('',(0.2897,0.0177903810567666,0.004));
#1578=CARTESIAN_POINT('',(0.2879,0.0177903810567666,0.));
#1579=CARTESIAN_POINT('',(0.2897,0.0177903810567666,0.));
#1580=CARTESIAN_POINT('',(0.2954,0.0048,0.004));
#1581=CARTESIAN_POINT('',(0.2954,0.0048,0.004));
#1582=CARTESIAN_POINT('',(0.2972,0.0048,0.004));
#1583=CARTESIAN_POINT('',(0.2954,0.0048,0.));
#1584=CARTESIAN_POINT('',(0.2972,0.0048,0.));
#1585=CARTESIAN_POINT('',(0.2713,0.0177903810567666,0.004));
#1586=CARTESIAN_POINT('',(0.2713,0.0177903810567666,0.004));
#1587=CARTESIAN_POINT('',(0.2731,0.0177903810567666,0.004));
#1588=CARTESIAN_POINT('',(0.2713,0.0177903810567666,0.));
#1589=CARTESIAN_POINT('',(0.2731,0.0177903810567666,0.));
#1590=CARTESIAN_POINT('',(0.2788,0.0048,0.004));
#1591=CARTESIAN_POINT('',(0.2788,0.0048,0.004));
#1592=CARTESIAN_POINT('',(0.2806,0.0048,0.004));
#1593=CARTESIAN_POINT('',(0.2788,0.0048,0.));
#1594=CARTESIAN_POINT('',(0.2806,0.0048,0.));
#1595=CARTESIAN_POINT('',(0.2547,0.0177903810567666,0.004));
#1596=CARTESIAN_POINT('',(0.2547,0.0177903810567666,0.004));
#1597=CARTESIAN_POINT('',(0.2565,0.0177903810567666,0.004));
#1598=CARTESIAN_POINT('',(0.2547,0.0177903810567666,0.));
#1599=CARTESIAN_POINT('',(0.2565,0.0177903810567666,0.));
#1600=CARTESIAN_POINT('',(0.2622,0.0048,0.004));
#1601=CARTESIAN_POINT('',(0.2622,0.0048,0.004));
#1602=CARTESIAN_POINT('',(0.264,0.0048,0.004));
#1603=CARTESIAN_POINT('',(0.2622,0.0048,0.));
#1604=CARTESIAN_POINT('',(0.264,0.0048,0.));
#1605=CARTESIAN_POINT('',(0.2381,0.0177903810567666,0.004));
#1606=CARTESIAN_POINT('',(0.2381,0.0177903810567666,0.004));
#1607=CARTESIAN_POINT('',(0.2399,0.0177903810567666,0.004));
#1608=CARTESIAN_POINT('',(0.2381,0.0177903810567666,0.));
#1609=CARTESIAN_POINT('',(0.2399,0.0177903810567666,0.));
#1610=CARTESIAN_POINT('',(0.2456,0.0048,0.004));
#1611=CARTESIAN_POINT('',(0.2456,0.0048,0.004));
#1612=CARTESIAN_POINT('',(0.2474,0.0048,0.004));
#1613=CARTESIAN_POINT('',(0.2456,0.0048,0.));
#1614=CARTESIAN_POINT('',(0.2474,0.0048,0.));
#1615=CARTESIAN_POINT('',(0.2215,0.0177903810567666,0.004));
#1616=CARTESIAN_POINT('',(0.2215,0.0177903810567666,0.004));
#1617=CARTESIAN_POINT('',(0.2233,0.0177903810567666,0.004));
#1618=CARTESIAN_POINT('',(0.2215,0.0177903810567666,0.));
#1619=CARTESIAN_POINT('',(0.2233,0.0177903810567666,0.));
#1620=CARTESIAN_POINT('',(0.229,0.0048,0.004));
#1621=CARTESIAN_POINT('',(0.229,0.0048,0.004));
#1622=CARTESIAN_POINT('',(0.2308,0.0048,0.004));
#1623=CARTESIAN_POINT('',(0.229,0.0048,0.));
#1624=CARTESIAN_POINT('',(0.2308,0.0048,0.));
#1625=CARTESIAN_POINT('',(0.2049,0.0177903810567666,0.004));
#1626=CARTESIAN_POINT('',(0.2049,0.0177903810567666,0.004));
#1627=CARTESIAN_POINT('',(0.2067,0.0177903810567666,0.004));
#1628=CARTESIAN_POINT('',(0.2049,0.0177903810567666,0.));
#1629=CARTESIAN_POINT('',(0.2067,0.0177903810567666,0.));
#1630=CARTESIAN_POINT('',(0.2124,0.0048,0.004));
#1631=CARTESIAN_POINT('',(0.2124,0.0048,0.004));
#1632=CARTESIAN_POINT('',(0.2142,0.0048,0.004));
#1633=CARTESIAN_POINT('',(0.2124,0.0048,0.));
#1634=CARTESIAN_POINT('',(0.2142,0.0048,0.));
#1635=CARTESIAN_POINT('',(0.1883,0.0177903810567666,0.004));
#1636=CARTESIAN_POINT('',(0.1883,0.0177903810567666,0.004));
#1637=CARTESIAN_POINT('',(0.1901,0.0177903810567666,0.004));
#1638=CARTESIAN_POINT('',(0.1883,0.0177903810567666,0.));
#1639=CARTESIAN_POINT('',(0.1901,0.0177903810567666,0.));
#1640=CARTESIAN_POINT('',(0.1958,0.0048,0.004));
#1641=CARTESIAN_POINT('',(0.1958,0.0048,0.004));
#1642=CARTESIAN_POINT('',(0.1976,0.0048,0.004));
#1643=CARTESIAN_POINT('',(0.1958,0.0048,0.));
#1644=CARTESIAN_POINT('',(0.1976,0.0048,0.));
#1645=CARTESIAN_POINT('',(0.1717,0.0177903810567666,0.004));
#1646=CARTESIAN_POINT('',(0.1717,0.0177903810567666,0.004));
#1647=CARTESIAN_POINT('',(0.1735,0.0177903810567666,0.004));
#1648=CARTESIAN_POINT('',(0.1717,0.0177903810567666,0.));
#1649=CARTESIAN_POINT('',(0.1735,0.0177903810567666,0.));
#1650=CARTESIAN_POINT('',(0.1792,0.0048,0.004));
#1651=CARTESIAN_POINT('',(0.1792,0.0048,0.004));
#1652=CARTESIAN_POINT('',(0.181,0.0048,0.004));
#1653=CARTESIAN_POINT('',(0.1792,0.0048,0.));
#1654=CARTESIAN_POINT('',(0.181,0.0048,0.));
#1655=CARTESIAN_POINT('',(0.1551,0.0177903810567666,0.004));
#1656=CARTESIAN_POINT('',(0.1551,0.0177903810567666,0.004));
#1657=CARTESIAN_POINT('',(0.1569,0.0177903810567666,0.004));
#1658=CARTESIAN_POINT('',(0.1551,0.0177903810567666,0.));
#1659=CARTESIAN_POINT('',(0.1569,0.0177903810567666,0.));
#1660=CARTESIAN_POINT('',(0.1626,0.0048,0.004));
#1661=CARTESIAN_POINT('',(0.1626,0.0048,0.004));
#1662=CARTESIAN_POINT('',(0.1644,0.0048,0.004));
#1663=CARTESIAN_POINT('',(0.1626,0.0048,0.));
#1664=CARTESIAN_POINT('',(0.1644,0.0048,0.));
#1665=CARTESIAN_POINT('',(0.1385,0.0177903810567666,0.004));
#1666=CARTESIAN_POINT('',(0.1385,0.0177903810567666,0.004));
#1667=CARTESIAN_POINT('',(0.1403,0.0177903810567666,0.004));
#1668=CARTESIAN_POINT('',(0.1385,0.0177903810567666,0.));
#1669=CARTESIAN_POINT('',(0.1403,0.0177903810567666,0.));
#1670=CARTESIAN_POINT('',(0.146,0.0048,0.004));
#1671=CARTESIAN_POINT('',(0.146,0.0048,0.004));
#1672=CARTESIAN_POINT('',(0.1478,0.0048,0.004));
#1673=CARTESIAN_POINT('',(0.146,0.0048,0.));
#1674=CARTESIAN_POINT('',(0.1478,0.0048,0.));
#1675=CARTESIAN_POINT('',(0.1219,0.0177903810567666,0.004));
#1676=CARTESIAN_POINT('',(0.1219,0.0177903810567666,0.004));
#1677=CARTESIAN_POINT('',(0.1237,0.0177903810567666,0.004));
#1678=CARTESIAN_POINT('',(0.1219,0.0177903810567666,0.));
#1679=CARTESIAN_POINT('',(0.1237,0.0177903810567666,0.));
#1680=CARTESIAN_POINT('',(0.1294,0.0048,0.004));
#1681=CARTESIAN_POINT('',(0.1294,0.0048,0.004));
#1682=CARTESIAN_POINT('',(0.1312,0.0048,0.004));
#1683=CARTESIAN_POINT('',(0.1294,0.0048,0.));
#1684=CARTESIAN_POINT('',(0.1312,0.0048,0.));
#1685=CARTESIAN_POINT('',(0.1053,0.0177903810567666,0.004));
#1686=CARTESIAN_POINT('',(0.1053,0.0177903810567666,0.004));
#1687=CARTESIAN_POINT('',(0.1071,0.0177903810567666,0.004));
#1688=CARTESIAN_POINT('',(0.1053,0.0177903810567666,0.));
#1689=CARTESIAN_POINT('',(0.1071,0.0177903810567666,0.));
#1690=CARTESIAN_POINT('',(0.1128,0.0048,0.004));
#1691=CARTESIAN_POINT('',(0.1128,0.0048,0.004));
#1692=CARTESIAN_POINT('',(0.1146,0.0048,0.004));
#1693=CARTESIAN_POINT('',(0.1128,0.0048,0.));
#1694=CARTESIAN_POINT('',(0.1146,0.0048,0.));
#1695=CARTESIAN_POINT('',(0.0887,0.0177903810567666,0.004));
#1696=CARTESIAN_POINT('',(0.0887,0.0177903810567666,0.004));
#1697=CARTESIAN_POINT('',(0.0905,0.0177903810567666,0.004));
#1698=CARTESIAN_POINT('',(0.0887,0.0177903810567666,0.));
#1699=CARTESIAN_POINT('',(0.0905,0.0177903810567666,0.));
#1700=CARTESIAN_POINT('',(0.0962,0.0048,0.004));
#1701=CARTESIAN_POINT('',(0.0962,0.0048,0.004));
#1702=CARTESIAN_POINT('',(0.098,0.0048,0.004));
#1703=CARTESIAN_POINT('',(0.0962,0.0048,0.));
#1704=CARTESIAN_POINT('',(0.098,0.0048,0.));
#1705=CARTESIAN_POINT('',(0.0721,0.0177903810567666,0.004));
#1706=CARTESIAN_POINT('',(0.0721,0.0177903810567666,0.004));
#1707=CARTESIAN_POINT('',(0.0739,0.0177903810567666,0.004));
#1708=CARTESIAN_POINT('',(0.0721,0.0177903810567666,0.));
#1709=CARTESIAN_POINT('',(0.0739,0.0177903810567666,0.));
#1710=CARTESIAN_POINT('',(0.0796,0.0048,0.004));
#1711=CARTESIAN_POINT('',(0.0796,0.0048,0.004));
#1712=CARTESIAN_POINT('',(0.0814,0.0048,0.004));
#1713=CARTESIAN_POINT('',(0.0796,0.0048,0.));
#1714=CARTESIAN_POINT('',(0.0814,0.0048,0.));
#1715=CARTESIAN_POINT('',(0.0555,0.0177903810567666,0.004));
#1716=CARTESIAN_POINT('',(0.0555,0.0177903810567666,0.004));
#1717=CARTESIAN_POINT('',(0.0573,0.0177903810567666,0.004));
#1718=CARTESIAN_POINT('',(0.0555,0.0177903810567666,0.));
#1719=CARTESIAN_POINT('',(0.0573,0.0177903810567666,0.));
#1720=CARTESIAN_POINT('',(0.063,0.0048,0.004));
#1721=CARTESIAN_POINT('',(0.063,0.0048,0.004));
#1722=CARTESIAN_POINT('',(0.0648,0.0048,0.004));
#1723=CARTESIAN_POINT('',(0.063,0.0048,0.));
#1724=CARTESIAN_POINT('',(0.0648,0.0048,0.));
#1725=CARTESIAN_POINT('',(0.0389,0.0177903810567666,0.004));
#1726=CARTESIAN_POINT('',(0.0389,0.0177903810567666,0.004));
#1727=CARTESIAN_POINT('',(0.0407,0.0177903810567666,0.004));
#1728=CARTESIAN_POINT('',(0.0389,0.0177903810567666,0.));
#1729=CARTESIAN_POINT('',(0.0407,0.0177903810567666,0.));
#1730=CARTESIAN_POINT('',(0.0464,0.0048,0.004));
#1731=CARTESIAN_POINT('',(0.0464,0.0048,0.004));
#1732=CARTESIAN_POINT('',(0.0482,0.0048,0.004));
#1733=CARTESIAN_POINT('',(0.0464,0.0048,0.));
#1734=CARTESIAN_POINT('',(0.0482,0.0048,0.));
#1735=CARTESIAN_POINT('',(0.0223,0.0177903810567666,0.004));
#1736=CARTESIAN_POINT('',(0.0223,0.0177903810567666,0.004));
#1737=CARTESIAN_POINT('',(0.0241,0.0177903810567666,0.004));
#1738=CARTESIAN_POINT('',(0.0223,0.0177903810567666,0.));
#1739=CARTESIAN_POINT('',(0.0241,0.0177903810567666,0.));
#1740=CARTESIAN_POINT('',(0.0298,0.0048,0.004));
#1741=CARTESIAN_POINT('',(0.0298,0.0048,0.004));
#1742=CARTESIAN_POINT('',(0.0316,0.0048,0.004));
#1743=CARTESIAN_POINT('',(0.0298,0.0048,0.));
#1744=CARTESIAN_POINT('',(0.0316,0.0048,0.));
#1745=CARTESIAN_POINT('',(0.00569999999999993,0.0177903810567666,0.004));
#1746=CARTESIAN_POINT('',(0.00569999999999993,0.0177903810567666,0.004));
#1747=CARTESIAN_POINT('',(0.00749999999999993,0.0177903810567666,0.004));
#1748=CARTESIAN_POINT('',(0.00569999999999993,0.0177903810567666,0.));
#1749=CARTESIAN_POINT('',(0.00749999999999993,0.0177903810567666,0.));
#1750=CARTESIAN_POINT('',(0.0132,0.0048,0.004));
#1751=CARTESIAN_POINT('',(0.0132,0.0048,0.004));
#1752=CARTESIAN_POINT('',(0.015,0.0048,0.004));
#1753=CARTESIAN_POINT('',(0.0132,0.0048,0.));
#1754=CARTESIAN_POINT('',(0.015,0.0048,0.));
#1755=CARTESIAN_POINT('',(0.0471,0.025,0.004));
#1756=CARTESIAN_POINT('',(0.0471,0.025,0.004));
#1757=CARTESIAN_POINT('',(0.0492,0.025,0.004));
#1758=CARTESIAN_POINT('',(0.0471,0.025,0.));
#1759=CARTESIAN_POINT('',(0.0492,0.025,0.));
#1760=CARTESIAN_POINT('',(0.3429,0.025,0.004));
#1761=CARTESIAN_POINT('',(0.3429,0.025,0.004));
#1762=CARTESIAN_POINT('',(0.345,0.025,0.004));
#1763=CARTESIAN_POINT('',(0.3429,0.025,0.));
#1764=CARTESIAN_POINT('',(0.345,0.025,0.));
#1765=CARTESIAN_POINT('',(0.02,-0.01,0.004));
#1766=CARTESIAN_POINT('',(0.02,-0.01,0.004));
#1767=CARTESIAN_POINT('',(0.0255,-0.01,0.004));
#1768=CARTESIAN_POINT('',(0.02,-0.01,0.));
#1769=CARTESIAN_POINT('',(0.0255,-0.01,0.));
#1770=CARTESIAN_POINT('',(0.175,0.00979874463379385,0.004));
#1771=CARTESIAN_POINT('',(0.175,0.00979874463379385,0.));
#1772=MECHANICAL_DESIGN_GEOMETRIC_PRESENTATION_REPRESENTATION('',(#1047),
#1773);
#1773=(
GEOMETRIC_REPRESENTATION_CONTEXT(3)
GLOBAL_UNCERTAINTY_ASSIGNED_CONTEXT((#1774))
GLOBAL_UNIT_ASSIGNED_CONTEXT((#1777,#1776,#1775))
REPRESENTATION_CONTEXT('Part 1','TOP_LEVEL_ASSEMBLY_PART')
);
#1774=UNCERTAINTY_MEASURE_WITH_UNIT(LENGTH_MEASURE(1.E-8),#1777,
'DISTANCE_ACCURACY_VALUE','Maximum Tolerance applied to model');
#1775=(
NAMED_UNIT(*)
SI_UNIT($,.STERADIAN.)
SOLID_ANGLE_UNIT()
);
#1776=(
NAMED_UNIT(*)
PLANE_ANGLE_UNIT()
SI_UNIT($,.RADIAN.)
);
#1777=(
LENGTH_UNIT()
NAMED_UNIT(*)
SI_UNIT($,.METRE.)
);
#1778=PRODUCT_DEFINITION_SHAPE('','',#1779);
#1779=PRODUCT_DEFINITION('','',#1781,#1780);
#1780=PRODUCT_DEFINITION_CONTEXT('',#1787,'design');
#1781=PRODUCT_DEFINITION_FORMATION_WITH_SPECIFIED_SOURCE('','',#1783,
 .NOT_KNOWN.);
#1782=PRODUCT_RELATED_PRODUCT_CATEGORY('','',(#1783));
#1783=PRODUCT('Part 1','Part 1','Part 1',(#1785));
#1784=PRODUCT_CATEGORY('','');
#1785=PRODUCT_CONTEXT('',#1787,'mechanical');
#1786=APPLICATION_PROTOCOL_DEFINITION('international standard',
'ap242_managed_model_based_3d_engineering',2020,#1787);
#1787=APPLICATION_CONTEXT('managed model based 3d engineering');
ENDSEC;
END-ISO-10303-21;
