ISO-10303-21;
HEADER;
/* Generated by software containing ST-Developer
 * from STEP Tools, Inc. (www.steptools.com) 
 */
/* OPTION: using custom renumber hook */

FILE_DESCRIPTION(
/* description */ ('STEP AP242 Edition 2',
'CAx-IF Rec.Pracs.---Representation and Presentation of Product Manufa
cturing Information (PMI)---4.0---2014-10-13',
'CAx-IF Rec.Pracs.---3D Tessellated Geometry---0.4---2014-09-14','2;1',
'CAx-IF Rec.Pracs.---User Defined Attributes---1.5---2016-08-15'),
/* implementation_level */ '2;1');

FILE_NAME(
/* name */ 'Bot Side',
/* time_stamp */ '2026-04-29T20:59:22Z',
/* author */ (''),
/* organization */ (''),
/* preprocessor_version */ 'ST-DEVELOPER v20',
/* originating_system */ 'ONSHAPE BY PTC INC, 1.214',
/* authorisation */ '  ');

FILE_SCHEMA (('AP242_MANAGED_MODEL_BASED_3D_ENGINEERING_MIM_LF { 1 0 10303 442 3 1 4 }'));
ENDSEC;

DATA;
#10=SHAPE_REPRESENTATION_RELATIONSHIP('','',#309,#11);
#11=ADVANCED_BREP_SHAPE_REPRESENTATION('',(#307),#501);
#12=CYLINDRICAL_SURFACE('',#326,0.003);
#13=CYLINDRICAL_SURFACE('',#327,0.004875);
#14=CYLINDRICAL_SURFACE('',#331,0.004875);
#15=CYLINDRICAL_SURFACE('',#335,0.0025);
#16=CYLINDRICAL_SURFACE('',#336,0.0025);
#17=CIRCLE('',#313,0.003);
#18=CIRCLE('',#317,0.003);
#19=CIRCLE('',#321,0.0025);
#20=CIRCLE('',#322,0.0025);
#21=CIRCLE('',#324,0.004875);
#22=CIRCLE('',#325,0.004875);
#23=CIRCLE('',#328,0.004875);
#24=CIRCLE('',#330,0.0025);
#25=CIRCLE('',#332,0.004875);
#26=CIRCLE('',#334,0.0025);
#27=ORIENTED_EDGE('',*,*,#95,.F.);
#28=ORIENTED_EDGE('',*,*,#96,.T.);
#29=ORIENTED_EDGE('',*,*,#97,.T.);
#30=ORIENTED_EDGE('',*,*,#98,.F.);
#31=ORIENTED_EDGE('',*,*,#99,.F.);
#32=ORIENTED_EDGE('',*,*,#97,.F.);
#33=ORIENTED_EDGE('',*,*,#100,.T.);
#34=ORIENTED_EDGE('',*,*,#101,.T.);
#35=ORIENTED_EDGE('',*,*,#102,.F.);
#36=ORIENTED_EDGE('',*,*,#103,.F.);
#37=ORIENTED_EDGE('',*,*,#104,.F.);
#38=ORIENTED_EDGE('',*,*,#105,.T.);
#39=ORIENTED_EDGE('',*,*,#106,.F.);
#40=ORIENTED_EDGE('',*,*,#107,.F.);
#41=ORIENTED_EDGE('',*,*,#108,.F.);
#42=ORIENTED_EDGE('',*,*,#109,.T.);
#43=ORIENTED_EDGE('',*,*,#110,.T.);
#44=ORIENTED_EDGE('',*,*,#111,.T.);
#45=ORIENTED_EDGE('',*,*,#112,.F.);
#46=ORIENTED_EDGE('',*,*,#95,.T.);
#47=ORIENTED_EDGE('',*,*,#113,.T.);
#48=ORIENTED_EDGE('',*,*,#114,.F.);
#49=ORIENTED_EDGE('',*,*,#109,.F.);
#50=ORIENTED_EDGE('',*,*,#115,.T.);
#51=ORIENTED_EDGE('',*,*,#103,.T.);
#52=ORIENTED_EDGE('',*,*,#116,.F.);
#53=ORIENTED_EDGE('',*,*,#117,.F.);
#54=ORIENTED_EDGE('',*,*,#107,.T.);
#55=ORIENTED_EDGE('',*,*,#118,.T.);
#56=ORIENTED_EDGE('',*,*,#105,.F.);
#57=ORIENTED_EDGE('',*,*,#119,.T.);
#58=ORIENTED_EDGE('',*,*,#120,.T.);
#59=ORIENTED_EDGE('',*,*,#116,.T.);
#60=ORIENTED_EDGE('',*,*,#106,.T.);
#61=ORIENTED_EDGE('',*,*,#118,.F.);
#62=ORIENTED_EDGE('',*,*,#110,.F.);
#63=ORIENTED_EDGE('',*,*,#101,.F.);
#64=ORIENTED_EDGE('',*,*,#121,.F.);
#65=ORIENTED_EDGE('',*,*,#114,.T.);
#66=ORIENTED_EDGE('',*,*,#122,.T.);
#67=ORIENTED_EDGE('',*,*,#123,.F.);
#68=ORIENTED_EDGE('',*,*,#117,.T.);
#69=ORIENTED_EDGE('',*,*,#104,.T.);
#70=ORIENTED_EDGE('',*,*,#115,.F.);
#71=ORIENTED_EDGE('',*,*,#108,.T.);
#72=ORIENTED_EDGE('',*,*,#124,.F.);
#73=ORIENTED_EDGE('',*,*,#99,.T.);
#74=ORIENTED_EDGE('',*,*,#111,.F.);
#75=ORIENTED_EDGE('',*,*,#125,.F.);
#76=ORIENTED_EDGE('',*,*,#123,.T.);
#77=ORIENTED_EDGE('',*,*,#126,.F.);
#78=ORIENTED_EDGE('',*,*,#125,.T.);
#79=ORIENTED_EDGE('',*,*,#127,.F.);
#80=ORIENTED_EDGE('',*,*,#124,.T.);
#81=ORIENTED_EDGE('',*,*,#128,.F.);
#82=ORIENTED_EDGE('',*,*,#127,.T.);
#83=ORIENTED_EDGE('',*,*,#128,.T.);
#84=ORIENTED_EDGE('',*,*,#120,.F.);
#85=ORIENTED_EDGE('',*,*,#126,.T.);
#86=ORIENTED_EDGE('',*,*,#119,.F.);
#87=ORIENTED_EDGE('',*,*,#98,.T.);
#88=ORIENTED_EDGE('',*,*,#102,.T.);
#89=ORIENTED_EDGE('',*,*,#122,.F.);
#90=ORIENTED_EDGE('',*,*,#113,.F.);
#91=ORIENTED_EDGE('',*,*,#112,.T.);
#92=ORIENTED_EDGE('',*,*,#121,.T.);
#93=ORIENTED_EDGE('',*,*,#100,.F.);
#94=ORIENTED_EDGE('',*,*,#96,.F.);
#95=EDGE_CURVE('',#129,#130,#155,.T.);
#96=EDGE_CURVE('',#129,#131,#156,.T.);
#97=EDGE_CURVE('',#131,#132,#157,.T.);
#98=EDGE_CURVE('',#130,#132,#158,.T.);
#99=EDGE_CURVE('',#133,#133,#17,.T.);
#100=EDGE_CURVE('',#131,#134,#159,.T.);
#101=EDGE_CURVE('',#134,#135,#160,.T.);
#102=EDGE_CURVE('',#132,#135,#161,.T.);
#103=EDGE_CURVE('',#136,#137,#162,.T.);
#104=EDGE_CURVE('',#138,#136,#163,.T.);
#105=EDGE_CURVE('',#138,#139,#164,.T.);
#106=EDGE_CURVE('',#137,#139,#165,.T.);
#107=EDGE_CURVE('',#140,#141,#166,.T.);
#108=EDGE_CURVE('',#142,#140,#167,.T.);
#109=EDGE_CURVE('',#142,#143,#168,.T.);
#110=EDGE_CURVE('',#143,#141,#169,.T.);
#111=EDGE_CURVE('',#144,#144,#18,.T.);
#112=EDGE_CURVE('',#129,#145,#170,.T.);
#113=EDGE_CURVE('',#130,#146,#171,.T.);
#114=EDGE_CURVE('',#145,#146,#172,.T.);
#115=EDGE_CURVE('',#142,#136,#173,.T.);
#116=EDGE_CURVE('',#143,#137,#174,.T.);
#117=EDGE_CURVE('',#140,#138,#175,.T.);
#118=EDGE_CURVE('',#141,#139,#176,.T.);
#119=EDGE_CURVE('',#147,#147,#19,.T.);
#120=EDGE_CURVE('',#148,#148,#20,.T.);
#121=EDGE_CURVE('',#145,#134,#177,.T.);
#122=EDGE_CURVE('',#146,#135,#178,.T.);
#123=EDGE_CURVE('',#149,#149,#21,.T.);
#124=EDGE_CURVE('',#150,#150,#22,.T.);
#125=EDGE_CURVE('',#151,#151,#23,.T.);
#126=EDGE_CURVE('',#152,#152,#24,.T.);
#127=EDGE_CURVE('',#153,#153,#25,.T.);
#128=EDGE_CURVE('',#154,#154,#26,.T.);
#129=VERTEX_POINT('',#424);
#130=VERTEX_POINT('',#425);
#131=VERTEX_POINT('',#427);
#132=VERTEX_POINT('',#429);
#133=VERTEX_POINT('',#433);
#134=VERTEX_POINT('',#435);
#135=VERTEX_POINT('',#437);
#136=VERTEX_POINT('',#441);
#137=VERTEX_POINT('',#442);
#138=VERTEX_POINT('',#444);
#139=VERTEX_POINT('',#446);
#140=VERTEX_POINT('',#450);
#141=VERTEX_POINT('',#451);
#142=VERTEX_POINT('',#453);
#143=VERTEX_POINT('',#455);
#144=VERTEX_POINT('',#459);
#145=VERTEX_POINT('',#461);
#146=VERTEX_POINT('',#463);
#147=VERTEX_POINT('',#473);
#148=VERTEX_POINT('',#475);
#149=VERTEX_POINT('',#480);
#150=VERTEX_POINT('',#482);
#151=VERTEX_POINT('',#486);
#152=VERTEX_POINT('',#489);
#153=VERTEX_POINT('',#492);
#154=VERTEX_POINT('',#495);
#155=LINE('',#423,#179);
#156=LINE('',#426,#180);
#157=LINE('',#428,#181);
#158=LINE('',#430,#182);
#159=LINE('',#434,#183);
#160=LINE('',#436,#184);
#161=LINE('',#438,#185);
#162=LINE('',#440,#186);
#163=LINE('',#443,#187);
#164=LINE('',#445,#188);
#165=LINE('',#447,#189);
#166=LINE('',#449,#190);
#167=LINE('',#452,#191);
#168=LINE('',#454,#192);
#169=LINE('',#456,#193);
#170=LINE('',#460,#194);
#171=LINE('',#462,#195);
#172=LINE('',#464,#196);
#173=LINE('',#466,#197);
#174=LINE('',#467,#198);
#175=LINE('',#469,#199);
#176=LINE('',#470,#200);
#177=LINE('',#477,#201);
#178=LINE('',#478,#202);
#179=VECTOR('',#343,1.);
#180=VECTOR('',#344,1.);
#181=VECTOR('',#345,1.);
#182=VECTOR('',#346,1.);
#183=VECTOR('',#351,1.);
#184=VECTOR('',#352,1.);
#185=VECTOR('',#353,1.);
#186=VECTOR('',#356,1.);
#187=VECTOR('',#357,1.);
#188=VECTOR('',#358,1.);
#189=VECTOR('',#359,1.);
#190=VECTOR('',#362,1.);
#191=VECTOR('',#363,1.);
#192=VECTOR('',#364,1.);
#193=VECTOR('',#365,1.);
#194=VECTOR('',#370,1.);
#195=VECTOR('',#371,1.);
#196=VECTOR('',#372,1.);
#197=VECTOR('',#375,1.);
#198=VECTOR('',#376,1.);
#199=VECTOR('',#379,1.);
#200=VECTOR('',#380,1.);
#201=VECTOR('',#389,1.);
#202=VECTOR('',#390,1.);
#203=EDGE_LOOP('',(#27,#28,#29,#30));
#204=EDGE_LOOP('',(#31));
#205=EDGE_LOOP('',(#32,#33,#34,#35));
#206=EDGE_LOOP('',(#36,#37,#38,#39));
#207=EDGE_LOOP('',(#40,#41,#42,#43));
#208=EDGE_LOOP('',(#44));
#209=EDGE_LOOP('',(#45,#46,#47,#48));
#210=EDGE_LOOP('',(#49,#50,#51,#52));
#211=EDGE_LOOP('',(#53,#54,#55,#56));
#212=EDGE_LOOP('',(#57));
#213=EDGE_LOOP('',(#58));
#214=EDGE_LOOP('',(#59,#60,#61,#62));
#215=EDGE_LOOP('',(#63,#64,#65,#66));
#216=EDGE_LOOP('',(#67));
#217=EDGE_LOOP('',(#68,#69,#70,#71));
#218=EDGE_LOOP('',(#72));
#219=EDGE_LOOP('',(#73));
#220=EDGE_LOOP('',(#74));
#221=EDGE_LOOP('',(#75));
#222=EDGE_LOOP('',(#76));
#223=EDGE_LOOP('',(#77));
#224=EDGE_LOOP('',(#78));
#225=EDGE_LOOP('',(#79));
#226=EDGE_LOOP('',(#80));
#227=EDGE_LOOP('',(#81));
#228=EDGE_LOOP('',(#82));
#229=EDGE_LOOP('',(#83));
#230=EDGE_LOOP('',(#84));
#231=EDGE_LOOP('',(#85));
#232=EDGE_LOOP('',(#86));
#233=EDGE_LOOP('',(#87,#88,#89,#90));
#234=EDGE_LOOP('',(#91,#92,#93,#94));
#235=FACE_BOUND('',#203,.T.);
#236=FACE_BOUND('',#204,.T.);
#237=FACE_BOUND('',#205,.T.);
#238=FACE_BOUND('',#206,.T.);
#239=FACE_BOUND('',#207,.T.);
#240=FACE_BOUND('',#208,.T.);
#241=FACE_BOUND('',#209,.T.);
#242=FACE_BOUND('',#210,.T.);
#243=FACE_BOUND('',#211,.T.);
#244=FACE_BOUND('',#212,.T.);
#245=FACE_BOUND('',#213,.T.);
#246=FACE_BOUND('',#214,.T.);
#247=FACE_BOUND('',#215,.T.);
#248=FACE_BOUND('',#216,.T.);
#249=FACE_BOUND('',#217,.T.);
#250=FACE_BOUND('',#218,.T.);
#251=FACE_BOUND('',#219,.T.);
#252=FACE_BOUND('',#220,.T.);
#253=FACE_BOUND('',#221,.T.);
#254=FACE_BOUND('',#222,.T.);
#255=FACE_BOUND('',#223,.T.);
#256=FACE_BOUND('',#224,.T.);
#257=FACE_BOUND('',#225,.T.);
#258=FACE_BOUND('',#226,.T.);
#259=FACE_BOUND('',#227,.T.);
#260=FACE_BOUND('',#228,.T.);
#261=FACE_BOUND('',#229,.T.);
#262=FACE_BOUND('',#230,.T.);
#263=FACE_BOUND('',#231,.T.);
#264=FACE_BOUND('',#232,.T.);
#265=FACE_BOUND('',#233,.T.);
#266=FACE_BOUND('',#234,.T.);
#267=PLANE('',#311);
#268=PLANE('',#312);
#269=PLANE('',#314);
#270=PLANE('',#315);
#271=PLANE('',#316);
#272=PLANE('',#318);
#273=PLANE('',#319);
#274=PLANE('',#320);
#275=PLANE('',#323);
#276=PLANE('',#329);
#277=PLANE('',#333);
#278=PLANE('',#337);
#279=PLANE('',#338);
#280=ADVANCED_FACE('',(#235),#267,.T.);
#281=ADVANCED_FACE('',(#236,#237),#268,.T.);
#282=ADVANCED_FACE('',(#238),#269,.T.);
#283=ADVANCED_FACE('',(#239),#270,.F.);
#284=ADVANCED_FACE('',(#240,#241),#271,.F.);
#285=ADVANCED_FACE('',(#242),#272,.T.);
#286=ADVANCED_FACE('',(#243),#273,.F.);
#287=ADVANCED_FACE('',(#244,#245,#246),#274,.F.);
#288=ADVANCED_FACE('',(#247,#248,#249,#250),#275,.F.);
#289=ADVANCED_FACE('',(#251,#252),#12,.F.);
#290=ADVANCED_FACE('',(#253,#254),#13,.F.);
#291=ADVANCED_FACE('',(#255,#256),#276,.T.);
#292=ADVANCED_FACE('',(#257,#258),#14,.F.);
#293=ADVANCED_FACE('',(#259,#260),#277,.T.);
#294=ADVANCED_FACE('',(#261,#262),#15,.F.);
#295=ADVANCED_FACE('',(#263,#264),#16,.F.);
#296=ADVANCED_FACE('',(#265),#278,.F.);
#297=ADVANCED_FACE('',(#266),#279,.T.);
#298=CLOSED_SHELL('',(#280,#281,#282,#283,#284,#285,#286,#287,#288,#289,
#290,#291,#292,#293,#294,#295,#296,#297));
#299=STYLED_ITEM('',(#300),#307);
#300=PRESENTATION_STYLE_ASSIGNMENT((#301));
#301=SURFACE_STYLE_USAGE(.BOTH.,#302);
#302=SURFACE_SIDE_STYLE('',(#303));
#303=SURFACE_STYLE_FILL_AREA(#304);
#304=FILL_AREA_STYLE('',(#305));
#305=FILL_AREA_STYLE_COLOUR('',#306);
#306=COLOUR_RGB('',0.615686274509804,0.811764705882353,0.929411764705882);
#307=MANIFOLD_SOLID_BREP('Part 1',#298);
#308=SHAPE_DEFINITION_REPRESENTATION(#506,#309);
#309=SHAPE_REPRESENTATION('Part 1',(#310),#501);
#310=AXIS2_PLACEMENT_3D('',#421,#339,#340);
#311=AXIS2_PLACEMENT_3D('',#422,#341,#342);
#312=AXIS2_PLACEMENT_3D('',#431,#347,#348);
#313=AXIS2_PLACEMENT_3D('',#432,#349,#350);
#314=AXIS2_PLACEMENT_3D('',#439,#354,#355);
#315=AXIS2_PLACEMENT_3D('',#448,#360,#361);
#316=AXIS2_PLACEMENT_3D('',#457,#366,#367);
#317=AXIS2_PLACEMENT_3D('',#458,#368,#369);
#318=AXIS2_PLACEMENT_3D('',#465,#373,#374);
#319=AXIS2_PLACEMENT_3D('',#468,#377,#378);
#320=AXIS2_PLACEMENT_3D('',#471,#381,#382);
#321=AXIS2_PLACEMENT_3D('',#472,#383,#384);
#322=AXIS2_PLACEMENT_3D('',#474,#385,#386);
#323=AXIS2_PLACEMENT_3D('',#476,#387,#388);
#324=AXIS2_PLACEMENT_3D('',#479,#391,#392);
#325=AXIS2_PLACEMENT_3D('',#481,#393,#394);
#326=AXIS2_PLACEMENT_3D('',#483,#395,#396);
#327=AXIS2_PLACEMENT_3D('',#484,#397,#398);
#328=AXIS2_PLACEMENT_3D('',#485,#399,#400);
#329=AXIS2_PLACEMENT_3D('',#487,#401,#402);
#330=AXIS2_PLACEMENT_3D('',#488,#403,#404);
#331=AXIS2_PLACEMENT_3D('',#490,#405,#406);
#332=AXIS2_PLACEMENT_3D('',#491,#407,#408);
#333=AXIS2_PLACEMENT_3D('',#493,#409,#410);
#334=AXIS2_PLACEMENT_3D('',#494,#411,#412);
#335=AXIS2_PLACEMENT_3D('',#496,#413,#414);
#336=AXIS2_PLACEMENT_3D('',#497,#415,#416);
#337=AXIS2_PLACEMENT_3D('',#498,#417,#418);
#338=AXIS2_PLACEMENT_3D('',#499,#419,#420);
#339=DIRECTION('',(0.,0.,1.));
#340=DIRECTION('',(1.,0.,0.));
#341=DIRECTION('',(0.,0.,1.));
#342=DIRECTION('',(1.,0.,0.));
#343=DIRECTION('',(0.,-1.,0.));
#344=DIRECTION('',(-1.,0.,-2.9738116731031E-16));
#345=DIRECTION('',(0.,-1.,0.));
#346=DIRECTION('',(-1.,0.,-2.9738116731031E-16));
#347=DIRECTION('',(-1.,0.,-2.9738116731031E-16));
#348=DIRECTION('',(-2.9738116731031E-16,0.,1.));
#349=DIRECTION('',(-1.,0.,-2.9738116731031E-16));
#350=DIRECTION('',(-2.9738116731031E-16,0.,1.));
#351=DIRECTION('',(2.9738116731031E-16,-9.91270557701033E-17,-1.));
#352=DIRECTION('',(0.,-1.,0.));
#353=DIRECTION('',(2.9738116731031E-16,-9.91270557701033E-17,-1.));
#354=DIRECTION('',(0.,-1.,0.));
#355=DIRECTION('',(0.,0.,-1.));
#356=DIRECTION('',(0.,0.,-1.));
#357=DIRECTION('',(1.,0.,4.81310559808594E-16));
#358=DIRECTION('',(0.,0.,-1.));
#359=DIRECTION('',(-1.,0.,0.));
#360=DIRECTION('',(0.,-1.,0.));
#361=DIRECTION('',(0.,0.,-1.));
#362=DIRECTION('',(0.,0.,-1.));
#363=DIRECTION('',(-1.,0.,-1.14882349402437E-16));
#364=DIRECTION('',(0.,0.,-1.));
#365=DIRECTION('',(-1.,0.,0.));
#366=DIRECTION('',(-1.,0.,-3.96508223080413E-16));
#367=DIRECTION('',(-3.96508223080413E-16,0.,1.));
#368=DIRECTION('',(-1.,0.,-3.96508223080413E-16));
#369=DIRECTION('',(-3.96508223080413E-16,0.,1.));
#370=DIRECTION('',(3.96508223080413E-16,-9.91270557701033E-17,-1.));
#371=DIRECTION('',(3.96508223080413E-16,-9.91270557701033E-17,-1.));
#372=DIRECTION('',(0.,-1.,0.));
#373=DIRECTION('',(1.,1.15648231731787E-16,0.));
#374=DIRECTION('',(-1.15648231731787E-16,1.,0.));
#375=DIRECTION('',(0.,-1.,0.));
#376=DIRECTION('',(1.15648231731787E-16,-1.,0.));
#377=DIRECTION('',(1.,1.15648231731787E-16,0.));
#378=DIRECTION('',(-1.15648231731787E-16,1.,0.));
#379=DIRECTION('',(0.,-1.,0.));
#380=DIRECTION('',(1.15648231731787E-16,-1.,0.));
#381=DIRECTION('',(0.,0.,1.));
#382=DIRECTION('',(1.,0.,0.));
#383=DIRECTION('',(0.,0.,1.));
#384=DIRECTION('',(1.,0.,0.));
#385=DIRECTION('',(0.,0.,1.));
#386=DIRECTION('',(1.,0.,0.));
#387=DIRECTION('',(4.81310559808594E-16,0.,-1.));
#388=DIRECTION('',(-1.,0.,-4.81310559808594E-16));
#389=DIRECTION('',(-1.,0.,-2.9738116731031E-16));
#390=DIRECTION('',(-1.,0.,-2.9738116731031E-16));
#391=DIRECTION('',(-4.81310559808594E-16,0.,1.));
#392=DIRECTION('',(1.,0.,4.81310559808594E-16));
#393=DIRECTION('',(-4.81310559808594E-16,0.,1.));
#394=DIRECTION('',(1.,0.,4.81310559808594E-16));
#395=DIRECTION('',(-1.,0.,-2.9738116731031E-16));
#396=DIRECTION('',(-2.9738116731031E-16,0.,1.));
#397=DIRECTION('',(-4.81310559808594E-16,0.,1.));
#398=DIRECTION('',(1.,0.,4.81310559808594E-16));
#399=DIRECTION('',(-4.81310559808594E-16,0.,1.));
#400=DIRECTION('',(1.,0.,4.81310559808594E-16));
#401=DIRECTION('',(-4.81310559808594E-16,0.,1.));
#402=DIRECTION('',(1.,0.,4.81310559808594E-16));
#403=DIRECTION('',(-4.81310559808594E-16,0.,1.));
#404=DIRECTION('',(1.,0.,4.81310559808594E-16));
#405=DIRECTION('',(-4.81310559808594E-16,0.,1.));
#406=DIRECTION('',(1.,0.,4.81310559808594E-16));
#407=DIRECTION('',(-4.81310559808594E-16,0.,1.));
#408=DIRECTION('',(1.,0.,4.81310559808594E-16));
#409=DIRECTION('',(-4.81310559808594E-16,0.,1.));
#410=DIRECTION('',(1.,0.,4.81310559808594E-16));
#411=DIRECTION('',(-4.81310559808594E-16,0.,1.));
#412=DIRECTION('',(1.,0.,4.81310559808594E-16));
#413=DIRECTION('',(-4.81310559808594E-16,0.,1.));
#414=DIRECTION('',(1.,0.,4.81310559808594E-16));
#415=DIRECTION('',(-4.81310559808594E-16,0.,1.));
#416=DIRECTION('',(1.,0.,4.81310559808594E-16));
#417=DIRECTION('',(2.94785195569475E-32,1.,-9.91270557701033E-17));
#418=DIRECTION('',(0.,9.91270557701033E-17,1.));
#419=DIRECTION('',(2.94785195569475E-32,1.,-9.91270557701033E-17));
#420=DIRECTION('',(0.,9.91270557701033E-17,1.));
#421=CARTESIAN_POINT('',(0.,0.,0.));
#422=CARTESIAN_POINT('',(0.,0.,0.0275));
#423=CARTESIAN_POINT('',(0.0156625,0.0587770361679253,0.0275));
#424=CARTESIAN_POINT('',(0.0156625,0.0049,0.0275));
#425=CARTESIAN_POINT('',(0.0156625,-0.0049,0.0275));
#426=CARTESIAN_POINT('',(0.0158625,0.0049,0.0275));
#427=CARTESIAN_POINT('',(-0.0091375,0.0049,0.0275));
#428=CARTESIAN_POINT('',(-0.0091375,0.0587770361679253,0.0275));
#429=CARTESIAN_POINT('',(-0.0091375,-0.0049,0.0275));
#430=CARTESIAN_POINT('',(0.0158625,-0.0049,0.0275));
#431=CARTESIAN_POINT('',(-0.0091375,0.0587770361679253,0.01875));
#432=CARTESIAN_POINT('',(-0.0091375,4.33680868994202E-19,0.0225));
#433=CARTESIAN_POINT('',(-0.0091375,4.33680868994202E-19,0.0255));
#434=CARTESIAN_POINT('',(-0.0091375,0.0049,0.01875));
#435=CARTESIAN_POINT('',(-0.0091375,0.0049,0.01));
#436=CARTESIAN_POINT('',(-0.0091375,0.0587770361679253,0.01));
#437=CARTESIAN_POINT('',(-0.0091375,-0.0049,0.01));
#438=CARTESIAN_POINT('',(-0.0091375,-0.0049,0.01875));
#439=CARTESIAN_POINT('',(3.46944695195361E-18,-0.015,0.0275));
#440=CARTESIAN_POINT('',(0.0307625,-0.015,0.0275));
#441=CARTESIAN_POINT('',(0.0307625,-0.015,0.01));
#442=CARTESIAN_POINT('',(0.0307625,-0.015,0.));
#443=CARTESIAN_POINT('',(-0.01995,-0.015,0.01));
#444=CARTESIAN_POINT('',(-0.0307625,-0.015,0.01));
#445=CARTESIAN_POINT('',(-0.0307625,-0.015,0.0275));
#446=CARTESIAN_POINT('',(-0.0307625,-0.015,0.));
#447=CARTESIAN_POINT('',(3.46944695195361E-18,-0.015,0.));
#448=CARTESIAN_POINT('',(-3.46944695195361E-18,0.015,0.0275));
#449=CARTESIAN_POINT('',(-0.0307625,0.015,0.0275));
#450=CARTESIAN_POINT('',(-0.0307625,0.015,0.01));
#451=CARTESIAN_POINT('',(-0.0307625,0.015,0.));
#452=CARTESIAN_POINT('',(-1.45900583741096E-18,0.015,0.01));
#453=CARTESIAN_POINT('',(0.0307625,0.015,0.01));
#454=CARTESIAN_POINT('',(0.0307625,0.015,0.0275));
#455=CARTESIAN_POINT('',(0.0307625,0.015,0.));
#456=CARTESIAN_POINT('',(-3.46944695195361E-18,0.015,0.));
#457=CARTESIAN_POINT('',(0.0156625,0.0587770361679253,0.01875));
#458=CARTESIAN_POINT('',(0.0156625,4.33680868994202E-19,0.0225));
#459=CARTESIAN_POINT('',(0.0156625,4.33680868994202E-19,0.0255));
#460=CARTESIAN_POINT('',(0.0156625,0.0049,0.01875));
#461=CARTESIAN_POINT('',(0.0156625,0.0049,0.01));
#462=CARTESIAN_POINT('',(0.0156625,-0.0049,0.01875));
#463=CARTESIAN_POINT('',(0.0156625,-0.0049,0.01));
#464=CARTESIAN_POINT('',(0.0156625,0.0587770361679253,0.01));
#465=CARTESIAN_POINT('',(0.0307625,-1.7347234759768E-18,0.0275));
#466=CARTESIAN_POINT('',(0.0307625,0.0587770361679253,0.01));
#467=CARTESIAN_POINT('',(0.0307625,-1.7347234759768E-18,0.));
#468=CARTESIAN_POINT('',(-0.0307625,-1.7347234759768E-18,0.0275));
#469=CARTESIAN_POINT('',(-0.0307625,0.0587770361679253,0.01));
#470=CARTESIAN_POINT('',(-0.0307625,-1.7347234759768E-18,0.));
#471=CARTESIAN_POINT('',(0.,0.,0.));
#472=CARTESIAN_POINT('',(-0.0232625,1.53080849893419E-19,0.));
#473=CARTESIAN_POINT('',(-0.0207625,1.53080849893419E-19,0.));
#474=CARTESIAN_POINT('',(0.0232125,5.46498634119507E-19,0.));
#475=CARTESIAN_POINT('',(0.0257125,5.46498634119507E-19,0.));
#476=CARTESIAN_POINT('',(-0.01995,0.0587770361679253,0.01));
#477=CARTESIAN_POINT('',(0.0158625,0.0049,0.01));
#478=CARTESIAN_POINT('',(0.0158625,-0.0049,0.01));
#479=CARTESIAN_POINT('',(-0.0232625,2.98507657292168E-19,0.01));
#480=CARTESIAN_POINT('',(-0.0183875,2.98507657292168E-19,0.01));
#481=CARTESIAN_POINT('',(0.0232125,6.91925441518255E-19,0.01));
#482=CARTESIAN_POINT('',(0.0280875,6.91925441518255E-19,0.01));
#483=CARTESIAN_POINT('',(0.0158625,4.33680868994202E-19,0.0225));
#484=CARTESIAN_POINT('',(-0.0232625,2.98507657292168E-19,0.0045));
#485=CARTESIAN_POINT('',(-0.0232625,2.98507657292168E-19,0.0045));
#486=CARTESIAN_POINT('',(-0.0183875,2.98507657292168E-19,0.0045));
#487=CARTESIAN_POINT('',(-0.0013375,3.46944695195361E-18,0.0045));
#488=CARTESIAN_POINT('',(-0.0232625,1.53080849893419E-19,0.0045));
#489=CARTESIAN_POINT('',(-0.0207625,1.53080849893419E-19,0.0045));
#490=CARTESIAN_POINT('',(0.0232125,6.91925441518255E-19,0.0045));
#491=CARTESIAN_POINT('',(0.0232125,6.91925441518255E-19,0.0045));
#492=CARTESIAN_POINT('',(0.0280875,6.91925441518255E-19,0.0045));
#493=CARTESIAN_POINT('',(-0.0013375,3.46944695195361E-18,0.0045));
#494=CARTESIAN_POINT('',(0.0232125,5.46498634119507E-19,0.0045));
#495=CARTESIAN_POINT('',(0.0257125,5.46498634119507E-19,0.0045));
#496=CARTESIAN_POINT('',(0.0232125,5.46498634119507E-19,-0.015));
#497=CARTESIAN_POINT('',(-0.0232625,1.53080849893419E-19,-0.015));
#498=CARTESIAN_POINT('',(0.0158625,-0.0049,0.01875));
#499=CARTESIAN_POINT('',(0.0158625,0.0049,0.01875));
#500=MECHANICAL_DESIGN_GEOMETRIC_PRESENTATION_REPRESENTATION('',(#299),
#501);
#501=(
GEOMETRIC_REPRESENTATION_CONTEXT(3)
GLOBAL_UNCERTAINTY_ASSIGNED_CONTEXT((#502))
GLOBAL_UNIT_ASSIGNED_CONTEXT((#505,#504,#503))
REPRESENTATION_CONTEXT('Part 1','TOP_LEVEL_ASSEMBLY_PART')
);
#502=UNCERTAINTY_MEASURE_WITH_UNIT(LENGTH_MEASURE(1.E-8),#505,
'DISTANCE_ACCURACY_VALUE','Maximum Tolerance applied to model');
#503=(
NAMED_UNIT(*)
SI_UNIT($,.STERADIAN.)
SOLID_ANGLE_UNIT()
);
#504=(
NAMED_UNIT(*)
PLANE_ANGLE_UNIT()
SI_UNIT($,.RADIAN.)
);
#505=(
LENGTH_UNIT()
NAMED_UNIT(*)
SI_UNIT($,.METRE.)
);
#506=PRODUCT_DEFINITION_SHAPE('','',#507);
#507=PRODUCT_DEFINITION('','',#509,#508);
#508=PRODUCT_DEFINITION_CONTEXT('',#515,'design');
#509=PRODUCT_DEFINITION_FORMATION_WITH_SPECIFIED_SOURCE('','',#511,
 .NOT_KNOWN.);
#510=PRODUCT_RELATED_PRODUCT_CATEGORY('','',(#511));
#511=PRODUCT('Part 1','Part 1','Part 1',(#513));
#512=PRODUCT_CATEGORY('','');
#513=PRODUCT_CONTEXT('',#515,'mechanical');
#514=APPLICATION_PROTOCOL_DEFINITION('international standard',
'ap242_managed_model_based_3d_engineering',2020,#515);
#515=APPLICATION_CONTEXT('managed model based 3d engineering');
ENDSEC;
END-ISO-10303-21;
