ISO-10303-21;
HEADER;
/* Generated by software containing ST-Developer
 * from STEP Tools, Inc. (www.steptools.com) 
 */
/* OPTION: using custom renumber hook */

FILE_DESCRIPTION(
/* description */ ('STEP AP242 Edition 2',
'CAx-IF Rec.Pracs.---Representation and Presentation of Product Manufa
cturing Information (PMI)---4.0---2014-10-13',
'CAx-IF Rec.Pracs.---3D Tessellated Geometry---0.4---2014-09-14','2;1',
'CAx-IF Rec.Pracs.---User Defined Attributes---1.5---2016-08-15'),
/* implementation_level */ '2;1');

FILE_NAME(
/* name */ 'Tool Side',
/* time_stamp */ '2026-04-29T20:58:58Z',
/* author */ (''),
/* organization */ (''),
/* preprocessor_version */ 'ST-DEVELOPER v20',
/* originating_system */ 'ONSHAPE BY PTC INC, 1.214',
/* authorisation */ '  ');

FILE_SCHEMA (('AP242_MANAGED_MODEL_BASED_3D_ENGINEERING_MIM_LF { 1 0 10303 442 3 1 4 }'));
ENDSEC;

DATA;
#10=SHAPE_REPRESENTATION_RELATIONSHIP('','',#196,#11);
#11=ADVANCED_BREP_SHAPE_REPRESENTATION('',(#194),#312);
#12=CYLINDRICAL_SURFACE('',#208,0.0025);
#13=CYLINDRICAL_SURFACE('',#211,0.003);
#14=CIRCLE('',#200,0.0025);
#15=CIRCLE('',#202,0.003);
#16=CIRCLE('',#204,0.0025);
#17=CIRCLE('',#210,0.003);
#18=ORIENTED_EDGE('',*,*,#64,.T.);
#19=ORIENTED_EDGE('',*,*,#65,.T.);
#20=ORIENTED_EDGE('',*,*,#66,.F.);
#21=ORIENTED_EDGE('',*,*,#67,.T.);
#22=ORIENTED_EDGE('',*,*,#68,.F.);
#23=ORIENTED_EDGE('',*,*,#69,.T.);
#24=ORIENTED_EDGE('',*,*,#70,.F.);
#25=ORIENTED_EDGE('',*,*,#71,.F.);
#26=ORIENTED_EDGE('',*,*,#66,.T.);
#27=ORIENTED_EDGE('',*,*,#72,.T.);
#28=ORIENTED_EDGE('',*,*,#73,.F.);
#29=ORIENTED_EDGE('',*,*,#74,.F.);
#30=ORIENTED_EDGE('',*,*,#75,.T.);
#31=ORIENTED_EDGE('',*,*,#76,.F.);
#32=ORIENTED_EDGE('',*,*,#67,.F.);
#33=ORIENTED_EDGE('',*,*,#71,.T.);
#34=ORIENTED_EDGE('',*,*,#77,.F.);
#35=ORIENTED_EDGE('',*,*,#78,.T.);
#36=ORIENTED_EDGE('',*,*,#79,.T.);
#37=ORIENTED_EDGE('',*,*,#80,.F.);
#38=ORIENTED_EDGE('',*,*,#64,.F.);
#39=ORIENTED_EDGE('',*,*,#76,.T.);
#40=ORIENTED_EDGE('',*,*,#81,.T.);
#41=ORIENTED_EDGE('',*,*,#82,.F.);
#42=ORIENTED_EDGE('',*,*,#77,.T.);
#43=ORIENTED_EDGE('',*,*,#83,.F.);
#44=ORIENTED_EDGE('',*,*,#69,.F.);
#45=ORIENTED_EDGE('',*,*,#70,.T.);
#46=ORIENTED_EDGE('',*,*,#83,.T.);
#47=ORIENTED_EDGE('',*,*,#81,.F.);
#48=ORIENTED_EDGE('',*,*,#75,.F.);
#49=ORIENTED_EDGE('',*,*,#82,.T.);
#50=ORIENTED_EDGE('',*,*,#68,.T.);
#51=ORIENTED_EDGE('',*,*,#84,.F.);
#52=ORIENTED_EDGE('',*,*,#78,.F.);
#53=ORIENTED_EDGE('',*,*,#84,.T.);
#54=ORIENTED_EDGE('',*,*,#73,.T.);
#55=ORIENTED_EDGE('',*,*,#85,.F.);
#56=ORIENTED_EDGE('',*,*,#79,.F.);
#57=ORIENTED_EDGE('',*,*,#86,.F.);
#58=ORIENTED_EDGE('',*,*,#80,.T.);
#59=ORIENTED_EDGE('',*,*,#85,.T.);
#60=ORIENTED_EDGE('',*,*,#72,.F.);
#61=ORIENTED_EDGE('',*,*,#65,.F.);
#62=ORIENTED_EDGE('',*,*,#86,.T.);
#63=ORIENTED_EDGE('',*,*,#74,.T.);
#64=EDGE_CURVE('',#87,#88,#103,.T.);
#65=EDGE_CURVE('',#88,#89,#104,.T.);
#66=EDGE_CURVE('',#90,#89,#105,.T.);
#67=EDGE_CURVE('',#90,#87,#106,.T.);
#68=EDGE_CURVE('',#91,#92,#107,.T.);
#69=EDGE_CURVE('',#91,#93,#108,.T.);
#70=EDGE_CURVE('',#94,#93,#109,.T.);
#71=EDGE_CURVE('',#90,#94,#110,.T.);
#72=EDGE_CURVE('',#89,#95,#111,.T.);
#73=EDGE_CURVE('',#92,#95,#14,.T.);
#74=EDGE_CURVE('',#96,#96,#15,.T.);
#75=EDGE_CURVE('',#94,#97,#112,.T.);
#76=EDGE_CURVE('',#87,#97,#113,.T.);
#77=EDGE_CURVE('',#98,#99,#114,.T.);
#78=EDGE_CURVE('',#98,#100,#115,.T.);
#79=EDGE_CURVE('',#100,#101,#16,.T.);
#80=EDGE_CURVE('',#88,#101,#116,.T.);
#81=EDGE_CURVE('',#97,#99,#117,.T.);
#82=EDGE_CURVE('',#98,#91,#118,.T.);
#83=EDGE_CURVE('',#93,#99,#119,.T.);
#84=EDGE_CURVE('',#100,#92,#120,.T.);
#85=EDGE_CURVE('',#101,#95,#121,.T.);
#86=EDGE_CURVE('',#102,#102,#17,.T.);
#87=VERTEX_POINT('',#264);
#88=VERTEX_POINT('',#265);
#89=VERTEX_POINT('',#267);
#90=VERTEX_POINT('',#269);
#91=VERTEX_POINT('',#273);
#92=VERTEX_POINT('',#274);
#93=VERTEX_POINT('',#276);
#94=VERTEX_POINT('',#278);
#95=VERTEX_POINT('',#281);
#96=VERTEX_POINT('',#285);
#97=VERTEX_POINT('',#287);
#98=VERTEX_POINT('',#291);
#99=VERTEX_POINT('',#292);
#100=VERTEX_POINT('',#294);
#101=VERTEX_POINT('',#296);
#102=VERTEX_POINT('',#309);
#103=LINE('',#263,#122);
#104=LINE('',#266,#123);
#105=LINE('',#268,#124);
#106=LINE('',#270,#125);
#107=LINE('',#272,#126);
#108=LINE('',#275,#127);
#109=LINE('',#277,#128);
#110=LINE('',#279,#129);
#111=LINE('',#280,#130);
#112=LINE('',#286,#131);
#113=LINE('',#288,#132);
#114=LINE('',#290,#133);
#115=LINE('',#293,#134);
#116=LINE('',#297,#135);
#117=LINE('',#298,#136);
#118=LINE('',#300,#137);
#119=LINE('',#301,#138);
#120=LINE('',#304,#139);
#121=LINE('',#306,#140);
#122=VECTOR('',#216,1.);
#123=VECTOR('',#217,1.);
#124=VECTOR('',#218,1.);
#125=VECTOR('',#219,1.);
#126=VECTOR('',#222,1.);
#127=VECTOR('',#223,1.);
#128=VECTOR('',#224,1.);
#129=VECTOR('',#225,1.);
#130=VECTOR('',#226,1.);
#131=VECTOR('',#233,1.);
#132=VECTOR('',#234,1.);
#133=VECTOR('',#237,1.);
#134=VECTOR('',#238,1.);
#135=VECTOR('',#241,1.);
#136=VECTOR('',#242,1.);
#137=VECTOR('',#245,1.);
#138=VECTOR('',#246,1.);
#139=VECTOR('',#251,1.);
#140=VECTOR('',#254,1.);
#141=EDGE_LOOP('',(#18,#19,#20,#21));
#142=EDGE_LOOP('',(#22,#23,#24,#25,#26,#27,#28));
#143=EDGE_LOOP('',(#29));
#144=EDGE_LOOP('',(#30,#31,#32,#33));
#145=EDGE_LOOP('',(#34,#35,#36,#37,#38,#39,#40));
#146=EDGE_LOOP('',(#41,#42,#43,#44));
#147=EDGE_LOOP('',(#45,#46,#47,#48));
#148=EDGE_LOOP('',(#49,#50,#51,#52));
#149=EDGE_LOOP('',(#53,#54,#55,#56));
#150=EDGE_LOOP('',(#57));
#151=EDGE_LOOP('',(#58,#59,#60,#61));
#152=EDGE_LOOP('',(#62));
#153=EDGE_LOOP('',(#63));
#154=FACE_BOUND('',#141,.T.);
#155=FACE_BOUND('',#142,.T.);
#156=FACE_BOUND('',#143,.T.);
#157=FACE_BOUND('',#144,.T.);
#158=FACE_BOUND('',#145,.T.);
#159=FACE_BOUND('',#146,.T.);
#160=FACE_BOUND('',#147,.T.);
#161=FACE_BOUND('',#148,.T.);
#162=FACE_BOUND('',#149,.T.);
#163=FACE_BOUND('',#150,.T.);
#164=FACE_BOUND('',#151,.T.);
#165=FACE_BOUND('',#152,.T.);
#166=FACE_BOUND('',#153,.T.);
#167=PLANE('',#198);
#168=PLANE('',#199);
#169=PLANE('',#201);
#170=PLANE('',#203);
#171=PLANE('',#205);
#172=PLANE('',#206);
#173=PLANE('',#207);
#174=PLANE('',#209);
#175=ADVANCED_FACE('',(#154),#167,.T.);
#176=ADVANCED_FACE('',(#155),#168,.T.);
#177=ADVANCED_FACE('',(#156,#157),#169,.F.);
#178=ADVANCED_FACE('',(#158),#170,.F.);
#179=ADVANCED_FACE('',(#159),#171,.T.);
#180=ADVANCED_FACE('',(#160),#172,.F.);
#181=ADVANCED_FACE('',(#161),#173,.F.);
#182=ADVANCED_FACE('',(#162),#12,.F.);
#183=ADVANCED_FACE('',(#163,#164),#174,.T.);
#184=ADVANCED_FACE('',(#165,#166),#13,.F.);
#185=CLOSED_SHELL('',(#175,#176,#177,#178,#179,#180,#181,#182,#183,#184));
#186=STYLED_ITEM('',(#187),#194);
#187=PRESENTATION_STYLE_ASSIGNMENT((#188));
#188=SURFACE_STYLE_USAGE(.BOTH.,#189);
#189=SURFACE_SIDE_STYLE('',(#190));
#190=SURFACE_STYLE_FILL_AREA(#191);
#191=FILL_AREA_STYLE('',(#192));
#192=FILL_AREA_STYLE_COLOUR('',#193);
#193=COLOUR_RGB('',0.615686274509804,0.811764705882353,0.929411764705882);
#194=MANIFOLD_SOLID_BREP('Part 1',#185);
#195=SHAPE_DEFINITION_REPRESENTATION(#317,#196);
#196=SHAPE_REPRESENTATION('Part 1',(#197),#312);
#197=AXIS2_PLACEMENT_3D('',#261,#212,#213);
#198=AXIS2_PLACEMENT_3D('',#262,#214,#215);
#199=AXIS2_PLACEMENT_3D('',#271,#220,#221);
#200=AXIS2_PLACEMENT_3D('',#282,#227,#228);
#201=AXIS2_PLACEMENT_3D('',#283,#229,#230);
#202=AXIS2_PLACEMENT_3D('',#284,#231,#232);
#203=AXIS2_PLACEMENT_3D('',#289,#235,#236);
#204=AXIS2_PLACEMENT_3D('',#295,#239,#240);
#205=AXIS2_PLACEMENT_3D('',#299,#243,#244);
#206=AXIS2_PLACEMENT_3D('',#302,#247,#248);
#207=AXIS2_PLACEMENT_3D('',#303,#249,#250);
#208=AXIS2_PLACEMENT_3D('',#305,#252,#253);
#209=AXIS2_PLACEMENT_3D('',#307,#255,#256);
#210=AXIS2_PLACEMENT_3D('',#308,#257,#258);
#211=AXIS2_PLACEMENT_3D('',#310,#259,#260);
#212=DIRECTION('',(0.,0.,1.));
#213=DIRECTION('',(1.,0.,0.));
#214=DIRECTION('',(0.,0.,1.));
#215=DIRECTION('',(1.,0.,0.));
#216=DIRECTION('',(-1.,0.,0.));
#217=DIRECTION('',(1.15648231731787E-16,-1.,0.));
#218=DIRECTION('',(-1.,-1.15648231731787E-16,0.));
#219=DIRECTION('',(-1.7347234759768E-16,1.,0.));
#220=DIRECTION('',(1.15648231731787E-16,-1.,0.));
#221=DIRECTION('',(1.,1.15648231731787E-16,0.));
#222=DIRECTION('',(1.,1.15648231731787E-16,1.7347234759768E-16));
#223=DIRECTION('',(0.,0.,-1.));
#224=DIRECTION('',(-1.,-1.15648231731787E-16,0.));
#225=DIRECTION('',(0.,0.,-1.));
#226=DIRECTION('',(0.,0.,-1.));
#227=DIRECTION('',(1.15648231731787E-16,-1.,0.));
#228=DIRECTION('',(1.,1.15648231731787E-16,0.));
#229=DIRECTION('',(-1.,-1.7347234759768E-16,0.));
#230=DIRECTION('',(1.7347234759768E-16,-1.,0.));
#231=DIRECTION('',(1.,1.7347234759768E-16,0.));
#232=DIRECTION('',(-1.7347234759768E-16,1.,0.));
#233=DIRECTION('',(-1.7347234759768E-16,1.,0.));
#234=DIRECTION('',(0.,0.,-1.));
#235=DIRECTION('',(0.,-1.,0.));
#236=DIRECTION('',(0.,0.,-1.));
#237=DIRECTION('',(0.,0.,-1.));
#238=DIRECTION('',(1.,0.,1.7347234759768E-16));
#239=DIRECTION('',(0.,-1.,0.));
#240=DIRECTION('',(0.,0.,-1.));
#241=DIRECTION('',(0.,0.,-1.));
#242=DIRECTION('',(-1.,0.,0.));
#243=DIRECTION('',(-1.,-1.7347234759768E-16,0.));
#244=DIRECTION('',(1.7347234759768E-16,-1.,0.));
#245=DIRECTION('',(1.15648231731787E-16,-1.,0.));
#246=DIRECTION('',(-1.7347234759768E-16,1.,0.));
#247=DIRECTION('',(0.,0.,1.));
#248=DIRECTION('',(1.,0.,0.));
#249=DIRECTION('',(1.7347234759768E-16,2.00617702540337E-32,-1.));
#250=DIRECTION('',(-1.,0.,-1.7347234759768E-16));
#251=DIRECTION('',(1.15648231731787E-16,-1.,0.));
#252=DIRECTION('',(1.15648231731787E-16,-1.,0.));
#253=DIRECTION('',(1.,1.15648231731787E-16,0.));
#254=DIRECTION('',(1.15648231731787E-16,-1.,0.));
#255=DIRECTION('',(-1.,-1.15648231731787E-16,0.));
#256=DIRECTION('',(1.15648231731787E-16,-1.,0.));
#257=DIRECTION('',(-1.,-1.15648231731787E-16,0.));
#258=DIRECTION('',(1.15648231731787E-16,-1.,0.));
#259=DIRECTION('',(1.,1.7347234759768E-16,0.));
#260=DIRECTION('',(-1.7347234759768E-16,1.,0.));
#261=CARTESIAN_POINT('',(0.,0.,0.));
#262=CARTESIAN_POINT('',(0.,0.,0.015));
#263=CARTESIAN_POINT('',(-1.7347234759768E-18,0.005,0.015));
#264=CARTESIAN_POINT('',(0.0075,0.005,0.015));
#265=CARTESIAN_POINT('',(0.005,0.005,0.015));
#266=CARTESIAN_POINT('',(0.005,0.02,0.015));
#267=CARTESIAN_POINT('',(0.005,-0.005,0.015));
#268=CARTESIAN_POINT('',(8.67361737988404E-19,-0.005,0.015));
#269=CARTESIAN_POINT('',(0.0075,-0.005,0.015));
#270=CARTESIAN_POINT('',(0.0075,1.7347234759768E-18,0.015));
#271=CARTESIAN_POINT('',(8.67361737988404E-19,-0.005,0.015));
#272=CARTESIAN_POINT('',(-0.0025,-0.005,0.0025));
#273=CARTESIAN_POINT('',(-0.0075,-0.005,0.0025));
#274=CARTESIAN_POINT('',(0.0025,-0.005,0.0025));
#275=CARTESIAN_POINT('',(-0.0075,-0.005,0.015));
#276=CARTESIAN_POINT('',(-0.0075,-0.005,0.));
#277=CARTESIAN_POINT('',(8.67361737988404E-19,-0.005,0.));
#278=CARTESIAN_POINT('',(0.0075,-0.005,0.));
#279=CARTESIAN_POINT('',(0.0075,-0.005,0.015));
#280=CARTESIAN_POINT('',(0.005,-0.005,0.01));
#281=CARTESIAN_POINT('',(0.005,-0.005,0.005));
#282=CARTESIAN_POINT('',(0.0025,-0.005,0.005));
#283=CARTESIAN_POINT('',(0.0075,1.7347234759768E-18,0.015));
#284=CARTESIAN_POINT('',(0.0075,4.33680868994202E-19,0.01));
#285=CARTESIAN_POINT('',(0.0075,0.003,0.01));
#286=CARTESIAN_POINT('',(0.0075,1.7347234759768E-18,0.));
#287=CARTESIAN_POINT('',(0.0075,0.005,0.));
#288=CARTESIAN_POINT('',(0.0075,0.005,0.015));
#289=CARTESIAN_POINT('',(-1.7347234759768E-18,0.005,0.015));
#290=CARTESIAN_POINT('',(-0.0075,0.005,0.015));
#291=CARTESIAN_POINT('',(-0.0075,0.005,0.0025));
#292=CARTESIAN_POINT('',(-0.0075,0.005,0.));
#293=CARTESIAN_POINT('',(4.33680868994202E-19,0.005,0.0025));
#294=CARTESIAN_POINT('',(0.0025,0.005,0.0025));
#295=CARTESIAN_POINT('',(0.0025,0.005,0.005));
#296=CARTESIAN_POINT('',(0.005,0.005,0.005));
#297=CARTESIAN_POINT('',(0.005,0.005,0.015));
#298=CARTESIAN_POINT('',(-1.7347234759768E-18,0.005,0.));
#299=CARTESIAN_POINT('',(-0.0075,0.,0.015));
#300=CARTESIAN_POINT('',(-0.0075,0.02,0.0025));
#301=CARTESIAN_POINT('',(-0.0075,0.,0.));
#302=CARTESIAN_POINT('',(0.,0.,0.));
#303=CARTESIAN_POINT('',(-0.0025,0.02,0.0025));
#304=CARTESIAN_POINT('',(0.0025,0.02,0.0025));
#305=CARTESIAN_POINT('',(0.0025,0.02,0.005));
#306=CARTESIAN_POINT('',(0.005,0.02,0.005));
#307=CARTESIAN_POINT('',(0.005,0.02,0.01));
#308=CARTESIAN_POINT('',(0.005,7.70371977754894E-34,0.01));
#309=CARTESIAN_POINT('',(0.005,-0.003,0.01));
#310=CARTESIAN_POINT('',(-0.0175,-3.90312782094781E-18,0.01));
#311=MECHANICAL_DESIGN_GEOMETRIC_PRESENTATION_REPRESENTATION('',(#186),
#312);
#312=(
GEOMETRIC_REPRESENTATION_CONTEXT(3)
GLOBAL_UNCERTAINTY_ASSIGNED_CONTEXT((#313))
GLOBAL_UNIT_ASSIGNED_CONTEXT((#316,#315,#314))
REPRESENTATION_CONTEXT('Part 1','TOP_LEVEL_ASSEMBLY_PART')
);
#313=UNCERTAINTY_MEASURE_WITH_UNIT(LENGTH_MEASURE(1.E-8),#316,
'DISTANCE_ACCURACY_VALUE','Maximum Tolerance applied to model');
#314=(
NAMED_UNIT(*)
SI_UNIT($,.STERADIAN.)
SOLID_ANGLE_UNIT()
);
#315=(
NAMED_UNIT(*)
PLANE_ANGLE_UNIT()
SI_UNIT($,.RADIAN.)
);
#316=(
LENGTH_UNIT()
NAMED_UNIT(*)
SI_UNIT($,.METRE.)
);
#317=PRODUCT_DEFINITION_SHAPE('','',#318);
#318=PRODUCT_DEFINITION('','',#320,#319);
#319=PRODUCT_DEFINITION_CONTEXT('',#326,'design');
#320=PRODUCT_DEFINITION_FORMATION_WITH_SPECIFIED_SOURCE('','',#322,
 .NOT_KNOWN.);
#321=PRODUCT_RELATED_PRODUCT_CATEGORY('','',(#322));
#322=PRODUCT('Part 1','Part 1','Part 1',(#324));
#323=PRODUCT_CATEGORY('','');
#324=PRODUCT_CONTEXT('',#326,'mechanical');
#325=APPLICATION_PROTOCOL_DEFINITION('international standard',
'ap242_managed_model_based_3d_engineering',2020,#326);
#326=APPLICATION_CONTEXT('managed model based 3d engineering');
ENDSEC;
END-ISO-10303-21;
