ISO-10303-21;
HEADER;
/* Generated by software containing ST-Developer
 * from STEP Tools, Inc. (www.steptools.com) 
 */
/* OPTION: using custom renumber hook */

FILE_DESCRIPTION(
/* description */ ('STEP AP242 Edition 2',
'CAx-IF Rec.Pracs.---Representation and Presentation of Product Manufa
cturing Information (PMI)---4.0---2014-10-13',
'CAx-IF Rec.Pracs.---3D Tessellated Geometry---0.4---2014-09-14','2;1',
'CAx-IF Rec.Pracs.---User Defined Attributes---1.5---2016-08-15'),
/* implementation_level */ '2;1');

FILE_NAME(
/* name */ 'Front Camera Mount',
/* time_stamp */ '2026-04-29T20:59:52Z',
/* author */ (''),
/* organization */ (''),
/* preprocessor_version */ 'ST-DEVELOPER v20',
/* originating_system */ 'ONSHAPE BY PTC INC, 1.214',
/* authorisation */ '  ');

FILE_SCHEMA (('AP242_MANAGED_MODEL_BASED_3D_ENGINEERING_MIM_LF { 1 0 10303 442 3 1 4 }'));
ENDSEC;

DATA;
#10=SHAPE_REPRESENTATION_RELATIONSHIP('','',#1307,#11);
#11=ADVANCED_BREP_SHAPE_REPRESENTATION('',(#1305),#2177);
#12=SPHERICAL_SURFACE('',#1390,0.002);
#13=SPHERICAL_SURFACE('',#1399,0.002);
#14=SPHERICAL_SURFACE('',#1401,0.002);
#15=SPHERICAL_SURFACE('',#1410,0.002);
#16=ELLIPSE('',#1316,0.004,0.002);
#17=ELLIPSE('',#1317,0.004,0.002);
#18=ELLIPSE('',#1321,0.00692820323027551,0.006);
#19=ELLIPSE('',#1373,0.00282842712474619,0.002);
#20=ELLIPSE('',#1374,0.00282842712474619,0.002);
#21=ELLIPSE('',#1376,0.00282842712474619,0.002);
#22=ELLIPSE('',#1378,0.00282842712474619,0.002);
#23=ELLIPSE('',#1381,0.00282842712474619,0.002);
#24=ELLIPSE('',#1383,0.00282842712474619,0.002);
#25=ELLIPSE('',#1385,0.00282842712474619,0.002);
#26=ELLIPSE('',#1396,0.00282842712474619,0.002);
#27=ELLIPSE('',#1409,0.00282842712474619,0.002);
#28=ELLIPSE('',#1413,0.00282842712474619,0.002);
#29=ELLIPSE('',#1416,0.00282842712474619,0.002);
#30=ELLIPSE('',#1418,0.00282842712474619,0.002);
#31=ELLIPSE('',#1423,0.00282842712474619,0.002);
#32=ELLIPSE('',#1424,0.00282842712474619,0.002);
#33=ELLIPSE('',#1426,0.00282842712474619,0.002);
#34=ELLIPSE('',#1428,0.00282842712474619,0.002);
#35=PLANE('',#1315);
#36=PLANE('',#1318);
#37=PLANE('',#1319);
#38=PLANE('',#1320);
#39=PLANE('',#1322);
#40=PLANE('',#1323);
#41=PLANE('',#1324);
#42=PLANE('',#1325);
#43=PLANE('',#1326);
#44=PLANE('',#1327);
#45=PLANE('',#1328);
#46=PLANE('',#1329);
#47=PLANE('',#1330);
#48=PLANE('',#1331);
#49=PLANE('',#1332);
#50=PLANE('',#1334);
#51=PLANE('',#1335);
#52=PLANE('',#1337);
#53=PLANE('',#1340);
#54=PLANE('',#1341);
#55=PLANE('',#1342);
#56=PLANE('',#1345);
#57=PLANE('',#1346);
#58=PLANE('',#1349);
#59=PLANE('',#1350);
#60=PLANE('',#1351);
#61=PLANE('',#1352);
#62=PLANE('',#1359);
#63=PLANE('',#1360);
#64=PLANE('',#1361);
#65=PLANE('',#1362);
#66=PLANE('',#1371);
#67=PLANE('',#1430);
#68=PLANE('',#1431);
#69=PLANE('',#1432);
#70=PLANE('',#1433);
#71=CIRCLE('',#1310,0.002);
#72=CIRCLE('',#1311,0.002);
#73=CIRCLE('',#1313,0.002);
#74=CIRCLE('',#1314,0.002);
#75=CIRCLE('',#1333,0.006);
#76=CIRCLE('',#1336,0.002);
#77=CIRCLE('',#1338,0.002);
#78=CIRCLE('',#1343,0.002);
#79=CIRCLE('',#1344,0.002);
#80=CIRCLE('',#1347,0.002);
#81=CIRCLE('',#1348,0.002);
#82=CIRCLE('',#1353,0.00275);
#83=CIRCLE('',#1354,0.00275);
#84=CIRCLE('',#1355,0.00275);
#85=CIRCLE('',#1356,0.00275);
#86=CIRCLE('',#1357,0.002);
#87=CIRCLE('',#1358,0.002);
#88=CIRCLE('',#1363,0.00275);
#89=CIRCLE('',#1364,0.00275);
#90=CIRCLE('',#1365,0.00275);
#91=CIRCLE('',#1366,0.00275);
#92=CIRCLE('',#1387,0.002);
#93=CIRCLE('',#1389,0.002);
#94=CIRCLE('',#1391,0.002);
#95=CIRCLE('',#1393,0.002);
#96=CIRCLE('',#1395,0.002);
#97=CIRCLE('',#1398,0.002);
#98=CIRCLE('',#1400,0.002);
#99=CIRCLE('',#1402,0.002);
#100=CIRCLE('',#1403,0.002);
#101=CIRCLE('',#1405,0.002);
#102=CIRCLE('',#1407,0.002);
#103=CIRCLE('',#1411,0.002);
#104=ORIENTED_EDGE('',*,*,#460,.F.);
#105=ORIENTED_EDGE('',*,*,#461,.T.);
#106=ORIENTED_EDGE('',*,*,#462,.F.);
#107=ORIENTED_EDGE('',*,*,#463,.F.);
#108=ORIENTED_EDGE('',*,*,#464,.F.);
#109=ORIENTED_EDGE('',*,*,#465,.T.);
#110=ORIENTED_EDGE('',*,*,#466,.F.);
#111=ORIENTED_EDGE('',*,*,#467,.F.);
#112=ORIENTED_EDGE('',*,*,#468,.F.);
#113=ORIENTED_EDGE('',*,*,#469,.T.);
#114=ORIENTED_EDGE('',*,*,#470,.T.);
#115=ORIENTED_EDGE('',*,*,#471,.T.);
#116=ORIENTED_EDGE('',*,*,#472,.T.);
#117=ORIENTED_EDGE('',*,*,#473,.T.);
#118=ORIENTED_EDGE('',*,*,#474,.T.);
#119=ORIENTED_EDGE('',*,*,#475,.T.);
#120=ORIENTED_EDGE('',*,*,#476,.T.);
#121=ORIENTED_EDGE('',*,*,#477,.T.);
#122=ORIENTED_EDGE('',*,*,#478,.T.);
#123=ORIENTED_EDGE('',*,*,#479,.T.);
#124=ORIENTED_EDGE('',*,*,#480,.T.);
#125=ORIENTED_EDGE('',*,*,#481,.T.);
#126=ORIENTED_EDGE('',*,*,#482,.T.);
#127=ORIENTED_EDGE('',*,*,#483,.T.);
#128=ORIENTED_EDGE('',*,*,#484,.T.);
#129=ORIENTED_EDGE('',*,*,#485,.T.);
#130=ORIENTED_EDGE('',*,*,#486,.T.);
#131=ORIENTED_EDGE('',*,*,#487,.T.);
#132=ORIENTED_EDGE('',*,*,#488,.F.);
#133=ORIENTED_EDGE('',*,*,#489,.T.);
#134=ORIENTED_EDGE('',*,*,#490,.F.);
#135=ORIENTED_EDGE('',*,*,#488,.T.);
#136=ORIENTED_EDGE('',*,*,#491,.T.);
#137=ORIENTED_EDGE('',*,*,#492,.T.);
#138=ORIENTED_EDGE('',*,*,#493,.T.);
#139=ORIENTED_EDGE('',*,*,#494,.F.);
#140=ORIENTED_EDGE('',*,*,#495,.T.);
#141=ORIENTED_EDGE('',*,*,#496,.F.);
#142=ORIENTED_EDGE('',*,*,#497,.F.);
#143=ORIENTED_EDGE('',*,*,#498,.T.);
#144=ORIENTED_EDGE('',*,*,#499,.T.);
#145=ORIENTED_EDGE('',*,*,#464,.T.);
#146=ORIENTED_EDGE('',*,*,#500,.T.);
#147=ORIENTED_EDGE('',*,*,#501,.F.);
#148=ORIENTED_EDGE('',*,*,#502,.T.);
#149=ORIENTED_EDGE('',*,*,#503,.T.);
#150=ORIENTED_EDGE('',*,*,#504,.F.);
#151=ORIENTED_EDGE('',*,*,#505,.T.);
#152=ORIENTED_EDGE('',*,*,#506,.T.);
#153=ORIENTED_EDGE('',*,*,#507,.T.);
#154=ORIENTED_EDGE('',*,*,#508,.T.);
#155=ORIENTED_EDGE('',*,*,#509,.F.);
#156=ORIENTED_EDGE('',*,*,#510,.T.);
#157=ORIENTED_EDGE('',*,*,#511,.T.);
#158=ORIENTED_EDGE('',*,*,#512,.F.);
#159=ORIENTED_EDGE('',*,*,#513,.T.);
#160=ORIENTED_EDGE('',*,*,#514,.T.);
#161=ORIENTED_EDGE('',*,*,#515,.T.);
#162=ORIENTED_EDGE('',*,*,#516,.F.);
#163=ORIENTED_EDGE('',*,*,#517,.T.);
#164=ORIENTED_EDGE('',*,*,#518,.T.);
#165=ORIENTED_EDGE('',*,*,#462,.T.);
#166=ORIENTED_EDGE('',*,*,#519,.T.);
#167=ORIENTED_EDGE('',*,*,#520,.F.);
#168=ORIENTED_EDGE('',*,*,#521,.F.);
#169=ORIENTED_EDGE('',*,*,#522,.F.);
#170=ORIENTED_EDGE('',*,*,#523,.T.);
#171=ORIENTED_EDGE('',*,*,#524,.F.);
#172=ORIENTED_EDGE('',*,*,#525,.F.);
#173=ORIENTED_EDGE('',*,*,#520,.T.);
#174=ORIENTED_EDGE('',*,*,#526,.T.);
#175=ORIENTED_EDGE('',*,*,#498,.F.);
#176=ORIENTED_EDGE('',*,*,#527,.F.);
#177=ORIENTED_EDGE('',*,*,#528,.T.);
#178=ORIENTED_EDGE('',*,*,#466,.T.);
#179=ORIENTED_EDGE('',*,*,#529,.F.);
#180=ORIENTED_EDGE('',*,*,#460,.T.);
#181=ORIENTED_EDGE('',*,*,#509,.T.);
#182=ORIENTED_EDGE('',*,*,#530,.T.);
#183=ORIENTED_EDGE('',*,*,#531,.T.);
#184=ORIENTED_EDGE('',*,*,#532,.T.);
#185=ORIENTED_EDGE('',*,*,#533,.T.);
#186=ORIENTED_EDGE('',*,*,#534,.T.);
#187=ORIENTED_EDGE('',*,*,#535,.T.);
#188=ORIENTED_EDGE('',*,*,#536,.T.);
#189=ORIENTED_EDGE('',*,*,#537,.T.);
#190=ORIENTED_EDGE('',*,*,#538,.T.);
#191=ORIENTED_EDGE('',*,*,#539,.T.);
#192=ORIENTED_EDGE('',*,*,#540,.T.);
#193=ORIENTED_EDGE('',*,*,#541,.T.);
#194=ORIENTED_EDGE('',*,*,#542,.T.);
#195=ORIENTED_EDGE('',*,*,#501,.T.);
#196=ORIENTED_EDGE('',*,*,#543,.T.);
#197=ORIENTED_EDGE('',*,*,#517,.F.);
#198=ORIENTED_EDGE('',*,*,#544,.T.);
#199=ORIENTED_EDGE('',*,*,#524,.T.);
#200=ORIENTED_EDGE('',*,*,#545,.T.);
#201=ORIENTED_EDGE('',*,*,#503,.F.);
#202=ORIENTED_EDGE('',*,*,#546,.F.);
#203=ORIENTED_EDGE('',*,*,#547,.T.);
#204=ORIENTED_EDGE('',*,*,#548,.T.);
#205=ORIENTED_EDGE('',*,*,#549,.F.);
#206=ORIENTED_EDGE('',*,*,#550,.F.);
#207=ORIENTED_EDGE('',*,*,#544,.F.);
#208=ORIENTED_EDGE('',*,*,#525,.T.);
#209=ORIENTED_EDGE('',*,*,#546,.T.);
#210=ORIENTED_EDGE('',*,*,#502,.F.);
#211=ORIENTED_EDGE('',*,*,#473,.F.);
#212=ORIENTED_EDGE('',*,*,#551,.F.);
#213=ORIENTED_EDGE('',*,*,#496,.T.);
#214=ORIENTED_EDGE('',*,*,#552,.T.);
#215=ORIENTED_EDGE('',*,*,#553,.F.);
#216=ORIENTED_EDGE('',*,*,#554,.F.);
#217=ORIENTED_EDGE('',*,*,#555,.T.);
#218=ORIENTED_EDGE('',*,*,#494,.T.);
#219=ORIENTED_EDGE('',*,*,#556,.F.);
#220=ORIENTED_EDGE('',*,*,#557,.T.);
#221=ORIENTED_EDGE('',*,*,#468,.T.);
#222=ORIENTED_EDGE('',*,*,#552,.F.);
#223=ORIENTED_EDGE('',*,*,#495,.F.);
#224=ORIENTED_EDGE('',*,*,#555,.F.);
#225=ORIENTED_EDGE('',*,*,#558,.T.);
#226=ORIENTED_EDGE('',*,*,#547,.F.);
#227=ORIENTED_EDGE('',*,*,#559,.F.);
#228=ORIENTED_EDGE('',*,*,#560,.T.);
#229=ORIENTED_EDGE('',*,*,#472,.F.);
#230=ORIENTED_EDGE('',*,*,#561,.T.);
#231=ORIENTED_EDGE('',*,*,#562,.T.);
#232=ORIENTED_EDGE('',*,*,#563,.T.);
#233=ORIENTED_EDGE('',*,*,#549,.T.);
#234=ORIENTED_EDGE('',*,*,#564,.F.);
#235=ORIENTED_EDGE('',*,*,#556,.T.);
#236=ORIENTED_EDGE('',*,*,#497,.T.);
#237=ORIENTED_EDGE('',*,*,#551,.T.);
#238=ORIENTED_EDGE('',*,*,#490,.T.);
#239=ORIENTED_EDGE('',*,*,#553,.T.);
#240=ORIENTED_EDGE('',*,*,#522,.T.);
#241=ORIENTED_EDGE('',*,*,#565,.F.);
#242=ORIENTED_EDGE('',*,*,#566,.T.);
#243=ORIENTED_EDGE('',*,*,#567,.T.);
#244=ORIENTED_EDGE('',*,*,#568,.T.);
#245=ORIENTED_EDGE('',*,*,#569,.T.);
#246=ORIENTED_EDGE('',*,*,#570,.F.);
#247=ORIENTED_EDGE('',*,*,#565,.T.);
#248=ORIENTED_EDGE('',*,*,#521,.T.);
#249=ORIENTED_EDGE('',*,*,#527,.T.);
#250=ORIENTED_EDGE('',*,*,#506,.F.);
#251=ORIENTED_EDGE('',*,*,#571,.T.);
#252=ORIENTED_EDGE('',*,*,#516,.T.);
#253=ORIENTED_EDGE('',*,*,#572,.T.);
#254=ORIENTED_EDGE('',*,*,#573,.F.);
#255=ORIENTED_EDGE('',*,*,#566,.F.);
#256=ORIENTED_EDGE('',*,*,#570,.T.);
#257=ORIENTED_EDGE('',*,*,#574,.T.);
#258=ORIENTED_EDGE('',*,*,#573,.T.);
#259=ORIENTED_EDGE('',*,*,#575,.T.);
#260=ORIENTED_EDGE('',*,*,#576,.F.);
#261=ORIENTED_EDGE('',*,*,#577,.F.);
#262=ORIENTED_EDGE('',*,*,#504,.T.);
#263=ORIENTED_EDGE('',*,*,#545,.F.);
#264=ORIENTED_EDGE('',*,*,#523,.F.);
#265=ORIENTED_EDGE('',*,*,#567,.F.);
#266=ORIENTED_EDGE('',*,*,#514,.F.);
#267=ORIENTED_EDGE('',*,*,#578,.T.);
#268=ORIENTED_EDGE('',*,*,#568,.F.);
#269=ORIENTED_EDGE('',*,*,#579,.T.);
#270=ORIENTED_EDGE('',*,*,#576,.T.);
#271=ORIENTED_EDGE('',*,*,#580,.T.);
#272=ORIENTED_EDGE('',*,*,#577,.T.);
#273=ORIENTED_EDGE('',*,*,#579,.F.);
#274=ORIENTED_EDGE('',*,*,#571,.F.);
#275=ORIENTED_EDGE('',*,*,#505,.F.);
#276=ORIENTED_EDGE('',*,*,#563,.F.);
#277=ORIENTED_EDGE('',*,*,#581,.T.);
#278=ORIENTED_EDGE('',*,*,#559,.T.);
#279=ORIENTED_EDGE('',*,*,#550,.T.);
#280=ORIENTED_EDGE('',*,*,#558,.F.);
#281=ORIENTED_EDGE('',*,*,#554,.T.);
#282=ORIENTED_EDGE('',*,*,#564,.T.);
#283=ORIENTED_EDGE('',*,*,#548,.F.);
#284=ORIENTED_EDGE('',*,*,#582,.F.);
#285=ORIENTED_EDGE('',*,*,#583,.F.);
#286=ORIENTED_EDGE('',*,*,#584,.F.);
#287=ORIENTED_EDGE('',*,*,#585,.F.);
#288=ORIENTED_EDGE('',*,*,#537,.F.);
#289=ORIENTED_EDGE('',*,*,#586,.T.);
#290=ORIENTED_EDGE('',*,*,#486,.F.);
#291=ORIENTED_EDGE('',*,*,#587,.T.);
#292=ORIENTED_EDGE('',*,*,#512,.T.);
#293=ORIENTED_EDGE('',*,*,#588,.T.);
#294=ORIENTED_EDGE('',*,*,#589,.F.);
#295=ORIENTED_EDGE('',*,*,#590,.T.);
#296=ORIENTED_EDGE('',*,*,#591,.T.);
#297=ORIENTED_EDGE('',*,*,#592,.T.);
#298=ORIENTED_EDGE('',*,*,#593,.F.);
#299=ORIENTED_EDGE('',*,*,#594,.T.);
#300=ORIENTED_EDGE('',*,*,#589,.T.);
#301=ORIENTED_EDGE('',*,*,#595,.T.);
#302=ORIENTED_EDGE('',*,*,#596,.F.);
#303=ORIENTED_EDGE('',*,*,#597,.T.);
#304=ORIENTED_EDGE('',*,*,#593,.T.);
#305=ORIENTED_EDGE('',*,*,#598,.T.);
#306=ORIENTED_EDGE('',*,*,#599,.F.);
#307=ORIENTED_EDGE('',*,*,#600,.F.);
#308=ORIENTED_EDGE('',*,*,#601,.F.);
#309=ORIENTED_EDGE('',*,*,#602,.F.);
#310=ORIENTED_EDGE('',*,*,#591,.F.);
#311=ORIENTED_EDGE('',*,*,#603,.T.);
#312=ORIENTED_EDGE('',*,*,#596,.T.);
#313=ORIENTED_EDGE('',*,*,#604,.T.);
#314=ORIENTED_EDGE('',*,*,#602,.T.);
#315=ORIENTED_EDGE('',*,*,#585,.T.);
#316=ORIENTED_EDGE('',*,*,#601,.T.);
#317=ORIENTED_EDGE('',*,*,#584,.T.);
#318=ORIENTED_EDGE('',*,*,#600,.T.);
#319=ORIENTED_EDGE('',*,*,#583,.T.);
#320=ORIENTED_EDGE('',*,*,#599,.T.);
#321=ORIENTED_EDGE('',*,*,#582,.T.);
#322=ORIENTED_EDGE('',*,*,#470,.F.);
#323=ORIENTED_EDGE('',*,*,#605,.T.);
#324=ORIENTED_EDGE('',*,*,#606,.T.);
#325=ORIENTED_EDGE('',*,*,#607,.T.);
#326=ORIENTED_EDGE('',*,*,#608,.F.);
#327=ORIENTED_EDGE('',*,*,#485,.F.);
#328=ORIENTED_EDGE('',*,*,#609,.F.);
#329=ORIENTED_EDGE('',*,*,#590,.F.);
#330=ORIENTED_EDGE('',*,*,#609,.T.);
#331=ORIENTED_EDGE('',*,*,#484,.F.);
#332=ORIENTED_EDGE('',*,*,#610,.F.);
#333=ORIENTED_EDGE('',*,*,#603,.F.);
#334=ORIENTED_EDGE('',*,*,#608,.T.);
#335=ORIENTED_EDGE('',*,*,#594,.F.);
#336=ORIENTED_EDGE('',*,*,#611,.F.);
#337=ORIENTED_EDGE('',*,*,#482,.F.);
#338=ORIENTED_EDGE('',*,*,#610,.T.);
#339=ORIENTED_EDGE('',*,*,#483,.F.);
#340=ORIENTED_EDGE('',*,*,#611,.T.);
#341=ORIENTED_EDGE('',*,*,#597,.F.);
#342=ORIENTED_EDGE('',*,*,#587,.F.);
#343=ORIENTED_EDGE('',*,*,#489,.F.);
#344=ORIENTED_EDGE('',*,*,#612,.F.);
#345=ORIENTED_EDGE('',*,*,#507,.F.);
#346=ORIENTED_EDGE('',*,*,#586,.F.);
#347=ORIENTED_EDGE('',*,*,#542,.F.);
#348=ORIENTED_EDGE('',*,*,#613,.F.);
#349=ORIENTED_EDGE('',*,*,#487,.F.);
#350=ORIENTED_EDGE('',*,*,#612,.T.);
#351=ORIENTED_EDGE('',*,*,#493,.F.);
#352=ORIENTED_EDGE('',*,*,#614,.F.);
#353=ORIENTED_EDGE('',*,*,#508,.F.);
#354=ORIENTED_EDGE('',*,*,#613,.T.);
#355=ORIENTED_EDGE('',*,*,#541,.F.);
#356=ORIENTED_EDGE('',*,*,#615,.F.);
#357=ORIENTED_EDGE('',*,*,#491,.F.);
#358=ORIENTED_EDGE('',*,*,#614,.T.);
#359=ORIENTED_EDGE('',*,*,#492,.F.);
#360=ORIENTED_EDGE('',*,*,#616,.F.);
#361=ORIENTED_EDGE('',*,*,#530,.F.);
#362=ORIENTED_EDGE('',*,*,#616,.T.);
#363=ORIENTED_EDGE('',*,*,#615,.T.);
#364=ORIENTED_EDGE('',*,*,#617,.F.);
#365=ORIENTED_EDGE('',*,*,#617,.T.);
#366=ORIENTED_EDGE('',*,*,#540,.F.);
#367=ORIENTED_EDGE('',*,*,#618,.F.);
#368=ORIENTED_EDGE('',*,*,#531,.F.);
#369=ORIENTED_EDGE('',*,*,#619,.F.);
#370=ORIENTED_EDGE('',*,*,#534,.F.);
#371=ORIENTED_EDGE('',*,*,#620,.F.);
#372=ORIENTED_EDGE('',*,*,#532,.F.);
#373=ORIENTED_EDGE('',*,*,#620,.T.);
#374=ORIENTED_EDGE('',*,*,#533,.F.);
#375=ORIENTED_EDGE('',*,*,#621,.F.);
#376=ORIENTED_EDGE('',*,*,#510,.F.);
#377=ORIENTED_EDGE('',*,*,#619,.T.);
#378=ORIENTED_EDGE('',*,*,#618,.T.);
#379=ORIENTED_EDGE('',*,*,#622,.F.);
#380=ORIENTED_EDGE('',*,*,#623,.F.);
#381=ORIENTED_EDGE('',*,*,#621,.T.);
#382=ORIENTED_EDGE('',*,*,#624,.F.);
#383=ORIENTED_EDGE('',*,*,#622,.T.);
#384=ORIENTED_EDGE('',*,*,#539,.F.);
#385=ORIENTED_EDGE('',*,*,#625,.F.);
#386=ORIENTED_EDGE('',*,*,#535,.F.);
#387=ORIENTED_EDGE('',*,*,#624,.T.);
#388=ORIENTED_EDGE('',*,*,#536,.F.);
#389=ORIENTED_EDGE('',*,*,#626,.F.);
#390=ORIENTED_EDGE('',*,*,#481,.F.);
#391=ORIENTED_EDGE('',*,*,#623,.T.);
#392=ORIENTED_EDGE('',*,*,#480,.F.);
#393=ORIENTED_EDGE('',*,*,#627,.F.);
#394=ORIENTED_EDGE('',*,*,#511,.F.);
#395=ORIENTED_EDGE('',*,*,#626,.T.);
#396=ORIENTED_EDGE('',*,*,#625,.T.);
#397=ORIENTED_EDGE('',*,*,#628,.F.);
#398=ORIENTED_EDGE('',*,*,#627,.T.);
#399=ORIENTED_EDGE('',*,*,#479,.F.);
#400=ORIENTED_EDGE('',*,*,#629,.F.);
#401=ORIENTED_EDGE('',*,*,#588,.F.);
#402=ORIENTED_EDGE('',*,*,#628,.T.);
#403=ORIENTED_EDGE('',*,*,#538,.F.);
#404=ORIENTED_EDGE('',*,*,#629,.T.);
#405=ORIENTED_EDGE('',*,*,#478,.F.);
#406=ORIENTED_EDGE('',*,*,#471,.F.);
#407=ORIENTED_EDGE('',*,*,#607,.F.);
#408=ORIENTED_EDGE('',*,*,#630,.F.);
#409=ORIENTED_EDGE('',*,*,#561,.F.);
#410=ORIENTED_EDGE('',*,*,#630,.T.);
#411=ORIENTED_EDGE('',*,*,#606,.F.);
#412=ORIENTED_EDGE('',*,*,#631,.F.);
#413=ORIENTED_EDGE('',*,*,#560,.F.);
#414=ORIENTED_EDGE('',*,*,#581,.F.);
#415=ORIENTED_EDGE('',*,*,#562,.F.);
#416=ORIENTED_EDGE('',*,*,#469,.F.);
#417=ORIENTED_EDGE('',*,*,#557,.F.);
#418=ORIENTED_EDGE('',*,*,#631,.T.);
#419=ORIENTED_EDGE('',*,*,#605,.F.);
#420=ORIENTED_EDGE('',*,*,#574,.F.);
#421=ORIENTED_EDGE('',*,*,#569,.F.);
#422=ORIENTED_EDGE('',*,*,#578,.F.);
#423=ORIENTED_EDGE('',*,*,#513,.F.);
#424=ORIENTED_EDGE('',*,*,#572,.F.);
#425=ORIENTED_EDGE('',*,*,#515,.F.);
#426=ORIENTED_EDGE('',*,*,#580,.F.);
#427=ORIENTED_EDGE('',*,*,#575,.F.);
#428=ORIENTED_EDGE('',*,*,#632,.F.);
#429=ORIENTED_EDGE('',*,*,#595,.F.);
#430=ORIENTED_EDGE('',*,*,#633,.F.);
#431=ORIENTED_EDGE('',*,*,#477,.F.);
#432=ORIENTED_EDGE('',*,*,#633,.T.);
#433=ORIENTED_EDGE('',*,*,#592,.F.);
#434=ORIENTED_EDGE('',*,*,#634,.F.);
#435=ORIENTED_EDGE('',*,*,#474,.F.);
#436=ORIENTED_EDGE('',*,*,#632,.T.);
#437=ORIENTED_EDGE('',*,*,#476,.F.);
#438=ORIENTED_EDGE('',*,*,#635,.F.);
#439=ORIENTED_EDGE('',*,*,#598,.F.);
#440=ORIENTED_EDGE('',*,*,#634,.T.);
#441=ORIENTED_EDGE('',*,*,#604,.F.);
#442=ORIENTED_EDGE('',*,*,#635,.T.);
#443=ORIENTED_EDGE('',*,*,#475,.F.);
#444=ORIENTED_EDGE('',*,*,#528,.F.);
#445=ORIENTED_EDGE('',*,*,#463,.T.);
#446=ORIENTED_EDGE('',*,*,#636,.T.);
#447=ORIENTED_EDGE('',*,*,#467,.T.);
#448=ORIENTED_EDGE('',*,*,#518,.F.);
#449=ORIENTED_EDGE('',*,*,#543,.F.);
#450=ORIENTED_EDGE('',*,*,#500,.F.);
#451=ORIENTED_EDGE('',*,*,#636,.F.);
#452=ORIENTED_EDGE('',*,*,#461,.F.);
#453=ORIENTED_EDGE('',*,*,#529,.T.);
#454=ORIENTED_EDGE('',*,*,#465,.F.);
#455=ORIENTED_EDGE('',*,*,#637,.F.);
#456=ORIENTED_EDGE('',*,*,#519,.F.);
#457=ORIENTED_EDGE('',*,*,#637,.T.);
#458=ORIENTED_EDGE('',*,*,#499,.F.);
#459=ORIENTED_EDGE('',*,*,#526,.F.);
#460=EDGE_CURVE('',#638,#639,#750,.F.);
#461=EDGE_CURVE('',#638,#640,#71,.F.);
#462=EDGE_CURVE('',#641,#640,#751,.T.);
#463=EDGE_CURVE('',#639,#641,#72,.F.);
#464=EDGE_CURVE('',#642,#643,#752,.F.);
#465=EDGE_CURVE('',#642,#644,#73,.F.);
#466=EDGE_CURVE('',#645,#644,#753,.T.);
#467=EDGE_CURVE('',#643,#645,#74,.F.);
#468=EDGE_CURVE('',#646,#647,#754,.T.);
#469=EDGE_CURVE('',#646,#648,#16,.F.);
#470=EDGE_CURVE('',#648,#649,#755,.T.);
#471=EDGE_CURVE('',#649,#650,#17,.F.);
#472=EDGE_CURVE('',#650,#651,#756,.T.);
#473=EDGE_CURVE('',#651,#647,#757,.T.);
#474=EDGE_CURVE('',#652,#653,#758,.T.);
#475=EDGE_CURVE('',#653,#654,#759,.T.);
#476=EDGE_CURVE('',#654,#655,#760,.F.);
#477=EDGE_CURVE('',#655,#652,#761,.F.);
#478=EDGE_CURVE('',#656,#657,#762,.T.);
#479=EDGE_CURVE('',#657,#658,#763,.F.);
#480=EDGE_CURVE('',#658,#659,#764,.F.);
#481=EDGE_CURVE('',#659,#656,#765,.T.);
#482=EDGE_CURVE('',#660,#661,#766,.F.);
#483=EDGE_CURVE('',#661,#662,#767,.F.);
#484=EDGE_CURVE('',#662,#663,#768,.T.);
#485=EDGE_CURVE('',#663,#660,#769,.T.);
#486=EDGE_CURVE('',#664,#665,#770,.T.);
#487=EDGE_CURVE('',#665,#666,#771,.T.);
#488=EDGE_CURVE('',#667,#666,#772,.T.);
#489=EDGE_CURVE('',#667,#664,#773,.F.);
#490=EDGE_CURVE('',#668,#668,#18,.T.);
#491=EDGE_CURVE('',#666,#669,#774,.F.);
#492=EDGE_CURVE('',#669,#670,#775,.F.);
#493=EDGE_CURVE('',#670,#667,#776,.T.);
#494=EDGE_CURVE('',#671,#672,#777,.T.);
#495=EDGE_CURVE('',#671,#673,#778,.T.);
#496=EDGE_CURVE('',#674,#673,#779,.T.);
#497=EDGE_CURVE('',#672,#674,#780,.T.);
#498=EDGE_CURVE('',#675,#676,#781,.T.);
#499=EDGE_CURVE('',#676,#642,#782,.F.);
#500=EDGE_CURVE('',#643,#677,#783,.F.);
#501=EDGE_CURVE('',#678,#677,#784,.T.);
#502=EDGE_CURVE('',#678,#679,#785,.T.);
#503=EDGE_CURVE('',#679,#680,#786,.T.);
#504=EDGE_CURVE('',#681,#680,#787,.T.);
#505=EDGE_CURVE('',#681,#682,#788,.T.);
#506=EDGE_CURVE('',#682,#675,#789,.T.);
#507=EDGE_CURVE('',#683,#684,#790,.T.);
#508=EDGE_CURVE('',#684,#685,#791,.F.);
#509=EDGE_CURVE('',#686,#685,#792,.T.);
#510=EDGE_CURVE('',#686,#687,#793,.T.);
#511=EDGE_CURVE('',#687,#688,#794,.T.);
#512=EDGE_CURVE('',#683,#688,#795,.T.);
#513=EDGE_CURVE('',#689,#690,#796,.T.);
#514=EDGE_CURVE('',#690,#691,#797,.T.);
#515=EDGE_CURVE('',#691,#692,#798,.F.);
#516=EDGE_CURVE('',#689,#692,#799,.T.);
#517=EDGE_CURVE('',#693,#694,#800,.T.);
#518=EDGE_CURVE('',#694,#641,#801,.T.);
#519=EDGE_CURVE('',#640,#695,#802,.F.);
#520=EDGE_CURVE('',#696,#695,#803,.T.);
#521=EDGE_CURVE('',#697,#696,#804,.T.);
#522=EDGE_CURVE('',#698,#697,#805,.T.);
#523=EDGE_CURVE('',#698,#699,#806,.T.);
#524=EDGE_CURVE('',#700,#699,#807,.T.);
#525=EDGE_CURVE('',#693,#700,#808,.T.);
#526=EDGE_CURVE('',#695,#676,#809,.T.);
#527=EDGE_CURVE('',#696,#675,#810,.T.);
#528=EDGE_CURVE('',#639,#645,#811,.T.);
#529=EDGE_CURVE('',#638,#644,#812,.T.);
#530=EDGE_CURVE('',#685,#701,#813,.T.);
#531=EDGE_CURVE('',#701,#702,#814,.F.);
#532=EDGE_CURVE('',#702,#686,#815,.F.);
#533=EDGE_CURVE('',#703,#704,#816,.F.);
#534=EDGE_CURVE('',#704,#705,#817,.T.);
#535=EDGE_CURVE('',#705,#706,#818,.T.);
#536=EDGE_CURVE('',#706,#703,#819,.F.);
#537=EDGE_CURVE('',#707,#708,#820,.T.);
#538=EDGE_CURVE('',#708,#709,#821,.F.);
#539=EDGE_CURVE('',#709,#710,#822,.F.);
#540=EDGE_CURVE('',#710,#711,#823,.T.);
#541=EDGE_CURVE('',#711,#712,#824,.T.);
#542=EDGE_CURVE('',#712,#707,#825,.F.);
#543=EDGE_CURVE('',#677,#694,#826,.F.);
#544=EDGE_CURVE('',#693,#678,#827,.T.);
#545=EDGE_CURVE('',#699,#680,#828,.T.);
#546=EDGE_CURVE('',#700,#679,#829,.T.);
#547=EDGE_CURVE('',#713,#714,#830,.T.);
#548=EDGE_CURVE('',#714,#715,#831,.T.);
#549=EDGE_CURVE('',#716,#715,#832,.T.);
#550=EDGE_CURVE('',#713,#716,#833,.T.);
#551=EDGE_CURVE('',#674,#651,#834,.T.);
#552=EDGE_CURVE('',#673,#647,#835,.T.);
#553=EDGE_CURVE('',#717,#717,#75,.T.);
#554=EDGE_CURVE('',#718,#719,#836,.T.);
#555=EDGE_CURVE('',#718,#671,#837,.T.);
#556=EDGE_CURVE('',#719,#672,#838,.T.);
#557=EDGE_CURVE('',#720,#646,#839,.F.);
#558=EDGE_CURVE('',#718,#714,#840,.T.);
#559=EDGE_CURVE('',#721,#713,#841,.T.);
#560=EDGE_CURVE('',#721,#720,#76,.F.);
#561=EDGE_CURVE('',#650,#722,#842,.T.);
#562=EDGE_CURVE('',#722,#723,#77,.T.);
#563=EDGE_CURVE('',#723,#716,#843,.T.);
#564=EDGE_CURVE('',#719,#715,#844,.T.);
#565=EDGE_CURVE('',#724,#697,#845,.T.);
#566=EDGE_CURVE('',#724,#725,#846,.T.);
#567=EDGE_CURVE('',#725,#698,#847,.T.);
#568=EDGE_CURVE('',#726,#727,#848,.T.);
#569=EDGE_CURVE('',#727,#728,#849,.F.);
#570=EDGE_CURVE('',#724,#728,#850,.T.);
#571=EDGE_CURVE('',#682,#726,#851,.T.);
#572=EDGE_CURVE('',#692,#729,#78,.T.);
#573=EDGE_CURVE('',#725,#729,#852,.T.);
#574=EDGE_CURVE('',#728,#689,#79,.T.);
#575=EDGE_CURVE('',#729,#730,#853,.T.);
#576=EDGE_CURVE('',#731,#730,#854,.T.);
#577=EDGE_CURVE('',#681,#731,#855,.T.);
#578=EDGE_CURVE('',#690,#727,#80,.F.);
#579=EDGE_CURVE('',#726,#731,#856,.T.);
#580=EDGE_CURVE('',#730,#691,#81,.F.);
#581=EDGE_CURVE('',#723,#721,#857,.F.);
#582=EDGE_CURVE('',#732,#732,#82,.T.);
#583=EDGE_CURVE('',#733,#733,#83,.T.);
#584=EDGE_CURVE('',#734,#734,#84,.T.);
#585=EDGE_CURVE('',#735,#735,#85,.T.);
#586=EDGE_CURVE('',#707,#665,#86,.T.);
#587=EDGE_CURVE('',#664,#683,#87,.T.);
#588=EDGE_CURVE('',#688,#708,#858,.T.);
#589=EDGE_CURVE('',#736,#737,#859,.T.);
#590=EDGE_CURVE('',#736,#738,#860,.F.);
#591=EDGE_CURVE('',#738,#739,#861,.T.);
#592=EDGE_CURVE('',#739,#737,#862,.F.);
#593=EDGE_CURVE('',#740,#741,#863,.T.);
#594=EDGE_CURVE('',#740,#736,#864,.T.);
#595=EDGE_CURVE('',#737,#741,#865,.T.);
#596=EDGE_CURVE('',#742,#743,#866,.T.);
#597=EDGE_CURVE('',#742,#740,#867,.T.);
#598=EDGE_CURVE('',#741,#743,#868,.T.);
#599=EDGE_CURVE('',#744,#744,#88,.T.);
#600=EDGE_CURVE('',#745,#745,#89,.T.);
#601=EDGE_CURVE('',#746,#746,#90,.T.);
#602=EDGE_CURVE('',#747,#747,#91,.T.);
#603=EDGE_CURVE('',#738,#742,#869,.F.);
#604=EDGE_CURVE('',#743,#739,#870,.F.);
#605=EDGE_CURVE('',#648,#748,#871,.T.);
#606=EDGE_CURVE('',#748,#749,#872,.T.);
#607=EDGE_CURVE('',#749,#649,#873,.F.);
#608=EDGE_CURVE('',#660,#736,#19,.T.);
#609=EDGE_CURVE('',#738,#663,#20,.F.);
#610=EDGE_CURVE('',#742,#662,#21,.F.);
#611=EDGE_CURVE('',#661,#740,#22,.T.);
#612=EDGE_CURVE('',#684,#667,#23,.F.);
#613=EDGE_CURVE('',#666,#712,#24,.F.);
#614=EDGE_CURVE('',#685,#670,#25,.F.);
#615=EDGE_CURVE('',#669,#711,#92,.T.);
#616=EDGE_CURVE('',#701,#669,#93,.T.);
#617=EDGE_CURVE('',#701,#711,#94,.F.);
#618=EDGE_CURVE('',#702,#710,#95,.T.);
#619=EDGE_CURVE('',#705,#702,#96,.T.);
#620=EDGE_CURVE('',#686,#704,#26,.F.);
#621=EDGE_CURVE('',#687,#703,#97,.T.);
#622=EDGE_CURVE('',#705,#710,#98,.F.);
#623=EDGE_CURVE('',#687,#659,#99,.F.);
#624=EDGE_CURVE('',#659,#703,#100,.F.);
#625=EDGE_CURVE('',#706,#709,#101,.T.);
#626=EDGE_CURVE('',#656,#706,#102,.T.);
#627=EDGE_CURVE('',#688,#658,#27,.T.);
#628=EDGE_CURVE('',#656,#709,#103,.F.);
#629=EDGE_CURVE('',#708,#657,#28,.T.);
#630=EDGE_CURVE('',#722,#749,#29,.T.);
#631=EDGE_CURVE('',#720,#748,#30,.T.);
#632=EDGE_CURVE('',#741,#655,#31,.F.);
#633=EDGE_CURVE('',#652,#737,#32,.T.);
#634=EDGE_CURVE('',#653,#739,#33,.T.);
#635=EDGE_CURVE('',#743,#654,#34,.F.);
#636=EDGE_CURVE('',#641,#643,#874,.T.);
#637=EDGE_CURVE('',#640,#642,#875,.T.);
#638=VERTEX_POINT('',#1815);
#639=VERTEX_POINT('',#1816);
#640=VERTEX_POINT('',#1818);
#641=VERTEX_POINT('',#1820);
#642=VERTEX_POINT('',#1824);
#643=VERTEX_POINT('',#1825);
#644=VERTEX_POINT('',#1827);
#645=VERTEX_POINT('',#1829);
#646=VERTEX_POINT('',#1833);
#647=VERTEX_POINT('',#1834);
#648=VERTEX_POINT('',#1836);
#649=VERTEX_POINT('',#1838);
#650=VERTEX_POINT('',#1840);
#651=VERTEX_POINT('',#1842);
#652=VERTEX_POINT('',#1846);
#653=VERTEX_POINT('',#1847);
#654=VERTEX_POINT('',#1849);
#655=VERTEX_POINT('',#1851);
#656=VERTEX_POINT('',#1854);
#657=VERTEX_POINT('',#1855);
#658=VERTEX_POINT('',#1857);
#659=VERTEX_POINT('',#1859);
#660=VERTEX_POINT('',#1863);
#661=VERTEX_POINT('',#1864);
#662=VERTEX_POINT('',#1866);
#663=VERTEX_POINT('',#1868);
#664=VERTEX_POINT('',#1871);
#665=VERTEX_POINT('',#1872);
#666=VERTEX_POINT('',#1874);
#667=VERTEX_POINT('',#1876);
#668=VERTEX_POINT('',#1880);
#669=VERTEX_POINT('',#1882);
#670=VERTEX_POINT('',#1884);
#671=VERTEX_POINT('',#1888);
#672=VERTEX_POINT('',#1889);
#673=VERTEX_POINT('',#1891);
#674=VERTEX_POINT('',#1893);
#675=VERTEX_POINT('',#1896);
#676=VERTEX_POINT('',#1897);
#677=VERTEX_POINT('',#1900);
#678=VERTEX_POINT('',#1902);
#679=VERTEX_POINT('',#1904);
#680=VERTEX_POINT('',#1906);
#681=VERTEX_POINT('',#1908);
#682=VERTEX_POINT('',#1910);
#683=VERTEX_POINT('',#1914);
#684=VERTEX_POINT('',#1915);
#685=VERTEX_POINT('',#1917);
#686=VERTEX_POINT('',#1919);
#687=VERTEX_POINT('',#1921);
#688=VERTEX_POINT('',#1923);
#689=VERTEX_POINT('',#1926);
#690=VERTEX_POINT('',#1927);
#691=VERTEX_POINT('',#1929);
#692=VERTEX_POINT('',#1931);
#693=VERTEX_POINT('',#1935);
#694=VERTEX_POINT('',#1936);
#695=VERTEX_POINT('',#1939);
#696=VERTEX_POINT('',#1941);
#697=VERTEX_POINT('',#1943);
#698=VERTEX_POINT('',#1945);
#699=VERTEX_POINT('',#1947);
#700=VERTEX_POINT('',#1949);
#701=VERTEX_POINT('',#1958);
#702=VERTEX_POINT('',#1960);
#703=VERTEX_POINT('',#1964);
#704=VERTEX_POINT('',#1965);
#705=VERTEX_POINT('',#1967);
#706=VERTEX_POINT('',#1969);
#707=VERTEX_POINT('',#1973);
#708=VERTEX_POINT('',#1974);
#709=VERTEX_POINT('',#1976);
#710=VERTEX_POINT('',#1978);
#711=VERTEX_POINT('',#1980);
#712=VERTEX_POINT('',#1982);
#713=VERTEX_POINT('',#1992);
#714=VERTEX_POINT('',#1993);
#715=VERTEX_POINT('',#1995);
#716=VERTEX_POINT('',#1997);
#717=VERTEX_POINT('',#2003);
#718=VERTEX_POINT('',#2006);
#719=VERTEX_POINT('',#2007);
#720=VERTEX_POINT('',#2012);
#721=VERTEX_POINT('',#2015);
#722=VERTEX_POINT('',#2019);
#723=VERTEX_POINT('',#2021);
#724=VERTEX_POINT('',#2027);
#725=VERTEX_POINT('',#2029);
#726=VERTEX_POINT('',#2033);
#727=VERTEX_POINT('',#2034);
#728=VERTEX_POINT('',#2036);
#729=VERTEX_POINT('',#2041);
#730=VERTEX_POINT('',#2046);
#731=VERTEX_POINT('',#2048);
#732=VERTEX_POINT('',#2060);
#733=VERTEX_POINT('',#2062);
#734=VERTEX_POINT('',#2064);
#735=VERTEX_POINT('',#2066);
#736=VERTEX_POINT('',#2072);
#737=VERTEX_POINT('',#2073);
#738=VERTEX_POINT('',#2075);
#739=VERTEX_POINT('',#2077);
#740=VERTEX_POINT('',#2081);
#741=VERTEX_POINT('',#2082);
#742=VERTEX_POINT('',#2087);
#743=VERTEX_POINT('',#2088);
#744=VERTEX_POINT('',#2093);
#745=VERTEX_POINT('',#2095);
#746=VERTEX_POINT('',#2097);
#747=VERTEX_POINT('',#2099);
#748=VERTEX_POINT('',#2108);
#749=VERTEX_POINT('',#2110);
#750=LINE('',#1814,#876);
#751=LINE('',#1819,#877);
#752=LINE('',#1823,#878);
#753=LINE('',#1828,#879);
#754=LINE('',#1832,#880);
#755=LINE('',#1837,#881);
#756=LINE('',#1841,#882);
#757=LINE('',#1843,#883);
#758=LINE('',#1845,#884);
#759=LINE('',#1848,#885);
#760=LINE('',#1850,#886);
#761=LINE('',#1852,#887);
#762=LINE('',#1853,#888);
#763=LINE('',#1856,#889);
#764=LINE('',#1858,#890);
#765=LINE('',#1860,#891);
#766=LINE('',#1862,#892);
#767=LINE('',#1865,#893);
#768=LINE('',#1867,#894);
#769=LINE('',#1869,#895);
#770=LINE('',#1870,#896);
#771=LINE('',#1873,#897);
#772=LINE('',#1875,#898);
#773=LINE('',#1877,#899);
#774=LINE('',#1881,#900);
#775=LINE('',#1883,#901);
#776=LINE('',#1885,#902);
#777=LINE('',#1887,#903);
#778=LINE('',#1890,#904);
#779=LINE('',#1892,#905);
#780=LINE('',#1894,#906);
#781=LINE('',#1895,#907);
#782=LINE('',#1898,#908);
#783=LINE('',#1899,#909);
#784=LINE('',#1901,#910);
#785=LINE('',#1903,#911);
#786=LINE('',#1905,#912);
#787=LINE('',#1907,#913);
#788=LINE('',#1909,#914);
#789=LINE('',#1911,#915);
#790=LINE('',#1913,#916);
#791=LINE('',#1916,#917);
#792=LINE('',#1918,#918);
#793=LINE('',#1920,#919);
#794=LINE('',#1922,#920);
#795=LINE('',#1924,#921);
#796=LINE('',#1925,#922);
#797=LINE('',#1928,#923);
#798=LINE('',#1930,#924);
#799=LINE('',#1932,#925);
#800=LINE('',#1934,#926);
#801=LINE('',#1937,#927);
#802=LINE('',#1938,#928);
#803=LINE('',#1940,#929);
#804=LINE('',#1942,#930);
#805=LINE('',#1944,#931);
#806=LINE('',#1946,#932);
#807=LINE('',#1948,#933);
#808=LINE('',#1950,#934);
#809=LINE('',#1952,#935);
#810=LINE('',#1953,#936);
#811=LINE('',#1955,#937);
#812=LINE('',#1956,#938);
#813=LINE('',#1957,#939);
#814=LINE('',#1959,#940);
#815=LINE('',#1961,#941);
#816=LINE('',#1963,#942);
#817=LINE('',#1966,#943);
#818=LINE('',#1968,#944);
#819=LINE('',#1970,#945);
#820=LINE('',#1972,#946);
#821=LINE('',#1975,#947);
#822=LINE('',#1977,#948);
#823=LINE('',#1979,#949);
#824=LINE('',#1981,#950);
#825=LINE('',#1983,#951);
#826=LINE('',#1985,#952);
#827=LINE('',#1986,#953);
#828=LINE('',#1988,#954);
#829=LINE('',#1989,#955);
#830=LINE('',#1991,#956);
#831=LINE('',#1994,#957);
#832=LINE('',#1996,#958);
#833=LINE('',#1998,#959);
#834=LINE('',#2000,#960);
#835=LINE('',#2001,#961);
#836=LINE('',#2005,#962);
#837=LINE('',#2008,#963);
#838=LINE('',#2009,#964);
#839=LINE('',#2011,#965);
#840=LINE('',#2013,#966);
#841=LINE('',#2014,#967);
#842=LINE('',#2018,#968);
#843=LINE('',#2022,#969);
#844=LINE('',#2023,#970);
#845=LINE('',#2026,#971);
#846=LINE('',#2028,#972);
#847=LINE('',#2030,#973);
#848=LINE('',#2032,#974);
#849=LINE('',#2035,#975);
#850=LINE('',#2037,#976);
#851=LINE('',#2038,#977);
#852=LINE('',#2042,#978);
#853=LINE('',#2045,#979);
#854=LINE('',#2047,#980);
#855=LINE('',#2049,#981);
#856=LINE('',#2052,#982);
#857=LINE('',#2056,#983);
#858=LINE('',#2069,#984);
#859=LINE('',#2071,#985);
#860=LINE('',#2074,#986);
#861=LINE('',#2076,#987);
#862=LINE('',#2078,#988);
#863=LINE('',#2080,#989);
#864=LINE('',#2083,#990);
#865=LINE('',#2084,#991);
#866=LINE('',#2086,#992);
#867=LINE('',#2089,#993);
#868=LINE('',#2090,#994);
#869=LINE('',#2100,#995);
#870=LINE('',#2101,#996);
#871=LINE('',#2107,#997);
#872=LINE('',#2109,#998);
#873=LINE('',#2111,#999);
#874=LINE('',#2171,#1000);
#875=LINE('',#2174,#1001);
#876=VECTOR('',#1438,1.);
#877=VECTOR('',#1441,1.);
#878=VECTOR('',#1446,1.);
#879=VECTOR('',#1449,1.);
#880=VECTOR('',#1454,1.);
#881=VECTOR('',#1457,1.);
#882=VECTOR('',#1460,1.);
#883=VECTOR('',#1461,1.);
#884=VECTOR('',#1464,1.);
#885=VECTOR('',#1465,1.);
#886=VECTOR('',#1466,1.);
#887=VECTOR('',#1467,1.);
#888=VECTOR('',#1468,1.);
#889=VECTOR('',#1469,1.);
#890=VECTOR('',#1470,1.);
#891=VECTOR('',#1471,1.);
#892=VECTOR('',#1474,1.);
#893=VECTOR('',#1475,1.);
#894=VECTOR('',#1476,1.);
#895=VECTOR('',#1477,1.);
#896=VECTOR('',#1478,1.);
#897=VECTOR('',#1479,1.);
#898=VECTOR('',#1480,1.);
#899=VECTOR('',#1481,1.);
#900=VECTOR('',#1486,1.);
#901=VECTOR('',#1487,1.);
#902=VECTOR('',#1488,1.);
#903=VECTOR('',#1491,1.);
#904=VECTOR('',#1492,1.);
#905=VECTOR('',#1493,1.);
#906=VECTOR('',#1494,1.);
#907=VECTOR('',#1495,1.);
#908=VECTOR('',#1496,1.);
#909=VECTOR('',#1497,1.);
#910=VECTOR('',#1498,1.);
#911=VECTOR('',#1499,1.);
#912=VECTOR('',#1500,1.);
#913=VECTOR('',#1501,1.);
#914=VECTOR('',#1502,1.);
#915=VECTOR('',#1503,1.);
#916=VECTOR('',#1506,1.);
#917=VECTOR('',#1507,1.);
#918=VECTOR('',#1508,1.);
#919=VECTOR('',#1509,1.);
#920=VECTOR('',#1510,1.);
#921=VECTOR('',#1511,1.);
#922=VECTOR('',#1512,1.);
#923=VECTOR('',#1513,1.);
#924=VECTOR('',#1514,1.);
#925=VECTOR('',#1515,1.);
#926=VECTOR('',#1518,1.);
#927=VECTOR('',#1519,1.);
#928=VECTOR('',#1520,1.);
#929=VECTOR('',#1521,1.);
#930=VECTOR('',#1522,1.);
#931=VECTOR('',#1523,1.);
#932=VECTOR('',#1524,1.);
#933=VECTOR('',#1525,1.);
#934=VECTOR('',#1526,1.);
#935=VECTOR('',#1529,1.);
#936=VECTOR('',#1530,1.);
#937=VECTOR('',#1533,1.);
#938=VECTOR('',#1534,1.);
#939=VECTOR('',#1535,1.);
#940=VECTOR('',#1536,1.);
#941=VECTOR('',#1537,1.);
#942=VECTOR('',#1540,1.);
#943=VECTOR('',#1541,1.);
#944=VECTOR('',#1542,1.);
#945=VECTOR('',#1543,1.);
#946=VECTOR('',#1546,1.);
#947=VECTOR('',#1547,1.);
#948=VECTOR('',#1548,1.);
#949=VECTOR('',#1549,1.);
#950=VECTOR('',#1550,1.);
#951=VECTOR('',#1551,1.);
#952=VECTOR('',#1554,1.);
#953=VECTOR('',#1555,1.);
#954=VECTOR('',#1558,1.);
#955=VECTOR('',#1559,1.);
#956=VECTOR('',#1562,1.);
#957=VECTOR('',#1563,1.);
#958=VECTOR('',#1564,1.);
#959=VECTOR('',#1565,1.);
#960=VECTOR('',#1568,1.);
#961=VECTOR('',#1569,1.);
#962=VECTOR('',#1574,1.);
#963=VECTOR('',#1575,1.);
#964=VECTOR('',#1576,1.);
#965=VECTOR('',#1579,1.);
#966=VECTOR('',#1580,1.);
#967=VECTOR('',#1581,1.);
#968=VECTOR('',#1586,1.);
#969=VECTOR('',#1589,1.);
#970=VECTOR('',#1590,1.);
#971=VECTOR('',#1595,1.);
#972=VECTOR('',#1596,1.);
#973=VECTOR('',#1597,1.);
#974=VECTOR('',#1600,1.);
#975=VECTOR('',#1601,1.);
#976=VECTOR('',#1602,1.);
#977=VECTOR('',#1603,1.);
#978=VECTOR('',#1608,1.);
#979=VECTOR('',#1613,1.);
#980=VECTOR('',#1614,1.);
#981=VECTOR('',#1615,1.);
#982=VECTOR('',#1620,1.);
#983=VECTOR('',#1627,1.);
#984=VECTOR('',#1644,1.);
#985=VECTOR('',#1647,1.);
#986=VECTOR('',#1648,1.);
#987=VECTOR('',#1649,1.);
#988=VECTOR('',#1650,1.);
#989=VECTOR('',#1653,1.);
#990=VECTOR('',#1654,1.);
#991=VECTOR('',#1655,1.);
#992=VECTOR('',#1658,1.);
#993=VECTOR('',#1659,1.);
#994=VECTOR('',#1660,1.);
#995=VECTOR('',#1671,1.);
#996=VECTOR('',#1672,1.);
#997=VECTOR('',#1683,1.);
#998=VECTOR('',#1684,1.);
#999=VECTOR('',#1685,1.);
#1000=VECTOR('',#1804,1.);
#1001=VECTOR('',#1809,1.);
#1002=EDGE_LOOP('',(#104,#105,#106,#107));
#1003=EDGE_LOOP('',(#108,#109,#110,#111));
#1004=EDGE_LOOP('',(#112,#113,#114,#115,#116,#117));
#1005=EDGE_LOOP('',(#118,#119,#120,#121));
#1006=EDGE_LOOP('',(#122,#123,#124,#125));
#1007=EDGE_LOOP('',(#126,#127,#128,#129));
#1008=EDGE_LOOP('',(#130,#131,#132,#133));
#1009=EDGE_LOOP('',(#134));
#1010=EDGE_LOOP('',(#135,#136,#137,#138));
#1011=EDGE_LOOP('',(#139,#140,#141,#142));
#1012=EDGE_LOOP('',(#143,#144,#145,#146,#147,#148,#149,#150,#151,#152));
#1013=EDGE_LOOP('',(#153,#154,#155,#156,#157,#158));
#1014=EDGE_LOOP('',(#159,#160,#161,#162));
#1015=EDGE_LOOP('',(#163,#164,#165,#166,#167,#168,#169,#170,#171,#172));
#1016=EDGE_LOOP('',(#173,#174,#175,#176));
#1017=EDGE_LOOP('',(#177,#178,#179,#180));
#1018=EDGE_LOOP('',(#181,#182,#183,#184));
#1019=EDGE_LOOP('',(#185,#186,#187,#188));
#1020=EDGE_LOOP('',(#189,#190,#191,#192,#193,#194));
#1021=EDGE_LOOP('',(#195,#196,#197,#198));
#1022=EDGE_LOOP('',(#199,#200,#201,#202));
#1023=EDGE_LOOP('',(#203,#204,#205,#206));
#1024=EDGE_LOOP('',(#207,#208,#209,#210));
#1025=EDGE_LOOP('',(#211,#212,#213,#214));
#1026=EDGE_LOOP('',(#215));
#1027=EDGE_LOOP('',(#216,#217,#218,#219));
#1028=EDGE_LOOP('',(#220,#221,#222,#223,#224,#225,#226,#227,#228));
#1029=EDGE_LOOP('',(#229,#230,#231,#232,#233,#234,#235,#236,#237));
#1030=EDGE_LOOP('',(#238));
#1031=EDGE_LOOP('',(#239));
#1032=EDGE_LOOP('',(#240,#241,#242,#243));
#1033=EDGE_LOOP('',(#244,#245,#246,#247,#248,#249,#250,#251));
#1034=EDGE_LOOP('',(#252,#253,#254,#255,#256,#257));
#1035=EDGE_LOOP('',(#258,#259,#260,#261,#262,#263,#264,#265));
#1036=EDGE_LOOP('',(#266,#267,#268,#269,#270,#271));
#1037=EDGE_LOOP('',(#272,#273,#274,#275));
#1038=EDGE_LOOP('',(#276,#277,#278,#279));
#1039=EDGE_LOOP('',(#280,#281,#282,#283));
#1040=EDGE_LOOP('',(#284));
#1041=EDGE_LOOP('',(#285));
#1042=EDGE_LOOP('',(#286));
#1043=EDGE_LOOP('',(#287));
#1044=EDGE_LOOP('',(#288,#289,#290,#291,#292,#293));
#1045=EDGE_LOOP('',(#294,#295,#296,#297));
#1046=EDGE_LOOP('',(#298,#299,#300,#301));
#1047=EDGE_LOOP('',(#302,#303,#304,#305));
#1048=EDGE_LOOP('',(#306));
#1049=EDGE_LOOP('',(#307));
#1050=EDGE_LOOP('',(#308));
#1051=EDGE_LOOP('',(#309));
#1052=EDGE_LOOP('',(#310,#311,#312,#313));
#1053=EDGE_LOOP('',(#314));
#1054=EDGE_LOOP('',(#315));
#1055=EDGE_LOOP('',(#316));
#1056=EDGE_LOOP('',(#317));
#1057=EDGE_LOOP('',(#318));
#1058=EDGE_LOOP('',(#319));
#1059=EDGE_LOOP('',(#320));
#1060=EDGE_LOOP('',(#321));
#1061=EDGE_LOOP('',(#322,#323,#324,#325));
#1062=EDGE_LOOP('',(#326,#327,#328,#329));
#1063=EDGE_LOOP('',(#330,#331,#332,#333));
#1064=EDGE_LOOP('',(#334,#335,#336,#337));
#1065=EDGE_LOOP('',(#338,#339,#340,#341));
#1066=EDGE_LOOP('',(#342,#343,#344,#345));
#1067=EDGE_LOOP('',(#346,#347,#348,#349));
#1068=EDGE_LOOP('',(#350,#351,#352,#353));
#1069=EDGE_LOOP('',(#354,#355,#356,#357));
#1070=EDGE_LOOP('',(#358,#359,#360,#361));
#1071=EDGE_LOOP('',(#362,#363,#364));
#1072=EDGE_LOOP('',(#365,#366,#367,#368));
#1073=EDGE_LOOP('',(#369,#370,#371,#372));
#1074=EDGE_LOOP('',(#373,#374,#375,#376));
#1075=EDGE_LOOP('',(#377,#378,#379));
#1076=EDGE_LOOP('',(#380,#381,#382));
#1077=EDGE_LOOP('',(#383,#384,#385,#386));
#1078=EDGE_LOOP('',(#387,#388,#389,#390));
#1079=EDGE_LOOP('',(#391,#392,#393,#394));
#1080=EDGE_LOOP('',(#395,#396,#397));
#1081=EDGE_LOOP('',(#398,#399,#400,#401));
#1082=EDGE_LOOP('',(#402,#403,#404,#405));
#1083=EDGE_LOOP('',(#406,#407,#408,#409));
#1084=EDGE_LOOP('',(#410,#411,#412,#413,#414,#415));
#1085=EDGE_LOOP('',(#416,#417,#418,#419));
#1086=EDGE_LOOP('',(#420,#421,#422,#423));
#1087=EDGE_LOOP('',(#424,#425,#426,#427));
#1088=EDGE_LOOP('',(#428,#429,#430,#431));
#1089=EDGE_LOOP('',(#432,#433,#434,#435));
#1090=EDGE_LOOP('',(#436,#437,#438,#439));
#1091=EDGE_LOOP('',(#440,#441,#442,#443));
#1092=EDGE_LOOP('',(#444,#445,#446,#447));
#1093=EDGE_LOOP('',(#448,#449,#450,#451));
#1094=EDGE_LOOP('',(#452,#453,#454,#455));
#1095=EDGE_LOOP('',(#456,#457,#458,#459));
#1096=FACE_BOUND('',#1002,.T.);
#1097=FACE_BOUND('',#1003,.T.);
#1098=FACE_BOUND('',#1004,.T.);
#1099=FACE_BOUND('',#1005,.T.);
#1100=FACE_BOUND('',#1006,.T.);
#1101=FACE_BOUND('',#1007,.T.);
#1102=FACE_BOUND('',#1008,.T.);
#1103=FACE_BOUND('',#1009,.T.);
#1104=FACE_BOUND('',#1010,.T.);
#1105=FACE_BOUND('',#1011,.T.);
#1106=FACE_BOUND('',#1012,.T.);
#1107=FACE_BOUND('',#1013,.T.);
#1108=FACE_BOUND('',#1014,.T.);
#1109=FACE_BOUND('',#1015,.T.);
#1110=FACE_BOUND('',#1016,.T.);
#1111=FACE_BOUND('',#1017,.T.);
#1112=FACE_BOUND('',#1018,.T.);
#1113=FACE_BOUND('',#1019,.T.);
#1114=FACE_BOUND('',#1020,.T.);
#1115=FACE_BOUND('',#1021,.T.);
#1116=FACE_BOUND('',#1022,.T.);
#1117=FACE_BOUND('',#1023,.T.);
#1118=FACE_BOUND('',#1024,.T.);
#1119=FACE_BOUND('',#1025,.T.);
#1120=FACE_BOUND('',#1026,.T.);
#1121=FACE_BOUND('',#1027,.T.);
#1122=FACE_BOUND('',#1028,.T.);
#1123=FACE_BOUND('',#1029,.T.);
#1124=FACE_BOUND('',#1030,.T.);
#1125=FACE_BOUND('',#1031,.T.);
#1126=FACE_BOUND('',#1032,.T.);
#1127=FACE_BOUND('',#1033,.T.);
#1128=FACE_BOUND('',#1034,.T.);
#1129=FACE_BOUND('',#1035,.T.);
#1130=FACE_BOUND('',#1036,.T.);
#1131=FACE_BOUND('',#1037,.T.);
#1132=FACE_BOUND('',#1038,.T.);
#1133=FACE_BOUND('',#1039,.T.);
#1134=FACE_BOUND('',#1040,.T.);
#1135=FACE_BOUND('',#1041,.T.);
#1136=FACE_BOUND('',#1042,.T.);
#1137=FACE_BOUND('',#1043,.T.);
#1138=FACE_BOUND('',#1044,.T.);
#1139=FACE_BOUND('',#1045,.T.);
#1140=FACE_BOUND('',#1046,.T.);
#1141=FACE_BOUND('',#1047,.T.);
#1142=FACE_BOUND('',#1048,.T.);
#1143=FACE_BOUND('',#1049,.T.);
#1144=FACE_BOUND('',#1050,.T.);
#1145=FACE_BOUND('',#1051,.T.);
#1146=FACE_BOUND('',#1052,.T.);
#1147=FACE_BOUND('',#1053,.T.);
#1148=FACE_BOUND('',#1054,.T.);
#1149=FACE_BOUND('',#1055,.T.);
#1150=FACE_BOUND('',#1056,.T.);
#1151=FACE_BOUND('',#1057,.T.);
#1152=FACE_BOUND('',#1058,.T.);
#1153=FACE_BOUND('',#1059,.T.);
#1154=FACE_BOUND('',#1060,.T.);
#1155=FACE_BOUND('',#1061,.T.);
#1156=FACE_BOUND('',#1062,.T.);
#1157=FACE_BOUND('',#1063,.T.);
#1158=FACE_BOUND('',#1064,.T.);
#1159=FACE_BOUND('',#1065,.T.);
#1160=FACE_BOUND('',#1066,.T.);
#1161=FACE_BOUND('',#1067,.T.);
#1162=FACE_BOUND('',#1068,.T.);
#1163=FACE_BOUND('',#1069,.T.);
#1164=FACE_BOUND('',#1070,.T.);
#1165=FACE_BOUND('',#1071,.T.);
#1166=FACE_BOUND('',#1072,.T.);
#1167=FACE_BOUND('',#1073,.T.);
#1168=FACE_BOUND('',#1074,.T.);
#1169=FACE_BOUND('',#1075,.T.);
#1170=FACE_BOUND('',#1076,.T.);
#1171=FACE_BOUND('',#1077,.T.);
#1172=FACE_BOUND('',#1078,.T.);
#1173=FACE_BOUND('',#1079,.T.);
#1174=FACE_BOUND('',#1080,.T.);
#1175=FACE_BOUND('',#1081,.T.);
#1176=FACE_BOUND('',#1082,.T.);
#1177=FACE_BOUND('',#1083,.T.);
#1178=FACE_BOUND('',#1084,.T.);
#1179=FACE_BOUND('',#1085,.T.);
#1180=FACE_BOUND('',#1086,.T.);
#1181=FACE_BOUND('',#1087,.T.);
#1182=FACE_BOUND('',#1088,.T.);
#1183=FACE_BOUND('',#1089,.T.);
#1184=FACE_BOUND('',#1090,.T.);
#1185=FACE_BOUND('',#1091,.T.);
#1186=FACE_BOUND('',#1092,.T.);
#1187=FACE_BOUND('',#1093,.T.);
#1188=FACE_BOUND('',#1094,.T.);
#1189=FACE_BOUND('',#1095,.T.);
#1190=CYLINDRICAL_SURFACE('',#1309,0.002);
#1191=CYLINDRICAL_SURFACE('',#1312,0.002);
#1192=CYLINDRICAL_SURFACE('',#1339,0.006);
#1193=CYLINDRICAL_SURFACE('',#1367,0.00275);
#1194=CYLINDRICAL_SURFACE('',#1368,0.00275);
#1195=CYLINDRICAL_SURFACE('',#1369,0.00275);
#1196=CYLINDRICAL_SURFACE('',#1370,0.00275);
#1197=CYLINDRICAL_SURFACE('',#1372,0.002);
#1198=CYLINDRICAL_SURFACE('',#1375,0.002);
#1199=CYLINDRICAL_SURFACE('',#1377,0.002);
#1200=CYLINDRICAL_SURFACE('',#1379,0.002);
#1201=CYLINDRICAL_SURFACE('',#1380,0.002);
#1202=CYLINDRICAL_SURFACE('',#1382,0.002);
#1203=CYLINDRICAL_SURFACE('',#1384,0.002);
#1204=CYLINDRICAL_SURFACE('',#1386,0.002);
#1205=CYLINDRICAL_SURFACE('',#1388,0.002);
#1206=CYLINDRICAL_SURFACE('',#1392,0.002);
#1207=CYLINDRICAL_SURFACE('',#1394,0.002);
#1208=CYLINDRICAL_SURFACE('',#1397,0.002);
#1209=CYLINDRICAL_SURFACE('',#1404,0.002);
#1210=CYLINDRICAL_SURFACE('',#1406,0.002);
#1211=CYLINDRICAL_SURFACE('',#1408,0.002);
#1212=CYLINDRICAL_SURFACE('',#1412,0.002);
#1213=CYLINDRICAL_SURFACE('',#1414,0.002);
#1214=CYLINDRICAL_SURFACE('',#1415,0.002);
#1215=CYLINDRICAL_SURFACE('',#1417,0.002);
#1216=CYLINDRICAL_SURFACE('',#1419,0.002);
#1217=CYLINDRICAL_SURFACE('',#1420,0.002);
#1218=CYLINDRICAL_SURFACE('',#1421,0.002);
#1219=CYLINDRICAL_SURFACE('',#1422,0.002);
#1220=CYLINDRICAL_SURFACE('',#1425,0.002);
#1221=CYLINDRICAL_SURFACE('',#1427,0.002);
#1222=CYLINDRICAL_SURFACE('',#1429,0.002);
#1223=ADVANCED_FACE('',(#1096),#1190,.T.);
#1224=ADVANCED_FACE('',(#1097),#1191,.T.);
#1225=ADVANCED_FACE('',(#1098),#35,.T.);
#1226=ADVANCED_FACE('',(#1099,#1100),#36,.T.);
#1227=ADVANCED_FACE('',(#1101,#1102),#37,.T.);
#1228=ADVANCED_FACE('',(#1103,#1104),#38,.T.);
#1229=ADVANCED_FACE('',(#1105,#1106),#39,.T.);
#1230=ADVANCED_FACE('',(#1107,#1108),#40,.T.);
#1231=ADVANCED_FACE('',(#1109),#41,.F.);
#1232=ADVANCED_FACE('',(#1110),#42,.F.);
#1233=ADVANCED_FACE('',(#1111,#1112),#43,.T.);
#1234=ADVANCED_FACE('',(#1113),#44,.F.);
#1235=ADVANCED_FACE('',(#1114),#45,.F.);
#1236=ADVANCED_FACE('',(#1115),#46,.T.);
#1237=ADVANCED_FACE('',(#1116),#47,.F.);
#1238=ADVANCED_FACE('',(#1117,#1118),#48,.T.);
#1239=ADVANCED_FACE('',(#1119,#1120),#49,.T.);
#1240=ADVANCED_FACE('',(#1121),#50,.T.);
#1241=ADVANCED_FACE('',(#1122),#51,.F.);
#1242=ADVANCED_FACE('',(#1123),#52,.T.);
#1243=ADVANCED_FACE('',(#1124,#1125),#1192,.F.);
#1244=ADVANCED_FACE('',(#1126),#53,.T.);
#1245=ADVANCED_FACE('',(#1127),#54,.T.);
#1246=ADVANCED_FACE('',(#1128),#55,.F.);
#1247=ADVANCED_FACE('',(#1129),#56,.F.);
#1248=ADVANCED_FACE('',(#1130),#57,.T.);
#1249=ADVANCED_FACE('',(#1131),#58,.T.);
#1250=ADVANCED_FACE('',(#1132),#59,.F.);
#1251=ADVANCED_FACE('',(#1133),#60,.T.);
#1252=ADVANCED_FACE('',(#1134,#1135,#1136,#1137,#1138),#61,.T.);
#1253=ADVANCED_FACE('',(#1139),#62,.T.);
#1254=ADVANCED_FACE('',(#1140),#63,.F.);
#1255=ADVANCED_FACE('',(#1141),#64,.F.);
#1256=ADVANCED_FACE('',(#1142,#1143,#1144,#1145,#1146),#65,.T.);
#1257=ADVANCED_FACE('',(#1147,#1148),#1193,.F.);
#1258=ADVANCED_FACE('',(#1149,#1150),#1194,.F.);
#1259=ADVANCED_FACE('',(#1151,#1152),#1195,.F.);
#1260=ADVANCED_FACE('',(#1153,#1154),#1196,.F.);
#1261=ADVANCED_FACE('',(#1155),#66,.T.);
#1262=ADVANCED_FACE('',(#1156),#1197,.T.);
#1263=ADVANCED_FACE('',(#1157),#1198,.T.);
#1264=ADVANCED_FACE('',(#1158),#1199,.T.);
#1265=ADVANCED_FACE('',(#1159),#1200,.T.);
#1266=ADVANCED_FACE('',(#1160),#1201,.T.);
#1267=ADVANCED_FACE('',(#1161),#1202,.T.);
#1268=ADVANCED_FACE('',(#1162),#1203,.T.);
#1269=ADVANCED_FACE('',(#1163),#1204,.T.);
#1270=ADVANCED_FACE('',(#1164),#1205,.T.);
#1271=ADVANCED_FACE('',(#1165),#12,.T.);
#1272=ADVANCED_FACE('',(#1166),#1206,.T.);
#1273=ADVANCED_FACE('',(#1167),#1207,.T.);
#1274=ADVANCED_FACE('',(#1168),#1208,.T.);
#1275=ADVANCED_FACE('',(#1169),#13,.T.);
#1276=ADVANCED_FACE('',(#1170),#14,.T.);
#1277=ADVANCED_FACE('',(#1171),#1209,.T.);
#1278=ADVANCED_FACE('',(#1172),#1210,.T.);
#1279=ADVANCED_FACE('',(#1173),#1211,.T.);
#1280=ADVANCED_FACE('',(#1174),#15,.T.);
#1281=ADVANCED_FACE('',(#1175),#1212,.T.);
#1282=ADVANCED_FACE('',(#1176),#1213,.T.);
#1283=ADVANCED_FACE('',(#1177),#1214,.T.);
#1284=ADVANCED_FACE('',(#1178),#1215,.T.);
#1285=ADVANCED_FACE('',(#1179),#1216,.T.);
#1286=ADVANCED_FACE('',(#1180),#1217,.T.);
#1287=ADVANCED_FACE('',(#1181),#1218,.T.);
#1288=ADVANCED_FACE('',(#1182),#1219,.T.);
#1289=ADVANCED_FACE('',(#1183),#1220,.T.);
#1290=ADVANCED_FACE('',(#1184),#1221,.T.);
#1291=ADVANCED_FACE('',(#1185),#1222,.T.);
#1292=ADVANCED_FACE('',(#1186),#67,.T.);
#1293=ADVANCED_FACE('',(#1187),#68,.F.);
#1294=ADVANCED_FACE('',(#1188),#69,.F.);
#1295=ADVANCED_FACE('',(#1189),#70,.F.);
#1296=CLOSED_SHELL('',(#1223,#1224,#1225,#1226,#1227,#1228,#1229,#1230,
#1231,#1232,#1233,#1234,#1235,#1236,#1237,#1238,#1239,#1240,#1241,#1242,
#1243,#1244,#1245,#1246,#1247,#1248,#1249,#1250,#1251,#1252,#1253,#1254,
#1255,#1256,#1257,#1258,#1259,#1260,#1261,#1262,#1263,#1264,#1265,#1266,
#1267,#1268,#1269,#1270,#1271,#1272,#1273,#1274,#1275,#1276,#1277,#1278,
#1279,#1280,#1281,#1282,#1283,#1284,#1285,#1286,#1287,#1288,#1289,#1290,
#1291,#1292,#1293,#1294,#1295));
#1297=STYLED_ITEM('',(#1298),#1305);
#1298=PRESENTATION_STYLE_ASSIGNMENT((#1299));
#1299=SURFACE_STYLE_USAGE(.BOTH.,#1300);
#1300=SURFACE_SIDE_STYLE('',(#1301));
#1301=SURFACE_STYLE_FILL_AREA(#1302);
#1302=FILL_AREA_STYLE('',(#1303));
#1303=FILL_AREA_STYLE_COLOUR('',#1304);
#1304=COLOUR_RGB('',0.615686274509804,0.811764705882353,0.929411764705882);
#1305=MANIFOLD_SOLID_BREP('Part 1',#1296);
#1306=SHAPE_DEFINITION_REPRESENTATION(#2182,#1307);
#1307=SHAPE_REPRESENTATION('Part 1',(#1308),#2177);
#1308=AXIS2_PLACEMENT_3D('',#1812,#1434,#1435);
#1309=AXIS2_PLACEMENT_3D('',#1813,#1436,#1437);
#1310=AXIS2_PLACEMENT_3D('',#1817,#1439,#1440);
#1311=AXIS2_PLACEMENT_3D('',#1821,#1442,#1443);
#1312=AXIS2_PLACEMENT_3D('',#1822,#1444,#1445);
#1313=AXIS2_PLACEMENT_3D('',#1826,#1447,#1448);
#1314=AXIS2_PLACEMENT_3D('',#1830,#1450,#1451);
#1315=AXIS2_PLACEMENT_3D('',#1831,#1452,#1453);
#1316=AXIS2_PLACEMENT_3D('',#1835,#1455,#1456);
#1317=AXIS2_PLACEMENT_3D('',#1839,#1458,#1459);
#1318=AXIS2_PLACEMENT_3D('',#1844,#1462,#1463);
#1319=AXIS2_PLACEMENT_3D('',#1861,#1472,#1473);
#1320=AXIS2_PLACEMENT_3D('',#1878,#1482,#1483);
#1321=AXIS2_PLACEMENT_3D('',#1879,#1484,#1485);
#1322=AXIS2_PLACEMENT_3D('',#1886,#1489,#1490);
#1323=AXIS2_PLACEMENT_3D('',#1912,#1504,#1505);
#1324=AXIS2_PLACEMENT_3D('',#1933,#1516,#1517);
#1325=AXIS2_PLACEMENT_3D('',#1951,#1527,#1528);
#1326=AXIS2_PLACEMENT_3D('',#1954,#1531,#1532);
#1327=AXIS2_PLACEMENT_3D('',#1962,#1538,#1539);
#1328=AXIS2_PLACEMENT_3D('',#1971,#1544,#1545);
#1329=AXIS2_PLACEMENT_3D('',#1984,#1552,#1553);
#1330=AXIS2_PLACEMENT_3D('',#1987,#1556,#1557);
#1331=AXIS2_PLACEMENT_3D('',#1990,#1560,#1561);
#1332=AXIS2_PLACEMENT_3D('',#1999,#1566,#1567);
#1333=AXIS2_PLACEMENT_3D('',#2002,#1570,#1571);
#1334=AXIS2_PLACEMENT_3D('',#2004,#1572,#1573);
#1335=AXIS2_PLACEMENT_3D('',#2010,#1577,#1578);
#1336=AXIS2_PLACEMENT_3D('',#2016,#1582,#1583);
#1337=AXIS2_PLACEMENT_3D('',#2017,#1584,#1585);
#1338=AXIS2_PLACEMENT_3D('',#2020,#1587,#1588);
#1339=AXIS2_PLACEMENT_3D('',#2024,#1591,#1592);
#1340=AXIS2_PLACEMENT_3D('',#2025,#1593,#1594);
#1341=AXIS2_PLACEMENT_3D('',#2031,#1598,#1599);
#1342=AXIS2_PLACEMENT_3D('',#2039,#1604,#1605);
#1343=AXIS2_PLACEMENT_3D('',#2040,#1606,#1607);
#1344=AXIS2_PLACEMENT_3D('',#2043,#1609,#1610);
#1345=AXIS2_PLACEMENT_3D('',#2044,#1611,#1612);
#1346=AXIS2_PLACEMENT_3D('',#2050,#1616,#1617);
#1347=AXIS2_PLACEMENT_3D('',#2051,#1618,#1619);
#1348=AXIS2_PLACEMENT_3D('',#2053,#1621,#1622);
#1349=AXIS2_PLACEMENT_3D('',#2054,#1623,#1624);
#1350=AXIS2_PLACEMENT_3D('',#2055,#1625,#1626);
#1351=AXIS2_PLACEMENT_3D('',#2057,#1628,#1629);
#1352=AXIS2_PLACEMENT_3D('',#2058,#1630,#1631);
#1353=AXIS2_PLACEMENT_3D('',#2059,#1632,#1633);
#1354=AXIS2_PLACEMENT_3D('',#2061,#1634,#1635);
#1355=AXIS2_PLACEMENT_3D('',#2063,#1636,#1637);
#1356=AXIS2_PLACEMENT_3D('',#2065,#1638,#1639);
#1357=AXIS2_PLACEMENT_3D('',#2067,#1640,#1641);
#1358=AXIS2_PLACEMENT_3D('',#2068,#1642,#1643);
#1359=AXIS2_PLACEMENT_3D('',#2070,#1645,#1646);
#1360=AXIS2_PLACEMENT_3D('',#2079,#1651,#1652);
#1361=AXIS2_PLACEMENT_3D('',#2085,#1656,#1657);
#1362=AXIS2_PLACEMENT_3D('',#2091,#1661,#1662);
#1363=AXIS2_PLACEMENT_3D('',#2092,#1663,#1664);
#1364=AXIS2_PLACEMENT_3D('',#2094,#1665,#1666);
#1365=AXIS2_PLACEMENT_3D('',#2096,#1667,#1668);
#1366=AXIS2_PLACEMENT_3D('',#2098,#1669,#1670);
#1367=AXIS2_PLACEMENT_3D('',#2102,#1673,#1674);
#1368=AXIS2_PLACEMENT_3D('',#2103,#1675,#1676);
#1369=AXIS2_PLACEMENT_3D('',#2104,#1677,#1678);
#1370=AXIS2_PLACEMENT_3D('',#2105,#1679,#1680);
#1371=AXIS2_PLACEMENT_3D('',#2106,#1681,#1682);
#1372=AXIS2_PLACEMENT_3D('',#2112,#1686,#1687);
#1373=AXIS2_PLACEMENT_3D('',#2113,#1688,#1689);
#1374=AXIS2_PLACEMENT_3D('',#2114,#1690,#1691);
#1375=AXIS2_PLACEMENT_3D('',#2115,#1692,#1693);
#1376=AXIS2_PLACEMENT_3D('',#2116,#1694,#1695);
#1377=AXIS2_PLACEMENT_3D('',#2117,#1696,#1697);
#1378=AXIS2_PLACEMENT_3D('',#2118,#1698,#1699);
#1379=AXIS2_PLACEMENT_3D('',#2119,#1700,#1701);
#1380=AXIS2_PLACEMENT_3D('',#2120,#1702,#1703);
#1381=AXIS2_PLACEMENT_3D('',#2121,#1704,#1705);
#1382=AXIS2_PLACEMENT_3D('',#2122,#1706,#1707);
#1383=AXIS2_PLACEMENT_3D('',#2123,#1708,#1709);
#1384=AXIS2_PLACEMENT_3D('',#2124,#1710,#1711);
#1385=AXIS2_PLACEMENT_3D('',#2125,#1712,#1713);
#1386=AXIS2_PLACEMENT_3D('',#2126,#1714,#1715);
#1387=AXIS2_PLACEMENT_3D('',#2127,#1716,#1717);
#1388=AXIS2_PLACEMENT_3D('',#2128,#1718,#1719);
#1389=AXIS2_PLACEMENT_3D('',#2129,#1720,#1721);
#1390=AXIS2_PLACEMENT_3D('',#2130,#1722,#1723);
#1391=AXIS2_PLACEMENT_3D('',#2131,#1724,#1725);
#1392=AXIS2_PLACEMENT_3D('',#2132,#1726,#1727);
#1393=AXIS2_PLACEMENT_3D('',#2133,#1728,#1729);
#1394=AXIS2_PLACEMENT_3D('',#2134,#1730,#1731);
#1395=AXIS2_PLACEMENT_3D('',#2135,#1732,#1733);
#1396=AXIS2_PLACEMENT_3D('',#2136,#1734,#1735);
#1397=AXIS2_PLACEMENT_3D('',#2137,#1736,#1737);
#1398=AXIS2_PLACEMENT_3D('',#2138,#1738,#1739);
#1399=AXIS2_PLACEMENT_3D('',#2139,#1740,#1741);
#1400=AXIS2_PLACEMENT_3D('',#2140,#1742,#1743);
#1401=AXIS2_PLACEMENT_3D('',#2141,#1744,#1745);
#1402=AXIS2_PLACEMENT_3D('',#2142,#1746,#1747);
#1403=AXIS2_PLACEMENT_3D('',#2143,#1748,#1749);
#1404=AXIS2_PLACEMENT_3D('',#2144,#1750,#1751);
#1405=AXIS2_PLACEMENT_3D('',#2145,#1752,#1753);
#1406=AXIS2_PLACEMENT_3D('',#2146,#1754,#1755);
#1407=AXIS2_PLACEMENT_3D('',#2147,#1756,#1757);
#1408=AXIS2_PLACEMENT_3D('',#2148,#1758,#1759);
#1409=AXIS2_PLACEMENT_3D('',#2149,#1760,#1761);
#1410=AXIS2_PLACEMENT_3D('',#2150,#1762,#1763);
#1411=AXIS2_PLACEMENT_3D('',#2151,#1764,#1765);
#1412=AXIS2_PLACEMENT_3D('',#2152,#1766,#1767);
#1413=AXIS2_PLACEMENT_3D('',#2153,#1768,#1769);
#1414=AXIS2_PLACEMENT_3D('',#2154,#1770,#1771);
#1415=AXIS2_PLACEMENT_3D('',#2155,#1772,#1773);
#1416=AXIS2_PLACEMENT_3D('',#2156,#1774,#1775);
#1417=AXIS2_PLACEMENT_3D('',#2157,#1776,#1777);
#1418=AXIS2_PLACEMENT_3D('',#2158,#1778,#1779);
#1419=AXIS2_PLACEMENT_3D('',#2159,#1780,#1781);
#1420=AXIS2_PLACEMENT_3D('',#2160,#1782,#1783);
#1421=AXIS2_PLACEMENT_3D('',#2161,#1784,#1785);
#1422=AXIS2_PLACEMENT_3D('',#2162,#1786,#1787);
#1423=AXIS2_PLACEMENT_3D('',#2163,#1788,#1789);
#1424=AXIS2_PLACEMENT_3D('',#2164,#1790,#1791);
#1425=AXIS2_PLACEMENT_3D('',#2165,#1792,#1793);
#1426=AXIS2_PLACEMENT_3D('',#2166,#1794,#1795);
#1427=AXIS2_PLACEMENT_3D('',#2167,#1796,#1797);
#1428=AXIS2_PLACEMENT_3D('',#2168,#1798,#1799);
#1429=AXIS2_PLACEMENT_3D('',#2169,#1800,#1801);
#1430=AXIS2_PLACEMENT_3D('',#2170,#1802,#1803);
#1431=AXIS2_PLACEMENT_3D('',#2172,#1805,#1806);
#1432=AXIS2_PLACEMENT_3D('',#2173,#1807,#1808);
#1433=AXIS2_PLACEMENT_3D('',#2175,#1810,#1811);
#1434=DIRECTION('',(0.,0.,1.));
#1435=DIRECTION('',(1.,0.,0.));
#1436=DIRECTION('',(0.,1.,-1.27821729808817E-16));
#1437=DIRECTION('',(0.,1.27821729808817E-16,1.));
#1438=DIRECTION('',(0.,-1.,1.27821729808817E-16));
#1439=DIRECTION('',(0.,-1.,0.));
#1440=DIRECTION('',(0.,0.,-1.));
#1441=DIRECTION('',(0.,-1.,1.27821729808817E-16));
#1442=DIRECTION('',(0.,-1.,-4.08170229641602E-16));
#1443=DIRECTION('',(0.,4.08170229641602E-16,-1.));
#1444=DIRECTION('',(0.,-1.,1.09561482693272E-16));
#1445=DIRECTION('',(0.,-1.09561482693272E-16,-1.));
#1446=DIRECTION('',(0.,-1.,1.09561482693272E-16));
#1447=DIRECTION('',(0.,-1.,0.));
#1448=DIRECTION('',(0.,0.,-1.));
#1449=DIRECTION('',(0.,-1.,1.09561482693272E-16));
#1450=DIRECTION('',(0.,-1.,-4.08170229641602E-16));
#1451=DIRECTION('',(0.,4.08170229641602E-16,-1.));
#1452=DIRECTION('',(1.,0.,0.));
#1453=DIRECTION('',(0.,1.,0.));
#1454=DIRECTION('',(0.,0.,-1.));
#1455=DIRECTION('',(1.,0.,0.));
#1456=DIRECTION('',(0.,0.,-1.));
#1457=DIRECTION('',(0.,-1.,0.));
#1458=DIRECTION('',(1.,0.,0.));
#1459=DIRECTION('',(0.,0.,1.));
#1460=DIRECTION('',(0.,0.,-1.));
#1461=DIRECTION('',(0.,1.,0.));
#1462=DIRECTION('',(-1.,0.,0.));
#1463=DIRECTION('',(0.,-1.,0.));
#1464=DIRECTION('',(0.,0.,-1.));
#1465=DIRECTION('',(0.,1.,0.));
#1466=DIRECTION('',(0.,-2.89120579329468E-16,-1.));
#1467=DIRECTION('',(0.,1.,0.));
#1468=DIRECTION('',(0.,0.,-1.));
#1469=DIRECTION('',(0.,1.,0.));
#1470=DIRECTION('',(0.,0.,-1.));
#1471=DIRECTION('',(0.,1.,0.));
#1472=DIRECTION('',(1.,-1.17608371252665E-16,0.));
#1473=DIRECTION('',(1.17608371252665E-16,1.,0.));
#1474=DIRECTION('',(-1.17608371252665E-16,-1.,0.));
#1475=DIRECTION('',(3.40030004305656E-32,2.89120579329468E-16,1.));
#1476=DIRECTION('',(-1.17608371252665E-16,-1.,0.));
#1477=DIRECTION('',(0.,0.,1.));
#1478=DIRECTION('',(1.17608371252665E-16,1.,0.));
#1479=DIRECTION('',(0.,0.,1.));
#1480=DIRECTION('',(1.17608371252665E-16,1.,0.));
#1481=DIRECTION('',(0.,0.,1.));
#1482=DIRECTION('',(0.,0.,-1.));
#1483=DIRECTION('',(-1.,0.,0.));
#1484=DIRECTION('',(0.,0.,-1.));
#1485=DIRECTION('',(1.,0.,0.));
#1486=DIRECTION('',(-1.,0.,0.));
#1487=DIRECTION('',(0.,1.,0.));
#1488=DIRECTION('',(-1.,0.,0.));
#1489=DIRECTION('',(0.,1.09561482693272E-16,1.));
#1490=DIRECTION('',(0.,-1.,1.09561482693272E-16));
#1491=DIRECTION('',(-1.50046481124352E-32,-1.,1.09561482693272E-16));
#1492=DIRECTION('',(1.,0.,0.));
#1493=DIRECTION('',(1.89766054577325E-16,1.,-1.09561482693272E-16));
#1494=DIRECTION('',(1.,0.,0.));
#1495=DIRECTION('',(1.,0.,0.));
#1496=DIRECTION('',(0.,-1.,1.09561482693272E-16));
#1497=DIRECTION('',(0.,-1.,1.09561482693272E-16));
#1498=DIRECTION('',(1.,0.,0.));
#1499=DIRECTION('',(0.,-1.,1.09561482693272E-16));
#1500=DIRECTION('',(1.,0.,0.));
#1501=DIRECTION('',(5.13672638083367E-33,-1.,1.09561482693272E-16));
#1502=DIRECTION('',(1.,0.,0.));
#1503=DIRECTION('',(5.13672638083367E-33,-1.,1.09561482693272E-16));
#1504=DIRECTION('',(0.,-1.,0.));
#1505=DIRECTION('',(1.,0.,0.));
#1506=DIRECTION('',(0.,0.,1.));
#1507=DIRECTION('',(-1.,0.,0.));
#1508=DIRECTION('',(0.,0.,-1.));
#1509=DIRECTION('',(-1.,0.,0.));
#1510=DIRECTION('',(0.,0.,-1.));
#1511=DIRECTION('',(-1.,0.,0.));
#1512=DIRECTION('',(-4.68844182696434E-17,0.,-1.));
#1513=DIRECTION('',(-1.,0.,0.));
#1514=DIRECTION('',(-4.68844182696434E-17,0.,-1.));
#1515=DIRECTION('',(-1.,0.,0.));
#1516=DIRECTION('',(0.,1.27821729808817E-16,1.));
#1517=DIRECTION('',(0.,-1.,1.27821729808817E-16));
#1518=DIRECTION('',(1.,0.,0.));
#1519=DIRECTION('',(0.,-1.,1.27821729808817E-16));
#1520=DIRECTION('',(0.,1.,-1.27821729808817E-16));
#1521=DIRECTION('',(1.,0.,0.));
#1522=DIRECTION('',(5.99284744430594E-33,-1.,1.27821729808817E-16));
#1523=DIRECTION('',(1.,0.,0.));
#1524=DIRECTION('',(5.99284744430594E-33,-1.,1.27821729808817E-16));
#1525=DIRECTION('',(1.,0.,0.));
#1526=DIRECTION('',(0.,-1.,1.27821729808817E-16));
#1527=DIRECTION('',(0.,-1.,0.));
#1528=DIRECTION('',(0.,0.,-1.));
#1529=DIRECTION('',(0.,0.,-1.));
#1530=DIRECTION('',(-4.68844182696434E-17,0.,-1.));
#1531=DIRECTION('',(1.,0.,0.));
#1532=DIRECTION('',(0.,0.,-1.));
#1533=DIRECTION('',(0.,4.08170229641602E-16,-1.));
#1534=DIRECTION('',(0.,0.,-1.));
#1535=DIRECTION('',(0.,1.,0.));
#1536=DIRECTION('',(0.,0.,-1.));
#1537=DIRECTION('',(0.,1.,0.));
#1538=DIRECTION('',(0.,0.,-1.));
#1539=DIRECTION('',(-1.,0.,0.));
#1540=DIRECTION('',(-1.,0.,0.));
#1541=DIRECTION('',(0.,1.,0.));
#1542=DIRECTION('',(-1.,0.,0.));
#1543=DIRECTION('',(0.,1.,0.));
#1544=DIRECTION('',(0.,-1.,0.));
#1545=DIRECTION('',(1.,0.,0.));
#1546=DIRECTION('',(-1.,0.,0.));
#1547=DIRECTION('',(0.,0.,-1.));
#1548=DIRECTION('',(-1.,0.,0.));
#1549=DIRECTION('',(0.,0.,-1.));
#1550=DIRECTION('',(-1.,0.,0.));
#1551=DIRECTION('',(0.,0.,1.));
#1552=DIRECTION('',(0.,-1.,1.7347234759768E-16));
#1553=DIRECTION('',(0.,-1.7347234759768E-16,-1.));
#1554=DIRECTION('',(0.,-1.7347234759768E-16,-1.));
#1555=DIRECTION('',(0.,-1.7347234759768E-16,-1.));
#1556=DIRECTION('',(0.,-1.,0.));
#1557=DIRECTION('',(0.,0.,-1.));
#1558=DIRECTION('',(-4.68844182696434E-17,0.,-1.));
#1559=DIRECTION('',(0.,0.,-1.));
#1560=DIRECTION('',(1.,0.,0.));
#1561=DIRECTION('',(0.,1.,0.));
#1562=DIRECTION('',(0.,0.,-1.));
#1563=DIRECTION('',(0.,-1.,0.));
#1564=DIRECTION('',(0.,0.,-1.));
#1565=DIRECTION('',(0.,-1.,0.));
#1566=DIRECTION('',(0.5,0.,0.866025403784439));
#1567=DIRECTION('',(0.866025403784439,0.,-0.5));
#1568=DIRECTION('',(-0.866025403784439,0.,0.5));
#1569=DIRECTION('',(-0.866025403784439,0.,0.5));
#1570=DIRECTION('',(0.5,0.,0.866025403784439));
#1571=DIRECTION('',(0.866025403784439,0.,-0.5));
#1572=DIRECTION('',(-1.,0.,-1.3695185336659E-16));
#1573=DIRECTION('',(-1.3695185336659E-16,0.,1.));
#1574=DIRECTION('',(0.,-1.,0.));
#1575=DIRECTION('',(1.3695185336659E-16,0.,-1.));
#1576=DIRECTION('',(1.3695185336659E-16,0.,-1.));
#1577=DIRECTION('',(0.,-1.,0.));
#1578=DIRECTION('',(1.,0.,0.));
#1579=DIRECTION('',(0.5,0.,0.866025403784439));
#1580=DIRECTION('',(-1.,0.,0.));
#1581=DIRECTION('',(-1.,0.,0.));
#1582=DIRECTION('',(0.,-1.,0.));
#1583=DIRECTION('',(0.,0.,-1.));
#1584=DIRECTION('',(0.,-1.,0.));
#1585=DIRECTION('',(1.,0.,0.));
#1586=DIRECTION('',(0.5,0.,0.866025403784439));
#1587=DIRECTION('',(0.,-1.,0.));
#1588=DIRECTION('',(0.,0.,-1.));
#1589=DIRECTION('',(-1.,0.,0.));
#1590=DIRECTION('',(-1.,0.,0.));
#1591=DIRECTION('',(0.5,0.,0.866025403784439));
#1592=DIRECTION('',(0.866025403784439,0.,-0.5));
#1593=DIRECTION('',(0.,-1.,0.));
#1594=DIRECTION('',(1.,0.,0.));
#1595=DIRECTION('',(-4.68844182696434E-17,0.,-1.));
#1596=DIRECTION('',(-1.,0.,0.));
#1597=DIRECTION('',(-4.68844182696434E-17,0.,-1.));
#1598=DIRECTION('',(-1.,0.,4.68844182696434E-17));
#1599=DIRECTION('',(4.68844182696434E-17,0.,1.));
#1600=DIRECTION('',(0.,-1.,0.));
#1601=DIRECTION('',(-4.68844182696434E-17,0.,-1.));
#1602=DIRECTION('',(0.,-1.,0.));
#1603=DIRECTION('',(-4.68844182696434E-17,0.,-1.));
#1604=DIRECTION('',(0.,0.,1.));
#1605=DIRECTION('',(1.,0.,0.));
#1606=DIRECTION('',(0.,0.,1.));
#1607=DIRECTION('',(1.,0.,0.));
#1608=DIRECTION('',(0.,-1.,0.));
#1609=DIRECTION('',(0.,0.,1.));
#1610=DIRECTION('',(1.,0.,0.));
#1611=DIRECTION('',(-1.,0.,4.68844182696434E-17));
#1612=DIRECTION('',(4.68844182696434E-17,0.,1.));
#1613=DIRECTION('',(-4.68844182696434E-17,0.,-1.));
#1614=DIRECTION('',(0.,-1.,0.));
#1615=DIRECTION('',(-4.68844182696434E-17,0.,-1.));
#1616=DIRECTION('',(0.,0.,1.));
#1617=DIRECTION('',(1.,0.,0.));
#1618=DIRECTION('',(0.,0.,1.));
#1619=DIRECTION('',(1.,0.,0.));
#1620=DIRECTION('',(-1.,0.,0.));
#1621=DIRECTION('',(0.,0.,1.));
#1622=DIRECTION('',(1.,0.,0.));
#1623=DIRECTION('',(0.,-1.,0.));
#1624=DIRECTION('',(1.,0.,0.));
#1625=DIRECTION('',(0.,0.,-1.));
#1626=DIRECTION('',(-1.,0.,0.));
#1627=DIRECTION('',(0.,-1.,0.));
#1628=DIRECTION('',(0.,0.,-1.));
#1629=DIRECTION('',(-1.,0.,0.));
#1630=DIRECTION('',(0.,0.,-1.));
#1631=DIRECTION('',(1.,0.,0.));
#1632=DIRECTION('',(0.,0.,-1.));
#1633=DIRECTION('',(-1.,0.,0.));
#1634=DIRECTION('',(0.,0.,-1.));
#1635=DIRECTION('',(-1.,0.,0.));
#1636=DIRECTION('',(0.,0.,-1.));
#1637=DIRECTION('',(-1.,0.,0.));
#1638=DIRECTION('',(0.,0.,-1.));
#1639=DIRECTION('',(-1.,0.,0.));
#1640=DIRECTION('',(0.,0.,-1.));
#1641=DIRECTION('',(-1.,0.,0.));
#1642=DIRECTION('',(0.,0.,-1.));
#1643=DIRECTION('',(-1.,0.,0.));
#1644=DIRECTION('',(0.,1.,0.));
#1645=DIRECTION('',(0.,1.,0.));
#1646=DIRECTION('',(0.,0.,1.));
#1647=DIRECTION('',(-1.,0.,0.));
#1648=DIRECTION('',(0.,0.,1.));
#1649=DIRECTION('',(-1.,0.,0.));
#1650=DIRECTION('',(0.,0.,-1.));
#1651=DIRECTION('',(0.,0.,1.));
#1652=DIRECTION('',(1.,0.,0.));
#1653=DIRECTION('',(-1.,0.,0.));
#1654=DIRECTION('',(-1.17608371252665E-16,-1.,0.));
#1655=DIRECTION('',(0.,1.,0.));
#1656=DIRECTION('',(0.,1.,-2.89120579329468E-16));
#1657=DIRECTION('',(0.,2.89120579329468E-16,1.));
#1658=DIRECTION('',(-1.,0.,0.));
#1659=DIRECTION('',(3.40030004305656E-32,2.89120579329468E-16,1.));
#1660=DIRECTION('',(0.,-2.89120579329468E-16,-1.));
#1661=DIRECTION('',(0.,0.,1.));
#1662=DIRECTION('',(1.,0.,0.));
#1663=DIRECTION('',(0.,0.,1.));
#1664=DIRECTION('',(1.,0.,0.));
#1665=DIRECTION('',(0.,0.,1.));
#1666=DIRECTION('',(1.,0.,0.));
#1667=DIRECTION('',(0.,0.,1.));
#1668=DIRECTION('',(1.,0.,0.));
#1669=DIRECTION('',(0.,0.,1.));
#1670=DIRECTION('',(1.,0.,0.));
#1671=DIRECTION('',(-1.17608371252665E-16,-1.,0.));
#1672=DIRECTION('',(0.,1.,0.));
#1673=DIRECTION('',(0.,0.,-1.));
#1674=DIRECTION('',(-1.,0.,0.));
#1675=DIRECTION('',(0.,0.,-1.));
#1676=DIRECTION('',(-1.,0.,0.));
#1677=DIRECTION('',(0.,0.,-1.));
#1678=DIRECTION('',(-1.,0.,0.));
#1679=DIRECTION('',(0.,0.,-1.));
#1680=DIRECTION('',(-1.,0.,0.));
#1681=DIRECTION('',(0.866025403784439,0.,-0.5));
#1682=DIRECTION('',(-0.5,0.,-0.866025403784439));
#1683=DIRECTION('',(0.5,0.,0.866025403784439));
#1684=DIRECTION('',(0.,-1.,0.));
#1685=DIRECTION('',(0.5,0.,0.866025403784439));
#1686=DIRECTION('',(0.,0.,1.));
#1687=DIRECTION('',(1.,0.,0.));
#1688=DIRECTION('',(8.31616768370644E-17,0.707106781186548,0.707106781186548));
#1689=DIRECTION('',(-8.31616768370644E-17,-0.707106781186548,0.707106781186548));
#1690=DIRECTION('',(-8.31616768370644E-17,-0.707106781186548,0.707106781186548));
#1691=DIRECTION('',(-8.31616768370644E-17,-0.707106781186548,-0.707106781186548));
#1692=DIRECTION('',(-1.17608371252665E-16,-1.,0.));
#1693=DIRECTION('',(1.,-1.17608371252665E-16,0.));
#1694=DIRECTION('',(-8.31616768370644E-17,-0.707106781186548,-0.707106781186548));
#1695=DIRECTION('',(8.31616768370644E-17,0.707106781186547,-0.707106781186548));
#1696=DIRECTION('',(1.17608371252665E-16,1.,0.));
#1697=DIRECTION('',(-1.,1.17608371252665E-16,0.));
#1698=DIRECTION('',(8.31616768370644E-17,0.707106781186547,-0.707106781186548));
#1699=DIRECTION('',(-8.31616768370644E-17,-0.707106781186548,-0.707106781186548));
#1700=DIRECTION('',(-3.40030004305656E-32,-2.89120579329468E-16,-1.));
#1701=DIRECTION('',(0.,1.,-2.89120579329468E-16));
#1702=DIRECTION('',(0.,0.,1.));
#1703=DIRECTION('',(1.,0.,0.));
#1704=DIRECTION('',(-0.707106781186548,0.,-0.707106781186548));
#1705=DIRECTION('',(-0.707106781186548,0.,0.707106781186548));
#1706=DIRECTION('',(0.,0.,-1.));
#1707=DIRECTION('',(-1.,0.,0.));
#1708=DIRECTION('',(-0.707106781186548,0.,-0.707106781186548));
#1709=DIRECTION('',(0.707106781186548,0.,-0.707106781186548));
#1710=DIRECTION('',(-1.,0.,0.));
#1711=DIRECTION('',(0.,0.,1.));
#1712=DIRECTION('',(-0.707106781186548,-0.707106781186548,0.));
#1713=DIRECTION('',(-0.707106781186548,0.707106781186548,0.));
#1714=DIRECTION('',(1.,0.,0.));
#1715=DIRECTION('',(0.,0.,-1.));
#1716=DIRECTION('',(1.,0.,0.));
#1717=DIRECTION('',(0.,0.,-1.));
#1718=DIRECTION('',(0.,1.,0.));
#1719=DIRECTION('',(0.,0.,1.));
#1720=DIRECTION('',(0.,1.,0.));
#1721=DIRECTION('',(0.,0.,1.));
#1722=DIRECTION('',(0.,0.,-1.));
#1723=DIRECTION('',(-1.,0.,0.));
#1724=DIRECTION('',(1.73472347597681E-15,0.,-1.));
#1725=DIRECTION('',(-1.,0.,-1.73472347597681E-15));
#1726=DIRECTION('',(0.,0.,1.));
#1727=DIRECTION('',(1.,0.,0.));
#1728=DIRECTION('',(0.,0.,1.));
#1729=DIRECTION('',(1.,0.,0.));
#1730=DIRECTION('',(0.,-1.,0.));
#1731=DIRECTION('',(0.,0.,-1.));
#1732=DIRECTION('',(-8.67361737988403E-16,1.,0.));
#1733=DIRECTION('',(-1.,-8.67361737988403E-16,0.));
#1734=DIRECTION('',(0.707106781186548,0.707106781186548,0.));
#1735=DIRECTION('',(0.707106781186548,-0.707106781186548,0.));
#1736=DIRECTION('',(1.,0.,0.));
#1737=DIRECTION('',(0.,0.,-1.));
#1738=DIRECTION('',(-1.,0.,0.));
#1739=DIRECTION('',(0.,0.,1.));
#1740=DIRECTION('',(1.,0.,0.));
#1741=DIRECTION('',(0.,0.,-1.));
#1742=DIRECTION('',(1.,0.,0.));
#1743=DIRECTION('',(0.,0.,-1.));
#1744=DIRECTION('',(0.,0.,1.));
#1745=DIRECTION('',(1.,0.,0.));
#1746=DIRECTION('',(0.,0.,1.));
#1747=DIRECTION('',(1.,0.,0.));
#1748=DIRECTION('',(0.,-1.,0.));
#1749=DIRECTION('',(0.,0.,-1.));
#1750=DIRECTION('',(-1.,0.,0.));
#1751=DIRECTION('',(0.,0.,1.));
#1752=DIRECTION('',(-1.,0.,0.));
#1753=DIRECTION('',(0.,0.,1.));
#1754=DIRECTION('',(0.,-1.,0.));
#1755=DIRECTION('',(0.,0.,-1.));
#1756=DIRECTION('',(0.,1.,0.));
#1757=DIRECTION('',(0.,0.,1.));
#1758=DIRECTION('',(0.,0.,-1.));
#1759=DIRECTION('',(-1.,0.,0.));
#1760=DIRECTION('',(0.,0.707106781186548,-0.707106781186548));
#1761=DIRECTION('',(0.,0.707106781186548,0.707106781186548));
#1762=DIRECTION('',(0.,-8.67361737988404E-16,1.));
#1763=DIRECTION('',(0.,-1.,-8.67361737988404E-16));
#1764=DIRECTION('',(0.,0.,1.));
#1765=DIRECTION('',(1.,0.,0.));
#1766=DIRECTION('',(0.,1.,0.));
#1767=DIRECTION('',(0.,0.,1.));
#1768=DIRECTION('',(0.,0.707106781186548,0.707106781186548));
#1769=DIRECTION('',(0.,0.707106781186548,-0.707106781186548));
#1770=DIRECTION('',(0.,0.,1.));
#1771=DIRECTION('',(1.,0.,0.));
#1772=DIRECTION('',(0.5,0.,0.866025403784439));
#1773=DIRECTION('',(0.866025403784439,0.,-0.5));
#1774=DIRECTION('',(0.353553390593274,0.707106781186548,0.612372435695795));
#1775=DIRECTION('',(-0.353553390593274,0.707106781186548,-0.612372435695795));
#1776=DIRECTION('',(0.,1.,0.));
#1777=DIRECTION('',(0.,0.,1.));
#1778=DIRECTION('',(-0.353553390593274,0.707106781186548,-0.612372435695795));
#1779=DIRECTION('',(0.353553390593274,0.707106781186548,0.612372435695795));
#1780=DIRECTION('',(-0.5,0.,-0.866025403784439));
#1781=DIRECTION('',(-0.866025403784439,0.,0.5));
#1782=DIRECTION('',(-4.68844182696434E-17,0.,-1.));
#1783=DIRECTION('',(-1.,0.,4.68844182696434E-17));
#1784=DIRECTION('',(4.68844182696434E-17,0.,1.));
#1785=DIRECTION('',(1.,0.,-4.68844182696434E-17));
#1786=DIRECTION('',(0.,-1.,0.));
#1787=DIRECTION('',(0.,0.,-1.));
#1788=DIRECTION('',(0.,-0.707106781186547,0.707106781186548));
#1789=DIRECTION('',(0.,0.707106781186548,0.707106781186548));
#1790=DIRECTION('',(0.,-0.707106781186548,-0.707106781186548));
#1791=DIRECTION('',(0.,0.707106781186548,-0.707106781186548));
#1792=DIRECTION('',(0.,0.,-1.));
#1793=DIRECTION('',(-1.,0.,0.));
#1794=DIRECTION('',(0.,0.707106781186548,-0.707106781186548));
#1795=DIRECTION('',(0.,0.707106781186548,0.707106781186548));
#1796=DIRECTION('',(0.,2.89120579329468E-16,1.));
#1797=DIRECTION('',(0.,-1.,2.89120579329468E-16));
#1798=DIRECTION('',(0.,0.707106781186548,0.707106781186548));
#1799=DIRECTION('',(0.,0.707106781186547,-0.707106781186548));
#1800=DIRECTION('',(0.,1.,0.));
#1801=DIRECTION('',(0.,0.,1.));
#1802=DIRECTION('',(0.,-1.,-4.08170229641602E-16));
#1803=DIRECTION('',(0.,4.08170229641602E-16,-1.));
#1804=DIRECTION('',(0.,4.08170229641602E-16,-1.));
#1805=DIRECTION('',(1.,0.,0.));
#1806=DIRECTION('',(0.,1.,0.));
#1807=DIRECTION('',(0.,-1.,0.));
#1808=DIRECTION('',(0.,0.,-1.));
#1809=DIRECTION('',(0.,0.,-1.));
#1810=DIRECTION('',(1.,0.,0.));
#1811=DIRECTION('',(0.,1.,0.));
#1812=CARTESIAN_POINT('',(0.,0.,0.));
#1813=CARTESIAN_POINT('',(0.0145,-0.059,0.017));
#1814=CARTESIAN_POINT('',(0.0165,-0.0115,0.017));
#1815=CARTESIAN_POINT('',(0.0165,-0.0995,0.017));
#1816=CARTESIAN_POINT('',(0.0165,-0.0165,0.017));
#1817=CARTESIAN_POINT('',(0.0145,-0.0995,0.017));
#1818=CARTESIAN_POINT('',(0.0145,-0.0995,0.015));
#1819=CARTESIAN_POINT('',(0.0145,-0.1065,0.015));
#1820=CARTESIAN_POINT('',(0.0145,-0.0165,0.015));
#1821=CARTESIAN_POINT('',(0.0145,-0.0165,0.017));
#1822=CARTESIAN_POINT('',(0.0145,-0.118,-0.017));
#1823=CARTESIAN_POINT('',(0.0145,-0.059,-0.015));
#1824=CARTESIAN_POINT('',(0.0145,-0.0995,-0.015));
#1825=CARTESIAN_POINT('',(0.0145,-0.0165,-0.015));
#1826=CARTESIAN_POINT('',(0.0145,-0.0995,-0.017));
#1827=CARTESIAN_POINT('',(0.0165,-0.0995,-0.017));
#1828=CARTESIAN_POINT('',(0.0165,-0.118,-0.017));
#1829=CARTESIAN_POINT('',(0.0165,-0.0165,-0.017));
#1830=CARTESIAN_POINT('',(0.0145,-0.0165,-0.017));
#1831=CARTESIAN_POINT('',(-0.0055,-0.059,6.93889390390723E-18));
#1832=CARTESIAN_POINT('',(-0.0055,-0.025,0.00423237170329515));
#1833=CARTESIAN_POINT('',(-0.0055,-0.025,0.00230435247581245));
#1834=CARTESIAN_POINT('',(-0.0055,-0.025,-0.00479829407782823));
#1835=CARTESIAN_POINT('',(-0.0055,-0.027,0.00230435247581245));
#1836=CARTESIAN_POINT('',(-0.0055,-0.027,-0.00169564752418755));
#1837=CARTESIAN_POINT('',(-0.0055,-0.025,-0.00169564752418755));
#1838=CARTESIAN_POINT('',(-0.0055,-0.091,-0.00169564752418755));
#1839=CARTESIAN_POINT('',(-0.0055,-0.091,0.00230435247581245));
#1840=CARTESIAN_POINT('',(-0.0055,-0.093,0.00230435247581245));
#1841=CARTESIAN_POINT('',(-0.0055,-0.093,0.00423237170329515));
#1842=CARTESIAN_POINT('',(-0.0055,-0.093,-0.00479829407782823));
#1843=CARTESIAN_POINT('',(-0.0055,-0.025,-0.00479829407782823));
#1844=CARTESIAN_POINT('',(-0.0865,-0.059,0.));
#1845=CARTESIAN_POINT('',(-0.0865,-0.111518348286053,0.));
#1846=CARTESIAN_POINT('',(-0.0865,-0.111518348286053,-0.0885));
#1847=CARTESIAN_POINT('',(-0.0865,-0.111518348286053,-0.1225));
#1848=CARTESIAN_POINT('',(-0.0865,-0.059,-0.1225));
#1849=CARTESIAN_POINT('',(-0.0865,-0.00648165171394747,-0.1225));
#1850=CARTESIAN_POINT('',(-0.0865,-0.00648165171394746,-0.0905));
#1851=CARTESIAN_POINT('',(-0.0865,-0.00648165171394746,-0.0885));
#1852=CARTESIAN_POINT('',(-0.0865,-0.109518348286053,-0.0885));
#1853=CARTESIAN_POINT('',(-0.0865,-0.002,-0.1325));
#1854=CARTESIAN_POINT('',(-0.0865,-0.002,0.0205));
#1855=CARTESIAN_POINT('',(-0.0865,-0.002,-0.1305));
#1856=CARTESIAN_POINT('',(-0.0865,-0.059,-0.1305));
#1857=CARTESIAN_POINT('',(-0.0865,-0.116,-0.1305));
#1858=CARTESIAN_POINT('',(-0.0865,-0.116,0.));
#1859=CARTESIAN_POINT('',(-0.0865,-0.116,0.0205));
#1860=CARTESIAN_POINT('',(-0.0865,0.,0.0205));
#1861=CARTESIAN_POINT('',(-0.0465,-0.059,-0.1325));
#1862=CARTESIAN_POINT('',(-0.0465,-0.00848165171394746,-0.0885));
#1863=CARTESIAN_POINT('',(-0.0465,-0.111518348286053,-0.0885));
#1864=CARTESIAN_POINT('',(-0.0465,-0.00648165171394746,-0.0885));
#1865=CARTESIAN_POINT('',(-0.0465,-0.00648165171394747,-0.1205));
#1866=CARTESIAN_POINT('',(-0.0465,-0.00648165171394747,-0.1225));
#1867=CARTESIAN_POINT('',(-0.0465,-0.059,-0.1225));
#1868=CARTESIAN_POINT('',(-0.0465,-0.111518348286053,-0.1225));
#1869=CARTESIAN_POINT('',(-0.0465,-0.111518348286053,-0.1325));
#1870=CARTESIAN_POINT('',(-0.0465,-0.059,-0.1325));
#1871=CARTESIAN_POINT('',(-0.0465,-0.116,-0.1325));
#1872=CARTESIAN_POINT('',(-0.0465,-0.002,-0.1325));
#1873=CARTESIAN_POINT('',(-0.0465,-0.002,-0.0225));
#1874=CARTESIAN_POINT('',(-0.0465,-0.002,-0.0225));
#1875=CARTESIAN_POINT('',(-0.0465,-0.059,-0.0225));
#1876=CARTESIAN_POINT('',(-0.0465,-0.116,-0.0225));
#1877=CARTESIAN_POINT('',(-0.0465,-0.116,-0.1325));
#1878=CARTESIAN_POINT('',(0.,-0.118,-0.0225));
#1879=CARTESIAN_POINT('',(-0.0028028194987401,-0.0589206074946454,-0.0225));
#1880=CARTESIAN_POINT('',(0.00412538373153541,-0.0589206074946454,-0.0225));
#1881=CARTESIAN_POINT('',(0.0165,-0.002,-0.0225));
#1882=CARTESIAN_POINT('',(0.0145,-0.002,-0.0225));
#1883=CARTESIAN_POINT('',(0.0145,-0.118,-0.0225));
#1884=CARTESIAN_POINT('',(0.0145,-0.116,-0.0225));
#1885=CARTESIAN_POINT('',(0.,-0.116,-0.0225));
#1886=CARTESIAN_POINT('',(-0.0135,-0.059,-0.015));
#1887=CARTESIAN_POINT('',(-0.00774871130596428,-0.059,-0.015));
#1888=CARTESIAN_POINT('',(-0.00774871130596428,-0.025,-0.015));
#1889=CARTESIAN_POINT('',(-0.00774871130596428,-0.093,-0.015));
#1890=CARTESIAN_POINT('',(-0.0135,-0.025,-0.015));
#1891=CARTESIAN_POINT('',(0.0121698729810778,-0.025,-0.015));
#1892=CARTESIAN_POINT('',(0.0121698729810778,-0.059,-0.015));
#1893=CARTESIAN_POINT('',(0.0121698729810778,-0.093,-0.015));
#1894=CARTESIAN_POINT('',(-0.0135,-0.093,-0.015));
#1895=CARTESIAN_POINT('',(-0.0135,-0.1065,-0.015));
#1896=CARTESIAN_POINT('',(0.0115,-0.1065,-0.015));
#1897=CARTESIAN_POINT('',(0.0145,-0.1065,-0.015));
#1898=CARTESIAN_POINT('',(0.0145,-0.059,-0.015));
#1899=CARTESIAN_POINT('',(0.0145,-0.059,-0.015));
#1900=CARTESIAN_POINT('',(0.0145,-0.0115,-0.015));
#1901=CARTESIAN_POINT('',(-0.0135,-0.0115,-0.015));
#1902=CARTESIAN_POINT('',(-0.0135,-0.0115,-0.015));
#1903=CARTESIAN_POINT('',(-0.0135,-0.059,-0.015));
#1904=CARTESIAN_POINT('',(-0.0135,-0.1065,-0.015));
#1905=CARTESIAN_POINT('',(-0.0135,-0.1065,-0.015));
#1906=CARTESIAN_POINT('',(-0.0115,-0.1065,-0.015));
#1907=CARTESIAN_POINT('',(-0.0115,-0.059,-0.015));
#1908=CARTESIAN_POINT('',(-0.0115,-0.106,-0.015));
#1909=CARTESIAN_POINT('',(-0.0135,-0.106,-0.015));
#1910=CARTESIAN_POINT('',(0.0115,-0.106,-0.015));
#1911=CARTESIAN_POINT('',(0.0115,-0.059,-0.015));
#1912=CARTESIAN_POINT('',(0.,-0.118,0.));
#1913=CARTESIAN_POINT('',(-0.0485,-0.118,0.));
#1914=CARTESIAN_POINT('',(-0.0485,-0.118,-0.1325));
#1915=CARTESIAN_POINT('',(-0.0485,-0.118,-0.0205));
#1916=CARTESIAN_POINT('',(0.,-0.118,-0.0205));
#1917=CARTESIAN_POINT('',(0.0165,-0.118,-0.0205));
#1918=CARTESIAN_POINT('',(0.0165,-0.118,0.));
#1919=CARTESIAN_POINT('',(0.0165,-0.118,0.0205));
#1920=CARTESIAN_POINT('',(-0.0865,-0.118,0.0205));
#1921=CARTESIAN_POINT('',(-0.0845,-0.118,0.0205));
#1922=CARTESIAN_POINT('',(-0.0845,-0.118,0.));
#1923=CARTESIAN_POINT('',(-0.0845,-0.118,-0.1325));
#1924=CARTESIAN_POINT('',(0.,-0.118,-0.1325));
#1925=CARTESIAN_POINT('',(0.0135,-0.118,-6.32939646640186E-19));
#1926=CARTESIAN_POINT('',(0.0135,-0.118,0.0170883475587075));
#1927=CARTESIAN_POINT('',(0.0135,-0.118,-0.0199116524412925));
#1928=CARTESIAN_POINT('',(0.,-0.118,-0.0199116524412925));
#1929=CARTESIAN_POINT('',(-0.0135,-0.118,-0.0199116524412925));
#1930=CARTESIAN_POINT('',(-0.0135,-0.118,0.0170883475587075));
#1931=CARTESIAN_POINT('',(-0.0135,-0.118,0.0170883475587075));
#1932=CARTESIAN_POINT('',(1.7347234759768E-18,-0.118,0.0170883475587075));
#1933=CARTESIAN_POINT('',(-0.0135,-0.059,0.015));
#1934=CARTESIAN_POINT('',(-0.0135,-0.0115,0.015));
#1935=CARTESIAN_POINT('',(-0.0135,-0.0115,0.015));
#1936=CARTESIAN_POINT('',(0.0145,-0.0115,0.015));
#1937=CARTESIAN_POINT('',(0.0145,-0.1065,0.015));
#1938=CARTESIAN_POINT('',(0.0145,-0.059,0.015));
#1939=CARTESIAN_POINT('',(0.0145,-0.1065,0.015));
#1940=CARTESIAN_POINT('',(-0.0135,-0.1065,0.015));
#1941=CARTESIAN_POINT('',(0.0115,-0.1065,0.015));
#1942=CARTESIAN_POINT('',(0.0115,-0.059,0.015));
#1943=CARTESIAN_POINT('',(0.0115,-0.106,0.015));
#1944=CARTESIAN_POINT('',(-0.0135,-0.106,0.015));
#1945=CARTESIAN_POINT('',(-0.0115,-0.106,0.015));
#1946=CARTESIAN_POINT('',(-0.0115,-0.059,0.015));
#1947=CARTESIAN_POINT('',(-0.0115,-0.1065,0.015));
#1948=CARTESIAN_POINT('',(-0.0135,-0.1065,0.015));
#1949=CARTESIAN_POINT('',(-0.0135,-0.1065,0.015));
#1950=CARTESIAN_POINT('',(-0.0135,-0.059,0.015));
#1951=CARTESIAN_POINT('',(-0.0135,-0.1065,1.04083408558608E-17));
#1952=CARTESIAN_POINT('',(0.0145,-0.1065,1.04083408558608E-17));
#1953=CARTESIAN_POINT('',(0.0115,-0.1065,9.23623039911976E-18));
#1954=CARTESIAN_POINT('',(0.0165,-0.118,0.));
#1955=CARTESIAN_POINT('',(0.0165,-0.0165,3.46944695195361E-18));
#1956=CARTESIAN_POINT('',(0.0165,-0.0995,1.04083408558608E-17));
#1957=CARTESIAN_POINT('',(0.0165,-0.118,-0.0205));
#1958=CARTESIAN_POINT('',(0.0165,-0.002,-0.0205));
#1959=CARTESIAN_POINT('',(0.0165,-0.002,0.0225));
#1960=CARTESIAN_POINT('',(0.0165,-0.002,0.0205));
#1961=CARTESIAN_POINT('',(0.0165,-0.118,0.0205));
#1962=CARTESIAN_POINT('',(0.,-0.118,0.0225));
#1963=CARTESIAN_POINT('',(0.0165,-0.116,0.0225));
#1964=CARTESIAN_POINT('',(-0.0845,-0.116,0.0225));
#1965=CARTESIAN_POINT('',(0.0145,-0.116,0.0225));
#1966=CARTESIAN_POINT('',(0.0145,0.,0.0225));
#1967=CARTESIAN_POINT('',(0.0145,-0.002,0.0225));
#1968=CARTESIAN_POINT('',(0.,-0.002,0.0225));
#1969=CARTESIAN_POINT('',(-0.0845,-0.002,0.0225));
#1970=CARTESIAN_POINT('',(-0.0845,-0.118,0.0225));
#1971=CARTESIAN_POINT('',(0.,0.,0.));
#1972=CARTESIAN_POINT('',(0.,0.,-0.1325));
#1973=CARTESIAN_POINT('',(-0.0485,0.,-0.1325));
#1974=CARTESIAN_POINT('',(-0.0845,0.,-0.1325));
#1975=CARTESIAN_POINT('',(-0.0845,0.,0.0225));
#1976=CARTESIAN_POINT('',(-0.0845,0.,0.0205));
#1977=CARTESIAN_POINT('',(0.,0.,0.0205));
#1978=CARTESIAN_POINT('',(0.0145,0.,0.0205));
#1979=CARTESIAN_POINT('',(0.0145,0.,-0.0225));
#1980=CARTESIAN_POINT('',(0.0145,0.,-0.0205));
#1981=CARTESIAN_POINT('',(-0.0465,0.,-0.0205));
#1982=CARTESIAN_POINT('',(-0.0485,0.,-0.0205));
#1983=CARTESIAN_POINT('',(-0.0485,0.,-0.1325));
#1984=CARTESIAN_POINT('',(-0.0135,-0.0115,1.7347234759768E-18));
#1985=CARTESIAN_POINT('',(0.0145,-0.0115,1.7347234759768E-18));
#1986=CARTESIAN_POINT('',(-0.0135,-0.0115,1.7347234759768E-18));
#1987=CARTESIAN_POINT('',(-0.0135,-0.1065,1.04083408558608E-17));
#1988=CARTESIAN_POINT('',(-0.0115,-0.1065,1.03145720193216E-17));
#1989=CARTESIAN_POINT('',(-0.0135,-0.1065,1.04083408558608E-17));
#1990=CARTESIAN_POINT('',(-0.0135,-0.059,0.));
#1991=CARTESIAN_POINT('',(-0.0135,-0.025,0.00423237170329515));
#1992=CARTESIAN_POINT('',(-0.0135,-0.025,0.0137152301040415));
#1993=CARTESIAN_POINT('',(-0.0135,-0.025,-0.00525048669745127));
#1994=CARTESIAN_POINT('',(-0.0135,-0.059,-0.00525048669745127));
#1995=CARTESIAN_POINT('',(-0.0135,-0.093,-0.00525048669745127));
#1996=CARTESIAN_POINT('',(-0.0135,-0.093,0.00423237170329515));
#1997=CARTESIAN_POINT('',(-0.0135,-0.093,0.0137152301040415));
#1998=CARTESIAN_POINT('',(-0.0135,-0.059,0.0137152301040415));
#1999=CARTESIAN_POINT('',(0.00437564434701786,-0.025,-0.0105));
#2000=CARTESIAN_POINT('',(0.00437564434701786,-0.093,-0.0105));
#2001=CARTESIAN_POINT('',(0.00437564434701786,-0.025,-0.0105));
#2002=CARTESIAN_POINT('',(0.00418794888540602,-0.0589206074946454,-0.0103916339747127));
#2003=CARTESIAN_POINT('',(0.00938410130811266,-0.0589206074946454,-0.0133916339747127));
#2004=CARTESIAN_POINT('',(-0.00774871130596428,-0.025,-0.013));
#2005=CARTESIAN_POINT('',(-0.00774871130596428,-0.025,-0.00525048669745127));
#2006=CARTESIAN_POINT('',(-0.00774871130596428,-0.025,-0.00525048669745127));
#2007=CARTESIAN_POINT('',(-0.00774871130596428,-0.093,-0.00525048669745126));
#2008=CARTESIAN_POINT('',(-0.00774871130596428,-0.025,-0.013));
#2009=CARTESIAN_POINT('',(-0.00774871130596428,-0.093,-0.013));
#2010=CARTESIAN_POINT('',(0.,-0.025,0.));
#2011=CARTESIAN_POINT('',(-0.00723205080756888,-0.025,-0.00069564752418755));
#2012=CARTESIAN_POINT('',(0.000933372731968704,-0.025,0.0134472809116104));
#2013=CARTESIAN_POINT('',(-0.0055,-0.025,-0.00525048669745127));
#2014=CARTESIAN_POINT('',(-0.0055,-0.025,0.0137152301040415));
#2015=CARTESIAN_POINT('',(-6.66272680312965E-5,-0.025,0.0137152301040415));
#2016=CARTESIAN_POINT('',(-6.66272680312965E-5,-0.025,0.0117152301040415));
#2017=CARTESIAN_POINT('',(0.,-0.093,0.));
#2018=CARTESIAN_POINT('',(-0.00512281389166357,-0.093,0.00295765797936032));
#2019=CARTESIAN_POINT('',(0.000933372731968703,-0.093,0.0134472809116104));
#2020=CARTESIAN_POINT('',(-6.66272680312965E-5,-0.093,0.0117152301040415));
#2021=CARTESIAN_POINT('',(-6.66272680312965E-5,-0.093,0.0137152301040415));
#2022=CARTESIAN_POINT('',(-0.0055,-0.093,0.0137152301040415));
#2023=CARTESIAN_POINT('',(-0.0055,-0.093,-0.00525048669745126));
#2024=CARTESIAN_POINT('',(-0.00831205111459398,-0.0589206074946454,-0.0320422690693237));
#2025=CARTESIAN_POINT('',(0.,-0.106,0.));
#2026=CARTESIAN_POINT('',(0.0115,-0.106,-0.00141165244129248));
#2027=CARTESIAN_POINT('',(0.0115,-0.106,0.0170883475587075));
#2028=CARTESIAN_POINT('',(1.7347234759768E-18,-0.106,0.0170883475587075));
#2029=CARTESIAN_POINT('',(-0.0115,-0.106,0.0170883475587075));
#2030=CARTESIAN_POINT('',(-0.0115,-0.106,-0.00141165244129248));
#2031=CARTESIAN_POINT('',(0.0115,-0.106,-0.00141165244129248));
#2032=CARTESIAN_POINT('',(0.0115,-0.106,-0.0199116524412925));
#2033=CARTESIAN_POINT('',(0.0115,-0.106,-0.0199116524412925));
#2034=CARTESIAN_POINT('',(0.0115,-0.116,-0.0199116524412925));
#2035=CARTESIAN_POINT('',(0.0115,-0.116,-0.00141165244129248));
#2036=CARTESIAN_POINT('',(0.0115,-0.116,0.0170883475587075));
#2037=CARTESIAN_POINT('',(0.0115,-0.106,0.0170883475587075));
#2038=CARTESIAN_POINT('',(0.0115,-0.106,-0.00141165244129248));
#2039=CARTESIAN_POINT('',(1.7347234759768E-18,-0.106,0.0170883475587075));
#2040=CARTESIAN_POINT('',(-0.0135,-0.116,0.0170883475587075));
#2041=CARTESIAN_POINT('',(-0.0115,-0.116,0.0170883475587075));
#2042=CARTESIAN_POINT('',(-0.0115,-0.106,0.0170883475587075));
#2043=CARTESIAN_POINT('',(0.0135,-0.116,0.0170883475587075));
#2044=CARTESIAN_POINT('',(-0.0115,-0.106,-0.00141165244129248));
#2045=CARTESIAN_POINT('',(-0.0115,-0.116,-0.0199116524412925));
#2046=CARTESIAN_POINT('',(-0.0115,-0.116,-0.0199116524412925));
#2047=CARTESIAN_POINT('',(-0.0115,-0.106,-0.0199116524412925));
#2048=CARTESIAN_POINT('',(-0.0115,-0.106,-0.0199116524412925));
#2049=CARTESIAN_POINT('',(-0.0115,-0.106,-0.00141165244129248));
#2050=CARTESIAN_POINT('',(0.,-0.106,-0.0199116524412925));
#2051=CARTESIAN_POINT('',(0.0135,-0.116,-0.0199116524412925));
#2052=CARTESIAN_POINT('',(0.,-0.106,-0.0199116524412925));
#2053=CARTESIAN_POINT('',(-0.0135,-0.116,-0.0199116524412925));
#2054=CARTESIAN_POINT('',(0.,-0.106,0.));
#2055=CARTESIAN_POINT('',(-0.0055,-0.059,0.0137152301040415));
#2056=CARTESIAN_POINT('',(-6.66272680312965E-5,-0.025,0.0137152301040415));
#2057=CARTESIAN_POINT('',(-0.0055,-0.059,-0.00525048669745127));
#2058=CARTESIAN_POINT('',(-0.035,-0.059,-0.1325));
#2059=CARTESIAN_POINT('',(-0.057,-0.099,-0.1325));
#2060=CARTESIAN_POINT('',(-0.05975,-0.099,-0.1325));
#2061=CARTESIAN_POINT('',(-0.076,-0.019,-0.1325));
#2062=CARTESIAN_POINT('',(-0.07875,-0.019,-0.1325));
#2063=CARTESIAN_POINT('',(-0.057,-0.019,-0.1325));
#2064=CARTESIAN_POINT('',(-0.05975,-0.019,-0.1325));
#2065=CARTESIAN_POINT('',(-0.076,-0.099,-0.1325));
#2066=CARTESIAN_POINT('',(-0.07875,-0.099,-0.1325));
#2067=CARTESIAN_POINT('',(-0.0485,-0.002,-0.1325));
#2068=CARTESIAN_POINT('',(-0.0485,-0.116,-0.1325));
#2069=CARTESIAN_POINT('',(-0.0845,-0.059,-0.1325));
#2070=CARTESIAN_POINT('',(0.133868798326729,-0.109518348286053,-0.1055));
#2071=CARTESIAN_POINT('',(0.133868798326729,-0.109518348286053,-0.0905));
#2072=CARTESIAN_POINT('',(-0.0485,-0.109518348286053,-0.0905));
#2073=CARTESIAN_POINT('',(-0.0845,-0.109518348286053,-0.0905));
#2074=CARTESIAN_POINT('',(-0.0485,-0.109518348286053,-0.1055));
#2075=CARTESIAN_POINT('',(-0.0485,-0.109518348286053,-0.1205));
#2076=CARTESIAN_POINT('',(0.133868798326729,-0.109518348286053,-0.1205));
#2077=CARTESIAN_POINT('',(-0.0845,-0.109518348286053,-0.1205));
#2078=CARTESIAN_POINT('',(-0.0845,-0.109518348286053,-0.1055));
#2079=CARTESIAN_POINT('',(0.133868798326729,-0.059,-0.0905));
#2080=CARTESIAN_POINT('',(0.133868798326729,-0.00848165171394746,-0.0905));
#2081=CARTESIAN_POINT('',(-0.0485,-0.00848165171394746,-0.0905));
#2082=CARTESIAN_POINT('',(-0.0845,-0.00848165171394746,-0.0905));
#2083=CARTESIAN_POINT('',(-0.0485,-0.109518348286053,-0.0905));
#2084=CARTESIAN_POINT('',(-0.0845,-0.00848165171394746,-0.0905));
#2085=CARTESIAN_POINT('',(0.133868798326729,-0.00848165171394747,-0.1055));
#2086=CARTESIAN_POINT('',(0.133868798326729,-0.00848165171394747,-0.1205));
#2087=CARTESIAN_POINT('',(-0.0485,-0.00848165171394747,-0.1205));
#2088=CARTESIAN_POINT('',(-0.0845,-0.00848165171394747,-0.1205));
#2089=CARTESIAN_POINT('',(-0.0485,-0.00848165171394746,-0.0905));
#2090=CARTESIAN_POINT('',(-0.0845,-0.00848165171394747,-0.1205));
#2091=CARTESIAN_POINT('',(0.133868798326729,-0.059,-0.1205));
#2092=CARTESIAN_POINT('',(-0.057,-0.099,-0.1205));
#2093=CARTESIAN_POINT('',(-0.05425,-0.099,-0.1205));
#2094=CARTESIAN_POINT('',(-0.076,-0.019,-0.1205));
#2095=CARTESIAN_POINT('',(-0.07325,-0.019,-0.1205));
#2096=CARTESIAN_POINT('',(-0.057,-0.019,-0.1205));
#2097=CARTESIAN_POINT('',(-0.05425,-0.019,-0.1205));
#2098=CARTESIAN_POINT('',(-0.076,-0.099,-0.1205));
#2099=CARTESIAN_POINT('',(-0.07325,-0.099,-0.1205));
#2100=CARTESIAN_POINT('',(-0.0485,-0.059,-0.1205));
#2101=CARTESIAN_POINT('',(-0.0845,-0.059,-0.1205));
#2102=CARTESIAN_POINT('',(-0.076,-0.099,-0.1075));
#2103=CARTESIAN_POINT('',(-0.057,-0.019,-0.1075));
#2104=CARTESIAN_POINT('',(-0.076,-0.019,-0.1075));
#2105=CARTESIAN_POINT('',(-0.057,-0.099,-0.1075));
#2106=CARTESIAN_POINT('',(-0.00105126282644677,-0.025,0.006009791289927));
#2107=CARTESIAN_POINT('',(0.00339747434710646,-0.027,0.0137152301040415));
#2108=CARTESIAN_POINT('',(0.00166542353953758,-0.027,0.0107152301040415));
#2109=CARTESIAN_POINT('',(0.00166542353953758,-0.093,0.0107152301040415));
#2110=CARTESIAN_POINT('',(0.00166542353953758,-0.091,0.0107152301040415));
#2111=CARTESIAN_POINT('',(-0.00105126282644677,-0.091,0.006009791289927));
#2112=CARTESIAN_POINT('',(-0.0485,-0.111518348286053,-0.1325));
#2113=CARTESIAN_POINT('',(-0.0485,-0.111518348286053,-0.0885));
#2114=CARTESIAN_POINT('',(-0.0485,-0.111518348286053,-0.1225));
#2115=CARTESIAN_POINT('',(-0.0485,-0.059,-0.1225));
#2116=CARTESIAN_POINT('',(-0.0485,-0.00648165171394747,-0.1225));
#2117=CARTESIAN_POINT('',(-0.0485,-0.059,-0.0885));
#2118=CARTESIAN_POINT('',(-0.0485,-0.00648165171394746,-0.0885));
#2119=CARTESIAN_POINT('',(-0.0485,-0.00648165171394747,-0.1055));
#2120=CARTESIAN_POINT('',(-0.0485,-0.116,0.));
#2121=CARTESIAN_POINT('',(-0.0485,-0.116,-0.0205));
#2122=CARTESIAN_POINT('',(-0.0485,-0.002,-0.1325));
#2123=CARTESIAN_POINT('',(-0.0485,-0.002,-0.0205));
#2124=CARTESIAN_POINT('',(0.,-0.116,-0.0205));
#2125=CARTESIAN_POINT('',(0.0145,-0.116,-0.0205));
#2126=CARTESIAN_POINT('',(0.,-0.002,-0.0205));
#2127=CARTESIAN_POINT('',(0.0145,-0.002,-0.0205));
#2128=CARTESIAN_POINT('',(0.0145,-0.118,-0.0205));
#2129=CARTESIAN_POINT('',(0.0145,-0.002,-0.0205));
#2130=CARTESIAN_POINT('',(0.0145,-0.002,-0.0205));
#2131=CARTESIAN_POINT('',(0.0145,-0.002,-0.0205));
#2132=CARTESIAN_POINT('',(0.0145,-0.002,0.));
#2133=CARTESIAN_POINT('',(0.0145,-0.002,0.0205));
#2134=CARTESIAN_POINT('',(0.0145,-0.118,0.0205));
#2135=CARTESIAN_POINT('',(0.0145,-0.002,0.0205));
#2136=CARTESIAN_POINT('',(0.0145,-0.116,0.0205));
#2137=CARTESIAN_POINT('',(0.,-0.116,0.0205));
#2138=CARTESIAN_POINT('',(-0.0845,-0.116,0.0205));
#2139=CARTESIAN_POINT('',(0.0145,-0.002,0.0205));
#2140=CARTESIAN_POINT('',(0.0145,-0.002,0.0205));
#2141=CARTESIAN_POINT('',(-0.0845,-0.116,0.0205));
#2142=CARTESIAN_POINT('',(-0.0845,-0.116,0.0205));
#2143=CARTESIAN_POINT('',(-0.0845,-0.116,0.0205));
#2144=CARTESIAN_POINT('',(0.,-0.002,0.0205));
#2145=CARTESIAN_POINT('',(-0.0845,-0.002,0.0205));
#2146=CARTESIAN_POINT('',(-0.0845,-0.059,0.0205));
#2147=CARTESIAN_POINT('',(-0.0845,-0.002,0.0205));
#2148=CARTESIAN_POINT('',(-0.0845,-0.116,0.));
#2149=CARTESIAN_POINT('',(-0.0845,-0.116,-0.1305));
#2150=CARTESIAN_POINT('',(-0.0845,-0.002,0.0205));
#2151=CARTESIAN_POINT('',(-0.0845,-0.002,0.0205));
#2152=CARTESIAN_POINT('',(-0.0845,-0.059,-0.1305));
#2153=CARTESIAN_POINT('',(-0.0845,-0.002,-0.1305));
#2154=CARTESIAN_POINT('',(-0.0845,-0.002,0.));
#2155=CARTESIAN_POINT('',(-0.00512281389166357,-0.091,0.00295765797936032));
#2156=CARTESIAN_POINT('',(-6.66272680312965E-5,-0.091,0.0117152301040415));
#2157=CARTESIAN_POINT('',(-6.66272680312965E-5,-0.025,0.0117152301040415));
#2158=CARTESIAN_POINT('',(-6.66272680312963E-5,-0.027,0.0117152301040415));
#2159=CARTESIAN_POINT('',(-0.00278331363401565,-0.027,0.007009791289927));
#2160=CARTESIAN_POINT('',(0.0135,-0.116,-6.32939646640186E-19));
#2161=CARTESIAN_POINT('',(-0.0135,-0.116,-0.00141165244129248));
#2162=CARTESIAN_POINT('',(-0.0845,-0.059,-0.0885));
#2163=CARTESIAN_POINT('',(-0.0845,-0.00648165171394746,-0.0885));
#2164=CARTESIAN_POINT('',(-0.0845,-0.111518348286053,-0.0885));
#2165=CARTESIAN_POINT('',(-0.0845,-0.111518348286053,0.));
#2166=CARTESIAN_POINT('',(-0.0845,-0.111518348286053,-0.1225));
#2167=CARTESIAN_POINT('',(-0.0845,-0.00648165171394747,-0.1055));
#2168=CARTESIAN_POINT('',(-0.0845,-0.00648165171394747,-0.1225));
#2169=CARTESIAN_POINT('',(-0.0845,-0.059,-0.1225));
#2170=CARTESIAN_POINT('',(0.0145,-0.0165,3.46944695195361E-18));
#2171=CARTESIAN_POINT('',(0.0145,-0.0165,3.46944695195361E-18));
#2172=CARTESIAN_POINT('',(0.0145,-0.06,0.));
#2173=CARTESIAN_POINT('',(0.0145,-0.0995,1.04083408558608E-17));
#2174=CARTESIAN_POINT('',(0.0145,-0.0995,1.04083408558608E-17));
#2175=CARTESIAN_POINT('',(0.0145,-0.06,0.));
#2176=MECHANICAL_DESIGN_GEOMETRIC_PRESENTATION_REPRESENTATION('',(#1297),
#2177);
#2177=(
GEOMETRIC_REPRESENTATION_CONTEXT(3)
GLOBAL_UNCERTAINTY_ASSIGNED_CONTEXT((#2178))
GLOBAL_UNIT_ASSIGNED_CONTEXT((#2181,#2180,#2179))
REPRESENTATION_CONTEXT('Part 1','TOP_LEVEL_ASSEMBLY_PART')
);
#2178=UNCERTAINTY_MEASURE_WITH_UNIT(LENGTH_MEASURE(1.E-8),#2181,
'DISTANCE_ACCURACY_VALUE','Maximum Tolerance applied to model');
#2179=(
NAMED_UNIT(*)
SI_UNIT($,.STERADIAN.)
SOLID_ANGLE_UNIT()
);
#2180=(
NAMED_UNIT(*)
PLANE_ANGLE_UNIT()
SI_UNIT($,.RADIAN.)
);
#2181=(
LENGTH_UNIT()
NAMED_UNIT(*)
SI_UNIT($,.METRE.)
);
#2182=PRODUCT_DEFINITION_SHAPE('','',#2183);
#2183=PRODUCT_DEFINITION('','',#2185,#2184);
#2184=PRODUCT_DEFINITION_CONTEXT('',#2191,'design');
#2185=PRODUCT_DEFINITION_FORMATION_WITH_SPECIFIED_SOURCE('','',#2187,
 .NOT_KNOWN.);
#2186=PRODUCT_RELATED_PRODUCT_CATEGORY('','',(#2187));
#2187=PRODUCT('Part 1','Part 1','Part 1',(#2189));
#2188=PRODUCT_CATEGORY('','');
#2189=PRODUCT_CONTEXT('',#2191,'mechanical');
#2190=APPLICATION_PROTOCOL_DEFINITION('international standard',
'ap242_managed_model_based_3d_engineering',2020,#2191);
#2191=APPLICATION_CONTEXT('managed model based 3d engineering');
ENDSEC;
END-ISO-10303-21;
